<?xml version="1.0" standalone="no"?>
<!DOCTYPE svg PUBLIC "-//W3C//DTD SVG 1.1//EN" "http://www.w3.org/Graphics/SVG/1.1/DTD/svg11.dtd" >
<svg xmlns="http://www.w3.org/2000/svg">
<metadata>Generated by IcoMoon</metadata>
<defs>
<font id="ico-aura" horiz-adv-x="1024">
<font-face units-per-em="1024" ascent="960" descent="-64" />
<missing-glyph horiz-adv-x="1024" />
<glyph unicode="&#x20;" horiz-adv-x="512" d="" />
<glyph unicode="&#xe900;" glyph-name="github" horiz-adv-x="1088" d="M534.265 960c-295.028 0-534.265-234.728-534.265-524.292 0-231.644 153.084-428.175 365.363-497.5 26.701-4.851 36.504 11.373 36.504 25.222 0 12.499-0.495 53.805-0.726 97.613-148.633-31.718-179.996 61.856-179.996 61.856-24.303 60.602-59.321 76.717-59.321 76.717-48.474 32.538 3.654 31.872 3.654 31.872 53.649-3.699 81.898-54.029 81.898-54.029 47.651-80.154 124.985-56.979 155.472-43.584 4.796 33.888 18.641 57.018 33.921 70.106-118.668 13.261-243.414 58.214-243.414 259.11 0 57.241 20.871 104.012 55.048 140.728-5.548 13.206-23.834 66.531 5.176 138.748 0 0 44.864 14.091 146.961-53.742 42.617 11.617 88.322 17.443 133.725 17.642 45.404-0.2 91.144-6.026 133.844-17.642 101.971 67.833 146.771 53.742 146.771 53.742 29.082-72.218 10.784-125.542 5.242-138.748 34.253-36.716 54.982-83.487 54.982-140.728 0-201.369-124.986-245.708-243.953-258.687 19.165-16.275 36.241-48.179 36.241-97.094 0-70.15-0.621-126.611-0.621-143.878 0-13.952 9.613-30.304 36.698-25.152 212.166 69.402 365.056 265.862 365.056 497.429 0 289.564-239.206 524.292-534.26 524.292zM200.1 213.133c-1.177-2.605-5.353-3.386-9.157-1.594-3.875 1.709-6.051 5.261-4.795 7.872 1.15 2.682 5.334 3.43 9.201 1.632 3.884-1.709 6.096-5.293 4.751-7.91zM226.38 190.125c-2.548-2.317-7.529-1.242-10.909 2.419-3.494 3.654-4.149 8.544-1.565 10.899 2.627 2.317 7.458 1.229 10.961-2.426 3.495-3.699 4.176-8.55 1.513-10.893zM244.409 160.678c-3.274-2.227-8.627-0.134-11.935 4.525-3.274 4.666-3.274 10.253 0.071 12.493 3.318 2.24 8.591 0.224 11.944-4.403 3.265-4.736 3.265-10.33-0.079-12.614zM274.9 126.579c-2.929-3.168-9.166-2.317-13.731 2.010-4.671 4.224-5.972 10.227-3.034 13.395 2.964 3.181 9.236 2.285 13.837-2.003 4.636-4.224 6.051-10.266 2.929-13.402zM314.306 115.072c-1.292-4.109-7.299-5.978-13.35-4.23-6.042 1.798-9.997 6.611-8.776 10.758 1.256 4.134 7.29 6.080 13.386 4.211 6.034-1.792 9.997-6.566 8.741-10.739zM359.153 110.189c0.15-4.326-4.981-7.91-11.334-7.987-6.387-0.141-11.554 3.36-11.625 7.616 0 4.365 5.016 7.917 11.404 8.019 6.352 0.122 11.555-3.354 11.555-7.648zM403.209 111.846c0.761-4.218-3.654-8.55-9.962-9.709-6.202-1.107-11.944 1.498-12.731 5.677-0.77 4.326 3.725 8.659 9.917 9.779 6.317 1.075 11.971-1.459 12.776-5.747z" />
<glyph unicode="&#xe901;" glyph-name="twitter" horiz-adv-x="1344" d="M442.061-59.738c471.961 0 730.060 390.693 730.060 729.491 0 11.097-0.224 22.144-0.723 33.14 50.099 36.191 93.645 81.353 127.994 132.765-45.978-20.42-95.45-34.166-147.354-40.364 52.979 31.741 93.645 81.953 112.832 141.81-49.574-29.367-104.474-50.711-162.931-62.235-46.822 49.835-113.485 81.005-187.296 81.005-141.696 0-256.602-114.821-256.602-256.354 0-20.12 2.246-39.69 6.65-58.461-213.255 10.722-402.355 112.745-528.911 267.878-22.036-37.889-34.742-81.903-34.742-128.865 0-88.951 45.299-167.478 114.184-213.417-42.097 1.299-81.644 12.847-116.207 32.067-0.038-1.076-0.038-2.125-0.038-3.274 0-124.168 88.446-227.839 205.853-251.331-21.561-5.873-44.246-9.023-67.66-9.023-16.508 0-32.592 1.624-48.225 4.623 32.666-101.868 127.391-176.006 239.695-178.073-87.82-68.781-198.45-109.747-318.686-109.747-20.685 0-41.121 1.171-61.205 3.546 113.559-72.73 248.4-115.168 393.326-115.168z" />
<glyph unicode="&#xe902;" glyph-name="facebook" horiz-adv-x="1088" d="M797.824 388.349l28.742 183.923h-179.821v119.354c0 50.317 25.12 99.364 105.664 99.364h81.76v156.583c0 0-74.202 12.427-145.139 12.427-148.105 0-244.903-88.084-244.903-247.549v-140.179h-164.627v-183.923h164.627v-444.618c33.010-5.082 66.844-7.731 101.309-7.731s68.299 2.65 101.309 7.731v444.618h151.078z" />
<glyph unicode="&#xe903;" glyph-name="email" horiz-adv-x="1088" d="M919.501 768h-768.001c-16.974 0-33.252-6.743-45.255-18.745s-18.745-28.281-18.745-45.255v-512c0-16.973 6.742-33.254 18.745-45.254s28.281-18.746 45.255-18.746h768.001c16.973 0 33.254 6.746 45.254 18.746s18.746 28.282 18.746 45.254v512c0 16.974-6.746 33.252-18.746 45.255s-28.282 18.745-45.254 18.745zM849.101 704l-313.601-216.96-313.6 216.96h627.201zM151.5 192v482.88l365.76-253.12c5.357-3.716 11.72-5.708 18.24-5.708s12.883 1.992 18.24 5.708l365.761 253.12v-482.88h-768.001z" />
<glyph unicode="&#xe904;" glyph-name="arrow-up" d="M714.019 537.21c15.984 17.315 14.906 44.307-2.41 60.291l-149.331 137.845c-16.346 15.087-41.536 15.087-57.882 0l-149.334-137.846c-17.315-15.984-18.394-42.976-2.413-60.291 15.984-17.315 42.976-18.397 60.291-2.413l77.731 71.747v-414.55c0-23.562 19.101-42.666 42.666-42.666s42.666 19.104 42.666 42.666v414.55l77.725-71.747c17.315-15.984 44.31-14.902 60.291 2.413z" />
<glyph unicode="&#xe905;" glyph-name="burger" d="M213.333 618.667c-23.564 0-42.667-19.103-42.667-42.667s19.103-42.667 42.667-42.667h597.333c23.565 0 42.667 19.103 42.667 42.667s-19.102 42.667-42.667 42.667h-597.333zM213.333 362.667c-23.564 0-42.667-19.102-42.667-42.667s19.103-42.667 42.667-42.667h597.333c23.565 0 42.667 19.102 42.667 42.667s-19.102 42.667-42.667 42.667h-597.333z" />
<glyph unicode="&#xe906;" glyph-name="chevron-down" d="M942.808 674.008c-39.99 39.99-104.826 39.99-144.816 0l-285.992-285.993-285.992 285.993c-39.99 39.99-104.826 39.99-144.816 0s-39.99-104.826 0-144.816l358.4-358.4c39.99-39.989 104.826-39.989 144.816 0l358.4 358.4c39.989 39.99 39.989 104.826 0 144.816z" />
<glyph unicode="&#xe907;" glyph-name="chevron-up" d="M81.192 221.992c39.99-39.989 104.826-39.989 144.816 0l285.992 285.993 285.992-285.993c39.99-39.989 104.826-39.989 144.816 0s39.989 104.826 0 144.816l-358.4 358.4c-39.99 39.99-104.826 39.99-144.816 0l-358.4-358.4c-39.99-39.99-39.99-104.826 0-144.816z" />
<glyph unicode="&#xe908;" glyph-name="close" d="M225.83 734.17c16.663 16.662 43.677 16.662 60.34 0l225.83-225.831 225.83 225.831c16.661 16.662 43.678 16.662 60.339 0s16.661-43.677 0-60.34l-225.83-225.83 225.83-225.83c16.661-16.661 16.661-43.678 0-60.339s-43.678-16.661-60.339 0l-225.83 225.83-225.83-225.83c-16.663-16.661-43.677-16.661-60.34 0s-16.662 43.678 0 60.339l225.831 225.83-225.831 225.83c-16.662 16.663-16.662 43.677 0 60.34z" />
<glyph unicode="&#xe909;" glyph-name="arrow-right" d="M664.937 757.745c29.683 27.4 75.956 25.549 103.355-4.134l236.31-255.997c25.863-28.018 25.863-71.205 0-99.223l-236.31-256.003c-27.399-29.684-73.672-31.534-103.355-4.135s-31.534 73.674-4.135 103.357l122.996 133.249h-710.656c-40.396 0-73.143 32.748-73.143 73.143s32.747 73.143 73.143 73.143h710.656l-122.995 133.243c-27.4 29.683-25.549 75.957 4.133 103.357z" />
<glyph unicode="&#xe90a;" glyph-name="arrow-left" d="M359.063 757.745c-29.683 27.4-75.957 25.549-103.357-4.134l-236.308-255.997c-25.863-28.018-25.863-71.205-0.001-99.223l236.308-256.003c27.399-29.684 73.674-31.534 103.357-4.135s31.534 73.674 4.135 103.357l-122.998 133.249h710.658c40.397 0 73.143 32.748 73.143 73.143s-32.746 73.143-73.143 73.143h-710.656l122.995 133.243c27.4 29.683 25.549 75.957-4.133 103.357z" />
<glyph unicode="&#xe90b;" glyph-name="block" d="M203.331 405.334c-21.518 0-39.668-16.022-42.337-37.373l-21.333-170.669c-3.183-25.466 16.673-47.958 42.337-47.958h233.337c25.664 0 45.523 22.493 42.339 47.958l-21.334 170.669c-2.669 21.35-20.819 37.373-42.336 37.373h-190.673zM76.319 378.544c8.007 64.054 62.458 112.125 127.012 112.125h190.673c64.554 0 119.005-48.070 127.011-112.125l21.334-170.666c9.549-76.397-50.022-143.878-127.014-143.878h-233.337c-76.992 0-136.561 67.482-127.012 143.878l21.333 170.666zM629.997 405.334c-21.517 0-39.667-16.022-42.336-37.373l-21.334-170.669c-3.184-25.466 16.672-47.958 42.336-47.958h233.341c25.664 0 45.52 22.493 42.336 47.958l-21.334 170.669c-2.669 21.35-20.819 37.373-42.336 37.373h-190.672zM502.986 378.544c8.006 64.054 62.458 112.125 127.011 112.125h190.672c64.554 0 119.005-48.070 127.011-112.125l21.334-170.666c9.549-76.397-50.019-143.878-127.011-143.878h-233.341c-76.989 0-136.56 67.482-127.011 143.878l21.334 170.666zM416.666 746.667c-21.52 0-39.67-16.023-42.339-37.374l-21.331-170.668c-3.184-25.466 16.672-47.958 42.336-47.958h233.338c25.664 0 45.52 22.493 42.339 47.958l-21.334 170.668c-2.669 21.352-20.819 37.374-42.336 37.374h-190.672zM289.652 719.876c8.007 64.055 62.46 112.124 127.013 112.124h190.672c64.55 0 119.002-48.069 127.011-112.124l21.331-170.667c9.552-76.397-50.019-143.875-127.011-143.875h-233.338c-76.992 0-136.562 67.478-127.012 143.875l21.333 170.667z" />
<glyph unicode="&#xe90c;" glyph-name="grid" d="M746.667 320c19.294 0 46.554-2.667 74.931-6.554 13.257-1.818 23.364-11.925 25.182-25.182 3.887-28.378 6.554-55.637 6.554-74.931s-2.667-46.554-6.554-74.931c-1.818-13.257-11.925-23.364-25.182-25.182-28.378-3.887-55.637-6.554-74.931-6.554s-46.554 2.667-74.931 6.554c-13.257 1.818-23.364 11.925-25.182 25.182-3.887 28.378-6.554 55.637-6.554 74.931s2.667 46.554 6.554 74.931c1.818 13.257 11.925 23.364 25.182 25.182 28.378 3.887 55.637 6.554 74.931 6.554zM660.156 397.99c-51.196-7.010-91.136-46.95-98.146-98.146-4.023-29.363-7.343-61.261-7.343-86.511s3.319-57.148 7.343-86.511c7.010-51.196 46.95-91.136 98.146-98.146 29.363-4.023 61.261-7.343 86.511-7.343s57.148 3.319 86.511 7.343c51.196 7.010 91.136 46.95 98.146 98.146 4.023 29.363 7.343 61.261 7.343 86.511s-3.319 57.148-7.343 86.511c-7.010 51.196-46.95 91.136-98.146 98.146-29.363 4.023-61.261 7.343-86.511 7.343s-57.148-3.319-86.511-7.343zM277.333 320c19.293 0 46.552-2.667 74.931-6.554 13.258-1.818 23.367-11.925 25.183-25.182 3.887-28.378 6.553-55.637 6.553-74.931s-2.667-46.554-6.553-74.931c-1.816-13.257-11.925-23.364-25.183-25.182-28.378-3.887-55.638-6.554-74.931-6.554s-46.552 2.667-74.931 6.554c-13.258 1.818-23.367 11.925-25.183 25.182-3.887 28.378-6.553 55.637-6.553 74.931s2.667 46.554 6.553 74.931c1.816 13.257 11.925 23.364 25.183 25.182 28.378 3.887 55.638 6.554 74.931 6.554zM190.824 397.99c-51.196-7.010-91.137-46.95-98.148-98.146-4.021-29.363-7.343-61.261-7.343-86.511s3.321-57.148 7.343-86.511c7.011-51.196 46.952-91.136 98.148-98.146 29.364-4.023 61.257-7.343 86.509-7.343s57.146 3.319 86.509 7.343c51.196 7.010 91.138 46.95 98.148 98.146 4.023 29.363 7.343 61.261 7.343 86.511s-3.319 57.148-7.343 86.511c-7.010 51.196-46.952 91.136-98.148 98.146-29.364 4.023-61.257 7.343-86.509 7.343s-57.146-3.319-86.509-7.343zM746.667 789.333c19.294 0 46.554-2.667 74.931-6.553 13.257-1.816 23.364-11.925 25.182-25.183 3.887-28.378 6.554-55.638 6.554-74.931s-2.667-46.552-6.554-74.931c-1.818-13.258-11.925-23.367-25.182-25.183-28.378-3.887-55.637-6.553-74.931-6.553s-46.554 2.667-74.931 6.553c-13.257 1.816-23.364 11.925-25.182 25.183-3.887 28.378-6.554 55.638-6.554 74.931s2.667 46.552 6.554 74.931c1.818 13.258 11.925 23.367 25.182 25.183 28.378 3.887 55.637 6.553 74.931 6.553zM660.156 867.324c-51.196-7.011-91.136-46.952-98.146-98.148-4.023-29.364-7.343-61.257-7.343-86.509s3.319-57.146 7.343-86.509c7.010-51.196 46.95-91.138 98.146-98.148 29.363-4.023 61.261-7.343 86.511-7.343s57.148 3.319 86.511 7.343c51.196 7.010 91.136 46.952 98.146 98.148 4.023 29.364 7.343 61.257 7.343 86.509s-3.319 57.146-7.343 86.509c-7.010 51.196-46.95 91.137-98.146 98.148-29.363 4.021-61.261 7.343-86.511 7.343s-57.148-3.321-86.511-7.343zM277.333 789.333c19.293 0 46.552-2.667 74.931-6.553 13.258-1.816 23.367-11.925 25.183-25.183 3.887-28.378 6.553-55.638 6.553-74.931s-2.667-46.552-6.553-74.931c-1.816-13.258-11.925-23.367-25.183-25.183-28.378-3.887-55.638-6.553-74.931-6.553s-46.552 2.667-74.931 6.553c-13.258 1.816-23.367 11.925-25.183 25.183-3.887 28.378-6.553 55.638-6.553 74.931s2.667 46.552 6.553 74.931c1.816 13.258 11.925 23.367 25.183 25.183 28.378 3.887 55.638 6.553 74.931 6.553zM190.824 867.324c-51.196-7.011-91.137-46.952-98.148-98.148-4.021-29.364-7.343-61.257-7.343-86.509s3.321-57.146 7.343-86.509c7.011-51.196 46.952-91.138 98.148-98.148 29.364-4.023 61.257-7.343 86.509-7.343s57.146 3.319 86.509 7.343c51.196 7.010 91.138 46.952 98.148 98.148 4.023 29.364 7.343 61.257 7.343 86.509s-3.319 57.146-7.343 86.509c-7.010 51.196-46.952 91.137-98.148 98.148-29.364 4.021-61.257 7.343-86.509 7.343s-57.146-3.321-86.509-7.343z" />
<glyph unicode="&#xe90d;" glyph-name="archive" d="M810.666 533.334v-341.334c0-47.126-38.205-85.331-85.331-85.331h-426.668c-47.128 0-85.333 38.205-85.333 85.331v341.334h597.332zM128 618.669v-426.669c0-94.256 76.41-170.666 170.667-170.666h426.668c94.256 0 170.666 76.41 170.666 170.666v426.669h-768zM384 405.334c0 23.562 19.104 42.666 42.666 42.666h170.669c23.562 0 42.666-19.104 42.666-42.666 0-23.565-19.104-42.669-42.666-42.669h-170.669c-23.562 0-42.666 19.104-42.666 42.669zM810.666 789.335c23.565 0 42.669-19.103 42.669-42.667v-85.333c0-23.565-19.104-42.666-42.669-42.666h-597.332c-23.564 0-42.667 19.101-42.667 42.666v85.333c0 23.564 19.103 42.667 42.667 42.667h597.332zM213.333 874.668c-70.692 0-128-57.308-128-128v-85.333c0-70.692 57.308-128 128-128h597.332c70.694 0 128 57.309 128 128v85.333c0 70.692-57.306 128-128 128h-597.332z" />
<glyph unicode="&#xe90e;" glyph-name="collab" d="M688.034 482.133c-97.903 0-184.533 78.919-184.533 179.198 0 100.277 86.635 179.2 184.533 179.2s184.533-78.923 184.533-179.2c0-100.279-86.63-179.198-184.533-179.198zM688.034 547.554c62.387 0 117.333 50.326 117.333 113.778s-54.946 113.778-117.333 113.778c-62.387 0-117.333-50.326-117.333-113.778s54.946-113.778 117.333-113.778zM434.274 393.894c-9.831-8.674-19.18-17.89-27.8-28.002-40.623-47.625-61.908-104.41-61.908-159.671v-0.158c-0.218-11.836 1.676-22.921 4.896-33.638 4.539-15.117-5.496-31.625-21.278-31.625h-226.818c-20.813 0-37.999 5.035-49.948 16.623-11.998 11.631-17.252 28.446-17.252 48.798 0 30.562 15.451 89.451 60.806 140.762 45.701 51.703 121.404 95.326 241.049 95.326 37.762 0 67.619-4.642 90.237-9.766 17.291-3.921 21.306-26.918 8.015-38.647zM331.34 376.887c-97.856-1.139-153.414-36.407-185.387-72.589-35.024-39.484-44.587-83.23-44.587-98.078h176c0 59.447 18.949 118.669 53.973 170.667zM453.257 140.8h-0.192l-0.631 0.017c-0.529 0.017-1.263 0.051-2.176 0.115-1.826 0.124-4.378 0.371-7.42 0.866-6.042 0.973-14.229 2.944-22.527 6.967-8.325 4.036-16.947 10.236-23.476 19.733-6.575 9.562-10.668 21.952-10.668 37.722 0 30.562 15.451 89.451 60.805 140.762 45.705 51.703 121.408 95.326 241.062 95.326 119.65 0 195.358-43.622 241.058-95.326 45.355-51.311 60.809-110.199 60.809-140.762 0-15.77-4.096-28.16-10.671-37.722-6.528-9.498-15.151-15.697-23.475-19.733-8.294-4.023-16.486-5.995-22.528-6.967-3.038-0.495-5.594-0.742-7.415-0.866l-472.555-0.132zM922.701 206.447c-0.119 15.019-9.796 58.598-44.587 97.852-32.384 36.804-89.293 72.589-190.080 72.589-100.732 0-157.636-35.84-190.080-72.589-34.79-39.253-44.527-82.889-44.587-97.852h469.333zM122.167 632.886c0-100.278 86.636-179.198 184.533-179.198s184.534 78.921 184.534 179.198c0 100.277-86.636 179.2-184.534 179.2s-184.533-78.923-184.533-179.2zM189.367 632.886c0 63.452 54.946 113.778 117.333 113.778s117.333-50.326 117.333-113.778c0-63.452-54.946-113.778-117.333-113.778s-117.333 50.326-117.333 113.778z" />
<glyph unicode="&#xe90f;" glyph-name="file-document" d="M128 746.667v-597.333c0-94.255 76.41-170.667 170.667-170.667h426.667c94.255 0 170.667 76.412 170.667 170.667v526.641c0 45.263-17.98 88.673-49.988 120.679l-70.69 70.693c-32.009 32.006-75.418 49.987-120.683 49.987h-355.972c-94.257 0-170.667-76.41-170.667-170.667zM810.667 618.667v-469.333c0-47.13-38.204-85.333-85.333-85.333h-426.667c-47.128 0-85.333 38.204-85.333 85.333v597.333c0 47.128 38.205 85.333 85.333 85.333h298.667v-85.333c0-70.692 57.306-128 128-128h85.333zM805.935 704h-80.602c-23.565 0-42.667 19.103-42.667 42.667v80.6c12.049-4.19 23.121-11.068 32.316-20.26l70.69-70.692c9.19-9.192 16.073-20.265 20.262-32.314zM384 448c-23.564 0-42.667-19.102-42.667-42.667s19.102-42.667 42.667-42.667h256c23.565 0 42.667 19.102 42.667 42.667s-19.102 42.667-42.667 42.667h-256zM384 277.333c-23.564 0-42.667-19.102-42.667-42.667s19.102-42.667 42.667-42.667h128c23.565 0 42.667 19.102 42.667 42.667s-19.102 42.667-42.667 42.667h-128z" />
<glyph unicode="&#xe910;" glyph-name="user" d="M682.667 661.333c0-94.257-76.412-170.667-170.667-170.667-94.257 0-170.667 76.41-170.667 170.667s76.41 170.667 170.667 170.667c94.255 0 170.667-76.41 170.667-170.667zM667.435 457.907c61.137 46.784 100.565 120.5 100.565 203.426 0 141.385-114.615 256-256 256s-256-114.615-256-256c0-82.927 39.43-156.642 100.564-203.426-134.64-59.674-228.564-194.487-228.564-351.241v-85.333c0-23.565 19.103-42.667 42.667-42.667s42.667 19.102 42.667 42.667v85.333c0 164.949 133.718 298.667 298.667 298.667s298.667-133.717 298.667-298.667v-85.333c0-23.565 19.102-42.667 42.667-42.667s42.667 19.102 42.667 42.667v85.333c0 156.753-93.922 291.567-228.565 351.241z" />
<glyph unicode="&#xe911;" glyph-name="coin" d="M512 106.667c-188.513 0-341.333 152.819-341.333 341.333s152.82 341.333 341.333 341.333c188.514 0 341.333-152.82 341.333-341.333s-152.819-341.333-341.333-341.333zM512 21.333c235.639 0 426.667 191.027 426.667 426.667 0 235.642-191.027 426.667-426.667 426.667-235.642 0-426.667-191.025-426.667-426.667 0-235.639 191.025-426.667 426.667-426.667zM469.333 661.333c0 23.564 19.102 42.667 42.667 42.667s42.667-19.103 42.667-42.667c70.694 0 128-57.308 128-128 0-23.565-19.102-42.667-42.667-42.667s-42.667 19.102-42.667 42.667c0 23.564-19.102 42.667-42.667 42.667h-96.282c-17.519 0-31.718-14.201-31.718-31.719 0-13.652 8.738-25.774 21.687-30.092l154.274-51.422c47.799-15.936 80.038-60.663 80.038-111.049 0-64.644-52.407-117.052-117.052-117.052h-10.948c0-23.565-19.102-42.667-42.667-42.667s-42.667 19.102-42.667 42.667c-70.692 0-128 57.306-128 128 0 23.565 19.102 42.667 42.667 42.667s42.667-19.102 42.667-42.667c0-23.565 19.102-42.667 42.667-42.667h96.282c17.519 0 31.718 14.199 31.718 31.718 0 13.653-8.738 25.775-21.687 30.093l-154.275 51.422c-47.797 15.936-80.037 60.663-80.037 111.048 0 64.646 52.406 117.053 117.052 117.053h10.948z" />
<glyph unicode="&#xe912;" glyph-name="credit-card" d="M341.333 298.667c0-35.345-28.654-64-64-64s-64 28.655-64 64c0 35.345 28.654 64 64 64s64-28.655 64-64zM554.667 298.667c0-35.345-28.655-64-64-64s-64 28.655-64 64c0 35.345 28.655 64 64 64s64-28.655 64-64zM170.667 746.667c-23.564 0-42.667-19.103-42.667-42.667v-85.333h768v85.333c0 23.564-19.102 42.667-42.667 42.667h-682.667zM128 533.333v-341.333c0-23.565 19.103-42.667 42.667-42.667h682.667c23.565 0 42.667 19.102 42.667 42.667v341.333h-768zM42.667 704c0 70.692 57.308 128 128 128h682.667c70.694 0 128-57.308 128-128v-512c0-70.694-57.306-128-128-128h-682.667c-70.692 0-128 57.306-128 128v512z" />
<glyph unicode="&#xe913;" glyph-name="download" d="M853.333 234.667c23.565 0 42.667-19.102 42.667-42.667s-19.102-42.667-42.667-42.667h-682.667c-23.564 0-42.667 19.102-42.667 42.667s19.103 42.667 42.667 42.667h682.667zM170.667 320c-70.692 0-128-57.306-128-128s57.308-128 128-128h682.667c70.694 0 128 57.306 128 128s-57.306 128-128 128h-682.667zM554.667 789.333c0 23.564-19.102 42.667-42.667 42.667s-42.667-19.103-42.667-42.667v-238.327l-55.163 55.164c-16.663 16.662-43.677 16.662-60.34 0s-16.662-43.677 0-60.34l128-128c16.661-16.661 43.678-16.661 60.339 0l128 128c16.661 16.663 16.661 43.677 0 60.34s-43.678 16.662-60.339 0l-55.164-55.164v238.327z" />
<glyph unicode="&#xe914;" glyph-name="plus-circle" d="M512 106.667c-188.513 0-341.333 152.819-341.333 341.333s152.82 341.333 341.333 341.333c188.514 0 341.333-152.82 341.333-341.333s-152.819-341.333-341.333-341.333zM512 21.333c235.639 0 426.667 191.027 426.667 426.667 0 235.642-191.027 426.667-426.667 426.667-235.642 0-426.667-191.025-426.667-426.667 0-235.639 191.025-426.667 426.667-426.667zM512 704c23.565 0 42.667-19.103 42.667-42.667v-426.667c0-23.565-19.102-42.667-42.667-42.667s-42.667 19.102-42.667 42.667v426.667c0 23.564 19.102 42.667 42.667 42.667zM256 448c0 23.565 19.103 42.667 42.667 42.667h426.667c23.565 0 42.667-19.102 42.667-42.667s-19.102-42.667-42.667-42.667h-426.667c-23.564 0-42.667 19.102-42.667 42.667z" />
<glyph unicode="&#xe915;" glyph-name="minus-circle" d="M512 106.667c-188.513 0-341.333 152.819-341.333 341.333s152.82 341.333 341.333 341.333c188.514 0 341.333-152.82 341.333-341.333s-152.819-341.333-341.333-341.333zM512 21.333c235.639 0 426.667 191.027 426.667 426.667 0 235.642-191.027 426.667-426.667 426.667-235.642 0-426.667-191.025-426.667-426.667 0-235.639 191.025-426.667 426.667-426.667zM256 448c0 23.565 19.103 42.667 42.667 42.667h426.667c23.565 0 42.667-19.102 42.667-42.667s-19.102-42.667-42.667-42.667h-426.667c-23.564 0-42.667 19.102-42.667 42.667z" />
<glyph unicode="&#xe916;" glyph-name="dot" horiz-adv-x="1152" d="M1100.813 448c0-282.77-229.23-512-512-512s-512 229.23-512 512c0 282.77 229.23 512 512 512s512-229.23 512-512z" />
</font>
</defs>
</svg>
