<svg width="32" height="32" viewBox="0 0 32 32" fill="none" xmlns="http://www.w3.org/2000/svg">
<mask id="mask0_6047_6476" style="mask-type:luminance" maskUnits="userSpaceOnUse" x="0" y="0" width="32" height="32">
<path d="M26.24 0H5.76C2.57884 0 0 2.57884 0 5.76V26.24C0 29.4212 2.57884 32 5.76 32H26.24C29.4212 32 32 29.4212 32 26.24V5.76C32 2.57884 29.4212 0 26.24 0Z" fill="white"/>
</mask>
<g mask="url(#mask0_6047_6476)">
<mask id="mask1_6047_6476" style="mask-type:luminance" maskUnits="userSpaceOnUse" x="0" y="0" width="32" height="22">
<path d="M31.3567 0.715576H0.636719V21.1956H31.3567V0.715576Z" fill="white"/>
</mask>
<g mask="url(#mask1_6047_6476)">
<path d="M28.3155 14.8502C28.3155 19.3606 22.9509 21.1934 16.2899 21.1934C9.62896 21.1934 4.18622 19.3606 4.18622 14.8502C4.18622 10.3398 9.58993 6.69006 16.2509 6.69006C22.9118 6.69006 28.3155 10.3478 28.3155 14.8502Z" fill="#4BAF74"/>
<path d="M27.0914 5.03036C27.0914 2.65564 25.2017 0.727173 22.8747 0.727173C21.5628 0.727173 20.3915 1.34078 19.6184 2.29704C18.5642 2.05798 17.4397 1.9225 16.2762 1.9225C15.1127 1.9225 13.9882 2.05001 12.934 2.29704C12.1531 1.34078 10.9818 0.727173 9.6777 0.727173C7.35069 0.727173 5.46094 2.65564 5.46094 5.03036C5.46094 5.81132 5.66399 6.53647 6.01535 7.16601C5.67957 7.89915 5.49997 8.68011 5.49997 9.49291C5.49997 13.6766 10.3259 17.0634 16.2762 17.0634C22.2266 17.0634 27.0524 13.6766 27.0524 9.49291C27.0524 8.68011 26.8728 7.89915 26.537 7.16601C26.8884 6.53647 27.0914 5.81132 27.0914 5.03036Z" fill="#32DA6D"/>
<path d="M9.33865 7.42424C10.7618 7.42424 11.9155 6.24688 11.9155 4.79451C11.9155 3.34216 10.7618 2.16479 9.33865 2.16479C7.91547 2.16479 6.76172 3.34216 6.76172 4.79451C6.76172 6.24688 7.91547 7.42424 9.33865 7.42424Z" fill="white"/>
<path d="M23.0886 7.42424C24.5118 7.42424 25.6655 6.24688 25.6655 4.79451C25.6655 3.34216 24.5118 2.16479 23.0886 2.16479C21.6654 2.16479 20.5117 3.34216 20.5117 4.79451C20.5117 6.24688 21.6654 7.42424 23.0886 7.42424Z" fill="white"/>
<path d="M7.96237 20.8836C8.51679 20.8836 8.9541 20.3895 8.89161 19.8317C8.66514 17.8555 7.70466 13.5762 3.48008 11.0022C-2.14229 7.57559 2.30875 19.3695 2.30875 19.3695L1.14523 20.0549C0.754794 20.2859 0.918777 20.8836 1.36388 20.8836H7.96237Z" fill="#32DA6D"/>
<path d="M24.7404 20.8835C24.2406 20.8835 23.8502 20.3894 23.9048 19.8316C24.1001 17.8633 24.9746 13.576 28.7854 11.0021C33.8689 7.57547 29.8474 19.3694 29.8474 19.3694L30.9015 20.0547C31.2529 20.2858 31.1046 20.8835 30.7063 20.8835H24.7404Z" fill="#32DA6D"/>
<path d="M9.34227 5.25863C9.60101 5.25863 9.81078 5.04457 9.81078 4.7805C9.81078 4.51643 9.60101 4.30237 9.34227 4.30237C9.08349 4.30237 8.87372 4.51643 8.87372 4.7805C8.87372 5.04457 9.08349 5.25863 9.34227 5.25863Z" fill="#0D0D0D"/>
<path d="M23.0805 5.25875C23.3393 5.25875 23.5491 5.04469 23.5491 4.78062C23.5491 4.51655 23.3393 4.30249 23.0805 4.30249C22.8218 4.30249 22.612 4.51655 22.612 4.78062C22.612 5.04469 22.8218 5.25875 23.0805 5.25875Z" fill="#0D0D0D"/>
</g>
<path d="M32 23.2944H0V35.6174H32V23.2944Z" fill="#AC4BFF"/>
</g>
</svg>
