<svg width="24" height="24" viewBox="0 0 24 24" fill="none" xmlns="http://www.w3.org/2000/svg">
<path d="M15.31 8.69023C18.1106 11.4938 18.0722 15.9886 15.3268 18.7491C15.3217 18.7548 15.3156 18.7609 15.31 18.7665L12.16 21.9165C9.38168 24.6948 4.86157 24.6944 2.08371 21.9165C-0.69457 19.1387 -0.69457 14.618 2.08371 11.8402L3.82305 10.1009C4.2843 9.63963 5.07865 9.9462 5.10246 10.598C5.13284 11.4288 5.28181 12.2634 5.55668 13.0693C5.64977 13.3422 5.58326 13.6441 5.37935 13.848L4.7659 14.4615C3.45218 15.7752 3.41098 17.9143 4.71176 19.2409C6.02538 20.5805 8.18454 20.5885 9.50824 19.2648L12.6582 16.1152C13.9797 14.7938 13.9742 12.6579 12.6582 11.3419C12.4848 11.1688 12.31 11.0343 12.1735 10.9403C11.9777 10.8058 11.857 10.5867 11.8479 10.3494C11.8293 9.85404 12.0048 9.34362 12.3962 8.95221L13.3831 7.96526C13.6419 7.70646 14.0479 7.67468 14.348 7.88412C14.6917 8.12409 15.0136 8.39384 15.31 8.69023V8.69023ZM21.9163 2.08357C19.1384 -0.694336 14.6183 -0.694711 11.84 2.08357L8.69004 5.23357C8.68441 5.2392 8.67832 5.24529 8.67316 5.25091C5.92788 8.01148 5.8894 12.5063 8.69004 15.3098V15.3098C8.98642 15.6062 9.3083 15.8759 9.65196 16.1159C9.95205 16.3253 10.3581 16.2935 10.6168 16.0347L11.6037 15.0478C11.9951 14.6564 12.1706 14.146 12.1521 13.6506C12.143 13.4133 12.0223 13.1942 11.8264 13.0597C11.6899 12.9657 11.5152 12.8312 11.3417 12.6581C10.0258 11.3421 10.0203 9.20623 11.3417 7.88477L14.4917 4.73524C15.8154 3.41154 17.9745 3.41951 19.2882 4.75915C20.589 6.08571 20.5478 8.2248 19.2341 9.53852L18.6206 10.152C18.4167 10.3559 18.3502 10.6578 18.4433 10.9307C18.7181 11.7366 18.8671 12.5712 18.8975 13.402C18.9214 14.0538 19.7156 14.3604 20.1769 13.8991L21.9162 12.1598C24.6946 9.38201 24.6946 4.86138 21.9163 2.08357V2.08357Z" fill="#141416"/>
</svg>
