<svg width="24" height="20" viewBox="0 0 24 20" fill="none" xmlns="http://www.w3.org/2000/svg">
<path d="M22.8 0.000427246H6V0.000427246C5.33726 0.000427275 4.8 0.537686 4.8 1.20043V4.80043H10.8V2.40043H18V14.4004H22.8C23.4627 14.4004 24 13.8632 24 13.2004V1.20043C24 0.537686 23.4627 0.000427246 22.8 0.000427246ZM8.7 3.86293C8.7 4.04932 8.5489 4.20043 8.3625 4.20043H7.2375C7.0511 4.20043 6.9 4.04932 6.9 3.86293V2.73793C6.9 2.55153 7.0511 2.40043 7.2375 2.40043H8.3625C8.5489 2.40043 8.7 2.55153 8.7 2.73793V3.86293ZM21.9 11.6629C21.9 11.8493 21.7489 12.0004 21.5625 12.0004H20.4375C20.2511 12.0004 20.1 11.8493 20.1 11.6629V10.5379C20.1 10.3515 20.2511 10.2004 20.4375 10.2004H21.5625C21.7489 10.2004 21.9 10.3515 21.9 10.5379V11.6629ZM21.9 7.76293C21.9 7.94932 21.7489 8.10043 21.5625 8.10043H20.4375C20.2511 8.10043 20.1 7.94932 20.1 7.76293V6.63793C20.1 6.45153 20.2511 6.30043 20.4375 6.30043H21.5625C21.7489 6.30043 21.9 6.45153 21.9 6.63793V7.76293ZM21.9 3.86293C21.9 4.04932 21.7489 4.20043 21.5625 4.20043H20.4375C20.2511 4.20043 20.1 4.04932 20.1 3.86293V2.73793C20.1 2.55153 20.2511 2.40043 20.4375 2.40043H21.5625C21.7489 2.40043 21.9 2.55153 21.9 2.73793V3.86293ZM15.6 6.00043H1.2C0.537259 6.00043 0 6.53769 0 7.20043V18.0004H0C1.00071e-07 18.6632 0.537259 19.2004 1.2 19.2004H15.6C16.2627 19.2004 16.8 18.6632 16.8 18.0004V7.20043C16.8 6.53769 16.2627 6.00043 15.6 6.00043ZM3.6 8.40043C4.26274 8.40043 4.8 8.93769 4.8 9.60043C4.8 10.2632 4.26274 10.8004 3.6 10.8004C2.93726 10.8004 2.4 10.2632 2.4 9.60043C2.4 8.93769 2.93726 8.40043 3.6 8.40043ZM14.4 16.8004H2.4V15.6004L4.8 13.2004L6 14.4004L10.8 9.60043L14.4 13.2004V16.8004Z" fill="#141416"/>
</svg>
