<svg width="20" height="20" viewBox="0 0 20 20" fill="none" xmlns="http://www.w3.org/2000/svg">
<path d="M15.3047 15.3047C13.897 16.7102 11.9892 17.4995 10 17.4995C8.01083 17.4995 6.10296 16.7102 4.69531 15.3047C4.57843 15.1875 4.51279 15.0288 4.51279 14.8633C4.51279 14.6978 4.57843 14.539 4.69531 14.4219C4.7528 14.3631 4.82146 14.3163 4.89726 14.2844C4.97306 14.2525 5.05447 14.2361 5.13672 14.2361C5.21896 14.2361 5.30038 14.2525 5.37618 14.2844C5.45198 14.3163 5.52064 14.3631 5.57813 14.4219C6.45248 15.2953 7.56613 15.8898 8.77833 16.1304C9.99052 16.371 11.2468 16.2468 12.3885 15.7736C13.5301 15.3003 14.5058 14.4993 15.1923 13.4716C15.8787 12.4439 16.2451 11.2358 16.2451 10C16.2451 8.76417 15.8787 7.55607 15.1923 6.52842C14.5058 5.50076 13.5301 4.69968 12.3885 4.22643C11.2468 3.75317 9.99052 3.629 8.77833 3.86959C7.56613 4.11019 6.45248 4.70475 5.57813 5.57813L5.24219 5.91407L6.67969 7.35157C6.76578 7.4394 6.82405 7.55069 6.84719 7.67149C6.87033 7.79228 6.85731 7.91722 6.80977 8.03066C6.76223 8.14409 6.68227 8.24098 6.57992 8.30918C6.47757 8.37738 6.35737 8.41387 6.23438 8.41407H2.48438C2.31861 8.41407 2.15964 8.34822 2.04243 8.23101C1.92522 8.1138 1.85938 7.95483 1.85938 7.78907V4.03907C1.86165 3.91526 1.89975 3.79477 1.96908 3.69216C2.0384 3.58956 2.13598 3.50925 2.25 3.46095C2.36451 3.41459 2.49019 3.40321 2.61116 3.42824C2.73213 3.45326 2.84298 3.51358 2.92969 3.60157L4.35938 5.03126L4.69531 4.69532C6.1022 3.28843 8.01036 2.49805 10 2.49805C11.9896 2.49805 13.8978 3.28843 15.3047 4.69532C16.7116 6.10221 17.502 8.01036 17.502 10C17.502 11.9897 16.7116 13.8978 15.3047 15.3047Z" fill="white"/>
</svg>
