<svg width="20" height="21" viewBox="0 0 20 21" fill="none" xmlns="http://www.w3.org/2000/svg">
<path opacity="0.7" d="M17.6256 13.078L17.6021 13.058C17.5549 12.8951 17.4813 12.7411 17.3842 12.6022L17.1805 12.3572C17.1697 12.2825 17.1544 12.2086 17.1345 12.1358L16.8554 11.5752L16.6952 10.5812L16.8754 9.58713L17.1275 9.10661V9.09248C17.1534 9.00422 17.1723 8.91403 17.184 8.82277L17.3783 8.59782C17.4864 8.4496 17.5663 8.28271 17.6139 8.10553L17.6351 8.08904C17.9185 7.85475 18.1105 7.52822 18.1774 7.16663C18.2442 6.80504 18.1818 6.43144 18.0009 6.11127C17.82 5.7911 17.5323 5.54477 17.1881 5.41542C16.8438 5.28607 16.4651 5.28194 16.1181 5.40377H16.111C15.9252 5.34665 15.7301 5.32547 15.5363 5.34135L15.2666 5.38846C15.1744 5.34564 15.0786 5.31096 14.9804 5.28482L14.441 5.25184L14.428 5.24242L13.4858 4.88085L12.7014 4.21542L12.3669 3.68661L12.3516 3.66777C12.2988 3.6113 12.2421 3.55856 12.182 3.50995L12.0807 3.2108V3.19902C12.01 3.04101 11.9137 2.89576 11.7957 2.76914L11.7886 2.73028C11.7234 2.34237 11.5237 1.98981 11.2246 1.73438C10.9254 1.47896 10.5459 1.33698 10.1526 1.33332C9.75924 1.32967 9.37717 1.46458 9.07334 1.71441C8.7695 1.96424 8.5633 2.31303 8.49087 2.69966L8.48027 2.75148C8.3636 2.87238 8.26699 3.01114 8.19408 3.16251L8.0763 3.48522C8.02025 3.52964 7.96677 3.57722 7.91613 3.62772L7.54159 4.19422L6.75838 4.82785L5.84914 5.15291L5.82794 5.16469L5.81616 5.17293L5.30148 5.19413H5.28499C5.18736 5.21799 5.09199 5.2503 4.99997 5.2907L4.7385 5.24006H4.73261C4.54266 5.22105 4.35083 5.23824 4.16728 5.2907C3.82248 5.1617 3.44326 5.15826 3.09617 5.28099C2.74909 5.40372 2.45632 5.64477 2.26925 5.96184C2.08218 6.27891 2.01277 6.65174 2.07319 7.01488C2.13361 7.37803 2.32001 7.70829 2.59967 7.94771L2.6091 7.95477C2.65362 8.1376 2.73105 8.3108 2.83758 8.46592L3.01307 8.67556C3.02256 8.7719 3.0403 8.86725 3.06607 8.96057L3.30163 9.43874V9.4564L3.45944 10.4351L3.2816 11.4138L2.98598 11.9791L2.97656 12.0027C2.95632 12.0699 2.94058 12.1383 2.92945 12.2076L2.7151 12.4538L2.70685 12.4644C2.60987 12.5981 2.53473 12.7464 2.48425 12.9037L2.44656 12.9355C2.14125 13.1855 1.93406 13.5354 1.86153 13.9233C1.78901 14.3113 1.85581 14.7123 2.05016 15.0558C2.24451 15.3993 2.55391 15.6631 2.9238 15.8007C3.29368 15.9384 3.70029 15.9409 4.07189 15.808L4.09544 15.7986C4.2661 15.8422 4.44279 15.8573 4.61837 15.8433L4.93048 15.7892C5.00693 15.8207 5.08568 15.8462 5.16603 15.8657L5.79732 15.9058L6.75366 16.2732L7.52275 16.9245L7.54395 16.9375L7.83368 17.3933L7.8431 17.405C7.91078 17.4772 7.98489 17.543 8.06452 17.6017L8.15992 17.8773C8.23793 18.0508 8.34825 18.2079 8.48499 18.3402V18.3578C8.5388 18.7242 8.72359 19.0587 9.0051 19.2993C9.28662 19.5398 9.64579 19.6702 10.0161 19.6663H10.0314C10.3988 19.6733 10.7564 19.5479 11.039 19.3131C11.3216 19.0783 11.5103 18.7497 11.5707 18.3873V18.3555C11.7046 18.2267 11.814 18.0747 11.8934 17.9068L11.9959 17.6276C12.0707 17.5731 12.1409 17.5125 12.2056 17.4463L12.5236 16.9681L13.3174 16.325L14.2678 15.9847L14.8567 15.9599H14.8814C14.9592 15.9412 15.0355 15.9172 15.1099 15.8881L15.402 15.9446H15.415C15.469 15.9503 15.5232 15.9531 15.5775 15.9529C15.6965 15.9524 15.815 15.9386 15.9308 15.9116L15.9497 15.9187C16.1469 15.9951 16.3565 16.035 16.568 16.0365C16.8557 16.0323 17.1374 15.9532 17.3852 15.8069C17.6331 15.6607 17.8385 15.4524 17.9813 15.2026C18.1896 14.8655 18.2684 14.4643 18.203 14.0734C18.1375 13.6826 17.9324 13.3289 17.6256 13.078ZM17.0591 14.6632C16.8238 15.0881 16.4446 15.4151 15.9897 15.5854L15.7542 15.4971C16.4727 14.8772 16.9659 14.037 17.1569 13.1074L17.3477 13.27C17.4227 13.754 17.3202 14.2488 17.0591 14.6632ZM12.4046 16.8067C12.3634 16.8256 12.3198 16.8444 12.2739 16.8621L12.3858 16.5594L12.6036 16.5359L12.447 16.7714L12.4046 16.8067ZM11.8958 17.4875C11.8352 17.5302 11.7723 17.5695 11.7074 17.6052L11.778 17.2237C11.8593 17.2036 11.9382 17.1836 12.0136 17.1612L11.8958 17.4875ZM11.4777 18.2483C11.0691 18.5903 10.5526 18.7764 10.0198 18.7736C9.48696 18.7708 8.97239 18.5792 8.56743 18.233L8.50619 17.862C8.98317 18.0615 9.49556 18.1624 10.0126 18.1588H10.0561C10.5663 18.1667 11.073 18.0722 11.546 17.8808L11.4777 18.2483ZM10.0137 17.988C9.4812 17.9915 8.95443 17.8778 8.47085 17.6547L8.40019 17.2307C8.95735 17.3515 9.52608 17.4107 10.0962 17.4074C10.6222 17.4106 11.1472 17.3593 11.6626 17.2543L11.5849 17.6736C11.091 17.8938 10.5543 18.0012 10.0137 17.988ZM8.04214 17.1353C8.11988 17.1601 8.20114 17.1824 8.28476 17.2025L8.34954 17.5899C8.28233 17.5514 8.21744 17.5089 8.15521 17.4627L8.04214 17.1353ZM7.61461 16.7443L7.45444 16.4911L7.68057 16.5194L7.78775 16.8291C7.73475 16.8079 7.68293 16.7855 7.63464 16.762L7.61461 16.7443ZM2.99069 14.5349C2.73485 14.1111 2.64269 13.6085 2.73158 13.1216L2.93063 12.9578C3.01053 13.4305 3.1749 13.8849 3.41587 14.2993C3.64138 14.7069 3.93495 15.073 4.28388 15.3817L4.03538 15.4688C3.58784 15.2905 3.21779 14.9597 2.99069 14.5349ZM3.50303 9.45169C3.50303 9.40105 3.5148 9.34805 3.52305 9.29387L3.72209 9.52942C3.69147 9.59538 3.66202 9.66133 3.63376 9.72611L3.50656 9.47054L3.50303 9.45169ZM3.18031 8.66613C3.17294 8.59178 3.16979 8.51707 3.17089 8.44236L3.45591 8.68615C3.43236 8.76389 3.40998 8.84162 3.39114 8.9217L3.18031 8.66613ZM3.02485 6.40839C3.2814 5.94232 3.70661 5.59213 4.21322 5.42968L4.55006 5.5557C3.73045 6.20389 3.18404 7.13613 3.01896 8.16795L2.7469 7.9324C2.6396 7.40756 2.73918 6.86156 3.02485 6.40839ZM3.69029 6.79705C3.95333 6.33467 4.31529 5.93612 4.75028 5.6299L5.13894 5.77476C4.40731 6.5876 3.84658 7.53923 3.49007 8.57309L3.17678 8.30456C3.23311 7.76889 3.40856 7.25259 3.69029 6.79351V6.79705ZM5.39216 5.51565C5.33445 5.56983 5.27439 5.63343 5.21668 5.68878L4.86335 5.55688C4.9297 5.51823 4.99811 5.48324 5.06828 5.45206L5.39216 5.51565ZM5.92805 5.34253L6.2272 5.33075L6.09294 5.50741L5.78318 5.44852C5.83147 5.41083 5.87976 5.3755 5.92687 5.3437L5.92805 5.34253ZM14.3267 5.42261C14.375 5.45559 14.4233 5.49328 14.4716 5.53332L14.1512 5.58868C14.1053 5.52508 14.0605 5.46266 14.0158 5.40259L14.3232 5.42144L14.3267 5.42261ZM15.1971 5.54863C15.2683 5.58395 15.3376 5.62327 15.4044 5.66641L15.0381 5.79596C14.9792 5.73236 14.9203 5.67112 14.8614 5.61341L15.1971 5.54863ZM17.2287 6.54265C17.5092 7.0041 17.5988 7.55672 17.4784 8.08315L17.1958 8.3187C17.0529 7.28099 16.5248 6.33502 15.7165 5.66876L16.0698 5.55099C16.5672 5.722 16.9813 6.07507 17.2287 6.53912V6.54265ZM16.7989 9.06303C16.7824 8.98766 16.7623 8.90993 16.7411 8.82748L17.0344 8.59193C17.0336 8.66558 17.0285 8.73912 17.0191 8.81217L16.7989 9.06303ZM16.674 9.57182L16.6646 9.62482L16.5362 9.86862C16.5103 9.80502 16.4832 9.73906 16.4538 9.67193L16.6599 9.43638C16.6654 9.48192 16.6701 9.52707 16.674 9.57182ZM13.2879 15.7621C13.3221 15.6938 13.3562 15.6243 13.3916 15.5548L13.7696 15.6266L13.6778 15.7444L13.2879 15.7621ZM12.7497 16.2838C12.6614 16.2956 12.5695 16.3062 12.4764 16.3156L12.5942 15.9953L12.9476 16.0224L12.7815 16.2732L12.7497 16.2838ZM8.25297 16.3403L8.18583 15.9399C8.18639 15.9317 8.18639 15.9234 8.18583 15.9152C9.37891 15.8787 10.7239 15.8916 11.9111 15.9529C11.9111 15.9599 11.9111 15.967 11.9111 15.9741L11.8369 16.371C10.6426 16.4425 9.44473 16.4323 8.25179 16.3403H8.25297ZM11.7863 16.6077L11.7062 17.0364C10.6039 17.2636 9.46614 17.2555 8.36721 17.0128L8.29536 16.5783C8.91605 16.6265 9.60504 16.6513 10.2846 16.6513C10.8005 16.6548 11.3116 16.636 11.7827 16.6077H11.7863ZM7.29191 16.2308L7.12349 15.9658C7.24126 15.9576 7.35904 15.9505 7.48506 15.9446L7.60284 16.2744C7.49802 16.2603 7.39555 16.2473 7.2978 16.232L7.29191 16.2308ZM6.38738 15.6773L6.29316 15.5513L6.66298 15.4877H6.68182C6.71833 15.5619 6.75249 15.6349 6.78664 15.7067L6.38738 15.6773ZM5.74549 5.99853C5.0927 6.95573 4.50258 7.95419 3.97884 8.98766L3.65731 8.71324C4.01201 7.65111 4.58579 6.67529 5.34152 5.84896L5.74549 5.99853ZM5.97045 6.08333L6.35911 6.22819C5.79967 7.27168 5.12128 8.42116 4.47468 9.40811L4.1614 9.14077C4.69296 8.08172 5.2962 7.0602 5.96692 6.08333H5.97045ZM6.83846 5.3013C6.78782 5.40377 6.73482 5.50977 6.67947 5.61694L6.35087 5.55334C6.41447 5.46972 6.47571 5.38964 6.53696 5.31779L6.83846 5.3013ZM13.01 5.1906L12.7685 5.20591C12.7626 5.18824 12.7568 5.17057 12.752 5.15409L12.6402 4.82903L12.7944 4.8514L13.01 5.1906ZM13.7166 5.38021C13.7767 5.45912 13.8344 5.54274 13.9015 5.6299L13.5612 5.68878C13.507 5.57101 13.4552 5.46854 13.4045 5.36137L13.7166 5.38021ZM16.0262 9.27974L15.7035 9.54591C15.0793 8.54129 14.4186 7.37414 13.8756 6.31535L14.2714 6.17284C14.9242 7.16755 15.5086 8.20559 16.0204 9.27974H16.0262ZM14.5034 6.09275L14.9156 5.94671C15.6561 6.79115 16.2106 7.78188 16.5433 8.85457L16.2029 9.12663C15.701 8.07936 15.1313 7.06591 14.4975 6.09275H14.5034ZM16.3878 10.1195V10.1477L16.2535 10.4127C16.1911 10.3197 16.1287 10.2243 16.0639 10.1254L16.283 9.87333C16.3199 9.95655 16.3541 10.0386 16.3855 10.1195H16.3878ZM16.5468 12.1534L16.2606 11.9073C16.2806 11.8673 16.3007 11.8249 16.3195 11.7895L16.5657 12.084C16.5562 12.104 16.5562 12.1287 16.5445 12.1534H16.5468ZM16.7506 12.3007L16.8259 12.3914L16.7447 12.3219C16.7447 12.3148 16.7459 12.3077 16.7482 12.2971L16.7506 12.3007ZM14.461 15.0095C15.0664 14.1095 15.617 13.1739 16.1099 12.2076L16.4385 12.4973C16.0928 13.4802 15.56 14.3869 14.8697 15.1673L14.461 15.0095ZM12.6802 15.7326C12.7144 15.6278 12.7497 15.523 12.7874 15.417C12.9346 15.4464 13.0783 15.4782 13.2208 15.5124C13.1772 15.5984 13.136 15.6832 13.0948 15.7668L12.6802 15.7326ZM12.0725 15.6938C12.1007 15.5642 12.1314 15.4347 12.1643 15.3075C12.3269 15.3322 12.4882 15.3593 12.6484 15.3899C12.6095 15.5006 12.5718 15.6125 12.5306 15.7232C12.3822 15.7126 12.2279 15.7044 12.0701 15.6961L12.0725 15.6938ZM7.54866 15.6726C7.5145 15.5548 7.47799 15.4453 7.43913 15.331C7.60401 15.3039 7.77008 15.2804 7.93732 15.2592C7.96795 15.3899 7.99621 15.5206 8.02212 15.6525L7.54866 15.6726ZM6.97862 15.7079C6.93857 15.6207 6.89735 15.5336 6.85378 15.4441C6.99982 15.4123 7.1494 15.3828 7.30015 15.3569C7.33666 15.4653 7.37199 15.5736 7.40497 15.6808C7.25186 15.6914 7.11406 15.6996 6.97626 15.7126L6.97862 15.7079ZM6.59467 14.9188C6.75838 14.8646 6.92208 14.8152 7.08815 14.7704C7.12702 14.8717 7.16471 14.973 7.20593 15.0731C7.0434 15.1025 6.88322 15.1355 6.7254 15.1697L6.59467 14.9188ZM4.16728 11.9438L4.53121 11.6435L4.54771 11.6293C5.13659 12.5857 5.75845 13.6786 6.27667 14.6844L6.25311 14.6915L5.80438 14.8505C5.19785 13.9171 4.65106 12.9463 4.16728 11.9438ZM5.60299 14.9164L5.17428 15.0672C4.49759 14.2711 3.98199 13.3511 3.65613 12.3584L4.0024 12.0734C4.47752 13.0528 5.01204 14.0022 5.60299 14.9164ZM11.7804 4.74423L11.8546 5.18706C11.8546 5.20591 11.8617 5.22357 11.8652 5.24242C10.7322 5.27539 9.47078 5.26244 8.34248 5.20708L8.35308 5.15409L8.43552 4.71479C9.55154 4.65375 10.6703 4.66358 11.7851 4.74423H11.7804ZM8.47321 4.50868L8.55683 4.05996C9.58648 3.86517 10.6443 3.87317 11.6708 4.08351L11.7462 4.53577C10.6583 4.46061 9.56683 4.45235 8.47792 4.51103L8.47321 4.50868ZM13.0995 5.3543C13.1572 5.48032 13.2173 5.60987 13.2832 5.74178C13.1737 5.76534 13.0642 5.78654 12.9523 5.80774C12.9016 5.6617 12.8545 5.51683 12.8109 5.37197L13.0995 5.3543ZM15.4962 9.72022C15.3961 9.80737 15.2972 9.8957 15.2006 9.98639C14.398 8.91878 13.7347 7.75323 13.2267 6.51792C13.3574 6.48141 13.487 6.44137 13.6165 6.40014C14.1713 7.49192 14.8485 8.68615 15.4962 9.72022ZM16.1087 10.6624C16.0569 10.7366 16.0039 10.812 15.9509 10.8897C15.8531 10.7837 15.7565 10.673 15.6611 10.5611C15.7342 10.4787 15.8072 10.3986 15.8814 10.3197C15.9556 10.4386 16.031 10.5529 16.1063 10.6636L16.1087 10.6624ZM13.6424 14.708C13.4752 14.6479 13.3068 14.5902 13.1372 14.5396C13.6476 13.381 14.2949 12.2878 15.0652 11.2831C15.1908 11.4056 15.32 11.5234 15.4527 11.6364C14.832 12.6022 14.183 13.701 13.6401 14.7092L13.6424 14.708ZM7.98326 5.35784C7.94792 5.52508 7.90906 5.69114 7.86548 5.85602C7.76183 5.83954 7.65937 5.82305 7.55808 5.8042C7.61462 5.64992 7.66644 5.49563 7.7159 5.34135L7.98326 5.35784ZM14.7966 10.5399C14.8803 10.4516 14.9639 10.3644 15.0499 10.2796C15.1559 10.4163 15.2634 10.5497 15.3726 10.6801C15.3031 10.7613 15.236 10.845 15.1676 10.9286C15.0381 10.8002 14.9144 10.6718 14.7896 10.5388L14.7966 10.5399ZM14.7236 10.4575C13.7552 9.36152 13.0213 8.07894 12.5671 6.68869C12.692 6.6616 12.8156 6.63334 12.9393 6.60154C13.4625 7.88213 14.1493 9.08956 14.9827 10.1937C14.8921 10.2773 14.8073 10.3668 14.7213 10.4563L14.7236 10.4575ZM14.501 10.7001C13.5536 11.7592 12.8219 12.993 12.3469 14.3323C10.8421 13.9933 9.28282 13.974 7.77008 14.2758C7.31307 12.9155 6.59271 11.6585 5.6501 10.5764C6.67516 9.4552 7.45782 8.13449 7.9491 6.69694C9.3621 6.99807 10.8207 7.01648 12.2409 6.75111C12.7113 8.20948 13.4803 9.55393 14.4987 10.6989L14.501 10.7001ZM12.533 6.57798C12.4764 6.40014 12.4246 6.22466 12.3775 6.04211C12.489 6.02719 12.5997 6.0107 12.7096 5.99264C12.7685 6.15871 12.8274 6.32595 12.8981 6.49201C12.7744 6.52616 12.6519 6.55443 12.5306 6.58152L12.533 6.57798ZM12.2091 6.64158C10.8126 6.90085 9.37871 6.88284 7.98915 6.58858C8.04882 6.40721 8.10418 6.22348 8.15521 6.0374C9.44716 6.21185 10.7557 6.22688 12.0513 6.08215C12.0972 6.27413 12.149 6.46021 12.2067 6.64394L12.2091 6.64158ZM8.19408 5.90431C8.24001 5.73001 8.28005 5.55099 8.31774 5.37668C9.46607 5.43439 10.7545 5.44735 11.9076 5.41319C11.9417 5.59221 11.9794 5.76651 12.0254 5.94789C10.7512 6.08917 9.46465 6.07453 8.19408 5.90431ZM7.83368 5.99382C7.78421 6.17048 7.73004 6.34715 7.67233 6.5191C7.55455 6.49083 7.43677 6.46139 7.319 6.42841C7.38731 6.26588 7.45208 6.10217 7.51215 5.93964L7.83368 5.99382ZM7.63582 6.62274C7.16151 7.99475 6.41342 9.25611 5.43692 10.3303C5.35448 10.2396 5.27086 10.1513 5.18488 10.0641C6.02989 8.98035 6.73283 7.79297 7.27659 6.53087C7.38966 6.56267 7.50979 6.5933 7.62992 6.62274H7.63582ZM5.35801 10.4127C5.23552 10.5446 5.1095 10.6738 4.97994 10.8002C4.91399 10.7154 4.84686 10.6318 4.7809 10.5505C4.89161 10.421 5.00193 10.2883 5.11185 10.1525C5.19548 10.2361 5.27674 10.3232 5.35801 10.4127ZM5.57707 10.6577C6.50209 11.7241 7.20948 12.9612 7.65937 14.2993C7.47093 14.3393 7.28366 14.3841 7.09757 14.4336C6.59686 13.2368 5.95261 12.1054 5.17899 11.064C5.31561 10.9298 5.4483 10.7939 5.57707 10.6565V10.6577ZM7.76183 14.6091C7.79717 14.7308 7.83133 14.8521 7.8643 14.973C7.68646 14.9965 7.51097 15.0224 7.33902 15.0519C7.30133 14.9471 7.26246 14.8411 7.22124 14.7351C7.40026 14.688 7.58046 14.6456 7.76183 14.6079V14.6091ZM7.86901 14.589C9.31381 14.3072 10.8012 14.3256 12.2385 14.6432C12.1997 14.761 12.1632 14.8846 12.1278 15.0071C10.7511 14.8113 9.35468 14.7955 7.97383 14.96C7.94086 14.8352 7.90552 14.7115 7.86901 14.5879V14.589ZM12.3445 14.6668C12.52 14.708 12.6979 14.7539 12.8698 14.8046C12.8274 14.907 12.7862 15.0095 12.752 15.112C12.5836 15.079 12.414 15.0495 12.2409 15.0224C12.2715 14.9023 12.3068 14.7834 12.3457 14.6656L12.3445 14.6668ZM12.4505 14.357C12.9194 13.0393 13.6394 11.825 14.5705 10.7814C14.6965 10.9203 14.8261 11.0546 14.9592 11.1865C14.1744 12.2088 13.5155 13.322 12.997 14.5019C12.818 14.4477 12.6354 14.3982 12.4517 14.3558L12.4505 14.357ZM15.2607 11.0263C15.3266 10.9451 15.3914 10.8662 15.4574 10.7908C15.561 10.9086 15.667 11.0263 15.773 11.1441L15.6258 11.3655C15.5068 11.2548 15.3844 11.1418 15.2607 11.0263ZM15.8896 11.2784L16.1699 11.614C16.1452 11.6659 16.1193 11.7189 16.0945 11.7719L15.7707 11.4951L15.7554 11.481C15.8048 11.4126 15.8496 11.3443 15.8943 11.2784H15.8896ZM15.5634 10.454C15.4597 10.3362 15.3584 10.2043 15.2595 10.0735C15.3537 9.98521 15.4503 9.89924 15.5481 9.81444C15.6313 9.94635 15.7137 10.0747 15.7954 10.1996C15.7224 10.2832 15.6446 10.3668 15.5681 10.454H15.5634ZM13.1784 6.41663C13.1148 6.25881 13.0547 6.101 12.9982 5.94553C13.116 5.92316 13.2338 5.8996 13.3515 5.87487C13.4198 6.01541 13.4905 6.15792 13.5635 6.30239C13.4375 6.34126 13.3103 6.38012 13.1831 6.41663H13.1784ZM12.6566 5.86191L12.3386 5.90902C12.2974 5.74061 12.2609 5.57219 12.2279 5.40141L12.5071 5.39081C12.5577 5.54628 12.6084 5.70174 12.6614 5.86191H12.6566ZM12.1985 5.23064C12.1985 5.19766 12.1844 5.16469 12.1796 5.13171L12.1196 4.77132L12.308 4.79016L12.4564 5.22004L12.1985 5.23064ZM8.0339 5.09284C8.02801 5.12464 8.02095 5.15644 8.01388 5.18824L7.76655 5.17411L7.92083 4.7513L8.09986 4.73716L8.0339 5.09284ZM7.47682 5.10344V5.11051C7.47682 5.12464 7.46739 5.13878 7.46386 5.15173L7.2283 5.13289L7.44737 4.80194L7.59224 4.78545L7.47682 5.10344ZM7.40733 5.32015C7.3614 5.46148 7.31193 5.60399 7.26011 5.74649C7.15293 5.72412 7.04693 5.70056 6.94093 5.67583C7.00571 5.54628 7.06931 5.42026 7.12937 5.29659L7.40733 5.32015ZM6.87615 5.8042C6.98686 5.83011 7.09875 5.85602 7.21182 5.87958C7.15411 6.03386 7.09404 6.18697 7.02691 6.34126C6.90324 6.30357 6.78075 6.26235 6.65944 6.22348L6.87615 5.8042ZM6.60644 6.3177C6.73129 6.36128 6.85731 6.40368 6.98333 6.44254C6.45655 7.66155 5.77789 8.80912 4.96346 9.85801C4.86924 9.76733 4.77266 9.679 4.6749 9.59184C5.34034 8.57073 6.03523 7.39416 6.6088 6.31888L6.60644 6.3177ZM4.61719 9.68253C4.71259 9.76733 4.80681 9.85448 4.89868 9.94281C4.79621 10.0712 4.69257 10.1972 4.58657 10.3209C4.51237 10.2337 4.43699 10.1501 4.36162 10.0665C4.44642 9.94163 4.53122 9.81444 4.61719 9.68253ZM4.28035 10.1866C4.35219 10.2655 4.42286 10.3456 4.49353 10.4222C4.39616 10.5337 4.29723 10.6432 4.19673 10.7507C4.14491 10.6718 4.09426 10.5976 4.0448 10.5234C4.12253 10.4127 4.20144 10.3032 4.28035 10.1866ZM4.68668 10.6577C4.75146 10.7366 4.81388 10.8167 4.8763 10.8933C4.75852 11.011 4.63133 11.1206 4.50295 11.2301L4.36279 11.0087C4.47115 10.8956 4.5795 10.7778 4.68668 10.6554V10.6577ZM4.37222 11.3479L4.32393 11.3891L4.02478 11.6364L3.95411 11.4727L4.24384 11.1382L4.37222 11.3479ZM4.67844 11.5151C4.81506 11.3973 4.94697 11.2796 5.07652 11.1618C5.83568 12.1854 6.46841 13.297 6.96095 14.4724C6.78664 14.5211 6.61351 14.5741 6.44156 14.6314C5.91392 13.6021 5.28145 12.4856 4.67844 11.5128V11.5151ZM8.0445 15.2509C9.37582 15.0957 10.7215 15.1112 12.0489 15.2969C12.0159 15.428 11.9853 15.5599 11.9571 15.6926C11.1962 15.6514 10.3765 15.6302 9.56853 15.6302C9.07741 15.6302 8.59216 15.6384 8.12694 15.6537C8.10457 15.5159 8.0763 15.3828 8.0445 15.2486V15.2509ZM12.8887 15.1414C12.9264 15.0425 12.9652 14.9447 13.0064 14.8458C13.1678 14.8941 13.3268 14.9471 13.4858 15.0024L13.3574 15.2415C13.2031 15.205 13.0477 15.1708 12.8887 15.139V15.1414ZM13.6483 15.0601L13.6695 15.0672L14.07 15.2179C14.0346 15.2674 13.9993 15.3181 13.964 15.3663L13.5317 15.2827C13.5694 15.2074 13.6118 15.132 13.6483 15.0578V15.0601ZM13.8038 14.768C14.3373 13.7787 14.9733 12.7035 15.5799 11.7601L15.9497 12.0769C15.4485 13.0663 14.8852 14.0229 14.2631 14.9412L13.8038 14.768ZM16.3089 11.3161L16.0663 11.0252L16.1935 10.8403L16.3654 11.1853C16.3482 11.2277 16.3293 11.2705 16.3089 11.3137V11.3161ZM16.4844 11.4232L16.6116 11.6788L16.4538 11.4904L16.4844 11.4232ZM15.985 10.0005C15.9096 9.88275 15.8331 9.76497 15.7565 9.6472L16.0651 9.3928C16.1193 9.51058 16.1711 9.62835 16.2194 9.73671L15.985 10.0005ZM13.825 6.21642H13.8191C13.7508 6.08215 13.6837 5.95024 13.6189 5.81951L13.9852 5.75592C14.0594 5.85956 14.1336 5.96673 14.2089 6.0798L13.825 6.21642ZM12.5624 4.61821L12.4694 4.34615L12.6484 4.62881L12.5624 4.61821ZM12.0913 4.56874L12.0218 4.17067L12.1066 4.19775L12.2374 4.57699C12.1879 4.57463 12.1372 4.56992 12.0866 4.56639L12.0913 4.56874ZM11.9841 3.92098L11.9559 3.75492L12.0171 3.9304L11.9841 3.92098ZM8.60747 3.81734L8.67814 3.43811C9.609 3.07542 10.6432 3.08174 11.5696 3.45577L11.6332 3.83972C10.6345 3.64685 9.60888 3.63926 8.60747 3.81734ZM8.21292 4.15182L8.14108 4.53577L8.00092 4.54637L8.13754 4.1742L8.21292 4.15182ZM8.23647 3.90214L8.28241 3.78436L8.26003 3.90214H8.23647ZM7.59813 4.58523L7.76183 4.33673L7.67468 4.57228L7.59813 4.58523ZM6.60998 5.75003C6.5452 5.87605 6.47689 6.0056 6.4074 6.13515L6.03052 5.99382C6.10707 5.88547 6.18127 5.78183 6.25547 5.68172L6.60998 5.75003ZM4.41697 9.50822C4.33688 9.626 4.25915 9.74377 4.18142 9.86155L3.95411 9.58831C4.00475 9.4776 4.05775 9.36454 4.11546 9.24794L4.41697 9.50822ZM4.09898 9.97932C4.03302 10.0771 3.96824 10.1725 3.90347 10.2655L3.77156 9.99817C3.80689 9.91101 3.84615 9.82033 3.88933 9.72611L4.09898 9.97932ZM3.95411 10.6977C3.99533 10.759 4.03655 10.8155 4.07189 10.8838L4.0554 10.9015L3.81984 11.1724C3.801 11.1288 3.78333 11.0852 3.76684 11.0428L3.95411 10.6977ZM3.67733 11.3432L3.52305 11.521L3.65142 11.2784L3.67733 11.3432ZM3.86578 11.7671L3.57016 12.0098C3.56427 11.985 3.55955 11.9615 3.55484 11.9379L3.80924 11.6435C3.82455 11.6847 3.84458 11.7259 3.86342 11.7671H3.86578ZM3.36522 12.1794L3.29338 12.2394L3.36051 12.1617C3.36263 12.1674 3.36421 12.1733 3.36522 12.1794ZM3.46416 12.5221C3.79087 13.4831 4.29106 14.3761 4.9399 15.1567L4.57715 15.2839C3.80485 14.6531 3.30267 13.7511 3.17325 12.7623L3.46416 12.5221ZM5.42161 15.3334L5.7926 15.2015L5.87858 15.3275L5.48756 15.3958L5.42161 15.3334ZM5.20372 15.4453L5.0141 15.4771L5.18252 15.4182L5.20372 15.4453ZM5.99165 15.1237L6.36265 14.993C6.38385 14.9848 6.40622 14.9789 6.42742 14.9718C6.46747 15.0495 6.50633 15.1273 6.5452 15.2074L6.1 15.2851L5.99165 15.1237ZM7.62757 15.9328L8.07041 15.9152L8.07748 15.954L8.1399 16.3274C8.00563 16.3156 7.87608 16.3015 7.75006 16.2873L7.62757 15.9328ZM12.0077 15.9906C12.0077 15.9788 12.0136 15.967 12.0159 15.9552C12.162 15.9623 12.3057 15.9717 12.447 15.9811L12.3163 16.3309C12.1985 16.3427 12.0666 16.3533 11.9358 16.3627L12.0077 15.9906ZM13.9899 15.6667L14.2537 15.7173L13.9416 15.7303C13.9581 15.7126 13.9734 15.6914 13.9899 15.6702V15.6667ZM14.2667 15.2851L14.62 15.4193L14.5576 15.4759L14.1783 15.4029L14.2667 15.2851ZM14.8673 15.51L15.0016 15.5607L14.8461 15.5301L14.8673 15.51ZM16.634 12.6575L16.9155 12.8931C16.762 13.876 16.2413 14.7641 15.4586 15.3781L15.1052 15.2462C15.7688 14.4849 16.2877 13.6088 16.6363 12.6611L16.634 12.6575ZM16.455 10.7731L16.356 10.5764L16.4326 10.4304L16.4714 10.6754L16.455 10.7731ZM16.389 9.52942C16.345 9.43128 16.2991 9.33117 16.2512 9.2291L16.5657 8.96999C16.5916 9.06657 16.6116 9.16079 16.6293 9.25265L16.389 9.52942ZM16.5445 6.91482C16.8193 7.3822 16.9851 7.90554 17.0297 8.44589L16.7058 8.71207C16.3715 7.66857 15.8307 6.70292 15.1158 5.87251L15.5163 5.73118C15.9421 6.04569 16.2939 6.44972 16.5468 6.91482H16.5445ZM14.8273 5.85485L14.4363 5.99853C14.3703 5.90078 14.3055 5.8042 14.2407 5.71116L14.6106 5.64756C14.6836 5.71352 14.7566 5.78418 14.8296 5.85956L14.8273 5.85485ZM13.494 5.19531L13.3115 5.18471L13.1843 4.98449L13.2926 5.02571L13.494 5.19531ZM11.4742 2.87514L11.5177 3.14014C10.6184 2.82419 9.63917 2.81797 8.73585 3.12247L8.78414 2.86101C9.15994 2.55622 9.63253 2.39619 10.1162 2.40993H10.1397C10.6258 2.40074 11.0992 2.56576 11.4742 2.87514ZM7.04575 4.93385L6.92798 5.10933L6.92091 5.12229L6.74778 5.12935L6.94447 4.96918L7.04575 4.93385ZM6.00107 5.62519C5.93629 5.71469 5.87034 5.80774 5.80438 5.90196L5.42514 5.76063C5.49698 5.68761 5.57001 5.6193 5.64303 5.55688L6.00107 5.62519ZM3.62551 8.82395L3.93055 9.08541C3.87991 9.1867 3.8328 9.28681 3.78686 9.38456L3.55131 9.10661C3.57251 9.0171 3.59724 8.92406 3.62551 8.82748V8.82395ZM3.71973 10.2773L3.79393 10.4269L3.69264 10.6212L3.67616 10.5211L3.71973 10.2773ZM5.78318 15.6361L6.07409 15.5948L6.12474 15.6667L5.79143 15.6455L5.78318 15.6361ZM6.68771 15.9576L6.92326 15.9729L7.02102 16.126L6.77369 16.0318L6.68771 15.9576ZM7.84075 16.537L8.18583 16.57L8.25414 16.9846C8.15286 16.9575 8.05628 16.928 7.96441 16.8951L7.84075 16.537ZM11.8251 17.0081L11.9005 16.6006L12.2362 16.5747L12.1078 16.928C12.0124 16.9551 11.9182 16.9834 11.8192 17.0081H11.8251ZM13.0524 16.1755L13.1478 16.033L13.3739 16.0235L13.2915 16.0895L13.0524 16.1755ZM16.8483 9.28209C16.8483 9.26678 16.8424 9.2503 16.8389 9.23381L16.9249 9.1337L16.8483 9.28209ZM17.2806 8.51067L17.2134 8.58958C17.2134 8.54247 17.2134 8.49418 17.2134 8.44589L17.4148 8.27983C17.3767 8.36167 17.3297 8.43908 17.2747 8.51067H17.2806ZM17.9177 6.16342C18.0836 6.44272 18.1486 6.77042 18.1021 7.09189C18.0556 7.41336 17.9003 7.70918 17.6622 7.93004C17.7135 7.42782 17.609 6.92196 17.3629 6.48117C17.1168 6.04038 16.741 5.68601 16.2865 5.46619C16.5964 5.38152 16.9258 5.40436 17.2209 5.53099C17.5161 5.65761 17.7597 5.88055 17.9118 6.16342H17.9177ZM15.5622 5.48268C15.6648 5.47425 15.768 5.4782 15.8696 5.49445L15.614 5.58396C15.5693 5.55334 15.5245 5.5239 15.4786 5.49681L15.5622 5.48268ZM14.9144 5.45323L14.7366 5.48386L14.6848 5.4391L14.9144 5.45323ZM10.1421 1.65853C10.3954 1.65711 10.6437 1.72837 10.8577 1.86385C11.0717 1.99933 11.2423 2.19335 11.3493 2.42289C10.9754 2.22341 10.5588 2.1175 10.135 2.11422C9.71124 2.11094 9.29299 2.21038 8.91605 2.40404C9.02771 2.17554 9.20257 1.98385 9.41988 1.85171C9.6372 1.71957 9.88785 1.65253 10.1421 1.65853ZM5.57236 5.3543L5.52407 5.39435L5.36272 5.36255L5.57236 5.3543ZM4.58304 5.37433C4.62619 5.37195 4.66944 5.37195 4.71259 5.37433L4.79033 5.38964C4.74675 5.41437 4.70317 5.44146 4.65842 5.4709L4.4158 5.38021C4.47136 5.37474 4.52722 5.37278 4.58304 5.37433ZM2.35941 6.01738C2.48354 5.80019 2.66209 5.61908 2.87749 5.49187C3.09288 5.36466 3.3377 5.29573 3.58782 5.29188C3.72448 5.29263 3.8604 5.31205 3.9918 5.34959C3.53597 5.56079 3.15555 5.90621 2.90148 6.3396C2.64742 6.773 2.53184 7.27367 2.57023 7.77458C2.34161 7.54865 2.1963 7.25192 2.15801 6.93279C2.11972 6.61366 2.19072 6.29097 2.35941 6.01738ZM2.81167 8.13144L3.00483 8.29632C3.00483 8.34696 2.99894 8.39525 2.99894 8.44472L2.94594 8.38112C2.89181 8.30328 2.84677 8.21951 2.81167 8.13144ZM3.2604 8.97588L3.35345 9.08659L3.34285 9.14077L3.2604 8.97588ZM2.33468 14.8882C2.20648 14.6692 2.14398 14.418 2.15463 14.1645C2.16528 13.9109 2.24863 13.6658 2.39474 13.4584C2.40632 13.8804 2.51941 14.2934 2.72442 14.6624C2.92943 15.0314 3.22034 15.3456 3.57251 15.5783C3.32199 15.5924 3.07261 15.535 2.85346 15.4129C2.6343 15.2907 2.45438 15.1087 2.33468 14.8882ZM7.81366 17.0552L7.87372 17.0776L7.93026 17.239L7.81366 17.0552ZM8.28476 17.8243L8.25179 17.7277C8.29654 17.7548 8.34248 17.7796 8.39077 17.8031L8.43552 18.0752C8.37527 18 8.32316 17.9187 8.28006 17.8326L8.28476 17.8243ZM10.0279 19.5568H10.0137C9.69086 19.5598 9.37658 19.4528 9.12252 19.2536C8.86846 19.0543 8.68974 18.7746 8.61572 18.4603C9.01968 18.7607 9.51155 18.9193 10.0149 18.9114H10.042C10.5415 18.9245 11.0312 18.7712 11.4341 18.4756C11.3575 18.7899 11.1759 19.0686 10.9193 19.2656C10.6627 19.4626 10.3466 19.5662 10.0232 19.5591L10.0279 19.5568ZM11.7662 17.8514C11.7271 17.9349 11.6789 18.0139 11.6226 18.0869L11.672 17.8243C11.7168 17.8019 11.7604 17.7796 11.8016 17.7548L11.7662 17.8514ZM12.1384 17.2425L12.1879 17.1094L12.2385 17.0918L12.1384 17.2425ZM17.7022 15.033C17.5788 15.2503 17.3964 15.4282 17.1761 15.5462C16.9558 15.6642 16.7066 15.7174 16.4573 15.6996C16.8129 15.4755 17.1096 15.1694 17.3223 14.8068C17.535 14.4443 17.6577 14.036 17.6798 13.6162C17.8176 13.8265 17.8925 14.0718 17.8956 14.3232C17.8987 14.5746 17.83 14.8217 17.6975 15.0354L17.7022 15.033Z" fill="url(#paint0_linear_7156_20722)"/>
<defs>
<linearGradient id="paint0_linear_7156_20722" x1="1.83301" y1="10.4999" x2="16.8849" y2="14.9919" gradientUnits="userSpaceOnUse">
<stop stop-color="#5EE6D0"/>
<stop offset="0.515056" stop-color="#BFC6FF"/>
<stop offset="1" stop-color="#FFBA69"/>
</linearGradient>
</defs>
</svg>
