<svg width="24" height="24" viewBox="0 0 24 24" fill="none" xmlns="http://www.w3.org/2000/svg">
<path fill-rule="evenodd" clip-rule="evenodd" d="M9 6.29178C8.33309 6.49062 7.69594 6.78887 7.11101 7.1797C5.95987 7.94887 5.06266 9.04212 4.53285 10.3212C4.00303 11.6003 3.86441 13.0078 4.13451 14.3656C4.4046 15.7235 5.07129 16.9708 6.05026 17.9497C7.02922 18.9287 8.27651 19.5954 9.63437 19.8655C10.9922 20.1356 12.3997 19.997 13.6788 19.4671C14.9579 18.9373 16.0511 18.0401 16.8203 16.889C17.2111 16.3041 17.5094 15.6669 17.7082 15H11.5C10.1193 15 9 13.8807 9 12.5L9 6.29178ZM10.002 4.05548C10.5509 3.99424 11 4.4477 11 4.99999V12.5C11 12.7761 11.2239 13 11.5 13H19C19.5523 13 20.0057 13.4491 19.9445 13.9979C19.7853 15.4249 19.2863 16.7982 18.4832 18.0001C17.4943 19.4802 16.0887 20.6337 14.4442 21.3149C12.7996 21.9961 10.99 22.1743 9.24419 21.8271C7.49836 21.4798 5.89472 20.6226 4.63604 19.3639C3.37737 18.1053 2.5202 16.5016 2.17294 14.7558C1.82567 13.01 2.0039 11.2004 2.68509 9.55584C3.36628 7.9113 4.51983 6.50569 5.99987 5.51676C7.20174 4.7137 8.57508 4.21469 10.002 4.05548Z" fill="url(#paint0_linear_544_1862)"/>
<path fill-rule="evenodd" clip-rule="evenodd" d="M19.7082 8.99998C19.6397 8.77016 19.5593 8.54359 19.4672 8.3212C19.1154 7.47192 18.5998 6.70025 17.9497 6.05024C17.2997 5.40023 16.5281 4.88461 15.6788 4.53283C15.4564 4.44071 15.2298 4.3603 15 4.29178V8.99998H19.7082ZM21.9445 10.002C22.0057 10.5509 21.5523 11 21 11H13.5C13.2239 11 13 10.7761 13 10.5V2.99998C13 2.4477 13.4491 1.99424 13.998 2.05548C14.8372 2.14912 15.6609 2.36062 16.4442 2.68507C17.5361 3.13736 18.5282 3.8003 19.364 4.63602C20.1997 5.47175 20.8626 6.4639 21.3149 7.55583C21.6394 8.33912 21.8509 9.16274 21.9445 10.002Z" fill="url(#paint1_linear_544_1862)"/>
<defs>
<linearGradient id="paint0_linear_544_1862" x1="2" y1="13.025" x2="18.1508" y2="18.4156" gradientUnits="userSpaceOnUse">
<stop stop-color="#5EE6D0"/>
<stop offset="0.515056" stop-color="#BFC6FF"/>
<stop offset="1" stop-color="#FFBA69"/>
</linearGradient>
<linearGradient id="paint1_linear_544_1862" x1="13" y1="6.52495" x2="21.053" y2="9.21277" gradientUnits="userSpaceOnUse">
<stop stop-color="#5EE6D0"/>
<stop offset="0.515056" stop-color="#BFC6FF"/>
<stop offset="1" stop-color="#FFBA69"/>
</linearGradient>
</defs>
</svg>
