<svg width="20" height="20" viewBox="0 0 20 20" fill="none" xmlns="http://www.w3.org/2000/svg">
<path d="M8.85179 13.1875C9.03011 13.1884 9.20199 13.1208 9.33189 12.9986L9.33225 12.9983L13.9104 8.62331L13.9104 8.62334L13.912 8.62165C14.0356 8.49435 14.1052 8.32422 14.1062 8.14682C14.1072 7.96942 14.0396 7.79849 13.9176 7.66977C13.7955 7.54104 13.6284 7.46448 13.4512 7.4561C13.274 7.44771 13.1004 7.50815 12.9667 7.62478L12.9667 7.62473L12.9647 7.62663L8.85158 11.5465L7.03618 9.81496C6.9718 9.74887 6.89478 9.69641 6.80969 9.66071C6.72422 9.62485 6.63239 9.60664 6.53971 9.60718C6.44703 9.60772 6.35541 9.62699 6.27037 9.66384C6.18533 9.70069 6.10861 9.75435 6.04484 9.82161C5.98106 9.88886 5.93154 9.96831 5.89926 10.0552C5.86697 10.1421 5.85259 10.2346 5.85697 10.3272C5.86135 10.4197 5.8844 10.5105 5.92475 10.5939C5.96488 10.6769 6.0213 10.751 6.09063 10.8118L8.37813 12.9978C8.37822 12.9979 8.37831 12.9979 8.37841 12.998C8.44097 13.0593 8.51503 13.1075 8.59632 13.1401C8.67753 13.1725 8.76434 13.1887 8.85179 13.1875ZM8.85179 13.1875C8.85202 13.1875 8.85224 13.1875 8.85246 13.1875L8.85157 13.125L8.85118 13.1875C8.85138 13.1875 8.85159 13.1875 8.85179 13.1875ZM5.52072 3.29628C6.84657 2.41037 8.40535 1.93751 9.99994 1.9375C12.137 1.94161 14.1854 2.79238 15.6965 4.30351C17.2076 5.81466 18.0584 7.86304 18.0625 10.0001C18.0625 11.5947 17.5896 13.1534 16.7037 14.4793C15.8178 15.8052 14.5586 16.8385 13.0854 17.4488C11.6122 18.059 9.99106 18.2187 8.42709 17.9076C6.86312 17.5965 5.42652 16.8286 4.29896 15.701C3.17139 14.5735 2.40352 13.1369 2.09242 11.5729C1.78133 10.0089 1.94099 8.38784 2.55122 6.91461C3.16146 5.44139 4.19485 4.1822 5.52072 3.29628Z" fill="#67C091" stroke="#67C091" stroke-width="0.125"/>
</svg>
