<svg width="16" height="16" viewBox="0 0 16 16" fill="none" xmlns="http://www.w3.org/2000/svg">
<path d="M6.49998 12C6.36746 11.9982 6.24039 11.9469 6.14373 11.8562L2.64373 8.35623C2.564 8.25908 2.52325 8.13575 2.52942 8.01023C2.53558 7.8847 2.58822 7.76595 2.67709 7.67709C2.76595 7.58822 2.8847 7.53558 3.01023 7.52942C3.13575 7.52325 3.25908 7.564 3.35623 7.64373L6.49998 10.7937L13.1437 4.14373C13.2409 4.064 13.3642 4.02325 13.4897 4.02942C13.6153 4.03558 13.734 4.08822 13.8229 4.17709C13.9117 4.26595 13.9644 4.3847 13.9705 4.51023C13.9767 4.63575 13.936 4.75908 13.8562 4.85623L6.85623 11.8562C6.75957 11.9469 6.6325 11.9982 6.49998 12Z" fill="#49996F"/>
</svg>
