<svg width="20" height="20" viewBox="0 0 20 20" fill="none" xmlns="http://www.w3.org/2000/svg">
<path d="M5.14074 4.25782C5.25763 4.37498 5.32327 4.53373 5.32327 4.69922C5.32327 4.86472 5.25763 5.02346 5.14074 5.14063C4.28641 5.99201 3.67196 7.05382 3.35949 8.21876C3.32383 8.35167 3.24581 8.46934 3.13725 8.55393C3.0287 8.63852 2.89553 8.68541 2.75793 8.68751L2.59387 8.66407C2.51427 8.64319 2.43957 8.60679 2.37407 8.55697C2.30857 8.50715 2.25356 8.44489 2.21218 8.37375C2.1708 8.30262 2.14389 8.22401 2.13297 8.14244C2.12205 8.06088 2.12735 7.97796 2.14855 7.89844C2.51705 6.51959 3.24496 5.26327 4.25793 4.25782C4.31541 4.199 4.38407 4.15226 4.45987 4.12035C4.53568 4.08844 4.61709 4.072 4.69934 4.072C4.78158 4.072 4.863 4.08844 4.9388 4.12035C5.0146 4.15226 5.08326 4.199 5.14074 4.25782ZM3.35949 11.7813C3.31702 11.6207 3.21249 11.4835 3.06891 11.4C2.92532 11.3165 2.75445 11.2935 2.59387 11.3359C2.43329 11.3784 2.29616 11.4829 2.21264 11.6265C2.12913 11.7701 2.10608 11.941 2.14855 12.1016C2.52128 13.4809 3.2485 14.7388 4.25793 15.75C4.37459 15.8649 4.53169 15.9294 4.69543 15.9297C4.81839 15.9274 4.93801 15.8893 5.03968 15.8201C5.14135 15.7509 5.22065 15.6536 5.26789 15.5401C5.31513 15.4265 5.32827 15.3017 5.30569 15.1808C5.2831 15.0599 5.22579 14.9482 5.14074 14.8594C4.28612 14.0082 3.67162 12.9463 3.35949 11.7813ZM11.7814 16.6406C10.6144 16.9533 9.38579 16.9533 8.21887 16.6406C8.05829 16.5982 7.88741 16.6212 7.74383 16.7047C7.60024 16.7882 7.49572 16.9254 7.45324 17.0859C7.41077 17.2465 7.43382 17.4174 7.51733 17.561C7.60084 17.7046 7.73797 17.8091 7.89855 17.8516C8.58717 18.0322 9.29603 18.1241 10.0079 18.125C10.7147 18.1241 11.4184 18.0322 12.1017 17.8516C12.2623 17.8091 12.3994 17.7046 12.4829 17.561C12.5664 17.4174 12.5895 17.2465 12.547 17.0859C12.5045 16.9254 12.4 16.7882 12.2564 16.7047C12.1128 16.6212 11.9419 16.5982 11.7814 16.6406ZM17.4064 11.3359C17.3269 11.3147 17.2439 11.3094 17.1624 11.3204C17.0808 11.3313 17.0022 11.3582 16.9311 11.3996C16.8599 11.4409 16.7977 11.496 16.7478 11.5615C16.698 11.627 16.6616 11.7017 16.6407 11.7813C16.3283 12.9462 15.7138 14.008 14.8595 14.8594C14.7744 14.9482 14.7171 15.0599 14.6945 15.1808C14.672 15.3017 14.6851 15.4265 14.7323 15.5401C14.7796 15.6536 14.8589 15.7509 14.9606 15.8201C15.0622 15.8893 15.1818 15.9274 15.3048 15.9297C15.3866 15.9298 15.4677 15.9133 15.5429 15.8811C15.6181 15.8488 15.686 15.8016 15.7423 15.7422C16.7553 14.7367 17.4832 13.4804 17.8517 12.1016C17.8729 12.0221 17.8782 11.9391 17.8673 11.8576C17.8563 11.776 17.8294 11.6974 17.7881 11.6263C17.7467 11.5551 17.6917 11.4929 17.6262 11.443C17.5607 11.3932 17.486 11.3568 17.4064 11.3359ZM16.6407 8.21876C16.6764 8.35167 16.7544 8.46934 16.863 8.55393C16.9715 8.63852 17.1047 8.68541 17.2423 8.68751L17.4064 8.66407C17.486 8.64319 17.5607 8.60679 17.6262 8.55697C17.6917 8.50715 17.7467 8.44489 17.7881 8.37375C17.8294 8.30262 17.8563 8.22401 17.8673 8.14244C17.8782 8.06088 17.8729 7.97796 17.8517 7.89844C17.479 6.51907 16.7517 5.26126 15.7423 4.25001C15.6843 4.19169 15.6152 4.14556 15.5391 4.11432C15.4631 4.08308 15.3815 4.06736 15.2993 4.06809C15.217 4.06881 15.1357 4.08597 15.0602 4.11856C14.9847 4.15114 14.9165 4.19849 14.8595 4.25782C14.7426 4.37498 14.677 4.53373 14.677 4.69922C14.677 4.86472 14.7426 5.02346 14.8595 5.14063C15.7141 5.99178 16.3286 7.05367 16.6407 8.21876ZM8.21887 3.35938C9.38579 3.04673 10.6144 3.04673 11.7814 3.35938C11.8347 3.37482 11.8899 3.38271 11.9454 3.38282C12.1007 3.38744 12.2522 3.33405 12.3703 3.23306C12.4883 3.13207 12.5646 2.99072 12.5841 2.83658C12.6036 2.68244 12.565 2.52656 12.4758 2.39933C12.3866 2.27211 12.2532 2.18266 12.1017 2.14844C10.7247 1.78125 9.27554 1.78125 7.89855 2.14844C7.73797 2.19092 7.60084 2.29545 7.51733 2.43903C7.43382 2.58261 7.41077 2.75349 7.45324 2.91407C7.49572 3.07465 7.60024 3.21178 7.74383 3.29529C7.88741 3.3788 8.05829 3.40186 8.21887 3.35938Z" fill="#717582"/>
</svg>
