<svg width="20" height="21" viewBox="0 0 20 21" fill="none" xmlns="http://www.w3.org/2000/svg">
<path fill-rule="evenodd" clip-rule="evenodd" d="M2.5 4.66671C2.5 2.82576 3.99238 1.33337 5.83333 1.33337H12.786C13.67 1.33337 14.5179 1.68456 15.143 2.30968L16.5237 3.6904C17.1488 4.31552 17.5 5.16336 17.5 6.04742V16.3334C17.5 18.1743 16.0076 19.6667 14.1667 19.6667H5.83333C3.99238 19.6667 2.5 18.1743 2.5 16.3334V4.66671ZM15.8333 7.16671V16.3334C15.8333 17.2538 15.0871 18 14.1667 18H5.83333C4.91286 18 4.16667 17.2538 4.16667 16.3334V4.66671C4.16667 3.74623 4.91286 3.00004 5.83333 3.00004H11.6667V4.66671C11.6667 6.04742 12.786 7.16671 14.1667 7.16671H15.8333ZM15.7409 5.50004C15.659 5.2647 15.5247 5.04844 15.3452 4.86891L13.9645 3.4882C13.7849 3.30867 13.5687 3.17433 13.3333 3.09249V4.66671C13.3333 5.12694 13.7064 5.50004 14.1667 5.50004H15.7409Z" fill="#5EE6D0"/>
<path d="M7.5013 10.5C7.04106 10.5 6.66797 10.8731 6.66797 11.3333C6.66797 11.7936 7.04106 12.1667 7.5013 12.1667H12.5013C12.9615 12.1667 13.3346 11.7936 13.3346 11.3333C13.3346 10.8731 12.9615 10.5 12.5013 10.5H7.5013Z" fill="#5EE6D0"/>
<path d="M7.5013 13.8333C7.04106 13.8333 6.66797 14.2064 6.66797 14.6667C6.66797 15.1269 7.04106 15.5 7.5013 15.5H10.0013C10.4615 15.5 10.8346 15.1269 10.8346 14.6667C10.8346 14.2064 10.4615 13.8333 10.0013 13.8333H7.5013Z" fill="#5EE6D0"/>
</svg>
