<svg width="22" height="18" viewBox="0 0 22 18" fill="none" xmlns="http://www.w3.org/2000/svg">
<path d="M7.04652 15.4468L7.04626 15.4469C6.94352 15.4987 6.80544 15.5227 6.63692 15.5203C6.4689 15.518 6.27422 15.4895 6.06094 15.4397C5.63438 15.3402 5.13879 15.1567 4.64315 14.9339C3.66023 14.4919 2.6871 13.8995 2.26065 13.5114C2.23628 13.365 2.23935 13.128 2.26788 12.8181C2.29734 12.4981 2.35343 12.1051 2.43122 11.6629C2.5868 10.7787 2.82877 9.70047 3.11654 8.62145C3.40433 7.54235 3.73765 6.46352 4.07574 5.57799C4.2448 5.1352 4.41477 4.74146 4.58052 4.4205C4.74673 4.09868 4.90698 3.85343 5.05561 3.7048C5.6614 3.09901 6.60289 2.79298 7.4001 2.63929C7.79761 2.56265 8.15694 2.52432 8.41688 2.50515C8.54681 2.49557 8.65182 2.49078 8.72423 2.4884C8.76044 2.4872 8.78849 2.48661 8.80743 2.48631L8.82889 2.48605L8.83426 2.48602L8.83557 2.48601L8.83588 2.48601L8.83595 2.48601C9.04051 2.48601 9.2367 2.40475 9.38134 2.2601C9.52599 2.11546 9.60725 1.91927 9.60725 1.71471C9.60725 1.51015 9.52599 1.31396 9.38134 1.16932C9.2367 1.02467 9.04051 0.943408 8.83595 0.943408C8.7695 0.943408 7.96499 0.943458 6.97108 1.15094C5.97841 1.35816 4.78943 1.77378 3.96053 2.60996C3.78734 2.78409 3.59418 3.0815 3.39142 3.4666C3.18807 3.8528 2.97314 4.33097 2.7573 4.86974C2.32561 5.94733 1.8893 7.26989 1.53407 8.58925C1.1789 9.90838 0.904313 11.226 0.796758 12.2936C0.742995 12.8272 0.730763 13.3002 0.77176 13.6804C0.812497 14.0582 0.90676 14.3547 1.07534 14.5242L1.07565 14.5245C1.38374 14.829 2.27236 15.4592 3.33913 16.0129C4.4053 16.5663 5.65997 17.0489 6.70023 17.0491C7.0593 17.0588 7.41555 16.983 7.73953 16.8278L7.73953 16.8278L7.74061 16.8273C7.92227 16.7348 8.05994 16.5742 8.12354 16.3805C8.18712 16.1869 8.17148 15.976 8.08003 15.7938C7.98892 15.6108 7.8289 15.4715 7.63513 15.4064C7.44133 15.3414 7.22962 15.3559 7.04652 15.4468Z" fill="url(#paint0_linear_6380_39983)" stroke="url(#paint1_linear_6380_39983)" stroke-width="0.1"/>
<path d="M18.0391 2.60993L18.0036 2.64519L18.0389 2.60976C17.2101 1.78458 16.0212 1.36899 15.0287 1.15908C14.0349 0.948913 13.2305 0.943408 13.1637 0.943408C12.9591 0.943408 12.7629 1.02467 12.6183 1.16932C12.4736 1.31396 12.3924 1.51015 12.3924 1.71471C12.3924 1.91927 12.4736 2.11546 12.6183 2.2601C12.7629 2.40475 12.9591 2.48601 13.1637 2.48601C13.5206 2.48601 14.218 2.54149 14.9513 2.72258C15.6859 2.90397 16.4488 3.20955 16.944 3.7048C17.0926 3.85343 17.2529 4.09878 17.4191 4.42079C17.5849 4.74193 17.7548 5.13592 17.9239 5.57899C18.262 6.46509 18.5953 7.5446 18.8831 8.62415C19.1708 9.70363 19.4128 10.7821 19.5684 11.666C19.6462 12.1079 19.7023 12.5006 19.7317 12.8201C19.7603 13.1295 19.7633 13.3658 19.739 13.5114C19.3125 13.8995 18.3394 14.4919 17.3565 14.9339C16.8608 15.1567 16.3652 15.3402 15.9387 15.4397C15.7254 15.4895 15.5307 15.518 15.3627 15.5203C15.1942 15.5227 15.0561 15.4987 14.9534 15.4469L14.9531 15.4468C14.77 15.3559 14.5583 15.3414 14.3645 15.4064C14.1708 15.4715 14.0108 15.6108 13.9196 15.7937C13.8282 15.9759 13.8125 16.1869 13.8761 16.3805C13.9397 16.5742 14.0774 16.7348 14.259 16.8273L14.2601 16.8278C14.5841 16.983 14.9403 17.0588 15.2994 17.0491C16.3397 17.0489 17.5943 16.5663 18.6605 16.0129C19.7273 15.4592 20.6159 14.829 20.924 14.5245L20.9243 14.5242C21.0929 14.3547 21.1871 14.0582 21.2279 13.6804C21.2689 13.3002 21.2566 12.8272 21.2029 12.2936C21.0953 11.226 20.8207 9.90838 20.4655 8.58925C20.1103 7.26989 19.674 5.94733 19.2423 4.86974C19.0265 4.33097 18.8115 3.8528 18.6082 3.4666C18.4054 3.08147 18.2123 2.78405 18.0391 2.60993Z" fill="url(#paint2_linear_6380_39983)" stroke="url(#paint3_linear_6380_39983)" stroke-width="0.1"/>
<path d="M8.11448 11.6826C8.9442 11.6826 9.60708 10.9279 9.60708 10.0096C9.60708 9.09141 8.9442 8.33672 8.11448 8.33672C7.28476 8.33672 6.62187 9.09141 6.62187 10.0096C6.62187 10.9279 7.28476 11.6826 8.11448 11.6826Z" fill="url(#paint4_linear_6380_39983)" stroke="url(#paint5_linear_6380_39983)" stroke-width="0.1"/>
<path d="M13.885 11.6826C14.7147 11.6826 15.3776 10.9279 15.3776 10.0096C15.3776 9.09141 14.7147 8.33672 13.885 8.33672C13.0553 8.33672 12.3924 9.09141 12.3924 10.0096C12.3924 10.9279 13.0553 11.6826 13.885 11.6826Z" fill="url(#paint6_linear_6380_39983)" stroke="url(#paint7_linear_6380_39983)" stroke-width="0.1"/>
<path d="M5.63841 5.97663L5.63811 5.97682C5.46425 6.08522 5.25445 6.12012 5.05486 6.07384C4.85527 6.02756 4.68224 5.90388 4.57383 5.73003C4.46542 5.55617 4.43052 5.34637 4.47681 5.14678C4.49972 5.04795 4.54188 4.9546 4.60087 4.87207C4.65985 4.78956 4.73449 4.71947 4.82054 4.6658C4.95018 4.58432 6.51204 3.63102 8.80446 3.17416C11.0981 2.71706 14.1251 2.7567 17.1789 4.6657L5.63841 5.97663ZM5.63841 5.97663C5.74346 5.91009 7.1045 5.08381 9.09987 4.68779C11.0944 4.29194 13.7206 4.32626 16.3614 5.97679L16.3616 5.97689M5.63841 5.97663L16.3616 5.97689M16.3616 5.97689C16.4843 6.05294 16.6259 6.09303 16.7703 6.09258C16.9013 6.09282 17.0302 6.05967 17.1449 5.99627M16.3616 5.97689L17.1449 5.99627M17.1449 5.99627C17.2596 5.93284 17.3562 5.84123 17.4257 5.73007M17.1449 5.99627L17.4257 5.73007M17.4257 5.73007C17.4796 5.64403 17.5159 5.54821 17.5326 5.4481C17.5494 5.34799 17.5462 5.24555 17.5233 5.14666C17.5003 5.04778 17.4581 4.95439 17.399 4.87185C17.3399 4.78936 17.2652 4.71933 17.179 4.66578L17.4257 5.73007ZM17.4257 5.73007C17.4257 5.73008 17.4257 5.73009 17.4257 5.7301L17.3833 5.70357C17.3183 5.80752 17.2279 5.8932 17.1207 5.95251L17.4257 5.73007Z" fill="url(#paint8_linear_6380_39983)" stroke="url(#paint9_linear_6380_39983)" stroke-width="0.1"/>
<path d="M16.2216 14.5235L16.2216 14.5235C16.1714 14.4704 16.1281 14.4113 16.0926 14.3477C14.5979 15.1335 12.934 15.5435 11.2448 15.5417M16.2216 14.5235L10.7545 15.5417M16.2216 14.5235L16.2224 14.5243C16.2941 14.5966 16.3794 14.654 16.4734 14.6932C16.5674 14.7323 16.6682 14.7525 16.7701 14.7525C16.8719 14.7525 16.9727 14.7323 17.0667 14.6932C17.1604 14.6541 17.2455 14.597 17.317 14.525C17.8713 14.0054 18.209 13.2958 18.2625 12.5379L18.2627 12.5379L18.2627 12.5345C18.263 12.3899 18.2226 12.2482 18.1462 12.1255C18.0699 12.0027 17.9606 11.9039 17.8307 11.8403L17.8306 11.8402C17.7011 11.7774 17.5566 11.7521 17.4135 11.7671C17.2704 11.7821 17.1343 11.8368 17.0207 11.9251L17.0207 11.9251L17.0198 11.9258C15.3217 13.307 13.1891 14.0416 11.0006 13.9991L10.9989 13.9991C8.81539 14.03 6.69024 13.2937 4.99383 11.9185L4.99384 11.9185L4.99302 11.9179C4.87707 11.8278 4.73781 11.7727 4.59161 11.759C4.44557 11.7454 4.29867 11.7736 4.16814 11.8405C4.03851 11.9041 3.92933 12.0029 3.85304 12.1255C3.77667 12.2482 3.73633 12.3899 3.73662 12.5345L3.73651 12.5345L3.73675 12.5379C3.79027 13.2958 4.12796 14.0054 4.68226 14.525C4.75383 14.597 4.8389 14.6541 4.9326 14.6932C5.02659 14.7323 5.12741 14.7525 5.22923 14.7525C5.33105 14.7525 5.43186 14.7323 5.52585 14.6932C5.61984 14.654 5.70515 14.5966 5.77685 14.5243L5.77686 14.5243L5.77768 14.5235C5.82787 14.4704 5.87121 14.4113 5.90673 14.3477L16.2216 14.5235ZM11.2448 15.5417L11.2449 15.4917V15.5417H11.2448ZM11.2448 15.5417H10.7545M10.7545 15.5417L10.7544 15.492V15.5417H10.7545ZM16.0695 14.3033C16.0842 14.2956 16.099 14.2878 16.1137 14.2799C16.1209 14.295 16.1286 14.3098 16.1368 14.3243L16.0695 14.3033ZM10.9996 14.0491L10.9996 14.0491L10.9996 14.0491Z" fill="url(#paint10_linear_6380_39983)" stroke="url(#paint11_linear_6380_39983)" stroke-width="0.1"/>
<defs>
<linearGradient id="paint0_linear_6380_39983" x1="0.797364" y1="8.99667" x2="9.27442" y2="10.5451" gradientUnits="userSpaceOnUse">
<stop stop-color="#5EE6D0"/>
<stop offset="0.515056" stop-color="#BFC6FF"/>
<stop offset="1" stop-color="#FFBA69"/>
</linearGradient>
<linearGradient id="paint1_linear_6380_39983" x1="0.797364" y1="8.99667" x2="9.27442" y2="10.5451" gradientUnits="userSpaceOnUse">
<stop stop-color="#5EE6D0"/>
<stop offset="0.515056" stop-color="#BFC6FF"/>
<stop offset="1" stop-color="#FFBA69"/>
</linearGradient>
<linearGradient id="paint2_linear_6380_39983" x1="12.4424" y1="8.99667" x2="20.9194" y2="10.5451" gradientUnits="userSpaceOnUse">
<stop stop-color="#5EE6D0"/>
<stop offset="0.515056" stop-color="#BFC6FF"/>
<stop offset="1" stop-color="#FFBA69"/>
</linearGradient>
<linearGradient id="paint3_linear_6380_39983" x1="12.4424" y1="8.99667" x2="20.9194" y2="10.5451" gradientUnits="userSpaceOnUse">
<stop stop-color="#5EE6D0"/>
<stop offset="0.515056" stop-color="#BFC6FF"/>
<stop offset="1" stop-color="#FFBA69"/>
</linearGradient>
<linearGradient id="paint4_linear_6380_39983" x1="6.67188" y1="10.0096" x2="9.32367" y2="10.7964" gradientUnits="userSpaceOnUse">
<stop stop-color="#5EE6D0"/>
<stop offset="0.515056" stop-color="#BFC6FF"/>
<stop offset="1" stop-color="#FFBA69"/>
</linearGradient>
<linearGradient id="paint5_linear_6380_39983" x1="6.67188" y1="10.0096" x2="9.32367" y2="10.7964" gradientUnits="userSpaceOnUse">
<stop stop-color="#5EE6D0"/>
<stop offset="0.515056" stop-color="#BFC6FF"/>
<stop offset="1" stop-color="#FFBA69"/>
</linearGradient>
<linearGradient id="paint6_linear_6380_39983" x1="12.4424" y1="10.0096" x2="15.0942" y2="10.7964" gradientUnits="userSpaceOnUse">
<stop stop-color="#5EE6D0"/>
<stop offset="0.515056" stop-color="#BFC6FF"/>
<stop offset="1" stop-color="#FFBA69"/>
</linearGradient>
<linearGradient id="paint7_linear_6380_39983" x1="12.4424" y1="10.0096" x2="15.0942" y2="10.7964" gradientUnits="userSpaceOnUse">
<stop stop-color="#5EE6D0"/>
<stop offset="0.515056" stop-color="#BFC6FF"/>
<stop offset="1" stop-color="#FFBA69"/>
</linearGradient>
<linearGradient id="paint8_linear_6380_39983" x1="4.50684" y1="4.51336" x2="8.82808" y2="10.6325" gradientUnits="userSpaceOnUse">
<stop stop-color="#5EE6D0"/>
<stop offset="0.515056" stop-color="#BFC6FF"/>
<stop offset="1" stop-color="#FFBA69"/>
</linearGradient>
<linearGradient id="paint9_linear_6380_39983" x1="4.50684" y1="4.51336" x2="8.82808" y2="10.6325" gradientUnits="userSpaceOnUse">
<stop stop-color="#5EE6D0"/>
<stop offset="0.515056" stop-color="#BFC6FF"/>
<stop offset="1" stop-color="#FFBA69"/>
</linearGradient>
<linearGradient id="paint10_linear_6380_39983" x1="3.78662" y1="13.6487" x2="9.11717" y2="20.6117" gradientUnits="userSpaceOnUse">
<stop stop-color="#5EE6D0"/>
<stop offset="0.515056" stop-color="#BFC6FF"/>
<stop offset="1" stop-color="#FFBA69"/>
</linearGradient>
<linearGradient id="paint11_linear_6380_39983" x1="3.78662" y1="13.6487" x2="9.11717" y2="20.6117" gradientUnits="userSpaceOnUse">
<stop stop-color="#5EE6D0"/>
<stop offset="0.515056" stop-color="#BFC6FF"/>
<stop offset="1" stop-color="#FFBA69"/>
</linearGradient>
</defs>
</svg>
