<svg width="20" height="20" viewBox="0 0 20 20" fill="none" xmlns="http://www.w3.org/2000/svg">
<path d="M6.70171 15.3653L6.70197 15.3652C6.85653 15.2884 7.03524 15.2761 7.19884 15.3311C7.3624 15.386 7.49747 15.5036 7.57439 15.6581C7.65158 15.8118 7.66478 15.9899 7.61111 16.1533C7.55743 16.3168 7.44122 16.4524 7.28787 16.5304L7.28679 16.531L7.28678 16.531C7.01564 16.6608 6.71749 16.7243 6.41697 16.7162C6.41674 16.7162 6.41652 16.7162 6.41629 16.7162L6.41766 16.6662C4.70456 16.6662 2.26415 15.0733 1.75924 14.5744L6.70171 15.3653ZM6.70171 15.3653C6.61775 15.4076 6.50419 15.4275 6.36446 15.4256C6.22524 15.4236 6.06363 15.4 5.88625 15.3586C5.53151 15.2759 5.11905 15.1232 4.70628 14.9376C3.88915 14.5701 3.08073 14.0781 2.72521 13.7556M6.70171 15.3653L6.72421 15.4099M6.72421 15.4099C5.97285 15.7886 3.38818 14.4362 2.6789 13.781M6.72421 15.4099C6.8669 15.3391 7.03189 15.3278 7.18292 15.3785C7.33395 15.4292 7.45867 15.5378 7.52966 15.6804L6.72421 15.4099ZM2.6789 13.781L2.72803 13.7717C2.72704 13.7665 2.7261 13.7611 2.72521 13.7556M2.6789 13.781L2.71283 13.7443C2.71689 13.748 2.72102 13.7518 2.72521 13.7556M2.6789 13.781L2.72521 13.7556M2.72521 13.7556C2.70559 13.6345 2.70819 13.439 2.73178 13.1828C2.7563 12.9164 2.803 12.5891 2.8678 12.2208C2.9974 11.4843 3.19899 10.586 3.43875 9.68697C3.67852 8.7879 3.95621 7.88917 4.23781 7.15158C4.37863 6.78276 4.52015 6.45496 4.65808 6.18786C4.79647 5.9199 4.92954 5.71645 5.05248 5.59351C5.55548 5.09051 6.33799 4.83587 7.00191 4.70787C7.33277 4.64409 7.63188 4.61218 7.84825 4.59622C7.95641 4.58825 8.0438 4.58426 8.10405 4.58228C8.13417 4.58128 8.1575 4.58079 8.17324 4.58054L8.19105 4.58033L8.19549 4.5803L8.19657 4.5803L8.19682 4.5803L8.19687 4.5803C8.36955 4.5803 8.53515 4.5117 8.65726 4.3896C8.77936 4.2675 8.84796 4.10189 8.84796 3.92921C8.84796 3.75653 8.77936 3.59093 8.65726 3.46882C8.53515 3.34672 8.36955 3.27812 8.19687 3.27812C8.14124 3.27812 7.47017 3.27817 6.64111 3.45124C5.81328 3.62405 4.82056 3.97085 4.1281 4.66938L2.72521 13.7556Z" fill="url(#paint0_linear_12016_96910)" stroke="url(#paint1_linear_12016_96910)" stroke-width="0.1"/>
<path d="M12.4704 15.6804L12.4258 15.658C12.3485 15.8118 12.3353 15.9898 12.389 16.1533C12.4427 16.3168 12.5589 16.4524 12.7122 16.5304L12.7133 16.531C12.9845 16.6608 13.2826 16.7243 13.5831 16.7162C14.4521 16.716 15.499 16.3131 16.3877 15.8518C17.277 15.3902 18.0184 14.8645 18.276 14.61L18.2763 14.6097C18.4189 14.4663 18.4977 14.2168 18.5317 13.9015C18.5659 13.5838 18.5557 13.1891 18.5108 12.7441C18.4211 11.8539 18.1922 10.7553 17.8962 9.65583C17.6001 8.55609 17.2364 7.45364 16.8765 6.5553C16.6966 6.10616 16.5173 5.7074 16.3477 5.38523C16.1786 5.06414 16.0172 4.81537 15.872 4.66935L15.8718 4.66918C15.1794 3.97984 14.1868 3.63308 13.3591 3.45803C12.5302 3.28273 11.8592 3.27812 11.8032 3.27812C11.6306 3.27812 11.4649 3.34672 11.3428 3.46882C11.2207 3.59093 11.1521 3.75653 11.1521 3.92921C11.1521 4.10189 11.2207 4.2675 11.3428 4.3896C11.4649 4.5117 11.6306 4.5803 11.8032 4.5803C12.1 4.5803 12.6805 4.62645 13.291 4.7772C13.9026 4.92823 14.5365 5.18242 14.9476 5.59351C15.0705 5.71644 15.2036 5.91998 15.342 6.1881C15.4799 6.45535 15.6215 6.78336 15.7623 7.15242C16.0439 7.89047 16.3216 8.78977 16.5613 9.68922C16.8011 10.5886 17.0027 11.4871 17.1323 12.2234C17.1971 12.5915 17.2438 12.9186 17.2683 13.1845C17.2919 13.4403 17.2945 13.6352 17.2749 13.7556C16.9194 14.0781 16.111 14.5701 15.2938 14.9376C14.881 15.1232 14.4686 15.2759 14.1138 15.3586C13.9365 15.4 13.7749 15.4236 13.6356 15.4256C13.4959 15.4275 13.3823 15.4076 13.2984 15.3653L13.2981 15.3652C13.1436 15.2884 12.9649 15.2761 12.8013 15.3311C12.6377 15.386 12.5026 15.5037 12.4257 15.6582L12.4704 15.6804ZM12.4704 15.6804C12.5414 15.5378 12.6662 15.4292 12.8172 15.3785C12.9682 15.3278 13.1332 15.3391 13.2759 15.4099L18.2408 14.5744C17.7359 15.0733 15.2955 16.6662 13.5824 16.6662C13.2896 16.6742 12.9991 16.6124 12.7349 16.4859C12.5933 16.4138 12.4861 16.2887 12.4365 16.1377C12.3869 15.9868 12.3991 15.8224 12.4704 15.6804Z" fill="url(#paint2_linear_12016_96910)" stroke="url(#paint3_linear_12016_96910)" stroke-width="0.1"/>
<path d="M7.59573 12.2441C8.29265 12.2441 8.8479 11.6105 8.8479 10.8417C8.8479 10.0729 8.29265 9.43926 7.59573 9.43926C6.8988 9.43926 6.34355 10.0729 6.34355 10.8417C6.34355 11.6105 6.8988 12.2441 7.59573 12.2441Z" fill="url(#paint4_linear_12016_96910)" stroke="url(#paint5_linear_12016_96910)" stroke-width="0.1"/>
<path d="M12.4043 12.2441C13.1012 12.2441 13.6565 11.6105 13.6565 10.8417C13.6565 10.0729 13.1012 9.43926 12.4043 9.43926C11.7074 9.43926 11.1521 10.0729 11.1521 10.8417C11.1521 11.6105 11.7074 12.2441 12.4043 12.2441Z" fill="url(#paint6_linear_12016_96910)" stroke="url(#paint7_linear_12016_96910)" stroke-width="0.1"/>
<path d="M15.3616 7.28007C15.4071 7.20744 15.4378 7.12655 15.4519 7.04203C15.466 6.95752 15.4634 6.87104 15.444 6.78757C15.4246 6.7041 15.389 6.62527 15.3391 6.5556C15.2893 6.48597 15.2262 6.42686 15.1534 6.38165C12.6063 4.78935 10.0815 4.75631 8.1686 5.13753C6.25696 5.5185 4.95446 6.31342 4.84587 6.38167C4.77323 6.42697 4.71023 6.48614 4.66045 6.55578C4.61065 6.62545 4.57507 6.70424 4.55572 6.78767C4.51666 6.95615 4.54612 7.13324 4.63763 7.28C4.72913 7.42676 4.87519 7.53115 5.04367 7.57022C5.21215 7.60929 5.38925 7.57983 5.53601 7.48832L5.5363 7.48813C5.62332 7.43302 6.75655 6.74499 8.41802 6.41524C10.0786 6.08565 12.2648 6.11427 14.4633 7.48829L14.4634 7.48839C14.567 7.55258 14.6865 7.58642 14.8083 7.58606C14.919 7.58626 15.0278 7.55828 15.1246 7.50475C15.2214 7.45122 15.303 7.37389 15.3616 7.28007ZM15.3616 7.28007L15.3193 7.25355L15.3617 7.28005C15.3617 7.28005 15.3616 7.28006 15.3616 7.28007ZM4.8724 6.42405C4.8053 6.46589 4.74711 6.52053 4.70113 6.58485C4.65515 6.64918 4.62229 6.72194 4.60443 6.79896C4.56836 6.95452 4.59556 7.11804 4.68005 7.25355C4.76454 7.38905 4.8994 7.48544 5.05497 7.52151C5.21053 7.55759 5.37405 7.53038 5.50955 7.44589C5.68988 7.33169 10.0658 4.68091 14.4898 7.44589L4.8724 6.42405Z" fill="url(#paint8_linear_12016_96910)" stroke="url(#paint9_linear_12016_96910)" stroke-width="0.1"/>
<path d="M14.2409 14.4674C14.2701 14.5183 14.3053 14.5657 14.3457 14.6085L14.3457 14.6085L14.3465 14.6093C14.4071 14.6703 14.4791 14.7188 14.5584 14.7518C14.6377 14.7849 14.7228 14.8019 14.8088 14.8019C14.8947 14.8019 14.9798 14.7849 15.0592 14.7518C15.1382 14.7189 15.21 14.6707 15.2704 14.61C15.7338 14.1756 16.0161 13.5823 16.0608 12.9487L16.061 12.9487L16.061 12.9453C16.0612 12.8232 16.0272 12.7036 15.9627 12.6C15.8982 12.4964 15.8059 12.413 15.6964 12.3593L15.6962 12.3592C15.5869 12.3062 15.465 12.2848 15.3441 12.2974C15.2233 12.3101 15.1085 12.3563 15.0125 12.4308L15.0125 12.4308L15.0117 12.4315C13.5981 13.5813 11.8228 14.1928 10.0011 14.1574L9.99941 14.1574C8.18173 14.1831 6.41267 13.5702 5.00051 12.4255L5.00052 12.4254L4.9997 12.4248C4.90182 12.3488 4.78427 12.3022 4.66086 12.2907C4.53761 12.2792 4.41363 12.3031 4.30345 12.3595C4.19405 12.4132 4.10192 12.4965 4.03753 12.6C3.97307 12.7036 3.93901 12.8232 3.93926 12.9453L3.93914 12.9453L3.93938 12.9487C3.98413 13.5823 4.26643 14.1756 4.72981 14.61M14.2409 14.4674L9.79574 15.4096L9.7958 15.4596C8.38949 15.4611 7.0042 15.1204 5.75929 14.4674M14.2409 14.4674C12.996 15.1204 11.6107 15.4611 10.2044 15.4596M14.2409 14.4674L10.2044 15.4596M4.72981 14.61C4.72959 14.6098 4.72937 14.6095 4.72916 14.6093L4.76466 14.5741L4.73048 14.6106C4.73025 14.6104 4.73003 14.6102 4.72981 14.61ZM4.72981 14.61C4.7902 14.6707 4.86198 14.7189 4.94104 14.7518C5.02038 14.7849 5.10548 14.8019 5.19143 14.8019C5.27738 14.8019 5.36248 14.7849 5.44182 14.7518C5.52116 14.7188 5.59317 14.6703 5.6537 14.6093L5.65371 14.6093L5.65453 14.6085C5.69496 14.5657 5.73012 14.5183 5.75929 14.4674M5.75929 14.4674C5.76757 14.4529 5.77536 14.4382 5.78265 14.4232L5.6182 14.5741C5.65552 14.5346 5.68802 14.491 5.71506 14.444C5.72978 14.4518 5.74453 14.4596 5.75929 14.4674ZM10.2044 15.4596L10.2045 15.4096L10.2044 15.4596Z" fill="url(#paint10_linear_12016_96910)" stroke="url(#paint11_linear_12016_96910)" stroke-width="0.1"/>
<defs>
<linearGradient id="paint0_linear_12016_96910" x1="6.58137" y1="13.8712" x2="1.99928" y2="7.33931" gradientUnits="userSpaceOnUse">
<stop stop-color="#FFD569"/>
<stop offset="0.515056" stop-color="#FC8E4F"/>
<stop offset="1" stop-color="#FF697B"/>
</linearGradient>
<linearGradient id="paint1_linear_12016_96910" x1="6.58137" y1="13.8712" x2="1.99928" y2="7.33931" gradientUnits="userSpaceOnUse">
<stop stop-color="#FFD569"/>
<stop offset="0.515056" stop-color="#FC8E4F"/>
<stop offset="1" stop-color="#FF697B"/>
</linearGradient>
<linearGradient id="paint2_linear_12016_96910" x1="16.2855" y1="13.8712" x2="11.7034" y2="7.33933" gradientUnits="userSpaceOnUse">
<stop stop-color="#FFD569"/>
<stop offset="0.515056" stop-color="#FC8E4F"/>
<stop offset="1" stop-color="#FF697B"/>
</linearGradient>
<linearGradient id="paint3_linear_12016_96910" x1="16.2855" y1="13.8712" x2="11.7034" y2="7.33933" gradientUnits="userSpaceOnUse">
<stop stop-color="#FFD569"/>
<stop offset="0.515056" stop-color="#FC8E4F"/>
<stop offset="1" stop-color="#FF697B"/>
</linearGradient>
<linearGradient id="paint4_linear_12016_96910" x1="8.06783" y1="11.6272" x2="7.34844" y2="9.96155" gradientUnits="userSpaceOnUse">
<stop stop-color="#FFD569"/>
<stop offset="0.515056" stop-color="#FC8E4F"/>
<stop offset="1" stop-color="#FF697B"/>
</linearGradient>
<linearGradient id="paint5_linear_12016_96910" x1="8.06783" y1="11.6272" x2="7.34844" y2="9.96155" gradientUnits="userSpaceOnUse">
<stop stop-color="#FFD569"/>
<stop offset="0.515056" stop-color="#FC8E4F"/>
<stop offset="1" stop-color="#FF697B"/>
</linearGradient>
<linearGradient id="paint6_linear_12016_96910" x1="12.8764" y1="11.6272" x2="12.157" y2="9.96155" gradientUnits="userSpaceOnUse">
<stop stop-color="#FFD569"/>
<stop offset="0.515056" stop-color="#FC8E4F"/>
<stop offset="1" stop-color="#FF697B"/>
</linearGradient>
<linearGradient id="paint7_linear_12016_96910" x1="12.8764" y1="11.6272" x2="12.157" y2="9.96155" gradientUnits="userSpaceOnUse">
<stop stop-color="#FFD569"/>
<stop offset="0.515056" stop-color="#FC8E4F"/>
<stop offset="1" stop-color="#FF697B"/>
</linearGradient>
<linearGradient id="paint8_linear_12016_96910" x1="12.1248" y1="7.00247" x2="11.9575" y2="5.15385" gradientUnits="userSpaceOnUse">
<stop stop-color="#FFD569"/>
<stop offset="0.515056" stop-color="#FC8E4F"/>
<stop offset="1" stop-color="#FF697B"/>
</linearGradient>
<linearGradient id="paint9_linear_12016_96910" x1="12.1248" y1="7.00247" x2="11.9575" y2="5.15385" gradientUnits="userSpaceOnUse">
<stop stop-color="#FFD569"/>
<stop offset="0.515056" stop-color="#FC8E4F"/>
<stop offset="1" stop-color="#FF697B"/>
</linearGradient>
<linearGradient id="paint10_linear_12016_96910" x1="12.3606" y1="14.7658" x2="12.1426" y2="12.5428" gradientUnits="userSpaceOnUse">
<stop stop-color="#FFD569"/>
<stop offset="0.515056" stop-color="#FC8E4F"/>
<stop offset="1" stop-color="#FF697B"/>
</linearGradient>
<linearGradient id="paint11_linear_12016_96910" x1="12.3606" y1="14.7658" x2="12.1426" y2="12.5428" gradientUnits="userSpaceOnUse">
<stop stop-color="#FFD569"/>
<stop offset="0.515056" stop-color="#FC8E4F"/>
<stop offset="1" stop-color="#FF697B"/>
</linearGradient>
</defs>
</svg>
