<svg width="20" height="20" viewBox="0 0 20 20" fill="none" xmlns="http://www.w3.org/2000/svg">
<path d="M6.72421 15.4099C5.97285 15.7886 3.38818 14.4362 2.6789 13.781C2.48655 12.7652 3.98927 6.58601 5.01713 5.55815C6.04498 4.5303 8.19687 4.5303 8.19687 4.5303C8.35629 4.5303 8.50918 4.46697 8.6219 4.35424C8.73463 4.24152 8.79796 4.08863 8.79796 3.92921C8.79796 3.76979 8.73463 3.6169 8.6219 3.50418C8.50918 3.39145 8.35629 3.32812 8.19687 3.32812C8.08867 3.32812 5.52805 3.32812 4.16358 4.70461C3.04556 5.82864 0.719362 13.5285 1.75924 14.5744C2.26415 15.0733 4.70456 16.6662 6.41766 16.6662C6.71047 16.6742 7.00099 16.6124 7.26519 16.4859C7.40676 16.4138 7.51405 16.2887 7.5636 16.1377C7.61316 15.9868 7.60096 15.8224 7.52966 15.6804C7.45867 15.5378 7.33395 15.4292 7.18292 15.3785C7.03189 15.3278 6.8669 15.3391 6.72421 15.4099Z" fill="url(#paint0_linear_12018_96940)"/>
<path d="M15.8365 4.70461C14.472 3.34616 11.9114 3.32812 11.8032 3.32812C11.6438 3.32812 11.4909 3.39145 11.3782 3.50418C11.2655 3.6169 11.2021 3.76979 11.2021 3.92921C11.2021 4.08863 11.2655 4.24152 11.3782 4.35424C11.4909 4.46697 11.6438 4.5303 11.8032 4.5303C12.4043 4.5303 14.1415 4.71663 14.983 5.55815C16.0108 6.58601 17.5135 12.7712 17.3212 13.781C16.6119 14.4362 14.0272 15.7886 13.2759 15.4099C13.1332 15.3391 12.9682 15.3278 12.8172 15.3785C12.6662 15.4292 12.5414 15.5378 12.4704 15.6804C12.3991 15.8224 12.3869 15.9868 12.4365 16.1377C12.4861 16.2887 12.5933 16.4138 12.7349 16.4859C12.9991 16.6124 13.2896 16.6742 13.5824 16.6662C15.2955 16.6662 17.7359 15.0733 18.2408 14.5744C19.2807 13.5285 16.9545 5.82864 15.8365 4.70461Z" fill="url(#paint1_linear_12018_96940)"/>
<path d="M7.59573 12.1941C8.25967 12.1941 8.7979 11.5886 8.7979 10.8417C8.7979 10.0948 8.25967 9.48926 7.59573 9.48926C6.93178 9.48926 6.39355 10.0948 6.39355 10.8417C6.39355 11.5886 6.93178 12.1941 7.59573 12.1941Z" fill="url(#paint2_linear_12018_96940)"/>
<path d="M12.4043 12.1941C13.0683 12.1941 13.6065 11.5886 13.6065 10.8417C13.6065 10.0948 13.0683 9.48926 12.4043 9.48926C11.7404 9.48926 11.2021 10.0948 11.2021 10.8417C11.2021 11.5886 11.7404 12.1941 12.4043 12.1941Z" fill="url(#paint3_linear_12018_96940)"/>
<path d="M14.8083 7.53605C14.9105 7.53626 15.011 7.51043 15.1004 7.461C15.1898 7.41157 15.2651 7.34017 15.3193 7.25355C15.3612 7.18649 15.3895 7.11181 15.4026 7.03378C15.4156 6.95576 15.4132 6.87593 15.3953 6.79887C15.3774 6.7218 15.3445 6.64903 15.2985 6.58471C15.2524 6.52039 15.1941 6.46579 15.1269 6.42405C10.0598 3.25634 5.08278 6.29181 4.8724 6.42405C4.8053 6.46589 4.74711 6.52053 4.70113 6.58485C4.65515 6.64918 4.62229 6.72194 4.60443 6.79896C4.56836 6.95452 4.59556 7.11804 4.68005 7.25355C4.76454 7.38905 4.8994 7.48544 5.05497 7.52151C5.21053 7.55759 5.37405 7.53038 5.50955 7.44589C5.68988 7.33169 10.0658 4.68091 14.4898 7.44589C14.5854 7.50518 14.6958 7.53642 14.8083 7.53605Z" fill="url(#paint4_linear_12018_96940)"/>
<path d="M14.2618 14.3998C14.2927 14.4637 14.3332 14.5225 14.382 14.5741C14.4379 14.6304 14.5044 14.6752 14.5776 14.7057C14.6509 14.7362 14.7294 14.7519 14.8088 14.7519C14.8881 14.7519 14.9667 14.7362 15.04 14.7057C15.1132 14.6752 15.1797 14.6304 15.2356 14.5741C15.6901 14.1483 15.9671 13.5665 16.011 12.9452C16.0112 12.8325 15.9798 12.7221 15.9202 12.6264C15.8607 12.5308 15.7755 12.4538 15.6744 12.4042C15.5735 12.3552 15.4609 12.3355 15.3494 12.3472C15.2378 12.3589 15.1318 12.4015 15.0432 12.4703C13.6205 13.6275 11.8337 14.243 10.0001 14.2074C8.17073 14.2333 6.39028 13.6164 4.96903 12.4643C4.87866 12.3941 4.77014 12.3511 4.65621 12.3405C4.54228 12.3299 4.42767 12.3519 4.32587 12.4042C4.2247 12.4538 4.1395 12.5308 4.07999 12.6264C4.02047 12.7221 3.98903 12.8325 3.98926 12.9452C4.03314 13.5665 4.31009 14.1483 4.76466 14.5741C4.82054 14.6304 4.88702 14.6752 4.96027 14.7057C5.03351 14.7362 5.11208 14.7519 5.19143 14.7519C5.27078 14.7519 5.34935 14.7362 5.42259 14.7057C5.49584 14.6752 5.56232 14.6304 5.6182 14.5741C5.66699 14.5225 5.70754 14.4637 5.73842 14.3998C6.98749 15.0643 8.38092 15.4111 9.79574 15.4096H10.2045C11.6193 15.4111 13.0127 15.0643 14.2618 14.3998Z" fill="url(#paint5_linear_12018_96940)"/>
<defs>
<linearGradient id="paint0_linear_12018_96940" x1="6.58137" y1="13.8712" x2="1.99928" y2="7.33931" gradientUnits="userSpaceOnUse">
<stop stop-color="#FFD569"/>
<stop offset="0.515056" stop-color="#FC8E4F"/>
<stop offset="1" stop-color="#FF697B"/>
</linearGradient>
<linearGradient id="paint1_linear_12018_96940" x1="16.2855" y1="13.8712" x2="11.7034" y2="7.33933" gradientUnits="userSpaceOnUse">
<stop stop-color="#FFD569"/>
<stop offset="0.515056" stop-color="#FC8E4F"/>
<stop offset="1" stop-color="#FF697B"/>
</linearGradient>
<linearGradient id="paint2_linear_12018_96940" x1="8.06783" y1="11.6272" x2="7.34844" y2="9.96155" gradientUnits="userSpaceOnUse">
<stop stop-color="#FFD569"/>
<stop offset="0.515056" stop-color="#FC8E4F"/>
<stop offset="1" stop-color="#FF697B"/>
</linearGradient>
<linearGradient id="paint3_linear_12018_96940" x1="12.8764" y1="11.6272" x2="12.157" y2="9.96155" gradientUnits="userSpaceOnUse">
<stop stop-color="#FFD569"/>
<stop offset="0.515056" stop-color="#FC8E4F"/>
<stop offset="1" stop-color="#FF697B"/>
</linearGradient>
<linearGradient id="paint4_linear_12018_96940" x1="12.1248" y1="7.00247" x2="11.9575" y2="5.15385" gradientUnits="userSpaceOnUse">
<stop stop-color="#FFD569"/>
<stop offset="0.515056" stop-color="#FC8E4F"/>
<stop offset="1" stop-color="#FF697B"/>
</linearGradient>
<linearGradient id="paint5_linear_12018_96940" x1="12.3606" y1="14.7658" x2="12.1426" y2="12.5428" gradientUnits="userSpaceOnUse">
<stop stop-color="#FFD569"/>
<stop offset="0.515056" stop-color="#FC8E4F"/>
<stop offset="1" stop-color="#FF697B"/>
</linearGradient>
</defs>
</svg>
