<svg width="24" height="24" viewBox="0 0 24 24" fill="none" xmlns="http://www.w3.org/2000/svg">
<path d="M8.04664 18.4468L8.04638 18.4469C7.94364 18.4987 7.80556 18.5227 7.63704 18.5203C7.46903 18.518 7.27434 18.4895 7.06106 18.4397C6.6345 18.3402 6.13891 18.1567 5.64327 17.9339C4.66036 17.4919 3.68723 16.8995 3.26078 16.5114C3.2364 16.365 3.23948 16.128 3.26801 15.8181C3.29746 15.4981 3.35355 15.1051 3.43135 14.6629C3.58692 13.7787 3.82889 12.7005 4.11667 11.6214C4.40445 10.5424 4.73778 9.46352 5.07586 8.57799C5.24492 8.1352 5.41489 7.74146 5.58065 7.4205C5.74685 7.09868 5.9071 6.85343 6.05574 6.7048C6.66152 6.09901 7.60301 5.79298 8.40023 5.63929C8.79774 5.56265 9.15706 5.52432 9.417 5.50515C9.54693 5.49557 9.65194 5.49078 9.72436 5.4884C9.76056 5.4872 9.78861 5.48661 9.80756 5.48631L9.82901 5.48605L9.83439 5.48602L9.8357 5.48601L9.836 5.48601L9.83607 5.48601C10.0406 5.48601 10.2368 5.40475 10.3815 5.2601C10.5261 5.11546 10.6074 4.91927 10.6074 4.71471C10.6074 4.51015 10.5261 4.31396 10.3815 4.16932C10.2368 4.02467 10.0406 3.94341 9.83607 3.94341C9.76963 3.94341 8.96511 3.94346 7.97121 4.15094C6.97853 4.35816 5.78955 4.77378 4.96065 5.60996C4.78747 5.78409 4.59431 6.0815 4.39154 6.4666C4.18819 6.8528 3.97326 7.33097 3.75742 7.86974C3.32573 8.94733 2.88942 10.2699 2.53419 11.5893C2.17902 12.9084 1.90444 14.226 1.79688 15.2936C1.74312 15.8272 1.73089 16.3002 1.77188 16.6804C1.81262 17.0582 1.90688 17.3547 2.07546 17.5242L2.07577 17.5245C2.38386 17.829 3.27248 18.4592 4.33925 19.0129C5.4054 19.5663 6.66003 20.0489 7.70028 20.0491C8.05938 20.0588 8.41565 19.983 8.73965 19.8278L8.73966 19.8278L8.74073 19.8273C8.9224 19.7348 9.06007 19.5742 9.12366 19.3805C9.18725 19.1869 9.17159 18.9759 9.08011 18.7937C8.98899 18.6108 8.82899 18.4715 8.63525 18.4064C8.44145 18.3414 8.22974 18.3559 8.04664 18.4468Z" fill="url(#paint0_linear_1089_2937)" stroke="url(#paint1_linear_1089_2937)" stroke-width="0.1"/>
<path d="M14.9646 18.8162L14.9199 18.7937C14.8284 18.9759 14.8127 19.1869 14.8763 19.3805C14.9399 19.5742 15.0776 19.7348 15.2593 19.8273L15.2603 19.8278C15.5843 19.983 15.9406 20.0588 16.2997 20.0491C17.34 20.0489 18.5946 19.5663 19.6607 19.0129C20.7275 18.4592 21.6161 17.829 21.9242 17.5245L21.9245 17.5242C22.0931 17.3547 22.1874 17.0582 22.2281 16.6804C22.2691 16.3002 22.2569 15.8272 22.2031 15.2936C22.0955 14.226 21.821 12.9084 21.4658 11.5893C21.1106 10.2699 20.6743 8.94733 20.2426 7.86974C20.0267 7.33097 19.8118 6.8528 19.6084 6.4666C19.4057 6.08147 19.2125 5.78405 19.0393 5.60993L19.0391 5.60976C18.2103 4.78458 17.0215 4.36899 16.0289 4.15908C15.0352 3.94891 14.2307 3.94341 14.1639 3.94341C13.9594 3.94341 13.7632 4.02467 13.6185 4.16932C13.4739 4.31396 13.3926 4.51015 13.3926 4.71471C13.3926 4.91927 13.4739 5.11546 13.6185 5.2601C13.7632 5.40475 13.9594 5.48601 14.1639 5.48601C14.5208 5.48601 15.2182 5.54149 15.9516 5.72258C16.6861 5.90397 17.449 6.20955 17.9443 6.7048C18.0929 6.85343 18.2531 7.09878 18.4193 7.42079C18.5851 7.74193 18.7551 8.13592 18.9241 8.57899C19.2622 9.46509 19.5955 10.5446 19.8833 11.6241C20.1711 12.7036 20.4131 13.7821 20.5686 14.666C20.6464 15.1079 20.7025 15.5006 20.732 15.8201C20.7605 16.1295 20.7636 16.3658 20.7392 16.5114C20.3128 16.8995 19.3396 17.4919 18.3567 17.9339C17.8611 18.1567 17.3655 18.3402 16.9389 18.4397C16.7257 18.4895 16.531 18.518 16.363 18.5203C16.1944 18.5227 16.0564 18.4987 15.9536 18.4469L15.9534 18.4468C15.7703 18.3559 15.5585 18.3414 15.3647 18.4064C15.1709 18.4715 15.0109 18.6109 14.9198 18.7939L14.9646 18.8162ZM14.9646 18.8162C15.0498 18.645 15.1994 18.5147 15.3807 18.4538C15.5619 18.393 15.7599 18.4066 15.9311 18.4916L21.8891 17.489C21.2832 18.0877 18.3547 19.9991 16.299 19.9991C15.9476 20.0087 15.599 19.9346 15.2819 19.7827C15.1121 19.6962 14.9833 19.546 14.9238 19.3649C14.8644 19.1838 14.879 18.9865 14.9646 18.8162Z" fill="url(#paint2_linear_1089_2937)" stroke="url(#paint3_linear_1089_2937)" stroke-width="0.1"/>
<path d="M9.11472 14.6826C9.94444 14.6826 10.6073 13.9279 10.6073 13.0096C10.6073 12.0914 9.94444 11.3367 9.11472 11.3367C8.28501 11.3367 7.62212 12.0914 7.62212 13.0096C7.62212 13.9279 8.28501 14.6826 9.11472 14.6826Z" fill="url(#paint4_linear_1089_2937)" stroke="url(#paint5_linear_1089_2937)" stroke-width="0.1"/>
<path d="M14.8852 14.6826C15.7149 14.6826 16.3778 13.9279 16.3778 13.0096C16.3778 12.0914 15.7149 11.3367 14.8852 11.3367C14.0555 11.3367 13.3926 12.0914 13.3926 13.0096C13.3926 13.9279 14.0555 14.6826 14.8852 14.6826Z" fill="url(#paint6_linear_1089_2937)" stroke="url(#paint7_linear_1089_2937)" stroke-width="0.1"/>
<path d="M18.4259 8.7301C18.4798 8.64405 18.5161 8.54822 18.5329 8.4481C18.5496 8.34799 18.5464 8.24555 18.5235 8.14666C18.5006 8.04778 18.4583 7.95439 18.3992 7.87186C18.3402 7.78936 18.2654 7.71933 18.1792 7.66578C15.1254 5.7567 12.0984 5.71706 9.80471 6.17416C7.51229 6.63102 5.95042 7.58432 5.82079 7.6658C5.73473 7.71947 5.66009 7.78956 5.60112 7.87207C5.54212 7.9546 5.49997 8.04795 5.47705 8.14678C5.43077 8.34637 5.46567 8.55617 5.57408 8.73003C5.68248 8.90388 5.85551 9.02756 6.0551 9.07384C6.25469 9.12012 6.4645 9.08522 6.63836 8.97682L6.63865 8.97663C6.74371 8.91009 8.10474 8.08381 10.1001 7.68779C12.0946 7.29194 14.7208 7.32626 17.3617 8.97679L17.3618 8.97689C17.4845 9.05293 17.6261 9.09302 17.7705 9.09258C17.9015 9.09283 18.0304 9.05968 18.1451 8.99627C18.2598 8.93285 18.3565 8.84124 18.4259 8.7301ZM18.4259 8.7301L18.3835 8.70357L18.4259 8.73007C18.4259 8.73008 18.4259 8.73009 18.4259 8.7301ZM5.84732 7.70818C5.76681 7.75838 5.69697 7.82395 5.64179 7.90114C5.58662 7.97834 5.54719 8.06564 5.52576 8.15807C5.48247 8.34474 5.51511 8.54097 5.6165 8.70357C5.71789 8.86618 5.87972 8.98185 6.0664 9.02513C6.25307 9.06842 6.44929 9.03578 6.6119 8.93439C6.82829 8.79734 12.0794 5.6164 17.3882 8.93439L5.84732 7.70818Z" fill="url(#paint8_linear_1089_2937)" stroke="url(#paint9_linear_1089_2937)" stroke-width="0.1"/>
<path d="M11.7548 18.5416C10.0656 18.5434 8.40176 18.1334 6.90709 17.3476C6.87157 17.4112 6.82823 17.4703 6.77805 17.5234L6.77723 17.5242L6.77722 17.5242C6.70552 17.5965 6.62021 17.6539 6.52622 17.693C6.43223 17.7322 6.33141 17.7524 6.22959 17.7524C6.12777 17.7524 6.02696 17.7322 5.93297 17.693C5.83926 17.654 5.75419 17.5969 5.68262 17.5249C5.12833 17.0053 4.79063 16.2956 4.73711 15.5378L4.73687 15.5344L4.73699 15.5344C4.7367 15.3898 4.77704 15.2481 4.85341 15.1253C4.9297 15.0027 5.03887 14.904 5.1685 14.8404C5.29904 14.7735 5.44594 14.7452 5.59198 14.7589C5.73817 14.7726 5.87743 14.8277 5.99339 14.9177L5.9942 14.9184L5.9942 14.9184C7.6906 16.2935 9.81575 17.0299 11.9993 16.999L12.001 16.999C14.1894 17.0414 16.3221 16.3068 18.0202 14.9256L18.0211 14.9249L18.0211 14.925C18.1347 14.8367 18.2708 14.7819 18.4139 14.7669C18.557 14.752 18.7015 14.7773 18.8309 14.8401L18.8311 14.8402C18.9609 14.9038 19.0702 15.0026 19.1466 15.1253C19.223 15.2481 19.2633 15.3898 19.263 15.5344L19.263 15.5378L19.2629 15.5378C19.2094 16.2956 18.8717 17.0053 18.3174 17.5249C18.2458 17.5969 18.1608 17.654 18.0671 17.693C17.9731 17.7322 17.8723 17.7524 17.7704 17.7524C17.6686 17.7524 17.5678 17.7322 17.4738 17.693C17.3798 17.6539 17.2945 17.5965 17.2228 17.5242L17.222 17.5234L17.222 17.5234C17.1718 17.4703 17.1285 17.4112 17.0929 17.3476C15.5983 18.1334 13.9344 18.5434 12.2452 18.5416M11.7548 18.5416H11.7548V18.4916L11.7548 18.5416ZM11.7548 18.5416H12.2452M12.2452 18.5416H12.2453V18.4916L12.2452 18.5416Z" fill="url(#paint10_linear_1089_2937)" stroke="url(#paint11_linear_1089_2937)" stroke-width="0.1"/>
<defs>
<linearGradient id="paint0_linear_1089_2937" x1="1.79749" y1="11.9967" x2="10.2745" y2="13.5451" gradientUnits="userSpaceOnUse">
<stop stop-color="#5EE6D0"/>
<stop offset="0.515056" stop-color="#BFC6FF"/>
<stop offset="1" stop-color="#FFBA69"/>
</linearGradient>
<linearGradient id="paint1_linear_1089_2937" x1="1.79749" y1="11.9967" x2="10.2745" y2="13.5451" gradientUnits="userSpaceOnUse">
<stop stop-color="#5EE6D0"/>
<stop offset="0.515056" stop-color="#BFC6FF"/>
<stop offset="1" stop-color="#FFBA69"/>
</linearGradient>
<linearGradient id="paint2_linear_1089_2937" x1="13.4426" y1="11.9967" x2="21.9197" y2="13.5451" gradientUnits="userSpaceOnUse">
<stop stop-color="#5EE6D0"/>
<stop offset="0.515056" stop-color="#BFC6FF"/>
<stop offset="1" stop-color="#FFBA69"/>
</linearGradient>
<linearGradient id="paint3_linear_1089_2937" x1="13.4426" y1="11.9967" x2="21.9197" y2="13.5451" gradientUnits="userSpaceOnUse">
<stop stop-color="#5EE6D0"/>
<stop offset="0.515056" stop-color="#BFC6FF"/>
<stop offset="1" stop-color="#FFBA69"/>
</linearGradient>
<linearGradient id="paint4_linear_1089_2937" x1="7.67212" y1="13.0096" x2="10.3239" y2="13.7964" gradientUnits="userSpaceOnUse">
<stop stop-color="#5EE6D0"/>
<stop offset="0.515056" stop-color="#BFC6FF"/>
<stop offset="1" stop-color="#FFBA69"/>
</linearGradient>
<linearGradient id="paint5_linear_1089_2937" x1="7.67212" y1="13.0096" x2="10.3239" y2="13.7964" gradientUnits="userSpaceOnUse">
<stop stop-color="#5EE6D0"/>
<stop offset="0.515056" stop-color="#BFC6FF"/>
<stop offset="1" stop-color="#FFBA69"/>
</linearGradient>
<linearGradient id="paint6_linear_1089_2937" x1="13.4426" y1="13.0096" x2="16.0944" y2="13.7964" gradientUnits="userSpaceOnUse">
<stop stop-color="#5EE6D0"/>
<stop offset="0.515056" stop-color="#BFC6FF"/>
<stop offset="1" stop-color="#FFBA69"/>
</linearGradient>
<linearGradient id="paint7_linear_1089_2937" x1="13.4426" y1="13.0096" x2="16.0944" y2="13.7964" gradientUnits="userSpaceOnUse">
<stop stop-color="#5EE6D0"/>
<stop offset="0.515056" stop-color="#BFC6FF"/>
<stop offset="1" stop-color="#FFBA69"/>
</linearGradient>
<linearGradient id="paint8_linear_1089_2937" x1="5.50708" y1="7.51336" x2="9.82833" y2="13.6325" gradientUnits="userSpaceOnUse">
<stop stop-color="#5EE6D0"/>
<stop offset="0.515056" stop-color="#BFC6FF"/>
<stop offset="1" stop-color="#FFBA69"/>
</linearGradient>
<linearGradient id="paint9_linear_1089_2937" x1="5.50708" y1="7.51336" x2="9.82833" y2="13.6325" gradientUnits="userSpaceOnUse">
<stop stop-color="#5EE6D0"/>
<stop offset="0.515056" stop-color="#BFC6FF"/>
<stop offset="1" stop-color="#FFBA69"/>
</linearGradient>
<linearGradient id="paint10_linear_1089_2937" x1="4.78699" y1="16.6486" x2="10.1175" y2="23.6116" gradientUnits="userSpaceOnUse">
<stop stop-color="#5EE6D0"/>
<stop offset="0.515056" stop-color="#BFC6FF"/>
<stop offset="1" stop-color="#FFBA69"/>
</linearGradient>
<linearGradient id="paint11_linear_1089_2937" x1="4.78699" y1="16.6486" x2="10.1175" y2="23.6116" gradientUnits="userSpaceOnUse">
<stop stop-color="#5EE6D0"/>
<stop offset="0.515056" stop-color="#BFC6FF"/>
<stop offset="1" stop-color="#FFBA69"/>
</linearGradient>
</defs>
</svg>
