<svg width="21" height="20" viewBox="0 0 21 20" fill="none" xmlns="http://www.w3.org/2000/svg">
<path d="M3 18.3333C3 17.8731 3.3731 17.5 3.83333 17.5H17.1667C17.6269 17.5 18 17.8731 18 18.3333C18 18.7936 17.6269 19.1667 17.1667 19.1667H3.83333C3.3731 19.1667 3 18.7936 3 18.3333Z" fill="url(#paint0_linear_8795_29368)"/>
<path fill-rule="evenodd" clip-rule="evenodd" d="M14.4226 2.60105C14.0972 2.27561 13.5695 2.27561 13.2441 2.60105L12.5119 3.33326L15.5 6.32141L16.2322 5.58921C16.5577 5.26377 16.5577 4.73613 16.2322 4.4107L14.4226 2.60105ZM6.26187 9.58326L11.3334 4.51177L14.3215 7.49992L9.25003 12.5714L6.26187 9.58326ZM5.08336 10.7618L4.66667 11.1785V14.1666H7.65482L8.07152 13.7499L5.08336 10.7618ZM12.0656 1.42254C13.0419 0.44623 14.6248 0.44623 15.6011 1.42254L17.4107 3.23219C18.3871 4.2085 18.3871 5.79141 17.4107 6.76772L8.83333 15.3451C8.52077 15.6577 8.09685 15.8333 7.65482 15.8333H4.66667C3.74619 15.8333 3 15.0871 3 14.1666V11.1785C3 10.7364 3.17559 10.3125 3.48816 9.99995L12.0656 1.42254Z" fill="url(#paint1_linear_8795_29368)"/>
<defs>
<linearGradient id="paint0_linear_8795_29368" x1="3" y1="18.3333" x2="4.49649" y2="22.8286" gradientUnits="userSpaceOnUse">
<stop stop-color="#5EE6D0"/>
<stop offset="0.515056" stop-color="#BFC6FF"/>
<stop offset="1" stop-color="#FFBA69"/>
</linearGradient>
<linearGradient id="paint1_linear_8795_29368" x1="3" y1="8.26179" x2="16.6251" y2="12.8094" gradientUnits="userSpaceOnUse">
<stop stop-color="#5EE6D0"/>
<stop offset="0.515056" stop-color="#BFC6FF"/>
<stop offset="1" stop-color="#FFBA69"/>
</linearGradient>
</defs>
</svg>
