<svg width="20" height="20" viewBox="0 0 20 20" fill="none" xmlns="http://www.w3.org/2000/svg">
<path fill-rule="evenodd" clip-rule="evenodd" d="M10.0003 16.667C13.6822 16.667 16.667 13.6822 16.667 10.0003C16.667 6.31843 13.6822 3.33366 10.0003 3.33366C6.31843 3.33366 3.33366 6.31843 3.33366 10.0003C3.33366 13.6822 6.31843 16.667 10.0003 16.667ZM10.0003 18.3337C14.6027 18.3337 18.3337 14.6027 18.3337 10.0003C18.3337 5.39795 14.6027 1.66699 10.0003 1.66699C5.39795 1.66699 1.66699 5.39795 1.66699 10.0003C1.66699 14.6027 5.39795 18.3337 10.0003 18.3337Z" fill="url(#paint0_linear_12016_96913)"/>
<path d="M10.0003 8.33301C10.0003 7.87277 10.3734 7.49967 10.8337 7.49967H11.667C12.1272 7.49967 12.5003 7.12658 12.5003 6.66634C12.5003 6.20611 12.1272 5.83301 11.667 5.83301H10.8337C9.45291 5.83301 8.33366 6.9523 8.33366 8.33301V9.99967H7.50033C7.04009 9.99967 6.66699 10.3728 6.66699 10.833C6.66699 11.2933 7.04008 11.6663 7.50033 11.6663H8.33366V16.6663C8.33366 17.1266 8.70674 17.4997 9.16699 17.4997C9.62724 17.4997 10.0003 17.1266 10.0003 16.6663V11.6663H11.667C12.1272 11.6663 12.5003 11.2933 12.5003 10.833C12.5003 10.3728 12.1272 9.99967 11.667 9.99967H10.0003V8.33301Z" fill="url(#paint1_linear_12016_96913)"/>
<defs>
<linearGradient id="paint0_linear_12016_96913" x1="13.2729" y1="14.8405" x2="9.1983" y2="4.22695" gradientUnits="userSpaceOnUse">
<stop stop-color="#FFD569"/>
<stop offset="0.515056" stop-color="#FC8E4F"/>
<stop offset="1" stop-color="#FF697B"/>
</linearGradient>
<linearGradient id="paint1_linear_12016_96913" x1="10.7291" y1="15.0545" x2="6.61139" y2="9.69159" gradientUnits="userSpaceOnUse">
<stop stop-color="#FFD569"/>
<stop offset="0.515056" stop-color="#FC8E4F"/>
<stop offset="1" stop-color="#FF697B"/>
</linearGradient>
</defs>
</svg>
