<svg width="20" height="20" viewBox="0 0 20 20" fill="none" xmlns="http://www.w3.org/2000/svg">
<path d="M8.74988 15.7959C8.74986 15.6959 8.72619 15.5972 8.68054 15.5066C8.63489 15.4161 8.56837 15.3361 8.48571 15.2721C8.40305 15.2081 8.30626 15.1618 8.20221 15.1365C8.09815 15.1112 7.98938 15.1075 7.88359 15.1256C6.92348 15.2893 5.71126 15.3139 5.38894 14.4725C5.1079 13.8209 4.64237 13.2521 4.04171 12.8264C3.99885 12.8047 3.958 12.7798 3.91959 12.7518C3.86702 12.623 3.77365 12.5119 3.65179 12.4334C3.52993 12.3548 3.38531 12.3124 3.23701 12.3118H3.23344C3.03952 12.3118 2.85347 12.3831 2.71601 12.5102C2.57856 12.6374 2.50089 12.8099 2.50001 12.9901C2.49714 13.546 3.09482 13.9021 3.33729 14.0226C3.62321 14.2896 3.853 14.6038 4.01485 14.9492C4.28201 15.6468 5.0584 16.7052 7.29019 16.5687C7.29093 16.5927 7.29163 16.6153 7.29198 16.636L7.2952 16.8184C7.2952 16.9991 7.37248 17.1725 7.51002 17.3004C7.64756 17.4282 7.83411 17.5 8.02863 17.5C8.22315 17.5 8.4097 17.4282 8.54724 17.3004C8.68478 17.1725 8.76206 16.9991 8.76206 16.8184L8.75848 16.6014C8.7549 16.4722 8.74988 16.2851 8.74988 15.7959ZM16.5733 5.48547C16.5966 5.40026 16.6195 5.30574 16.6396 5.19924C16.7582 4.43962 16.6548 3.66433 16.3402 2.95461C16.3005 2.86209 16.2395 2.77876 16.1615 2.71046C16.0835 2.64215 15.9904 2.59053 15.8886 2.55922C15.6275 2.47734 14.6635 2.31625 12.8199 3.41126C11.2874 3.0761 9.69218 3.0761 8.15972 3.41126C6.32364 2.33229 5.36459 2.4787 5.10603 2.55592C5.00179 2.58597 4.9061 2.63731 4.82597 2.70619C4.74585 2.77507 4.68333 2.85974 4.64298 2.95399C4.32196 3.67733 4.21968 4.46843 4.34718 5.24186C4.36509 5.32906 4.38442 5.40961 4.40448 5.48349C3.79689 6.23564 3.47326 7.15306 3.48376 8.09354C3.48178 8.30337 3.49218 8.51314 3.51492 8.72192C3.75988 11.8592 5.96016 12.8011 7.49324 13.1246C7.46138 13.2098 7.43237 13.301 7.40658 13.3975C7.36063 13.5729 7.39138 13.7581 7.4921 13.9124C7.59282 14.0667 7.75528 14.1777 7.94387 14.2208C8.13245 14.264 8.33177 14.2359 8.4981 14.1427C8.66443 14.0495 8.78421 13.8988 8.83117 13.7237C8.87784 13.4966 8.99746 13.2879 9.17425 13.1253C9.28116 13.0383 9.35856 12.9243 9.39704 12.7972C9.43552 12.6701 9.43342 12.5353 9.391 12.4093C9.34858 12.2832 9.26767 12.1714 9.15811 12.0873C9.04855 12.0032 8.91506 11.9506 8.77388 11.9357C6.24055 11.6668 5.14077 10.7076 4.97532 8.59678C4.95699 8.4296 4.94875 8.26159 4.95061 8.09355C4.93884 7.42326 5.17711 6.76986 5.62495 6.24435C5.66994 6.18956 5.71787 6.1369 5.76855 6.08658C5.85834 5.9932 5.91872 5.87863 5.94304 5.75545C5.96737 5.63227 5.9547 5.50524 5.90643 5.38831C5.85695 5.26529 5.81886 5.13858 5.79255 5.00954C5.7328 4.64263 5.7524 4.26833 5.8502 3.90854C6.48765 4.07586 7.08758 4.34822 7.62142 4.71265C7.70971 4.7673 7.8096 4.80367 7.91433 4.81929C8.01907 4.83491 8.12619 4.82942 8.22844 4.80319C9.71077 4.42931 11.2736 4.42955 12.7558 4.80387C12.8586 4.83007 12.9663 4.83525 13.0714 4.81905C13.1766 4.80284 13.2767 4.76565 13.3649 4.71001C13.8963 4.34407 14.4937 4.06928 15.129 3.89858C15.2264 4.24972 15.2482 4.61529 15.1931 4.97428C15.1665 5.11574 15.125 5.25443 15.0692 5.38832C15.0209 5.50525 15.0083 5.63228 15.0326 5.75546C15.0569 5.87864 15.1173 5.99321 15.2071 6.0866C15.2637 6.14584 15.3202 6.20974 15.3711 6.26965C15.8158 6.78627 16.05 7.43216 16.0326 8.09354C16.0339 8.2705 16.0247 8.44739 16.005 8.6234C15.8435 10.7062 14.7394 11.6661 12.1943 11.9357C12.053 11.9507 11.9195 12.0034 11.81 12.0876C11.7004 12.1717 11.6196 12.2837 11.5772 12.4097C11.5348 12.5358 11.5328 12.6706 11.5713 12.7978C11.6098 12.9249 11.6873 13.0389 11.7942 13.1259C11.9766 13.2929 12.0965 13.5099 12.1362 13.745C12.1858 13.9275 12.2086 14.1153 12.2039 14.3035V15.8944C12.1968 16.3357 12.1968 16.6666 12.1968 16.8183C12.1968 16.9991 12.274 17.1725 12.4116 17.3003C12.5491 17.4281 12.7357 17.5 12.9302 17.5C13.1247 17.5 13.3112 17.4281 13.4488 17.3003C13.5863 17.1725 13.6636 16.9991 13.6636 16.8183C13.6636 16.6705 13.6636 16.3464 13.6708 15.905V14.3035C13.6767 14.0021 13.6385 13.7013 13.5572 13.4095C13.534 13.3137 13.5056 13.219 13.472 13.1259C14.5877 12.9537 15.6015 12.419 16.3328 11.6172C17.0642 10.8154 17.4656 9.79837 17.4657 8.74722C17.4899 8.53007 17.5012 8.31184 17.4994 8.09354C17.5157 7.15205 17.1894 6.23304 16.5733 5.48548L16.5733 5.48547Z" fill="url(#paint0_linear_12016_96915)"/>
<defs>
<linearGradient id="paint0_linear_12016_96915" x1="12.9453" y1="14.3562" x2="9.27818" y2="4.80396" gradientUnits="userSpaceOnUse">
<stop stop-color="#FFD569"/>
<stop offset="0.515056" stop-color="#FC8E4F"/>
<stop offset="1" stop-color="#FF697B"/>
</linearGradient>
</defs>
</svg>
