<svg width="24" height="24" viewBox="0 0 24 24" fill="none" xmlns="http://www.w3.org/2000/svg">
<path d="M10.4999 18.955C10.4998 18.8351 10.4714 18.7166 10.4166 18.608C10.3619 18.4994 10.282 18.4033 10.1829 18.3265C10.0837 18.2498 9.96751 18.1942 9.84265 18.1638C9.71778 18.1334 9.58726 18.1289 9.46031 18.1507C8.30818 18.3472 6.85351 18.3767 6.46673 17.3671C6.12948 16.5851 5.57084 15.9025 4.85005 15.3917C4.79862 15.3657 4.74961 15.3358 4.70351 15.3022C4.64043 15.1476 4.52838 15.0143 4.38215 14.92C4.23592 14.8258 4.06238 14.7749 3.88442 14.7742H3.88012C3.64742 14.7741 3.42416 14.8597 3.25921 15.0123C3.09427 15.1648 3.00107 15.3719 3.00001 15.5882C2.99657 16.2552 3.71378 16.6825 4.00475 16.8271C4.34785 17.1475 4.6236 17.5246 4.81782 17.939C5.13841 18.7762 6.07008 20.0462 8.74823 19.8825C8.74911 19.9113 8.74995 19.9384 8.75038 19.9632L8.75425 20.182C8.75425 20.399 8.84697 20.607 9.01202 20.7604C9.17708 20.9138 9.40094 21 9.63436 21C9.86778 21 10.0916 20.9138 10.2567 20.7604C10.4217 20.607 10.5145 20.399 10.5145 20.182L10.5102 19.9216C10.5059 19.7666 10.4999 19.5422 10.4999 18.955ZM19.888 6.58256C19.9159 6.48032 19.9434 6.36689 19.9675 6.23908C20.1098 5.32754 19.9858 4.39719 19.6082 3.54554C19.5606 3.43451 19.4874 3.33451 19.3938 3.25255C19.3002 3.17058 19.1884 3.10864 19.0663 3.07106C18.753 2.97281 17.5962 2.7795 15.3839 4.09351C13.5449 3.69132 11.6306 3.69132 9.79166 4.09351C7.58836 2.79875 6.43751 2.97445 6.12724 3.0671C6.00214 3.10316 5.88731 3.16477 5.79117 3.24743C5.69502 3.33009 5.61999 3.43169 5.57158 3.54479C5.18636 4.4128 5.06362 5.36212 5.21661 6.29023C5.23811 6.39487 5.26131 6.49153 5.28538 6.58019C4.55627 7.48276 4.16791 8.58368 4.18051 9.71225C4.17814 9.96404 4.19062 10.2158 4.2179 10.4663C4.51186 14.231 7.15219 15.3613 8.99189 15.7495C8.95365 15.8518 8.91884 15.9612 8.8879 16.077C8.83275 16.2875 8.86965 16.5097 8.99052 16.6949C9.11138 16.8801 9.30634 17.0132 9.53264 17.065C9.75894 17.1168 9.99812 17.0831 10.1977 16.9713C10.3973 16.8594 10.5411 16.6786 10.5974 16.4684C10.6534 16.1959 10.7969 15.9455 11.0091 15.7503C11.1374 15.6459 11.2303 15.5092 11.2764 15.3566C11.3226 15.2041 11.3201 15.0424 11.2692 14.8911C11.2183 14.7399 11.1212 14.6057 10.9897 14.5048C10.8583 14.4039 10.6981 14.3407 10.5287 14.3229C7.48866 14.0002 6.16892 12.8491 5.97039 10.3161C5.94839 10.1155 5.93849 9.91391 5.94073 9.71226C5.92661 8.90792 6.21254 8.12384 6.74993 7.49322C6.80393 7.42747 6.86145 7.36428 6.92226 7.3039C7.03001 7.19184 7.10246 7.05436 7.13165 6.90654C7.16084 6.75872 7.14564 6.60629 7.08772 6.46597C7.02834 6.31835 6.98263 6.1663 6.95107 6.01145C6.87936 5.57116 6.90288 5.12199 7.02024 4.69025C7.78518 4.89104 8.50509 5.21787 9.14571 5.65518C9.25165 5.72076 9.37152 5.7644 9.4972 5.78315C9.62288 5.80189 9.75143 5.7953 9.87412 5.76382C11.6529 5.31517 13.5283 5.31545 15.3069 5.76464C15.4303 5.79609 15.5595 5.8023 15.6857 5.78286C15.8119 5.76341 15.9321 5.71878 16.0379 5.65202C16.6755 5.21288 17.3924 4.88313 18.1548 4.67829C18.2717 5.09967 18.2978 5.53834 18.2317 5.96913C18.1999 6.13889 18.1501 6.30531 18.083 6.46599C18.0251 6.6063 18.0099 6.75874 18.0391 6.90655C18.0683 7.05437 18.1407 7.19186 18.2485 7.30392C18.3164 7.375 18.3843 7.45169 18.4453 7.52358C18.9789 8.14353 19.26 8.91859 19.2391 9.71225C19.2407 9.9246 19.2296 10.1369 19.206 10.3481C19.0122 12.8475 17.6873 13.9994 14.6331 14.3229C14.4637 14.3408 14.3035 14.4041 14.172 14.5051C14.0405 14.6061 13.9435 14.7404 13.8926 14.8917C13.8418 15.043 13.8393 15.2048 13.8856 15.3573C13.9318 15.5099 14.0247 15.6467 14.1531 15.7511C14.3719 15.9515 14.5158 16.2119 14.5635 16.494C14.623 16.7129 14.6503 16.9384 14.6447 17.1642V19.0733C14.6361 19.6029 14.6361 19.9999 14.6361 20.182C14.6361 20.3989 14.7288 20.607 14.8939 20.7604C15.0589 20.9138 15.2828 21 15.5162 21C15.7496 21 15.9735 20.9138 16.1385 20.7604C16.3036 20.607 16.3963 20.3989 16.3963 20.182C16.3963 20.0047 16.3963 19.6157 16.4049 19.0861V17.1642C16.412 16.8025 16.3662 16.4416 16.2687 16.0914C16.2408 15.9764 16.2067 15.8629 16.1664 15.7511C17.5053 15.5444 18.7218 14.9028 19.5994 13.9406C20.477 12.9784 20.9587 11.758 20.9589 10.4967C20.9879 10.2361 21.0014 9.97421 20.9993 9.71225C21.0188 8.58245 20.6272 7.47964 19.888 6.58258L19.888 6.58256Z" fill="url(#paint0_linear_4332_16074)"/>
<defs>
<linearGradient id="paint0_linear_4332_16074" x1="3" y1="12" x2="19.1958" y2="17.4056" gradientUnits="userSpaceOnUse">
<stop stop-color="#5EE6D0"/>
<stop offset="0.515056" stop-color="#BFC6FF"/>
<stop offset="1" stop-color="#FFBA69"/>
</linearGradient>
</defs>
</svg>
