<svg width="32" height="32" viewBox="0 0 32 32" fill="none" xmlns="http://www.w3.org/2000/svg">
<rect width="32" height="32" rx="16" fill="url(#paint0_linear_4524_12962)"/>
<path fill-rule="evenodd" clip-rule="evenodd" d="M16.4444 4.44434C15.2171 4.44434 14.2222 5.43926 14.2222 6.66656C14.2222 7.89386 15.2171 8.88878 16.4444 8.88878C17.6717 8.88878 18.6666 7.89386 18.6666 6.66656C18.6666 5.43926 17.6717 4.44434 16.4444 4.44434ZM16.4444 13.3332C15.2171 13.3332 14.2222 14.3281 14.2222 15.5554V24.4443C14.2222 25.6716 15.2171 26.6666 16.4444 26.6666C17.6717 26.6666 18.6666 25.6716 18.6666 24.4443V15.5554C18.6666 14.3281 17.6717 13.3332 16.4444 13.3332Z" fill="#141416"/>
<defs>
<linearGradient id="paint0_linear_4524_12962" x1="1.06198e-06" y1="16" x2="28.7925" y2="25.61" gradientUnits="userSpaceOnUse">
<stop stop-color="#5EE6D0"/>
<stop offset="0.515056" stop-color="#BFC6FF"/>
<stop offset="1" stop-color="#FFBA69"/>
</linearGradient>
</defs>
</svg>
