<svg width="28" height="17" viewBox="0 0 28 17" fill="none" xmlns="http://www.w3.org/2000/svg">
<path d="M5.22841 12.651C6.11416 12.4137 6.49215 11.7755 6.26164 10.9153L5.51324 8.1222L4.65862 8.35119L5.40475 11.1358C5.51545 11.5489 5.38141 11.8184 5.02202 11.9147C4.68526 12.0049 4.43935 11.8342 4.34027 11.5211L4.3329 11.5049L3.50375 11.727L3.5134 11.7517C3.7387 12.5133 4.38511 12.877 5.22841 12.651ZM7.23677 12.0371L8.13383 11.7967L8.1769 10.7236L9.62013 10.3369L10.194 11.2447L11.091 11.0043L8.57345 7.30222L7.56885 7.5714L7.23677 12.0371ZM8.27356 8.23182L8.29054 8.22727L9.25067 9.7504L8.20362 10.031L8.27356 8.23182ZM11.7996 10.8144L12.6543 10.5854L11.5601 6.50195L10.7055 6.73094L11.7996 10.8144ZM13.6232 10.3258L16.2635 9.61836L16.0747 8.91372L14.289 9.39218L13.3836 6.01333L12.529 6.24232L13.6232 10.3258ZM17.0598 9.40498L19.7651 8.68009L19.5763 7.97545L17.7256 8.47135L17.4503 7.44411L19.1964 6.97627L19.0174 6.30842L17.2714 6.77627L17.009 5.79713L18.8598 5.30123L18.671 4.5966L15.9656 5.32149L17.0598 9.40498ZM20.6718 8.43714L22.2311 8.01934C23.4564 7.69101 23.974 6.73642 23.6268 5.44035L23.6252 5.43469C23.2787 4.14144 22.3594 3.60828 21.1369 3.93585L19.5776 4.35365L20.6718 8.43714ZM21.3369 7.50068L20.6211 4.82929L21.2238 4.66778C21.9737 4.46684 22.5262 4.81927 22.7544 5.67106L22.7559 5.67672C22.9925 6.55964 22.7037 7.13444 21.9396 7.33917L21.3369 7.50068Z" fill="#E65E5E"/>
<rect x="0.306186" y="6.90602" width="25.5" height="9.5" rx="1.75" transform="rotate(-15 0.306186 6.90602)" stroke="#E65E5E" stroke-width="0.5"/>
</svg>
