<svg width="20" height="20" viewBox="0 0 20 20" fill="none" xmlns="http://www.w3.org/2000/svg">
<path fill-rule="evenodd" clip-rule="evenodd" d="M15.0003 3.33366H5.00033C4.07985 3.33366 3.33366 4.07985 3.33366 5.00033V15.0003C3.33366 15.9208 4.07985 16.667 5.00033 16.667H15.0003C15.9208 16.667 16.667 15.9208 16.667 15.0003V5.00033C16.667 4.07985 15.9208 3.33366 15.0003 3.33366ZM5.00033 1.66699C3.15938 1.66699 1.66699 3.15938 1.66699 5.00033V15.0003C1.66699 16.8412 3.15938 18.3337 5.00033 18.3337H15.0003C16.8412 18.3337 18.3337 16.8412 18.3337 15.0003V5.00033C18.3337 3.15938 16.8412 1.66699 15.0003 1.66699H5.00033Z" fill="url(#paint0_linear_12016_96914)"/>
<path d="M5.83333 6.66667C6.29357 6.66667 6.66667 6.29357 6.66667 5.83333C6.66667 5.3731 6.29357 5 5.83333 5C5.3731 5 5 5.3731 5 5.83333C5 6.29357 5.3731 6.66667 5.83333 6.66667Z" fill="url(#paint1_linear_12016_96914)"/>
<path d="M5.83333 8.33301C5.3731 8.33301 5 8.70609 5 9.16634V14.1663C5 14.6266 5.3731 14.9997 5.83333 14.9997C6.29357 14.9997 6.66667 14.6266 6.66667 14.1663V9.16634C6.66667 8.70609 6.29357 8.33301 5.83333 8.33301Z" fill="url(#paint2_linear_12016_96914)"/>
<path d="M11.6663 9.99967C10.7458 9.99967 9.99967 10.7458 9.99967 11.6663V14.1663C9.99967 14.6266 9.62659 14.9997 9.16634 14.9997C8.70609 14.9997 8.33301 14.6266 8.33301 14.1663V9.16634C8.33301 8.70609 8.70609 8.33301 9.16634 8.33301C9.50417 8.33301 9.79501 8.53401 9.92584 8.82292C10.4324 8.51217 11.0285 8.33301 11.6663 8.33301C13.5073 8.33301 14.9997 9.82542 14.9997 11.6663V14.1663C14.9997 14.6266 14.6266 14.9997 14.1663 14.9997C13.7061 14.9997 13.333 14.6266 13.333 14.1663V11.6663C13.333 10.7458 12.5868 9.99967 11.6663 9.99967Z" fill="url(#paint3_linear_12016_96914)"/>
<defs>
<linearGradient id="paint0_linear_12016_96914" x1="13.2729" y1="14.8405" x2="9.1983" y2="4.22695" gradientUnits="userSpaceOnUse">
<stop stop-color="#FFD569"/>
<stop offset="0.515056" stop-color="#FC8E4F"/>
<stop offset="1" stop-color="#FF697B"/>
</linearGradient>
<linearGradient id="paint1_linear_12016_96914" x1="6.16059" y1="6.31735" x2="5.75313" y2="5.256" gradientUnits="userSpaceOnUse">
<stop stop-color="#FFD569"/>
<stop offset="0.515056" stop-color="#FC8E4F"/>
<stop offset="1" stop-color="#FF697B"/>
</linearGradient>
<linearGradient id="paint2_linear_12016_96914" x1="6.16059" y1="13.6024" x2="3.9331" y2="12.1519" gradientUnits="userSpaceOnUse">
<stop stop-color="#FFD569"/>
<stop offset="0.515056" stop-color="#FC8E4F"/>
<stop offset="1" stop-color="#FF697B"/>
</linearGradient>
<linearGradient id="paint3_linear_12016_96914" x1="12.9754" y1="13.6024" x2="11.3455" y2="9.35699" gradientUnits="userSpaceOnUse">
<stop stop-color="#FFD569"/>
<stop offset="0.515056" stop-color="#FC8E4F"/>
<stop offset="1" stop-color="#FF697B"/>
</linearGradient>
</defs>
</svg>
