<svg width="24" height="24" viewBox="0 0 24 24" fill="none" xmlns="http://www.w3.org/2000/svg">
<path fill-rule="evenodd" clip-rule="evenodd" d="M18 4H6C4.89543 4 4 4.89543 4 6V18C4 19.1046 4.89543 20 6 20H18C19.1046 20 20 19.1046 20 18V6C20 4.89543 19.1046 4 18 4ZM6 2C3.79086 2 2 3.79086 2 6V18C2 20.2091 3.79086 22 6 22H18C20.2091 22 22 20.2091 22 18V6C22 3.79086 20.2091 2 18 2H6Z" fill="url(#paint0_linear_544_723)"/>
<path d="M7 8C7.55228 8 8 7.55228 8 7C8 6.44772 7.55228 6 7 6C6.44772 6 6 6.44772 6 7C6 7.55228 6.44772 8 7 8Z" fill="url(#paint1_linear_544_723)"/>
<path d="M7 10C6.44772 10 6 10.4477 6 11V17C6 17.5523 6.44772 18 7 18C7.55228 18 8 17.5523 8 17V11C8 10.4477 7.55228 10 7 10Z" fill="url(#paint2_linear_544_723)"/>
<path d="M14 12C12.8954 12 12 12.8954 12 14V17C12 17.5523 11.5523 18 11 18C10.4477 18 10 17.5523 10 17V11C10 10.4477 10.4477 10 11 10C11.4054 10 11.7544 10.2412 11.9114 10.5879C12.5193 10.215 13.2346 10 14 10C16.2091 10 18 11.7909 18 14V17C18 17.5523 17.5523 18 17 18C16.4477 18 16 17.5523 16 17V14C16 12.8954 15.1046 12 14 12Z" fill="url(#paint3_linear_544_723)"/>
<defs>
<linearGradient id="paint0_linear_544_723" x1="2" y1="12" x2="19.9953" y2="18.0062" gradientUnits="userSpaceOnUse">
<stop stop-color="#5EE6D0"/>
<stop offset="0.515056" stop-color="#BFC6FF"/>
<stop offset="1" stop-color="#FFBA69"/>
</linearGradient>
<linearGradient id="paint1_linear_544_723" x1="6" y1="7" x2="7.79953" y2="7.60062" gradientUnits="userSpaceOnUse">
<stop stop-color="#5EE6D0"/>
<stop offset="0.515056" stop-color="#BFC6FF"/>
<stop offset="1" stop-color="#FFBA69"/>
</linearGradient>
<linearGradient id="paint2_linear_544_723" x1="6" y1="14" x2="7.98617" y2="14.1657" gradientUnits="userSpaceOnUse">
<stop stop-color="#5EE6D0"/>
<stop offset="0.515056" stop-color="#BFC6FF"/>
<stop offset="1" stop-color="#FFBA69"/>
</linearGradient>
<linearGradient id="paint3_linear_544_723" x1="10" y1="14" x2="17.1981" y2="16.4025" gradientUnits="userSpaceOnUse">
<stop stop-color="#5EE6D0"/>
<stop offset="0.515056" stop-color="#BFC6FF"/>
<stop offset="1" stop-color="#FFBA69"/>
</linearGradient>
</defs>
</svg>
