<svg width="24" height="24" viewBox="0 0 24 24" fill="none" xmlns="http://www.w3.org/2000/svg">
<path fill-rule="evenodd" clip-rule="evenodd" d="M13 7C13 6.44772 12.5523 6 12 6C11.4477 6 11 6.44772 11 7V11H7C6.44772 11 6 11.4477 6 12C6 12.5523 6.44772 13 7 13H11V17C11 17.5523 11.4477 18 12 18C12.5523 18 13 17.5523 13 17V13H17C17.5523 13 18 12.5523 18 12C18 11.4477 17.5523 11 17 11H13V7Z" fill="url(#paint0_linear_8795_29358)"/>
<defs>
<linearGradient id="paint0_linear_8795_29358" x1="6" y1="12" x2="16.7972" y2="15.6037" gradientUnits="userSpaceOnUse">
<stop stop-color="#5EE6D0"/>
<stop offset="0.515056" stop-color="#BFC6FF"/>
<stop offset="1" stop-color="#FFBA69"/>
</linearGradient>
</defs>
</svg>
