<svg width="30" height="30" viewBox="0 0 30 30" fill="none" xmlns="http://www.w3.org/2000/svg">
<path fill-rule="evenodd" clip-rule="evenodd" d="M6.53604 6.55066C6.53514 6.55279 6.53419 6.55584 6.53419 6.56143V12.1864C6.53419 12.192 6.53514 12.1951 6.53604 12.1972C6.5372 12.2 6.53927 12.2033 6.54251 12.2065C6.54574 12.2098 6.54907 12.2118 6.55182 12.213C6.55395 12.2139 6.557 12.2148 6.56259 12.2148H12.1876C12.1932 12.2148 12.1962 12.2139 12.1984 12.213C12.2011 12.2118 12.2045 12.2098 12.2077 12.2065C12.2109 12.2033 12.213 12.2 12.2141 12.1972C12.215 12.1951 12.216 12.192 12.216 12.1864V6.56143C12.216 6.55584 12.215 6.55279 12.2141 6.55066C12.213 6.54791 12.2109 6.54458 12.2077 6.54135C12.2045 6.53812 12.2011 6.53604 12.1984 6.53488C12.1962 6.53398 12.1932 6.53303 12.1876 6.53303H6.56259C6.557 6.53303 6.55395 6.53398 6.55182 6.53488C6.54907 6.53604 6.54574 6.53812 6.54251 6.54135C6.53927 6.54458 6.5372 6.54791 6.53604 6.55066ZM4.716 6.56143C4.716 5.54159 5.54275 4.71484 6.56259 4.71484H12.1876C13.2074 4.71484 14.0342 5.54159 14.0342 6.56143V12.1864C14.0342 13.2063 13.2074 14.033 12.1876 14.033H6.56259C5.54275 14.033 4.716 13.2063 4.716 12.1864V6.56143ZM6.53604 17.8007C6.53514 17.8028 6.53419 17.8058 6.53419 17.8114V23.4364C6.53419 23.442 6.53514 23.4451 6.53604 23.4472C6.5372 23.45 6.53927 23.4533 6.54251 23.4565C6.54574 23.4598 6.54907 23.4618 6.55182 23.463C6.55395 23.4639 6.557 23.4648 6.56259 23.4648H12.1876C12.1932 23.4648 12.1962 23.4639 12.1984 23.463C12.1997 23.4624 12.2011 23.4617 12.2027 23.4607C12.2043 23.4596 12.206 23.4582 12.2077 23.4565C12.2109 23.4533 12.213 23.45 12.2141 23.4472C12.215 23.4451 12.216 23.442 12.216 23.4364V17.8114C12.216 17.8058 12.215 17.8028 12.2141 17.8007C12.213 17.7979 12.2109 17.7946 12.2077 17.7913C12.2045 17.7881 12.2011 17.786 12.1984 17.7849C12.1962 17.784 12.1932 17.783 12.1876 17.783H6.56259C6.557 17.783 6.55395 17.784 6.55182 17.7849C6.54907 17.786 6.54574 17.7881 6.54251 17.7913C6.53927 17.7946 6.5372 17.7979 6.53604 17.8007ZM4.716 17.8114C4.716 16.7916 5.54275 15.9648 6.56259 15.9648H12.1876C13.2074 15.9648 14.0342 16.7916 14.0342 17.8114V23.4364C14.0342 24.4563 13.2074 25.283 12.1876 25.283H6.56259C5.54275 25.283 4.716 24.4563 4.716 23.4364V17.8114ZM17.7842 6.56143C17.7842 6.55584 17.7851 6.55279 17.786 6.55066C17.7872 6.54791 17.7893 6.54458 17.7925 6.54135C17.7957 6.53812 17.7991 6.53604 17.8018 6.53488C17.8039 6.53398 17.807 6.53303 17.8126 6.53303H23.4376C23.4432 6.53303 23.4462 6.53398 23.4484 6.53488C23.4511 6.53604 23.4544 6.53812 23.4577 6.54135C23.4609 6.54458 23.463 6.54791 23.4641 6.55066C23.465 6.55279 23.466 6.55584 23.466 6.56143V12.1864C23.466 12.192 23.465 12.1951 23.4641 12.1972C23.463 12.2 23.4609 12.2033 23.4577 12.2065C23.4544 12.2098 23.4511 12.2118 23.4484 12.213C23.4462 12.2139 23.4432 12.2148 23.4376 12.2148H17.8126C17.807 12.2148 17.8039 12.2139 17.8018 12.213C17.7991 12.2118 17.7957 12.2098 17.7925 12.2065C17.7893 12.2033 17.7872 12.2 17.786 12.1972C17.7851 12.1951 17.7842 12.192 17.7842 12.1864V6.56143ZM17.8126 4.71484C16.7927 4.71484 15.966 5.54159 15.966 6.56143V12.1864C15.966 13.2063 16.7927 14.033 17.8126 14.033H23.4376C24.4574 14.033 25.2842 13.2063 25.2842 12.1864V6.56143C25.2842 5.54159 24.4574 4.71484 23.4376 4.71484H17.8126ZM16.8751 15.9648C17.3772 15.9648 17.7842 16.3719 17.7842 16.8739V20.6239C17.7842 21.126 17.3772 21.533 16.8751 21.533C16.373 21.533 15.966 21.126 15.966 20.6239V16.8739C15.966 16.3719 16.373 15.9648 16.8751 15.9648ZM21.5341 19.658V24.3744C21.5341 24.8765 21.1271 25.2835 20.625 25.2835H16.875C16.373 25.2835 15.966 24.8765 15.966 24.3744C15.966 23.8723 16.373 23.4653 16.875 23.4653H19.716V16.8744C19.716 16.3723 20.123 15.9653 20.625 15.9653C21.1271 15.9653 21.5341 16.3723 21.5341 16.8744V17.8398H24.3751C24.8772 17.8398 25.2842 18.2469 25.2842 18.7489C25.2842 19.251 24.8772 19.658 24.3751 19.658H21.5341ZM24.3751 21.5898C24.8772 21.5898 25.2842 21.9969 25.2842 22.4989V24.3739C25.2842 24.876 24.8772 25.283 24.3751 25.283C23.873 25.283 23.466 24.876 23.466 24.3739V22.4989C23.466 21.9969 23.873 21.5898 24.3751 21.5898Z" fill="url(#paint0_linear_542_58853)"/>
<defs>
<linearGradient id="paint0_linear_542_58853" x1="4.716" y1="14.9992" x2="23.2226" y2="21.1759" gradientUnits="userSpaceOnUse">
<stop stop-color="#5EE6D0"/>
<stop offset="0.515056" stop-color="#BFC6FF"/>
<stop offset="1" stop-color="#FFBA69"/>
</linearGradient>
</defs>
</svg>
