<svg width="16" height="16" viewBox="0 0 16 16" fill="none" xmlns="http://www.w3.org/2000/svg">
<path fill-rule="evenodd" clip-rule="evenodd" d="M5.99905 6.69321C6.01866 7.06087 5.73649 7.37482 5.36882 7.39442C4.86703 7.42117 4.4696 7.45389 4.15902 7.48664C3.74194 7.53063 3.48852 7.78682 3.44639 8.15534C3.38591 8.68445 3.33333 9.48513 3.33333 10.6666C3.33333 11.8481 3.38591 12.6488 3.44639 13.1779C3.48859 13.5471 3.74138 13.8025 4.15783 13.8465C4.88719 13.9235 6.09283 14 8 14C9.90717 14 11.1128 13.9235 11.8422 13.8465C12.2586 13.8025 12.5114 13.5471 12.5536 13.1779C12.6141 12.6488 12.6667 11.8481 12.6667 10.6666C12.6667 9.48513 12.6141 8.68445 12.5536 8.15534C12.5115 7.78682 12.2581 7.53063 11.841 7.48664C11.5304 7.45389 11.133 7.42117 10.6312 7.39442C10.2635 7.37482 9.98134 7.06087 10.0009 6.69321C10.0205 6.32554 10.3345 6.04337 10.7022 6.06297C11.224 6.0908 11.6446 6.12521 11.9808 6.16066C12.9704 6.26503 13.7598 6.96709 13.8783 8.00391C13.9459 8.59482 14 9.44765 14 10.6666C14 11.8856 13.9459 12.7384 13.8783 13.3294C13.7599 14.3655 12.9723 15.068 11.9821 15.1725C11.1946 15.2556 9.94052 15.3333 8 15.3333C6.05948 15.3333 4.80537 15.2556 4.01789 15.1725C3.02767 15.068 2.24014 14.3655 2.12169 13.3294C2.05414 12.7384 2 11.8856 2 10.6666C2 9.44765 2.05414 8.59482 2.12169 8.00391C2.24021 6.96709 3.02957 6.26503 4.01918 6.16066C4.35537 6.12521 4.77595 6.0908 5.29784 6.06297C5.66551 6.04337 5.97945 6.32554 5.99905 6.69321Z" fill="#5EE6D0"/>
<path fill-rule="evenodd" clip-rule="evenodd" d="M6.13807 4.13815C5.87772 4.3985 5.45561 4.3985 5.19526 4.13815C4.93491 3.8778 4.93491 3.45569 5.19526 3.19534L7.5286 0.86201C7.78894 0.601661 8.21106 0.601661 8.4714 0.86201L10.8047 3.19534C11.0651 3.45569 11.0651 3.8778 10.8047 4.13815C10.5444 4.3985 10.1223 4.3985 9.86193 4.13815L8.66667 2.94289V9.33341C8.66667 9.7016 8.36819 10.0001 8 10.0001C7.63181 10.0001 7.33333 9.7016 7.33333 9.33341V2.94289L6.13807 4.13815Z" fill="#5EE6D0"/>
</svg>
