<svg width="20" height="20" viewBox="0 0 20 20" fill="none" xmlns="http://www.w3.org/2000/svg">
<path d="M13.7339 16.4227C13.7327 16.422 13.731 16.4209 13.7291 16.4197L13.7335 16.4225L13.7339 16.4227ZM13.7339 16.4227L13.7347 16.4232L13.7351 16.4233L13.7351 16.4234L13.7352 16.4234C13.7355 16.4236 13.7349 16.4233 13.7339 16.4227ZM2.52644 10.3978L2.52776 10.3982L2.57619 10.282L2.54354 10.4026L2.54398 10.4028C2.54413 10.4028 2.54428 10.4028 2.54442 10.4029L5.40768 11.1777L6.96791 15.3964L7.08515 15.353L6.96791 15.3964C7.19938 16.0222 7.72621 16.4238 8.34934 16.4238C8.73942 16.4238 9.11754 16.269 9.44305 15.9857L9.44307 15.9857L11.1763 14.4766L13.7199 16.4132C13.7214 16.4144 13.7228 16.4154 13.7241 16.4164L13.7465 16.4334L13.7465 16.4334L13.7482 16.4347L13.7513 16.437L13.7552 16.4399L13.7553 16.44C14.065 16.6671 14.4089 16.7912 14.7507 16.7913H14.7508H14.7509C15.4264 16.7913 15.9547 16.3158 16.1062 15.6086L18.4177 4.81583C18.5166 4.35444 18.4368 3.92375 18.1708 3.61628C17.9404 3.34978 17.599 3.20801 17.2176 3.20801C17.0107 3.20801 16.7947 3.24914 16.5759 3.32821V3.32821L16.5758 3.32823L2.46789 8.42052C2.46789 8.42052 2.46788 8.42052 2.46788 8.42052C2.07672 8.56168 1.84088 8.74326 1.70449 8.93092C1.56742 9.11951 1.53842 9.30376 1.54233 9.43505C1.54624 9.56639 1.58623 9.74862 1.73418 9.92936C1.8814 10.1092 2.12753 10.2778 2.52644 10.3978ZM14.9012 6.21874L14.9012 6.2187C14.7209 5.9917 14.3985 5.92319 14.1362 6.04995L5.81672 10.0688L3.27843 9.38214L17.009 4.42605L17.0091 4.42604C17.1158 4.38748 17.1846 4.38141 17.2176 4.38141C17.2208 4.38141 17.2242 4.38147 17.2277 4.3816C17.2286 4.38645 17.2295 4.39216 17.2303 4.39883C17.2348 4.43589 17.2343 4.49523 17.2162 4.58017L14.9046 15.3729C14.8945 15.4198 14.8746 15.4902 14.8415 15.5459C14.8078 15.6025 14.7777 15.6178 14.7508 15.6178C14.6986 15.6178 14.6116 15.5884 14.5056 15.5115L11.5335 13.2487C11.5314 13.247 11.5292 13.2453 11.5269 13.2438L9.87376 11.985L14.8569 6.97822C15.064 6.7702 15.0835 6.4485 14.9012 6.21874ZM17.3203 4.28274C17.3463 4.31268 17.3793 4.41476 17.3384 4.6063L17.3203 4.28274ZM6.63817 10.9866L11.5216 8.62759L8.52335 11.6401C8.52334 11.6401 8.52333 11.6401 8.52332 11.6401C8.45054 11.7132 8.39829 11.8034 8.37246 11.9024C8.37245 11.9025 8.37245 11.9025 8.37245 11.9025L7.79495 14.1144L6.63817 10.9866ZM8.85009 14.9152L9.33141 13.0719L10.2041 13.7363L8.85009 14.9152Z" fill="url(#paint0_linear_12016_96912)" stroke="url(#paint1_linear_12016_96912)" stroke-width="0.25"/>
<defs>
<linearGradient id="paint0_linear_12016_96912" x1="13.2729" y1="13.8718" x2="10.5387" y2="4.9693" gradientUnits="userSpaceOnUse">
<stop stop-color="#FFD569"/>
<stop offset="0.515056" stop-color="#FC8E4F"/>
<stop offset="1" stop-color="#FF697B"/>
</linearGradient>
<linearGradient id="paint1_linear_12016_96912" x1="13.2729" y1="13.8718" x2="10.5387" y2="4.9693" gradientUnits="userSpaceOnUse">
<stop stop-color="#FFD569"/>
<stop offset="0.515056" stop-color="#FC8E4F"/>
<stop offset="1" stop-color="#FF697B"/>
</linearGradient>
</defs>
</svg>
