<svg width="24" height="24" viewBox="0 0 24 24" fill="none" xmlns="http://www.w3.org/2000/svg">
<path d="M3.03854 12.4539L3.03984 12.4542L3.09103 12.3388L3.05838 12.4594L3.05868 12.4595C3.05888 12.4596 3.05908 12.4596 3.05928 12.4597L6.5078 13.3928L8.38455 18.4674L8.50179 18.424L8.38455 18.4674C8.65918 19.2098 9.28288 19.6839 10.0188 19.6839C10.48 19.6839 10.9281 19.5009 11.3149 19.1644L11.3149 19.1644L13.4102 17.3401L16.4787 19.6764C16.4804 19.6777 16.4819 19.6789 16.4834 19.6799L16.5106 19.7006L16.5105 19.7006L16.5123 19.7019L16.5161 19.7047L16.5207 19.7081L16.5208 19.7082C16.8888 19.9781 17.2964 20.1248 17.7005 20.125H17.7005H17.7007C18.4978 20.125 19.1229 19.5644 19.3025 18.7255L22.0764 5.77415C22.1939 5.22612 22.0985 4.7179 21.7857 4.35628C21.5145 4.04269 21.1122 3.875 20.6607 3.875C20.4158 3.875 20.1594 3.92371 19.8991 4.01778L2.96956 10.1285C2.96956 10.1285 2.96956 10.1285 2.96955 10.1285C2.50352 10.2967 2.22521 10.5121 2.06522 10.7322C1.90455 10.9533 1.87083 11.1686 1.87539 11.3217C1.87995 11.4748 1.92652 11.6879 2.09997 11.8998C2.2727 12.1108 2.56326 12.3109 3.03854 12.4539ZM17.8615 7.47842L17.8614 7.47837C17.6526 7.21545 17.2786 7.13564 16.974 7.28284L6.98215 12.1096L3.85062 11.2624L20.402 5.28813L20.402 5.28812C20.5326 5.24095 20.618 5.23309 20.6607 5.23309C20.6674 5.23309 20.6751 5.23328 20.6829 5.23383C20.6864 5.23408 20.6897 5.23439 20.6928 5.23475C20.6955 5.24387 20.6986 5.2573 20.7008 5.276C20.7066 5.3237 20.7057 5.3977 20.6835 5.50177C20.6834 5.50178 20.6834 5.5018 20.6834 5.50181L17.9096 18.4531C17.8973 18.5103 17.8727 18.5979 17.8309 18.6682C17.7886 18.7395 17.7457 18.7668 17.7005 18.7668C17.6304 18.7668 17.5206 18.7281 17.3914 18.6342L13.8244 15.9185C13.8221 15.9166 13.8197 15.9149 13.8172 15.9131L11.8103 14.385L17.8102 8.35662C18.0498 8.11589 18.0723 7.7441 17.8615 7.47842ZM7.93409 13.1717L13.9467 10.2672L10.2453 13.9861C10.2453 13.9861 10.2453 13.9862 10.2453 13.9862C10.161 14.0708 10.1006 14.1752 10.0707 14.2896C10.0707 14.2896 10.0707 14.2897 10.0707 14.2897L9.35767 17.0208L7.93409 13.1717ZM12.2841 16.4827L10.5751 17.9706L11.1826 15.644L12.2841 16.4827Z" fill="url(#paint0_linear_1089_2936)" stroke="url(#paint1_linear_1089_2936)" stroke-width="0.25"/>
<defs>
<linearGradient id="paint0_linear_1089_2936" x1="2" y1="12" x2="19.0348" y2="19.1071" gradientUnits="userSpaceOnUse">
<stop stop-color="#5EE6D0"/>
<stop offset="0.515056" stop-color="#BFC6FF"/>
<stop offset="1" stop-color="#FFBA69"/>
</linearGradient>
<linearGradient id="paint1_linear_1089_2936" x1="2" y1="12" x2="19.0348" y2="19.1071" gradientUnits="userSpaceOnUse">
<stop stop-color="#5EE6D0"/>
<stop offset="0.515056" stop-color="#BFC6FF"/>
<stop offset="1" stop-color="#FFBA69"/>
</linearGradient>
</defs>
</svg>
