<svg width="22" height="18" viewBox="0 0 22 18" fill="none" xmlns="http://www.w3.org/2000/svg">
<path fill-rule="evenodd" clip-rule="evenodd" d="M2.18051 10.9998C0.526786 11.0045 -0.540731 12.8884 0.478066 14.3157C1.93709 16.3596 4.58284 18 8.99986 18C15.845 18 21.3396 12.4217 20.5704 5.8311L21.6973 3.5773C22.4788 2.01428 21.1208 0.23622 19.4072 0.57894L17.9184 0.87669C17.5237 0.66843 17.1152 0.51127 16.7661 0.39741C16.0857 0.17552 15.2622 0 14.4999 0C13.1306 0 11.9488 0.35131 11.0096 1.05593C10.0811 1.75264 9.55806 2.66825 9.27106 3.50905C9.13876 3.89661 9.05066 4.28534 8.99413 4.65843C8.46286 4.49123 7.92115 4.26626 7.39081 3.99155C6.18761 3.36832 5.21466 2.57822 4.66581 1.88551C3.74498 0.7233 1.79354 0.80947 1.10876 2.32021C0.143616 4.44947 0.408366 6.97346 1.27591 9.0129C1.56669 9.6964 1.94494 10.3721 2.40705 10.9983C2.32794 10.9992 2.25226 10.9996 2.18051 10.9998ZM8.99976 16C5.13642 16 3.13875 14.6007 2.1058 13.1537C2.05939 13.0887 2.10619 13 2.18606 12.9998C3.2369 12.9968 5.3939 12.9471 6.8165 12.1145C6.89007 12.0714 6.87388 11.9629 6.79308 11.9358C3.47691 10.8208 1.59188 6.09859 2.93026 3.1459C2.96095 3.0782 3.05195 3.06927 3.09812 3.12754C4.62699 5.05718 7.96979 6.9472 10.8782 6.99891C10.9413 7 10.989 6.9427 10.9794 6.88033C10.8622 6.12053 10.4147 2 14.4998 2C15.4753 2 16.9267 2.47583 17.4613 2.9633C17.486 2.98583 17.5195 2.99606 17.5523 2.9895L19.7993 2.5401C19.8809 2.52378 19.9456 2.60845 19.9084 2.68288L18.5147 5.47019C18.505 5.48954 18.502 5.51175 18.5057 5.53306C19.4818 11.02 14.9878 16 8.99976 16Z" fill="url(#paint0_linear_6380_39292)"/>
<defs>
<linearGradient id="paint0_linear_6380_39292" x1="0.0795906" y1="9" x2="18.845" y2="16.6009" gradientUnits="userSpaceOnUse">
<stop stop-color="#5EE6D0"/>
<stop offset="0.515056" stop-color="#BFC6FF"/>
<stop offset="1" stop-color="#FFBA69"/>
</linearGradient>
</defs>
</svg>
