<svg width="20" height="20" viewBox="0 0 20 20" fill="none" xmlns="http://www.w3.org/2000/svg">
<path fill-rule="evenodd" clip-rule="evenodd" d="M2.65018 11.6665C1.27208 11.6704 0.38248 13.2403 1.23148 14.4298C2.44733 16.133 4.65212 17.5 8.33297 17.5C14.0372 17.5 18.6161 12.8514 17.9751 7.35925L18.9141 5.48108C19.5654 4.17857 18.4337 2.69685 17.0057 2.98245L15.7651 3.23057C15.4361 3.05702 15.0957 2.92606 14.8048 2.83117C14.2378 2.64627 13.5516 2.5 12.9163 2.5C11.7752 2.5 10.7904 2.79276 10.0077 3.37994C9.23397 3.96053 8.79814 4.72354 8.55897 5.42421C8.44872 5.74717 8.3753 6.07112 8.3282 6.38203C7.88547 6.24269 7.43405 6.05522 6.99209 5.82629C5.98943 5.30693 5.17864 4.64852 4.72126 4.07126C3.9539 3.10275 2.3277 3.17456 1.75705 4.43351C0.952769 6.20789 1.17339 8.31122 1.89634 10.0108C2.13866 10.5803 2.45387 11.1434 2.83896 11.6652C2.77304 11.666 2.70997 11.6663 2.65018 11.6665ZM8.33289 15.8333C5.11344 15.8333 3.44871 14.6672 2.58792 13.4614C2.54924 13.4072 2.58824 13.3333 2.6548 13.3332C3.5305 13.3307 5.328 13.2892 6.5135 12.5954C6.57481 12.5595 6.56132 12.4691 6.49399 12.4465C3.73051 11.5173 2.15965 7.58216 3.27497 5.12158C3.30054 5.06517 3.37638 5.05772 3.41485 5.10628C4.68891 6.71432 7.47458 8.28933 9.89822 8.33242C9.9508 8.33333 9.99055 8.28558 9.98255 8.23361C9.88489 7.60044 9.51197 4.16667 12.9162 4.16667C13.7291 4.16667 14.9386 4.56319 15.3841 4.96942C15.4047 4.98819 15.4326 4.99672 15.46 4.99125L17.3325 4.61675C17.4005 4.60315 17.4544 4.67371 17.4234 4.73573L16.262 7.05849C16.2539 7.07462 16.2514 7.09312 16.2545 7.11088C17.0679 11.6833 13.3229 15.8333 8.33289 15.8333Z" fill="url(#paint0_linear_12016_96911)"/>
<defs>
<linearGradient id="paint0_linear_12016_96911" x1="13.5755" y1="14.3562" x2="10.4237" y2="4.39317" gradientUnits="userSpaceOnUse">
<stop stop-color="#FFD569"/>
<stop offset="0.515056" stop-color="#FC8E4F"/>
<stop offset="1" stop-color="#FF697B"/>
</linearGradient>
</defs>
</svg>
