<svg width="24" height="24" viewBox="0 0 24 24" fill="none" xmlns="http://www.w3.org/2000/svg">
<path d="M0 12C0 5.37258 5.37258 0 12 0V0C18.6274 0 24 5.37258 24 12V12C24 18.6274 18.6274 24 12 24V24C5.37258 24 0 18.6274 0 12V12Z" fill="#38383D"/>
<path d="M14.2033 12.1467C14.559 11.8388 14.8443 11.458 15.0398 11.0301C15.2354 10.6021 15.3366 10.1372 15.3366 9.66671C15.3366 8.78265 14.9854 7.93481 14.3603 7.30968C13.7352 6.68456 12.8873 6.33337 12.0033 6.33337C11.1192 6.33337 10.2714 6.68456 9.64623 7.30968C9.02111 7.93481 8.66992 8.78265 8.66992 9.66671C8.66992 10.1372 8.77112 10.6021 8.96667 11.0301C9.16222 11.458 9.44754 11.8388 9.80326 12.1467C8.87001 12.5693 8.07823 13.2517 7.52258 14.1124C6.96692 14.9731 6.6709 15.9756 6.66992 17C6.66992 17.1769 6.74016 17.3464 6.86518 17.4714C6.99021 17.5965 7.15978 17.6667 7.33659 17.6667C7.5134 17.6667 7.68297 17.5965 7.80799 17.4714C7.93302 17.3464 8.00326 17.1769 8.00326 17C8.00326 15.9392 8.42468 14.9218 9.17483 14.1716C9.92497 13.4215 10.9424 13 12.0033 13C13.0641 13 14.0815 13.4215 14.8317 14.1716C15.5818 14.9218 16.0033 15.9392 16.0033 17C16.0033 17.1769 16.0735 17.3464 16.1985 17.4714C16.3235 17.5965 16.4931 17.6667 16.6699 17.6667C16.8467 17.6667 17.0163 17.5965 17.1413 17.4714C17.2664 17.3464 17.3366 17.1769 17.3366 17C17.3356 15.9756 17.0396 14.9731 16.4839 14.1124C15.9283 13.2517 15.1365 12.5693 14.2033 12.1467ZM12.0033 11.6667C11.6077 11.6667 11.221 11.5494 10.8921 11.3296C10.5632 11.1099 10.3069 10.7975 10.1555 10.4321C10.0041 10.0666 9.96451 9.66449 10.0417 9.27653C10.1189 8.88856 10.3093 8.5322 10.589 8.25249C10.8687 7.97279 11.2251 7.78231 11.6131 7.70514C12.001 7.62797 12.4032 7.66757 12.7686 7.81895C13.1341 7.97032 13.4464 8.22667 13.6662 8.55557C13.886 8.88446 14.0033 9.27114 14.0033 9.66671C14.0033 10.1971 13.7925 10.7058 13.4175 11.0809C13.0424 11.456 12.5337 11.6667 12.0033 11.6667Z" fill="#777E91"/>
<path d="M5.01745 10.1709C5.11464 10.8061 5.39334 11.3996 5.81998 11.88C4.95242 12.4222 4.23791 13.1773 3.74434 14.0734C3.25076 14.9695 2.99453 15.977 2.99998 17C2.99998 17.1769 3.07022 17.3464 3.19524 17.4714C3.32027 17.5965 3.48984 17.6667 3.66665 17.6667C3.84346 17.6667 4.01303 17.5965 4.13805 17.4714C4.26308 17.3464 4.33331 17.1769 4.33331 17C4.32628 16.1107 4.57355 15.2378 5.04599 14.4843C5.51844 13.7307 6.19638 13.1279 6.99998 12.7467L7.08665 12.7L7.34665 12.5267C7.44122 12.4645 7.51839 12.3792 7.57087 12.2789C7.62336 12.1786 7.64944 12.0665 7.64665 11.9534C7.64366 11.8393 7.61143 11.7279 7.55307 11.6299C7.49471 11.5318 7.41215 11.4504 7.31331 11.3934C7.01006 11.2183 6.7581 10.9667 6.58261 10.6637C6.40712 10.3606 6.31426 10.0169 6.31331 9.66671C6.31331 9.13627 6.52403 8.62757 6.8991 8.25249C7.27417 7.87742 7.78288 7.66671 8.31331 7.66671C8.49012 7.66671 8.65969 7.59647 8.78472 7.47145C8.90974 7.34642 8.97998 7.17685 8.97998 7.00004C8.97998 6.82323 8.90974 6.65366 8.78472 6.52864C8.65969 6.40361 8.49012 6.33337 8.31331 6.33337C7.67078 6.3332 7.04188 6.51874 6.50233 6.86766C5.96278 7.21657 5.53558 7.71399 5.27214 8.30004C5.0087 8.88609 4.92025 9.53579 5.01745 10.1709Z" fill="#777E91"/>
<path d="M18.9923 10.1709C18.8951 10.8061 18.6164 11.3996 18.1898 11.88C19.0573 12.4222 19.7719 13.1773 20.2654 14.0734C20.759 14.9695 21.0152 15.977 21.0098 17C21.0098 17.1769 20.9395 17.3464 20.8145 17.4714C20.6895 17.5965 20.5199 17.6667 20.3431 17.6667C20.1663 17.6667 19.9967 17.5965 19.8717 17.4714C19.7467 17.3464 19.6765 17.1769 19.6765 17C19.6835 16.1107 19.4362 15.2378 18.9638 14.4843C18.4913 13.7307 17.8134 13.1279 17.0098 12.7467L16.9231 12.7L16.6631 12.5267C16.5685 12.4645 16.4914 12.3792 16.4389 12.2789C16.3864 12.1786 16.3603 12.0665 16.3631 11.9534C16.3661 11.8393 16.3983 11.7279 16.4567 11.6299C16.5151 11.5318 16.5976 11.4504 16.6965 11.3934C16.9997 11.2183 17.2517 10.9667 17.4272 10.6637C17.6026 10.3606 17.6955 10.0169 17.6965 9.66671C17.6965 9.13627 17.4857 8.62757 17.1107 8.25249C16.7356 7.87742 16.2269 7.66671 15.6965 7.66671C15.5196 7.66671 15.3501 7.59647 15.225 7.47145C15.1 7.34642 15.0298 7.17685 15.0298 7.00004C15.0298 6.82323 15.1 6.65366 15.225 6.52864C15.3501 6.40361 15.5196 6.33337 15.6965 6.33337C16.339 6.3332 16.9679 6.51874 17.5074 6.86766C18.047 7.21657 18.4742 7.71399 18.7376 8.30004C19.0011 8.88609 19.0895 9.53579 18.9923 10.1709Z" fill="#777E91"/>
<path d="M12 23C5.92487 23 1 18.0751 1 12H-1C-1 19.1797 4.8203 25 12 25V23ZM23 12C23 18.0751 18.0751 23 12 23V25C19.1797 25 25 19.1797 25 12H23ZM12 1C18.0751 1 23 5.92487 23 12H25C25 4.8203 19.1797 -1 12 -1V1ZM12 -1C4.8203 -1 -1 4.8203 -1 12H1C1 5.92487 5.92487 1 12 1V-1Z" fill="#555961"/>
</svg>
