<svg width="16" height="16" viewBox="0 0 16 16" fill="none" xmlns="http://www.w3.org/2000/svg">
<path fill-rule="evenodd" clip-rule="evenodd" d="M12.666 3.33333H3.33268C2.5963 3.33333 1.99935 3.93029 1.99935 4.66667V11.3333C1.99935 12.0697 2.5963 12.6667 3.33268 12.6667H12.666C13.4024 12.6667 13.9993 12.0697 13.9993 11.3333V4.66667C13.9993 3.93029 13.4024 3.33333 12.666 3.33333ZM3.33268 2C1.85992 2 0.666016 3.19391 0.666016 4.66667V11.3333C0.666016 12.8061 1.85992 14 3.33268 14H12.666C14.1388 14 15.3327 12.8061 15.3327 11.3333V4.66667C15.3327 3.19391 14.1388 2 12.666 2H3.33268Z" fill="url(#paint0_linear_7530_6445)"/>
<path fill-rule="evenodd" clip-rule="evenodd" d="M8.66602 7.99996C8.66602 6.15901 10.1584 4.66663 11.9993 4.66663H14.666C15.0342 4.66663 15.3327 4.9651 15.3327 5.33329C15.3327 5.70148 15.0342 5.99996 14.666 5.99996H11.9993C10.8948 5.99996 9.99935 6.89539 9.99935 7.99996C9.99935 9.10453 10.8948 9.99996 11.9993 9.99996H14.666C15.0342 9.99996 15.3327 10.2984 15.3327 10.6666C15.3327 11.0348 15.0342 11.3333 14.666 11.3333H11.9993C10.1584 11.3333 8.66602 9.84091 8.66602 7.99996Z" fill="url(#paint1_linear_7530_6445)"/>
<path d="M12.6673 8.00004C12.6673 8.36823 12.3688 8.66671 12.0007 8.66671C11.6325 8.66671 11.334 8.36823 11.334 8.00004C11.334 7.63185 11.6325 7.33337 12.0007 7.33337C12.3688 7.33337 12.6673 7.63185 12.6673 8.00004Z" fill="url(#paint2_linear_7530_6445)"/>
<defs>
<linearGradient id="paint0_linear_7530_6445" x1="0.666016" y1="8" x2="13.2402" y2="13.1295" gradientUnits="userSpaceOnUse">
<stop stop-color="#5EE6D0"/>
<stop offset="0.515056" stop-color="#BFC6FF"/>
<stop offset="1" stop-color="#FFBA69"/>
</linearGradient>
<linearGradient id="paint1_linear_7530_6445" x1="8.66602" y1="7.99996" x2="14.6645" y2="10.002" gradientUnits="userSpaceOnUse">
<stop stop-color="#5EE6D0"/>
<stop offset="0.515056" stop-color="#BFC6FF"/>
<stop offset="1" stop-color="#FFBA69"/>
</linearGradient>
<linearGradient id="paint2_linear_7530_6445" x1="11.334" y1="8.00004" x2="12.5337" y2="8.40046" gradientUnits="userSpaceOnUse">
<stop stop-color="#5EE6D0"/>
<stop offset="0.515056" stop-color="#BFC6FF"/>
<stop offset="1" stop-color="#FFBA69"/>
</linearGradient>
</defs>
</svg>
