<svg width="56" height="56" viewBox="0 0 56 56" fill="none" xmlns="http://www.w3.org/2000/svg">
<g clip-path="url(#clip0_7999_84062)">
<path d="M1.27167 6.37C0 8.86667 0 12.1333 0 18.6667V37.3333C0 43.8667 0 47.1333 1.27167 49.63C2.39017 51.8251 4.17487 53.6098 6.37 54.7283C8.86667 56 12.1333 56 18.6667 56H37.3333C39.3773 56 41.1017 56 42.5833 55.9615C42.5833 54.3725 42.5833 53.5768 42.6603 52.9095C42.9626 50.2957 44.1396 47.8608 46.0002 46.0002C47.8608 44.1396 50.2957 42.9626 52.9095 42.6603C53.5768 42.5833 54.3725 42.5833 55.9615 42.5833C56 41.1017 56 39.3773 56 37.3333V18.6667C56 12.1333 56 8.86667 54.7283 6.37C53.6098 4.17487 51.8251 2.39017 49.63 1.27167C47.1333 0 43.8667 0 37.3333 0H18.6667C12.1333 0 8.86667 0 6.37 1.27167C4.17487 2.39017 2.39017 4.17487 1.27167 6.37Z" fill="url(#paint0_linear_7999_84062)"/>
<path d="M1.27167 6.37C0 8.86667 0 12.1333 0 18.6667V37.3333C0 43.8667 0 47.1333 1.27167 49.63C2.39017 51.8251 4.17487 53.6098 6.37 54.7283C8.86667 56 12.1333 56 18.6667 56H37.3333C39.3773 56 41.1017 56 42.5833 55.9615C42.5833 54.3725 42.5833 53.5768 42.6603 52.9095C42.9626 50.2957 44.1396 47.8608 46.0002 46.0002C47.8608 44.1396 50.2957 42.9626 52.9095 42.6603C53.5768 42.5833 54.3725 42.5833 55.9615 42.5833C56 41.1017 56 39.3773 56 37.3333V18.6667C56 12.1333 56 8.86667 54.7283 6.37C53.6098 4.17487 51.8251 2.39017 49.63 1.27167C47.1333 0 43.8667 0 37.3333 0H18.6667C12.1333 0 8.86667 0 6.37 1.27167C4.17487 2.39017 2.39017 4.17487 1.27167 6.37Z" fill="url(#paint1_linear_7999_84062)"/>
<path fill-rule="evenodd" clip-rule="evenodd" d="M41.4167 41.4167H54.817C54.8333 40.2208 54.8333 38.8733 54.8333 37.3333V18.6667C54.8333 15.3802 54.8333 12.985 54.6782 11.0985C54.5253 9.226 54.2267 7.9555 53.6888 6.89967C52.6822 4.92405 51.0759 3.31782 49.1003 2.31117C48.0445 1.77333 46.774 1.47467 44.9003 1.32183C43.015 1.16667 40.6187 1.16667 37.3333 1.16667H18.6667C15.3802 1.16667 12.985 1.16667 11.0985 1.32183C9.226 1.47467 7.9555 1.77333 6.89967 2.31117C4.92405 3.31782 3.31782 4.92405 2.31117 6.89967C1.77333 7.9555 1.47467 9.226 1.32183 11.0997C1.16667 12.985 1.16667 15.3802 1.16667 18.6667V37.3333C1.16667 40.6198 1.16667 43.015 1.32183 44.9003C1.47467 46.774 1.77333 48.0445 2.31117 49.1003C3.31782 51.0759 4.92405 52.6822 6.89967 53.6888C7.9555 54.2267 9.226 54.5253 11.0997 54.6782C12.985 54.8333 15.3802 54.8333 18.6667 54.8333H37.3333C38.8733 54.8333 40.2208 54.8333 41.4167 54.817V41.4167ZM42.5833 55.9615C41.1017 56 39.3773 56 37.3333 56H18.6667C12.1333 56 8.86667 56 6.37 54.7283C4.17487 53.6098 2.39017 51.8251 1.27167 49.63C0 47.1333 0 43.8667 0 37.3333V18.6667C0 12.1333 0 8.86667 1.27167 6.37C2.39017 4.17487 4.17487 2.39017 6.37 1.27167C8.86667 0 12.1333 0 18.6667 0H37.3333C43.8667 0 47.1333 0 49.63 1.27167C51.8251 2.39017 53.6098 4.17487 54.7283 6.37C56 8.86667 56 12.1333 56 18.6667V37.3333C56 39.3773 56 41.1017 55.9615 42.5833H42.5833V55.9615Z" fill="black" fill-opacity="0.04"/>
<path d="M3.5 16.5667C3.5 11.9933 3.5 9.70667 4.39017 7.959C5.17342 6.42223 6.42314 5.17292 7.96017 4.39017C9.70433 3.5 11.9933 3.5 16.5667 3.5H39.4333C44.0067 3.5 46.2933 3.5 48.041 4.39017C49.5778 5.17342 50.8271 6.42314 51.6098 7.96017C52.5 9.70433 52.5 11.9933 52.5 16.5667V39.4333C52.5 44.0067 52.5 46.2933 51.6098 48.041C50.8266 49.5778 49.5769 50.8271 48.0398 51.6098C46.2957 52.5 44.0067 52.5 39.4333 52.5H16.5667C11.9933 52.5 9.70667 52.5 7.959 51.6098C6.42223 50.8266 5.17292 49.5769 4.39017 48.0398C3.5 46.2957 3.5 44.0067 3.5 39.4333V16.5667Z" fill="black" fill-opacity="0.8"/>
<path fill-rule="evenodd" clip-rule="evenodd" d="M39.4333 4.08333H16.5667C14.2707 4.08333 12.5825 4.08333 11.2502 4.193C9.92483 4.3015 9.002 4.51383 8.22383 4.90933C6.79738 5.63712 5.63794 6.79778 4.91167 8.225C4.515 9.00317 4.30267 9.926 4.19417 11.2513C4.08333 12.5825 4.08333 14.2707 4.08333 16.5667V39.4333C4.08333 41.7293 4.08333 43.4175 4.193 44.7498C4.3015 46.0752 4.51383 46.9992 4.90933 47.7762C5.63661 49.2029 6.79687 50.3627 8.22383 51.0895C9.002 51.4862 9.92483 51.6985 11.2502 51.807C12.5825 51.9167 14.2707 51.9167 16.5667 51.9167H39.4333C41.7293 51.9167 43.4175 51.9167 44.7498 51.807C46.0752 51.6985 46.9992 51.4862 47.7762 51.0907C49.2029 50.3634 50.3628 49.2032 51.0895 47.7762C51.4862 46.9992 51.6985 46.0752 51.807 44.7498C51.9167 43.4175 51.9167 41.7293 51.9167 39.4333V16.5667C51.9167 14.2707 51.9167 12.5825 51.807 11.2502C51.6985 9.92483 51.4862 9.002 51.0907 8.22383C50.3634 6.79713 49.2031 5.63728 47.7762 4.9105C46.9992 4.51383 46.0752 4.3015 44.7498 4.193C43.4175 4.08333 41.7293 4.08333 39.4333 4.08333ZM4.39017 7.959C3.5 9.70667 3.5 11.9933 3.5 16.5667V39.4333C3.5 44.0067 3.5 46.2933 4.39017 48.041C5.17342 49.5778 6.42314 50.8271 7.96017 51.6098C9.70433 52.5 11.9933 52.5 16.5667 52.5H39.4333C44.0067 52.5 46.2933 52.5 48.041 51.6098C49.5778 50.8266 50.8271 49.5769 51.6098 48.0398C52.5 46.2957 52.5 44.0067 52.5 39.4333V16.5667C52.5 11.9933 52.5 9.70667 51.6098 7.959C50.8266 6.42223 49.5769 5.17292 48.0398 4.39017C46.2957 3.5 44.0067 3.5 39.4333 3.5H16.5667C11.9933 3.5 9.70667 3.5 7.959 4.39017C6.42223 5.17342 5.17292 6.42198 4.39017 7.959Z" fill="black"/>
<path d="M29.1666 15.1668C29.1666 11.9002 29.1666 10.2668 29.8025 9.0185C30.3617 7.92093 31.2541 7.02858 32.3516 6.46933C33.6 5.8335 35.2333 5.8335 38.5 5.8335H40.8333C44.1 5.8335 45.7333 5.8335 46.9816 6.46933C48.0792 7.02858 48.9715 7.92093 49.5308 9.0185C50.1666 10.2668 50.1666 11.9002 50.1666 15.1668V17.5002C50.1666 20.7668 50.1666 22.4002 49.5308 23.6485C48.9715 24.7461 48.0792 25.6384 46.9816 26.1977C45.7333 26.8335 44.1 26.8335 40.8333 26.8335H38.5C35.2333 26.8335 33.6 26.8335 32.3516 26.1977C31.2541 25.6384 30.3617 24.7461 29.8025 23.6485C29.1666 22.4002 29.1666 20.7668 29.1666 17.5002V15.1668Z" fill="#DFD7D5"/>
<path d="M44.3333 5.8335H35C33.4529 5.8335 31.9691 6.44808 30.8752 7.54204C29.7812 8.636 29.1666 10.1197 29.1666 11.6668V21.0002C29.1666 21.7662 29.3175 22.5247 29.6107 23.2325C29.9038 23.9402 30.3335 24.5833 30.8752 25.125C31.9691 26.2189 33.4529 26.8335 35 26.8335H44.3333C45.8804 26.8335 47.3641 26.2189 48.4581 25.125C49.552 24.031 50.1666 22.5473 50.1666 21.0002V11.6668C50.1666 10.1197 49.552 8.636 48.4581 7.54204C47.3641 6.44808 45.8804 5.8335 44.3333 5.8335Z" fill="#E1D7D5"/>
<path d="M44.2611 19.6149H35.0724V20.2706H44.2599V19.6138L44.2611 19.6149ZM44.2599 20.2706H35.0724V20.9274H44.2599V20.2706Z" fill="#D22209"/>
<path d="M44.2611 20.9274H35.0724V21.5831H44.2599V20.9263L44.2611 20.9274ZM44.2599 21.5831H35.0724V22.2399H44.2599V21.5831Z" fill="#D22209"/>
<path d="M36.386 22.2399H35.0735V22.8956H36.386V22.2399ZM44.261 22.2399H37.0417V22.8956H44.261V22.2399ZM36.386 22.8956H35.0735V23.5524H36.386V22.8956ZM44.261 22.8956H37.0417V23.5524H44.261V22.8956Z" fill="#D22209"/>
<path d="M36.386 23.5524H35.0735V24.2081H36.386V23.5524ZM44.261 23.5524H37.0417V24.2081H44.261V23.5524ZM36.386 24.2081H35.0735V24.8649H36.386V24.2081ZM44.261 24.2081H37.0417V24.8649H44.261V24.2081Z" fill="#D22209"/>
<path d="M36.386 24.8649H35.0735V25.5206H36.386V24.8649ZM44.261 24.8649H37.0417V25.5206H44.261V24.8649ZM36.386 25.5206H35.0735V26.1774H36.386V25.5206ZM44.261 25.5206H37.0417V26.1774H44.261V25.5206Z" fill="#D22209"/>
<path d="M36.386 26.1774H35.0735V26.8331H36.386V26.1774ZM44.261 26.1774H37.0417V26.8331H44.261V26.1774Z" fill="#D22209"/>
<path d="M38.3542 20.9274H37.6974V21.5831H38.3542V20.9274ZM40.9792 20.9274H39.6667V21.5831H40.9792V20.9274ZM42.2917 20.9274H41.6349V21.5831H42.2917V20.9274ZM38.3542 21.5831H37.6974V22.2399H38.3542V21.5831ZM40.9792 21.5831H39.6667V22.2399H40.9792V21.5831ZM42.2917 21.5831H41.6349V22.2399H42.2917V21.5831Z" fill="white"/>
<path d="M39.0111 22.2399H37.6974V22.8956H39.0111V22.2399ZM40.9792 22.2399H39.6667V22.8956H40.9792V22.2399ZM42.9486 22.2399H41.6349V22.8956H42.9486V22.2399Z" fill="white"/>
<path d="M39.011 9.771H38.3541V10.4278H39.011V9.771ZM40.9791 9.771H39.6666V10.4278H40.9791V9.771Z" fill="#C16710"/>
<path d="M37.0417 10.4274H35.0724V11.0831H37.0417V10.4274Z" fill="#D4A015"/>
<path d="M41.6361 10.4274H37.6974V11.0831H41.6361V10.4274Z" fill="#C16710"/>
<path d="M44.261 10.4274H42.2916V11.0831H44.261V10.4274Z" fill="#D4A015"/>
<path d="M35.0735 11.0835H33.761V11.7403H35.0735V11.0835Z" fill="#C16710"/>
<path d="M37.0417 11.0835H35.0724V11.7403H37.0417V11.0835Z" fill="#D4A015"/>
<path d="M40.9791 11.0835H37.0416V11.7403H40.9791V11.0835Z" fill="#C16710"/>
<path d="M44.261 11.0835H42.2916V11.7403H44.261V11.0835Z" fill="#D4A015"/>
<path d="M35.0735 11.7399H33.761V12.3956H35.0735V11.7399Z" fill="#C16710"/>
<path d="M39.6667 11.7399H35.0724V12.3956H39.6667V11.7399Z" fill="#D4A015"/>
<path d="M40.3235 11.7399H39.6666V12.3956H40.3235V11.7399Z" fill="#C16710"/>
<path d="M44.2611 11.7399H40.3224V12.3956H44.2611V11.7399Z" fill="#D4A015"/>
<path d="M35.0735 12.396H33.1041V13.0528H35.0735V12.396Z" fill="#C16710"/>
<path d="M39.0111 12.396H35.0724V13.0528H39.0099L39.0111 12.396Z" fill="#D4A015"/>
<path d="M40.9792 12.396H39.0099V13.0528H40.9792V12.396Z" fill="#FFE939"/>
<path d="M44.261 12.396H40.9791V13.0528H44.261V12.396Z" fill="#D4A015"/>
<path d="M35.0735 13.0524H33.761V13.7081H35.0735V13.0524Z" fill="#C16710"/>
<path d="M39.6667 13.0524H35.0724V13.7081H39.6667V13.0524Z" fill="#D4A015"/>
<path d="M40.3235 13.0524H39.6666V13.7081H40.3235V13.0524Z" fill="#FFE939"/>
<path d="M44.2611 13.0524H40.3224V13.7081H44.2611V13.0524Z" fill="#D4A015"/>
<path d="M35.0735 13.7085H33.761V14.3653H35.0735V13.7085Z" fill="#C16710"/>
<path d="M39.6667 13.7085H35.0724V14.3653H39.6667V13.7085Z" fill="#D4A015"/>
<path d="M40.3235 13.7085H39.6666V14.3653H40.3235V13.7085Z" fill="#FFE939"/>
<path d="M44.2611 13.7085H40.3224V14.3653H44.2611V13.7085Z" fill="#D4A015"/>
<path d="M35.0735 14.3649H33.1041V15.0206H35.0735V14.3649Z" fill="#C16710"/>
<path d="M39.6667 14.3649H35.0724V15.0206H39.6667V14.3649Z" fill="#D4A015"/>
<path d="M40.3235 14.3649H39.6666V15.0206H40.3235V14.3649Z" fill="#FFE939"/>
<path d="M44.2611 14.3649H40.3224V15.0206H44.2611V14.3649Z" fill="#D4A015"/>
<path d="M35.0735 15.021H33.761V15.6778H35.0735V15.021Z" fill="#C16710"/>
<path d="M39.6667 15.021H35.0724V15.6778H39.6667V15.021Z" fill="#D4A015"/>
<path d="M40.3235 15.021H39.6666V15.6778H40.3235V15.021Z" fill="#FFE939"/>
<path d="M44.2611 15.021H40.3224V15.6778H44.2611V15.021Z" fill="#D4A015"/>
<path d="M35.0735 15.6774H33.761V16.3331H35.0735V15.6774Z" fill="#C16710"/>
<path d="M39.6667 15.6774H35.0724V16.3331H39.6667V15.6774Z" fill="#D4A015"/>
<path d="M40.3235 15.6774H39.6666V16.3331H40.3235V15.6774Z" fill="#FFE939"/>
<path d="M44.2611 15.6774H40.3224V16.3331H44.2611V15.6774Z" fill="#D4A015"/>
<path d="M35.0735 16.3335H33.1041V16.9903H35.0735V16.3335Z" fill="#C16710"/>
<path d="M46.8861 16.3335H35.0724V16.9903H46.8849L46.8861 16.3335Z" fill="#D08B11"/>
<path d="M35.0735 16.9899H33.761V17.6456H35.0735V16.9899Z" fill="#C16710"/>
<path d="M44.2611 16.9899H35.0724V17.6456H44.2599V16.9888L44.2611 16.9899Z" fill="#D08B11"/>
<path d="M44.9167 16.9899H44.2599V17.6456H44.9167V16.9899Z" fill="black"/>
<path d="M45.5735 16.9899H44.9166V17.6456H45.5735V16.9899Z" fill="#D08B11"/>
<path d="M46.2292 16.9899H45.5724V17.6456H46.2292V16.9899Z" fill="black"/>
<path d="M46.886 16.9899H46.2291V17.6456H46.886V16.9899Z" fill="#D08B11"/>
<path d="M35.0735 17.646H33.1041V18.3028H35.0735V17.646Z" fill="#C16710"/>
<path d="M36.386 17.646H35.0735V18.3028H36.386V17.646Z" fill="#D08B11"/>
<path d="M37.0417 17.646H36.3849V18.3028H37.0417V17.646Z" fill="#FFE939"/>
<path d="M37.6985 17.646H37.0416V18.3028H37.6985V17.646Z" fill="black"/>
<path d="M38.3542 17.646H37.6974V18.3028H38.3542V17.646Z" fill="#FFE939"/>
<path d="M39.011 17.646H38.3541V18.3028H39.011V17.646Z" fill="black"/>
<path d="M39.6667 17.646H39.0099V18.3028H39.6667V17.646Z" fill="#FFE939"/>
<path d="M40.3235 17.646H39.6666V18.3028H40.3235V17.646Z" fill="black"/>
<path d="M40.9792 17.646H40.3224V18.3028H40.9792V17.646Z" fill="#FFE939"/>
<path d="M46.886 17.646H40.9791V18.3028H46.886V17.646Z" fill="#D08B11"/>
<path d="M35.0735 18.3024H32.4485V18.9581H35.0735V18.3024Z" fill="#C16710"/>
<path d="M46.8861 18.3024H35.0724V18.9581H46.8849V18.3013L46.8861 18.3024Z" fill="#D08B11"/>
<path d="M35.0735 18.9585H33.1041V19.6153H35.0735V18.9585Z" fill="#C16710"/>
<path d="M46.8861 18.9585H35.0724V19.6153H46.8849L46.8861 18.9585Z" fill="#D08B11"/>
<path d="M33.761 19.6149H33.1041V20.2706H33.761V19.6149ZM35.0735 19.6149H34.4166V20.2706H35.0735V19.6149Z" fill="#C16710"/>
<path d="M44.2611 19.6149H35.0724V20.2706H44.2599V19.6138L44.2611 19.6149Z" fill="#D08B11"/>
<path d="M39.6666 13.0524H35.7291V13.7081H39.6666V13.0524ZM44.261 13.0524H40.3223V13.7081H44.261V13.0524ZM36.386 13.7081H35.7291V14.3649H36.386V13.7081Z" fill="#B9185C"/>
<path d="M37.6986 13.7085H36.3849V14.3653H37.6974L37.6986 13.7085Z" fill="white"/>
<path d="M39.0111 13.7085H37.6974V14.3653H39.0111V13.7085Z" fill="black"/>
<path d="M39.6667 13.7085H39.0099V14.3653H39.6667V13.7085ZM40.9792 13.7085H40.3224V14.3653H40.9792V13.7085Z" fill="#B9185C"/>
<path d="M42.2916 13.7085H40.9791V14.3653H42.2916V13.7085Z" fill="white"/>
<path d="M43.6041 13.7085H42.2916V14.3653H43.6041V13.7085Z" fill="black"/>
<path d="M44.261 13.7085H43.6042V14.3653H44.261V13.7085ZM36.386 14.3653H33.761V15.021H36.386V14.3653Z" fill="#B9185C"/>
<path d="M37.6986 14.3649H36.3849V15.0206H37.6974V14.3638L37.6986 14.3649Z" fill="white"/>
<path d="M39.0111 14.3649H37.6974V15.0206H39.0111V14.3649Z" fill="black"/>
<path d="M40.9792 14.3649H39.0099V15.0206H40.9792V14.3649Z" fill="#B9185C"/>
<path d="M42.2916 14.3649H40.9791V15.0206H42.2916V14.3649Z" fill="white"/>
<path d="M43.6041 14.3649H42.2916V15.0206H43.6041V14.3649Z" fill="black"/>
<path d="M44.2611 14.3649H43.6042V15.0206H44.2611V14.3649ZM34.4167 15.0206H33.7599V15.6774H34.4167V15.0206ZM36.3861 15.0206H35.7292V15.6774H36.3861V15.0206Z" fill="#B9185C"/>
<path d="M37.6986 15.021H36.3849V15.6778H37.6974L37.6986 15.021Z" fill="white"/>
<path d="M39.0111 15.021H37.6974V15.6778H39.0111V15.021Z" fill="black"/>
<path d="M39.6667 15.021H39.0099V15.6778H39.6667V15.021ZM40.9792 15.021H40.3224V15.6778H40.9792V15.021Z" fill="#B9185C"/>
<path d="M42.2916 15.021H40.9791V15.6778H42.2916V15.021Z" fill="white"/>
<path d="M43.6041 15.021H42.2916V15.6778H43.6041V15.021Z" fill="black"/>
<path d="M44.2611 15.021H43.6042V15.6778H44.2611V15.021ZM34.4167 15.6778H33.7599V16.3335H34.4167V15.6778ZM36.3861 15.6778H35.7292V16.3335H36.3861V15.6778Z" fill="#B9185C"/>
<path d="M37.6986 15.6774H36.3849V16.3331H37.6974V15.6763L37.6986 15.6774Z" fill="white"/>
<path d="M39.0111 15.6774H37.6974V16.3331H39.0111V15.6774Z" fill="black"/>
<path d="M39.6667 15.6774H39.0099V16.3331H39.6667V15.6774ZM40.9792 15.6774H40.3224V16.3331H40.9792V15.6774Z" fill="#B9185C"/>
<path d="M42.2916 15.6774H40.9791V16.3331H42.2916V15.6774Z" fill="white"/>
<path d="M43.6041 15.6774H42.2916V16.3331H43.6041V15.6774Z" fill="black"/>
<path d="M44.261 15.6774H43.6041V16.3331H44.261V15.6774ZM39.6666 16.3331H35.7291V16.9899H39.6666V16.3331ZM44.261 16.3331H40.3223V16.9899H44.261V16.3331Z" fill="#B9185C"/>
<path fill-rule="evenodd" clip-rule="evenodd" d="M40.8333 6.41683H38.5C36.8573 6.41683 35.6591 6.41683 34.7165 6.49383C33.7796 6.57083 33.145 6.72016 32.6165 6.9885C31.6288 7.49207 30.8259 8.29539 30.3228 9.28333C30.0533 9.81183 29.904 10.4465 29.8281 11.3833C29.75 12.326 29.75 13.5242 29.75 15.1668V17.5002C29.75 19.1428 29.75 20.341 29.8281 21.2837C29.904 22.2205 30.0533 22.8552 30.3228 23.3837C30.8261 24.3712 31.629 25.1741 32.6165 25.6773C33.145 25.9468 33.7796 26.0962 34.7165 26.172C35.6591 26.2502 36.8573 26.2502 38.5 26.2502H40.8333C42.476 26.2502 43.6741 26.2502 44.6168 26.172C45.5536 26.0962 46.1883 25.9468 46.7168 25.6773C47.7047 25.1743 48.508 24.3713 49.0116 23.3837C49.28 22.8552 49.4293 22.2205 49.5063 21.2837C49.5833 20.341 49.5833 19.1428 49.5833 17.5002V15.1668C49.5833 13.5242 49.5833 12.326 49.5063 11.3833C49.4293 10.4465 49.28 9.81183 49.0116 9.28333C48.5082 8.29522 47.7049 7.49188 46.7168 6.9885C46.1883 6.72016 45.5536 6.57083 44.6168 6.49383C43.6741 6.41683 42.476 6.41683 40.8333 6.41683ZM29.8025 9.0185C29.1666 10.2668 29.1666 11.9002 29.1666 15.1668V17.5002C29.1666 20.7668 29.1666 22.4002 29.8025 23.6485C30.3617 24.7461 31.2541 25.6384 32.3516 26.1977C33.6 26.8335 35.2333 26.8335 38.5 26.8335H40.8333C44.1 26.8335 45.7333 26.8335 46.9816 26.1977C48.0792 25.6384 48.9715 24.7461 49.5308 23.6485C50.1666 22.4002 50.1666 20.7668 50.1666 17.5002V15.1668C50.1666 11.9002 50.1666 10.2668 49.5308 9.0185C48.9715 7.92093 48.0792 7.02858 46.9816 6.46933C45.7333 5.8335 44.1 5.8335 40.8333 5.8335H38.5C35.2333 5.8335 33.6 5.8335 32.3516 6.46933C31.2541 7.02858 30.3617 7.92093 29.8025 9.0185Z" fill="white" fill-opacity="0.3"/>
<path d="M5.83337 38.4998C5.83337 35.2332 5.83337 33.5998 6.46921 32.3515C7.02846 31.2539 7.92081 30.3616 9.01837 29.8023C10.2667 29.1665 11.9 29.1665 15.1667 29.1665H17.5C20.7667 29.1665 22.4 29.1665 23.6484 29.8023C24.7459 30.3616 25.6383 31.2539 26.1975 32.3515C26.8334 33.5998 26.8334 35.2332 26.8334 38.4998V40.8332C26.8334 44.0998 26.8334 45.7332 26.1975 46.9815C25.6383 48.0791 24.7459 48.9714 23.6484 49.5307C22.4 50.1665 20.7667 50.1665 17.5 50.1665H15.1667C11.9 50.1665 10.2667 50.1665 9.01837 49.5307C7.92081 48.9714 7.02846 48.0791 6.46921 46.9815C5.83337 45.7332 5.83337 44.0998 5.83337 40.8332V38.4998Z" fill="#564CBF"/>
<path d="M13.0527 30.479H13.7083V33.7608H14.3652V30.479H15.0208V34.4165H15.6777V30.479H16.3333V34.4165H16.9902V30.479H17.6458V33.7608H18.3027V30.479H18.9583V33.104H19.6152V31.1347H20.2708V33.7597H19.614V34.4165H18.9583V35.0733H17.6458V35.729H14.364V35.0722H13.0527V34.4165H12.3958V33.7597H11.739V31.1347H12.3958V33.104H13.0527V30.479Z" fill="#FF66B3"/>
<path d="M15.6777 35.729H16.3333V36.3858H17.6458V39.0108H18.9583V38.354H19.6152V39.6665H17.6458V40.979H16.989V42.2915H17.6458V48.854H16.989V42.9472H16.3333V42.2915H14.364V40.979H15.0208V41.6358H16.3333V40.3222H16.9902V37.0415H15.6765L15.6777 35.729Z" fill="#B3FFCC"/>
<path d="M18.9584 30.479H19.6152V33.104H18.9584V30.479ZM12.3959 31.1358H13.0527V33.104H12.3959V31.1358Z" fill="black" fill-opacity="0.9"/>
<path d="M20.9277 31.1358H20.2709V33.7608H19.614V34.4165H18.9584V35.0733H19.6152L19.614 34.4165H20.2709V33.7608L20.9277 33.7597V31.1358ZM13.7084 30.479H14.3652V33.7608H13.7084V30.479ZM18.3027 30.479H17.6459V33.7608H18.3027V30.479ZM15.0209 30.479H15.6777V34.4165H15.0209V30.479ZM16.9902 30.479H16.3334V34.4165H16.9902V30.479ZM17.6459 35.0733H18.3027V35.729H17.6459V35.0733ZM16.9902 35.729H16.3334V36.3858H16.9902V35.729ZM17.6459 36.3858H18.3027V39.0108H17.6459V36.3858ZM20.2709 38.354H19.614V39.6665H20.2709V38.354ZM17.6459 39.6665H18.3027V40.979H17.6459V39.6665ZM17.6459 42.2915V40.979H16.989V42.2915H17.6459ZM17.6459 42.2915V48.854H18.3027V42.2915H17.6459ZM15.0209 40.979H15.6777V41.6358H15.0209V40.979Z" fill="black" fill-opacity="0.9"/>
<path fill-rule="evenodd" clip-rule="evenodd" d="M17.5 29.7498H15.1667C13.524 29.7498 12.3259 29.7498 11.3832 29.828C10.4464 29.9038 9.81171 30.0532 9.28321 30.3227C8.29527 30.8257 7.49195 31.6287 6.98837 32.6163C6.72004 33.1448 6.57071 33.7795 6.49371 34.7163C6.41671 35.659 6.41671 36.8572 6.41671 38.4998V40.8332C6.41671 42.4758 6.41671 43.674 6.49371 44.6167C6.57071 45.5535 6.72004 46.1882 6.98837 46.7167C7.49175 47.7048 8.29509 48.5081 9.28321 49.0115C9.81171 49.2798 10.4464 49.4292 11.3832 49.5062C12.3259 49.5832 13.524 49.5832 15.1667 49.5832H17.5C19.1427 49.5832 20.3409 49.5832 21.2835 49.5062C22.2204 49.4292 22.855 49.2798 23.3835 49.0115C24.3712 48.5079 25.1741 47.7046 25.6772 46.7167C25.9467 46.1882 26.096 45.5535 26.1719 44.6167C26.25 43.674 26.25 42.4758 26.25 40.8332V38.4998C26.25 36.8572 26.25 35.659 26.1719 34.7163C26.096 33.7795 25.9467 33.1448 25.6772 32.6163C25.1739 31.6288 24.371 30.8259 23.3835 30.3227C22.855 30.0532 22.2204 29.9038 21.2835 29.828C20.3409 29.7498 19.1427 29.7498 17.5 29.7498ZM6.46921 32.3515C5.83337 33.5998 5.83337 35.2332 5.83337 38.4998V40.8332C5.83337 44.0998 5.83337 45.7332 6.46921 46.9815C7.02846 48.0791 7.92081 48.9714 9.01837 49.5307C10.2667 50.1665 11.9 50.1665 15.1667 50.1665H17.5C20.7667 50.1665 22.4 50.1665 23.6484 49.5307C24.7459 48.9714 25.6383 48.0791 26.1975 46.9815C26.8334 45.7332 26.8334 44.0998 26.8334 40.8332V38.4998C26.8334 35.2332 26.8334 33.5998 26.1975 32.3515C25.6383 31.2539 24.7459 30.3616 23.6484 29.8023C22.4 29.1665 20.7667 29.1665 17.5 29.1665H15.1667C11.9 29.1665 10.2667 29.1665 9.01837 29.8023C7.92081 30.3616 7.02846 31.2539 6.46921 32.3515Z" fill="white" fill-opacity="0.12"/>
<path d="M5.83337 15.1668C5.83337 11.9002 5.83337 10.2668 6.46921 9.0185C7.02846 7.92093 7.92081 7.02858 9.01837 6.46933C10.2667 5.8335 11.9 5.8335 15.1667 5.8335H17.5C20.7667 5.8335 22.4 5.8335 23.6484 6.46933C24.7459 7.02858 25.6383 7.92093 26.1975 9.0185C26.8334 10.2668 26.8334 11.9002 26.8334 15.1668V17.5002C26.8334 20.7668 26.8334 22.4002 26.1975 23.6485C25.6383 24.7461 24.7459 25.6384 23.6484 26.1977C22.4 26.8335 20.7667 26.8335 17.5 26.8335H15.1667C11.9 26.8335 10.2667 26.8335 9.01837 26.1977C7.92081 25.6384 7.02846 24.7461 6.46921 23.6485C5.83337 22.4002 5.83337 20.7668 5.83337 17.5002V15.1668Z" fill="#172D99"/>
<path fill-rule="evenodd" clip-rule="evenodd" d="M13.1833 15.2832H10.0333V16.3332H13.1833V15.2832ZM13.1833 16.3332H15.2833V17.3832H16.3333V19.4832H15.2833V18.4332H14.2333V17.3832H13.1833V16.3332ZM16.3333 19.4832H17.3833V22.6332H16.3333V19.4832Z" fill="#00A2D8"/>
<path fill-rule="evenodd" clip-rule="evenodd" d="M13.1833 14.2334H10.0333V15.2834H13.1833V14.2334ZM13.1833 15.2834H15.2833V16.3334H13.1833V15.2834ZM16.3333 17.3834H15.2833V16.3334H16.3333V17.3834ZM17.3833 19.4834H16.3333V17.3834H17.3833V19.4834ZM17.3833 19.4834H18.4333V22.6334H17.3833V19.4834Z" fill="#00DE6F"/>
<path fill-rule="evenodd" clip-rule="evenodd" d="M13.1833 13.1831H10.0333V14.2331H13.1833V13.1831ZM13.1833 14.2331H15.2833V15.2831H13.1833V14.2331ZM16.3333 16.3331H15.2833V15.2831H16.3333V16.3331ZM17.3833 17.3831H16.3333V16.3331H17.3833V17.3831ZM18.4333 19.4831H17.3833V17.3831H18.4333V19.4831ZM18.4333 19.4831H19.4833V22.6331H18.4333V19.4831Z" fill="#FFEB00"/>
<path fill-rule="evenodd" clip-rule="evenodd" d="M13.1833 12.1333H10.0333V13.1833H13.1833V12.1333ZM13.1833 13.1833H16.3333V14.2333H17.3833V15.2833H18.4333V16.3333H19.4833V18.4333H20.5333V22.6333H19.4833V19.4833H18.4333V17.3833H17.3833V16.3333H16.3333V15.2833H15.2833V14.2333H13.1833V13.1833Z" fill="#FFAA00"/>
<path fill-rule="evenodd" clip-rule="evenodd" d="M14.2333 11.0835H10.0333V12.1335H13.1833V13.1835H16.3333V14.2335H17.3833V15.2835H18.4333V16.3335H19.4833V18.4335H20.5333V22.6335H21.5833V18.4335H20.5333V16.3335H19.4833V15.2835H18.4333V14.2335H17.3833V13.1835H16.3333V12.1335H14.2333V11.0835Z" fill="#DD3D1C"/>
<path fill-rule="evenodd" clip-rule="evenodd" d="M14.2333 10.0332H10.0333V11.0832H14.2333V10.0332ZM14.2333 11.0832H16.3333V12.1332H14.2333V11.0832ZM20.5333 16.3332H19.4833V15.2832H18.4333V14.2332H17.3833V13.1832H16.3333V12.1332H18.4333V13.1832H19.4833V14.2332H20.5333V16.3332ZM21.5833 18.4332H20.5333V16.3332H21.5833V18.4332ZM21.5833 18.4332H22.6333V22.6332H21.5833V18.4332Z" fill="#C03078"/>
<path fill-rule="evenodd" clip-rule="evenodd" d="M17.5 6.41683H15.1667C13.524 6.41683 12.3259 6.41683 11.3832 6.49383C10.4464 6.57083 9.81171 6.72016 9.28321 6.9885C8.29509 7.49188 7.49175 8.29522 6.98837 9.28333C6.72004 9.81183 6.57071 10.4465 6.49371 11.3833C6.41671 12.326 6.41671 13.5242 6.41671 15.1668V17.5002C6.41671 19.1428 6.41671 20.341 6.49371 21.2837C6.57071 22.2205 6.72004 22.8552 6.98837 23.3837C7.49195 24.3713 8.29527 25.1743 9.28321 25.6773C9.81171 25.9468 10.4464 26.0962 11.3832 26.172C12.3259 26.2502 13.524 26.2502 15.1667 26.2502H17.5C19.1427 26.2502 20.3409 26.2502 21.2835 26.172C22.2204 26.0962 22.855 25.9468 23.3835 25.6773C24.371 25.1741 25.1739 24.3712 25.6772 23.3837C25.9467 22.8552 26.096 22.2205 26.1719 21.2837C26.25 20.341 26.25 19.1428 26.25 17.5002V15.1668C26.25 13.5242 26.25 12.326 26.1719 11.3833C26.096 10.4465 25.9467 9.81183 25.6772 9.28333C25.1741 8.29539 24.3712 7.49207 23.3835 6.9885C22.855 6.72016 22.2204 6.57083 21.2835 6.49383C20.3409 6.41683 19.1427 6.41683 17.5 6.41683ZM6.46921 9.0185C5.83337 10.2668 5.83337 11.9002 5.83337 15.1668V17.5002C5.83337 20.7668 5.83337 22.4002 6.46921 23.6485C7.02846 24.7461 7.92081 25.6384 9.01837 26.1977C10.2667 26.8335 11.9 26.8335 15.1667 26.8335H17.5C20.7667 26.8335 22.4 26.8335 23.6484 26.1977C24.7459 25.6384 25.6383 24.7461 26.1975 23.6485C26.8334 22.4002 26.8334 20.7668 26.8334 17.5002V15.1668C26.8334 11.9002 26.8334 10.2668 26.1975 9.0185C25.6383 7.92093 24.7459 7.02858 23.6484 6.46933C22.4 5.8335 20.7667 5.8335 17.5 5.8335H15.1667C11.9 5.8335 10.2667 5.8335 9.01837 6.46933C7.92081 7.02858 7.02846 7.92093 6.46921 9.0185Z" fill="white" fill-opacity="0.12"/>
<path d="M56 42.5832C56 49.9927 49.9928 55.9998 42.5833 55.9998C35.1738 55.9998 29.1666 49.9927 29.1666 42.5832C29.1666 35.1737 35.1738 29.1665 42.5833 29.1665C49.9928 29.1665 56 35.1737 56 42.5832Z" fill="#99B3FF"/>
<path fill-rule="evenodd" clip-rule="evenodd" d="M42.5833 55.4165C49.6708 55.4165 55.4166 49.6707 55.4166 42.5832C55.4166 35.4957 49.6708 29.7498 42.5833 29.7498C35.4958 29.7498 29.75 35.4957 29.75 42.5832C29.75 49.6707 35.4958 55.4165 42.5833 55.4165ZM42.5833 55.9998C49.9928 55.9998 56 49.9927 56 42.5832C56 35.1737 49.9928 29.1665 42.5833 29.1665C35.1738 29.1665 29.1666 35.1737 29.1666 42.5832C29.1666 49.9927 35.1738 55.9998 42.5833 55.9998Z" fill="black" fill-opacity="0.12"/>
<path d="M53.6667 42.5833C53.6667 45.5228 52.499 48.3419 50.4204 50.4204C48.3419 52.499 45.5228 53.6667 42.5833 53.6667C39.6439 53.6667 36.8248 52.499 34.7462 50.4204C32.6677 48.3419 31.5 45.5228 31.5 42.5833C31.5 39.6439 32.6677 36.8248 34.7462 34.7462C36.8248 32.6677 39.6439 31.5 42.5833 31.5C45.5228 31.5 48.3419 32.6677 50.4204 34.7462C52.499 36.8248 53.6667 39.6439 53.6667 42.5833Z" fill="#7F91EB"/>
<path fill-rule="evenodd" clip-rule="evenodd" d="M42.5833 53.0833C45.3681 53.0833 48.0388 51.9771 50.008 50.008C51.9771 48.0388 53.0833 45.3681 53.0833 42.5833C53.0833 39.7986 51.9771 37.1278 50.008 35.1587C48.0388 33.1896 45.3681 32.0833 42.5833 32.0833C39.7986 32.0833 37.1278 33.1896 35.1587 35.1587C33.1896 37.1278 32.0833 39.7986 32.0833 42.5833C32.0833 45.3681 33.1896 48.0388 35.1587 50.008C37.1278 51.9771 39.7986 53.0833 42.5833 53.0833ZM42.5833 53.6667C45.5228 53.6667 48.3419 52.499 50.4204 50.4204C52.499 48.3419 53.6667 45.5228 53.6667 42.5833C53.6667 39.6439 52.499 36.8248 50.4204 34.7462C48.3419 32.6677 45.5228 31.5 42.5833 31.5C39.6439 31.5 36.8248 32.6677 34.7462 34.7462C32.6677 36.8248 31.5 39.6439 31.5 42.5833C31.5 45.5228 32.6677 48.3419 34.7462 50.4204C36.8248 52.499 39.6439 53.6667 42.5833 53.6667Z" fill="black" fill-opacity="0.12"/>
<path fill-rule="evenodd" clip-rule="evenodd" d="M37.2307 43.2099C37.1109 43.1248 37.0276 42.9976 36.9976 42.8538C36.9675 42.7099 36.9928 42.5601 37.0685 42.4341L42.0828 34.1157C42.1347 34.0298 42.208 33.9586 42.2955 33.9093C42.383 33.8599 42.4817 33.834 42.5822 33.834C42.6826 33.834 42.7813 33.8599 42.8688 33.9093C42.9563 33.9586 43.0296 34.0298 43.0815 34.1157L48.0947 42.4341C48.1702 42.5597 48.1957 42.7091 48.1661 42.8526C48.1365 42.9962 48.0539 43.1233 47.9348 43.2087C47.9975 43.253 48.0508 43.3093 48.0917 43.3742C48.1326 43.4391 48.1603 43.5115 48.1732 43.5871C48.1861 43.6628 48.184 43.7402 48.1669 43.815C48.1498 43.8898 48.1181 43.9605 48.0737 44.0231L43.057 51.0873C43.0031 51.1631 42.9318 51.2249 42.8491 51.2676C42.7664 51.3103 42.6746 51.3326 42.5816 51.3326C42.4885 51.3326 42.3968 51.3103 42.3141 51.2676C42.2314 51.2249 42.1601 51.1631 42.1062 51.0873L37.093 44.0231C37.0035 43.897 36.9677 43.7405 36.9935 43.588C37.0193 43.4355 37.1046 43.2995 37.2307 43.2099ZM37.569 43.6859L42.5822 46.6469L47.5988 43.6859L42.5822 50.7501L37.569 43.6859ZM37.569 42.7351L42.5822 34.4167L47.5953 42.7351L42.5822 45.6984L37.569 42.7351Z" fill="white" fill-opacity="0.2"/>
<path d="M42.5822 34.4165V45.6982L47.5953 42.7348L42.5822 34.4165Z" fill="black" fill-opacity="0.55"/>
<path d="M42.5821 34.4165L37.569 42.7348L42.5821 45.6982V34.4165Z" fill="black" fill-opacity="0.3"/>
<path d="M42.5822 46.647V50.7502L47.5988 43.686L42.5822 46.647Z" fill="black" fill-opacity="0.55"/>
<path d="M42.5821 50.7502V46.647L37.569 43.686L42.5821 50.7502Z" fill="black" fill-opacity="0.3"/>
<path d="M42.5822 45.6984L47.5953 42.735L42.5822 40.4565V45.6984Z" fill="black"/>
<path d="M37.569 42.735L42.5821 45.6984V40.4565L37.569 42.735Z" fill="black" fill-opacity="0.6"/>
</g>
<defs>
<linearGradient id="paint0_linear_7999_84062" x1="28" y1="0" x2="28" y2="56" gradientUnits="userSpaceOnUse">
<stop stop-color="#174299"/>
<stop offset="1" stop-color="#001E59"/>
</linearGradient>
<linearGradient id="paint1_linear_7999_84062" x1="28" y1="0" x2="28" y2="56" gradientUnits="userSpaceOnUse">
<stop stop-color="#D2D8E4"/>
<stop offset="1" stop-color="#C2C9D6"/>
</linearGradient>
<clipPath id="clip0_7999_84062">
<rect width="56" height="56" fill="white"/>
</clipPath>
</defs>
</svg>
