<svg width="20" height="20" viewBox="0 0 20 20" fill="none" xmlns="http://www.w3.org/2000/svg">
<path d="M18.4382 14.7189L18.4384 14.7193C18.5997 14.9939 18.6854 15.3063 18.6868 15.6248C18.6882 15.9433 18.6054 16.2565 18.4466 16.5325C18.2879 16.8086 18.0589 17.0378 17.7829 17.1968C17.507 17.3557 17.1939 17.4388 16.8754 17.4376H16.8752H3.12515H3.12492C2.80644 17.4388 2.49333 17.3557 2.21737 17.1968C1.9414 17.0378 1.71242 16.8086 1.55367 16.5325C1.39492 16.2565 1.31206 15.9433 1.31349 15.6248C1.31493 15.3063 1.40062 14.9939 1.56186 14.7193L1.56207 14.7189L8.42925 2.84392L8.42932 2.84381C8.58824 2.56773 8.81712 2.33841 9.09289 2.17896C9.36867 2.0195 9.68159 1.93555 10.0001 1.93555C10.3187 1.93555 10.6316 2.0195 10.9074 2.17896C11.1832 2.33841 11.4121 2.56773 11.571 2.84381L11.571 2.84392L18.4382 14.7189ZM9.51401 7.639C9.38508 7.76793 9.31265 7.9428 9.31265 8.12513V11.2501C9.31265 11.4325 9.38508 11.6073 9.51401 11.7363C9.64295 11.8652 9.81781 11.9376 10.0001 11.9376C10.1825 11.9376 10.3574 11.8652 10.4863 11.7363C10.6152 11.6073 10.6876 11.4325 10.6876 11.2501V8.12513C10.6876 7.9428 10.6152 7.76793 10.4863 7.639C10.3574 7.51007 10.1825 7.43763 10.0001 7.43763C9.81781 7.43763 9.64295 7.51007 9.51401 7.639ZM9.44458 14.8941C9.60903 15.004 9.80237 15.0626 10.0001 15.0626C10.2654 15.0626 10.5197 14.9573 10.7073 14.7697C10.8948 14.5822 11.0001 14.3278 11.0001 14.0626C11.0001 13.8649 10.9415 13.6715 10.8316 13.5071C10.7217 13.3426 10.5656 13.2144 10.3828 13.1388C10.2001 13.0631 9.99904 13.0433 9.80506 13.0818C9.61108 13.1204 9.43289 13.2157 9.29304 13.3555C9.15319 13.4954 9.05795 13.6736 9.01936 13.8675C8.98078 14.0615 9.00058 14.2626 9.07627 14.4453C9.15196 14.628 9.28013 14.7842 9.44458 14.8941Z" fill="#F5B73C" stroke="#F5B73C" stroke-width="0.125"/>
</svg>
