<svg width="20" height="20" viewBox="0 0 20 20" fill="none" xmlns="http://www.w3.org/2000/svg">
<path d="M18.4381 14.7188L18.4383 14.7192C18.5996 14.9938 18.6852 15.3062 18.6867 15.6247C18.6881 15.9432 18.6053 16.2563 18.4465 16.5324C18.2878 16.8085 18.0588 17.0377 17.7828 17.1966C17.5068 17.3556 17.1937 17.4387 16.8753 17.4375H16.875H3.12503H3.12479C2.80632 17.4387 2.49321 17.3556 2.21724 17.1966C1.94128 17.0377 1.7123 16.8085 1.55355 16.5324C1.3948 16.2563 1.31193 15.9432 1.31337 15.6247C1.31481 15.3062 1.4005 14.9938 1.56174 14.7192L1.56195 14.7188L8.42913 2.8438L8.42919 2.84369C8.58812 2.56761 8.817 2.33829 9.09277 2.17884C9.36854 2.01938 9.68147 1.93542 10 1.93542C10.3186 1.93542 10.6315 2.01938 10.9073 2.17884C11.1831 2.33829 11.4119 2.56761 11.5709 2.84369L11.5709 2.8438L18.4381 14.7188ZM9.51389 7.63887C9.38496 7.76781 9.31253 7.94267 9.31253 8.12501V11.25C9.31253 11.4323 9.38496 11.6072 9.51389 11.7361C9.64282 11.8651 9.81769 11.9375 10 11.9375C10.1824 11.9375 10.3572 11.8651 10.4862 11.7361C10.6151 11.6072 10.6875 11.4323 10.6875 11.25V8.12501C10.6875 7.94267 10.6151 7.76781 10.4862 7.63887C10.3572 7.50994 10.1824 7.43751 10 7.43751C9.81769 7.43751 9.64282 7.50994 9.51389 7.63887ZM9.44446 14.894C9.60891 15.0039 9.80225 15.0625 10 15.0625C10.2652 15.0625 10.5196 14.9572 10.7071 14.7696C10.8947 14.5821 11 14.3277 11 14.0625C11 13.8647 10.9414 13.6714 10.8315 13.5069C10.7216 13.3425 10.5654 13.2143 10.3827 13.1386C10.2 13.0629 9.99892 13.0431 9.80494 13.0817C9.61096 13.1203 9.43277 13.2156 9.29292 13.3554C9.15307 13.4953 9.05783 13.6734 9.01924 13.8674C8.98066 14.0614 9.00046 14.2625 9.07615 14.4452C9.15184 14.6279 9.28001 14.7841 9.44446 14.894Z" fill="#D5625E" stroke="#D5625E" stroke-width="0.125"/>
</svg>
