<svg width="20" height="20" viewBox="0 0 20 20" fill="none" xmlns="http://www.w3.org/2000/svg">
<path d="M12.9897 12.0107L12.9894 12.0104L10.9714 10L12.9894 7.98959L12.9896 7.98981L12.9936 7.98496C13.1031 7.85153 13.1591 7.68214 13.1506 7.50974C13.1422 7.33734 13.0699 7.17424 12.9478 7.05219C12.8258 6.93013 12.6627 6.85784 12.4903 6.84937C12.3179 6.8409 12.1485 6.89687 12.015 7.00638L12.0148 7.00613L12.0104 7.01058L10 9.02863L7.98959 7.01058L7.98982 7.01036L7.98497 7.00638C7.85154 6.89687 7.68215 6.8409 7.50974 6.84937C7.33734 6.85784 7.17425 6.93013 7.05219 7.05219C6.93014 7.17424 6.85784 7.33734 6.84938 7.50974C6.84091 7.68214 6.89687 7.85153 7.00638 7.98496L7.00614 7.98516L7.01058 7.98959L9.02863 10L7.01058 12.0104L7.01029 12.0107C6.88133 12.1409 6.80899 12.3167 6.80899 12.5C6.80899 12.6833 6.88133 12.8591 7.01029 12.9893L7.01125 12.9902C7.14236 13.117 7.31762 13.1879 7.5 13.1879C7.68239 13.1879 7.85764 13.117 7.98876 12.9902L7.98877 12.9903L7.98959 12.9894L10 10.9714L12.0104 12.9894L12.0104 12.9894L12.0112 12.9902C12.1424 13.117 12.3176 13.1879 12.5 13.1879C12.6824 13.1879 12.8576 13.117 12.9888 12.9902L12.9897 12.9893C13.1187 12.8591 13.191 12.6833 13.191 12.5C13.191 12.3167 13.1187 12.1409 12.9897 12.0107ZM5.52072 3.29628C6.84657 2.41037 8.40535 1.93751 9.99994 1.9375C12.137 1.94161 14.1854 2.79238 15.6965 4.30351C17.2076 5.81466 18.0584 7.86304 18.0625 10.0001C18.0625 11.5947 17.5896 13.1534 16.7037 14.4793C15.8178 15.8052 14.5586 16.8385 13.0854 17.4488C11.6122 18.059 9.99106 18.2187 8.42709 17.9076C6.86312 17.5965 5.42652 16.8286 4.29896 15.701C3.17139 14.5735 2.40352 13.1369 2.09242 11.5729C1.78133 10.0089 1.94099 8.38784 2.55122 6.91461C3.16146 5.44139 4.19485 4.1822 5.52072 3.29628Z" fill="#D5625E" stroke="#D5625E" stroke-width="0.125"/>
</svg>
