<svg width="24" height="24" viewBox="0 0 24 24" fill="none" xmlns="http://www.w3.org/2000/svg">
<path d="M22.2969 11.2469H20.1875C19.7716 11.2469 19.4344 11.5841 19.4344 12C19.4344 12.4159 19.7716 12.7531 20.1875 12.7531H22.2969C22.7128 12.7531 23.05 12.4159 23.05 12C23.05 11.5841 22.7128 11.2469 22.2969 11.2469Z" fill="#FCFCFD" stroke="#FCFCFD" stroke-width="0.1"/>
<path d="M20.0169 14.2799L21.4232 15.6862C21.7173 15.9803 21.7173 16.4571 21.4232 16.7512L20.0169 14.2799ZM20.0169 14.2799C19.7229 13.9859 19.246 13.9859 18.9519 14.2799M20.0169 14.2799L18.9519 14.2799M18.9519 14.2799C18.6577 14.574 18.6577 15.0509 18.9519 15.345L21.3878 15.7215L19.9816 14.3153C19.707 14.0407 19.2618 14.0407 18.9872 14.3153L18.9519 14.2799ZM20.3581 16.7512C20.3581 16.7512 20.3581 16.7512 20.3581 16.7512C20.6522 17.0454 21.1291 17.0454 21.4232 16.7512L20.3581 16.7512Z" fill="#FCFCFD" stroke="#FCFCFD" stroke-width="0.1"/>
<path d="M20.3581 7.24868L20.3581 7.24868L18.9518 8.65493C18.6577 8.94905 18.6577 9.42588 18.9518 9.72C19.246 10.0141 19.7228 10.0141 20.0169 9.72L21.4232 8.31375C21.7173 8.01963 21.7173 7.5428 21.4232 7.24868C21.1291 6.95461 20.6522 6.95461 20.3581 7.24868Z" fill="#FCFCFD" stroke="#FCFCFD" stroke-width="0.1"/>
<path d="M16.0338 2.95C14.9795 2.95 14.1034 3.72858 13.9436 4.74325L13.3268 5.36321C12.243 6.45258 10.6455 7.10385 9.05418 7.10385H4.92153C4.01398 7.10385 3.23885 7.68091 2.93861 8.48846H2.8552C1.30818 8.48846 0.0500977 9.75337 0.0500977 11.3077C0.0500977 12.862 1.30818 14.1269 2.8552 14.1269H2.93861C3.15293 14.7034 3.60908 15.1619 4.18275 15.3774V18.9231C4.18275 20.0957 5.1319 21.05 6.29912 21.05C7.46631 21.05 8.4154 20.0957 8.4154 18.9231V15.5115H9.05418C10.6454 15.5115 12.2429 16.1628 13.3268 17.2522L13.9436 17.8721C14.1034 18.8868 14.9795 19.6654 16.0338 19.6654C17.201 19.6654 18.1501 18.7111 18.1501 17.5385V5.07692C18.1501 3.90433 17.201 2.95 16.0338 2.95ZM2.8052 12.6414C2.09652 12.6149 1.52765 12.027 1.52765 11.3077C1.52765 10.5884 2.09652 10.0005 2.8052 9.97401V12.6414ZM6.93785 18.9231C6.93785 19.2774 6.65101 19.5654 6.29908 19.5654C5.94714 19.5654 5.6603 19.2774 5.6603 18.9231V15.5115H6.93785V18.9231ZM8.3154 14.0269H4.92153C4.56959 14.0269 4.28275 13.739 4.28275 13.3846V9.23077C4.28275 8.8764 4.56959 8.58846 4.92153 8.58846H8.3154V14.0269ZM9.78841 8.55254C11.3144 8.40396 12.7693 7.79931 13.9174 6.8311V15.7842C12.7693 14.8161 11.3144 14.2114 9.78836 14.0628L9.78841 8.55254ZM16.6725 17.5385C16.6725 17.8928 16.3857 18.1808 16.0338 18.1808H16.0338C15.6818 18.1808 15.395 17.8928 15.395 17.5385V5.07692C15.395 4.72256 15.6818 4.43462 16.0338 4.43462C16.3857 4.43462 16.6725 4.72256 16.6725 5.07692V17.5385Z" fill="#FCFCFD" stroke="#FCFCFD" stroke-width="0.1"/>
</svg>
