<svg width="32" height="32" viewBox="0 0 32 32" fill="none" xmlns="http://www.w3.org/2000/svg">
<path fill-rule="evenodd" clip-rule="evenodd" d="M25.3333 13.3334H6.66667V24.0001C6.66667 25.4728 7.86057 26.6667 9.33333 26.6667H22.6667C24.1394 26.6667 25.3333 25.4728 25.3333 24.0001V13.3334ZM4 10.6667V24.0001C4 26.9456 6.38781 29.3334 9.33333 29.3334H22.6667C25.6122 29.3334 28 26.9456 28 24.0001V10.6667H4Z" fill="#FCFCFD"/>
<path d="M12 17.3333C12 16.597 12.597 16 13.3333 16H18.6667C19.403 16 20 16.597 20 17.3333V17.3333C20 18.0697 19.403 18.6667 18.6667 18.6667H13.3333C12.597 18.6667 12 18.0697 12 17.3333V17.3333Z" fill="#FCFCFD"/>
<path fill-rule="evenodd" clip-rule="evenodd" d="M25.3332 5.33341H6.6665C5.93012 5.33341 5.33317 5.93037 5.33317 6.66675V9.33341C5.33317 10.0698 5.93012 10.6667 6.6665 10.6667H25.3332C26.0696 10.6667 26.6665 10.0698 26.6665 9.33341V6.66675C26.6665 5.93037 26.0696 5.33341 25.3332 5.33341ZM6.6665 2.66675C4.45737 2.66675 2.6665 4.45761 2.6665 6.66675V9.33341C2.6665 11.5426 4.45736 13.3334 6.6665 13.3334H25.3332C27.5423 13.3334 29.3332 11.5426 29.3332 9.33341V6.66675C29.3332 4.45761 27.5423 2.66675 25.3332 2.66675H6.6665Z" fill="#FCFCFD"/>
</svg>
