<svg width="24" height="25" viewBox="0 0 24 25" fill="none" xmlns="http://www.w3.org/2000/svg">
<path fill-rule="evenodd" clip-rule="evenodd" d="M9.09601 23.6425C15.5261 25.2458 22.0379 21.333 23.6408 14.9037C25.2437 8.47402 21.3313 1.96108 14.9016 0.35816C8.47345 -1.24476 1.96163 2.66841 0.359461 9.09846C-1.24421 15.5274 2.66858 22.0396 9.09601 23.6425ZM14.6519 7.26264C16.3144 7.83533 17.5303 8.6938 17.2914 10.2907C17.1185 11.4597 16.4704 12.0256 15.6101 12.224C16.7915 12.8391 17.3926 13.7823 16.82 15.4175C16.1093 17.4483 14.4208 17.6197 12.1755 17.1948L11.6305 19.3787L10.3138 19.0505L10.8516 16.8959C10.5103 16.8112 10.1615 16.7211 9.80221 16.6236L9.26253 18.7884L7.94727 18.4602L8.4922 16.2722C8.36929 16.2407 8.24561 16.2085 8.12104 16.176C7.93394 16.1272 7.74485 16.0779 7.55348 16.03L5.83992 15.6028L6.49361 14.0955C6.49361 14.0955 7.46384 14.3535 7.45071 14.3344C7.8235 14.4267 7.9889 14.1836 8.05415 14.0216L8.91525 10.5694C8.94759 10.5771 8.97926 10.5851 9.00982 10.5927C9.02497 10.5965 9.03984 10.6003 9.05438 10.6039C9.00188 10.5829 8.95425 10.5694 8.91749 10.56L9.53181 8.09561C9.54794 7.81583 9.45155 7.46291 8.91825 7.32978C8.93887 7.3159 7.96189 7.092 7.96189 7.092L8.31218 5.6856L10.1281 6.13902L10.1266 6.14577C10.3997 6.21366 10.6809 6.27816 10.9675 6.34342L11.5071 4.18094L12.8232 4.5091L12.2944 6.6292C12.6476 6.70983 13.0032 6.79122 13.3493 6.87748L13.8744 4.77125L15.1912 5.09941L14.6519 7.26264ZM10.4868 15.1057C11.5613 15.3895 13.9095 16.0097 14.2828 14.5095C14.6654 12.9756 12.388 12.4646 11.2767 12.2153C11.1525 12.1874 11.0429 12.1628 10.9532 12.1404L10.2301 15.0391C10.3038 15.0574 10.3902 15.0802 10.4868 15.1057ZM11.5 10.8701C12.3958 11.1091 14.3497 11.6306 14.6901 10.2671C15.0377 8.87243 13.1386 8.45201 12.2111 8.24669C12.1068 8.2236 12.0147 8.20322 11.9396 8.18449L11.284 10.8135C11.3459 10.829 11.4186 10.8483 11.5 10.8701Z" fill="#E5E7EA"/>
</svg>
