<svg width="32" height="32" viewBox="0 0 32 32" fill="none" xmlns="http://www.w3.org/2000/svg">
<path fill-rule="evenodd" clip-rule="evenodd" d="M6.35427 17.3334C5.68184 17.3334 5.11464 17.8341 5.03123 18.5014L4.36456 23.8347C4.26509 24.6305 4.8856 25.3334 5.6876 25.3334H12.9794C13.7814 25.3334 14.4019 24.6305 14.3025 23.8347L13.6358 18.5014C13.5524 17.8341 12.9852 17.3334 12.3128 17.3334H6.35427ZM2.38516 18.1706C2.63537 16.1689 4.33698 14.6667 6.35427 14.6667H12.3128C14.3301 14.6667 16.0317 16.1689 16.2819 18.1706L16.9485 23.5039C17.247 25.8914 15.3854 28.0001 12.9794 28.0001H5.6876C3.28161 28.0001 1.42006 25.8914 1.71849 23.5039L2.38516 18.1706Z" fill="#FCFCFD"/>
<path fill-rule="evenodd" clip-rule="evenodd" d="M19.6873 17.3334C19.0148 17.3334 18.4476 17.8341 18.3642 18.5014L17.6976 23.8347C17.5981 24.6305 18.2186 25.3334 19.0206 25.3334H26.3124C27.1144 25.3334 27.735 24.6305 27.6355 23.8347L26.9688 18.5014C26.8854 17.8341 26.3182 17.3334 25.6458 17.3334H19.6873ZM15.7182 18.1706C15.9684 16.1689 17.67 14.6667 19.6873 14.6667H25.6458C27.6631 14.6667 29.3647 16.1689 29.6149 18.1706L30.2815 23.5039C30.58 25.8914 28.7184 28.0001 26.3124 28.0001H19.0206C16.6146 28.0001 14.7531 25.8914 15.0515 23.5039L15.7182 18.1706Z" fill="#FCFCFD"/>
<path fill-rule="evenodd" clip-rule="evenodd" d="M13.0208 6.66667C12.3483 6.66667 11.7811 7.16738 11.6977 7.83462L11.0311 13.168C10.9316 13.9638 11.5521 14.6667 12.3541 14.6667H19.6459C20.4479 14.6667 21.0684 13.9638 20.969 13.168L20.3023 7.83462C20.2189 7.16738 19.6517 6.66667 18.9793 6.66667H13.0208ZM9.05166 7.50386C9.30187 5.50215 11.0035 4 13.0208 4H18.9793C20.9966 4 22.6982 5.50215 22.9484 7.50386L23.615 12.8372C23.9135 15.2246 22.0519 17.3333 19.6459 17.3333H12.3541C9.94811 17.3333 8.08657 15.2246 8.38499 12.8372L9.05166 7.50386Z" fill="#FCFCFD"/>
</svg>
