<svg width="17" height="16" viewBox="0 0 17 16" fill="none" xmlns="http://www.w3.org/2000/svg">
<path fill-rule="evenodd" clip-rule="evenodd" d="M1.83268 2C2.20087 2 2.49935 2.29848 2.49935 2.66667V12C2.49935 12.3682 2.79783 12.6667 3.16602 12.6667H15.166C15.5342 12.6667 15.8327 12.9651 15.8327 13.3333C15.8327 13.7015 15.5342 14 15.166 14H3.16602C2.06145 14 1.16602 13.1046 1.16602 12V2.66667C1.16602 2.29848 1.46449 2 1.83268 2Z" fill="white"/>
<path d="M12.5007 3.33301C12.1325 3.33301 11.834 3.63148 11.834 3.99967V10.6663C11.834 11.0345 12.1325 11.333 12.5007 11.333C12.8688 11.333 13.1673 11.0345 13.1673 10.6663V3.99967C13.1673 3.63148 12.8688 3.33301 12.5007 3.33301Z" fill="white"/>
<path d="M7.16732 4.66634C6.79913 4.66634 6.50065 4.96482 6.50065 5.33301V10.6663C6.50065 11.0345 6.79913 11.333 7.16732 11.333C7.53551 11.333 7.83398 11.0345 7.83398 10.6663V5.33301C7.83398 4.96482 7.53551 4.66634 7.16732 4.66634Z" fill="white"/>
<path d="M4.50065 8.66634C4.13246 8.66634 3.83398 8.96482 3.83398 9.33301V10.6663C3.83398 11.0345 4.13246 11.333 4.50065 11.333C4.86884 11.333 5.16732 11.0345 5.16732 10.6663V9.33301C5.16732 8.96482 4.86884 8.66634 4.50065 8.66634Z" fill="white"/>
<path d="M9.16732 6.66634C9.16732 6.29815 9.46579 5.99967 9.83398 5.99967C10.2022 5.99967 10.5007 6.29815 10.5007 6.66634V10.6663C10.5007 11.0345 10.2022 11.333 9.83398 11.333C9.46579 11.333 9.16732 11.0345 9.16732 10.6663V6.66634Z" fill="white"/>
</svg>
