<svg width="24" height="24" viewBox="0 0 24 24" fill="none" xmlns="http://www.w3.org/2000/svg">
<path d="M9.75022 18C9.55143 17.9973 9.36083 17.9204 9.21584 17.7843L3.96584 12.5343C3.84624 12.3886 3.78512 12.2036 3.79437 12.0153C3.80362 11.827 3.88257 11.6489 4.01587 11.5156C4.14917 11.3823 4.32729 11.3034 4.51558 11.2941C4.70387 11.2849 4.88887 11.346 5.03459 11.4656L9.75022 16.1906L19.7158 6.2156C19.8616 6.096 20.0466 6.03488 20.2348 6.04413C20.4231 6.05338 20.6013 6.13233 20.7346 6.26563C20.8679 6.39893 20.9468 6.57705 20.9561 6.76534C20.9653 6.95363 20.9042 7.13862 20.7846 7.28435L10.2846 17.7843C10.1396 17.9204 9.949 17.9973 9.75022 18Z" fill="white"/>
</svg>
