<svg width="24" height="24" viewBox="0 0 24 24" fill="none" xmlns="http://www.w3.org/2000/svg">
<path d="M8.99984 18.0001C8.99938 17.7664 9.08075 17.54 9.22984 17.3601L13.7098 12.0001L9.38984 6.63006C9.30677 6.52778 9.24474 6.41008 9.20731 6.28374C9.16988 6.1574 9.15778 6.02491 9.17172 5.89388C9.18566 5.76285 9.22536 5.63587 9.28853 5.52024C9.3517 5.4046 9.43711 5.30259 9.53984 5.22006C9.64212 5.137 9.75982 5.07497 9.88616 5.03754C10.0125 5.0001 10.145 4.98801 10.276 5.00195C10.407 5.01589 10.534 5.05559 10.6497 5.11876C10.7653 5.18193 10.8673 5.26734 10.9498 5.37006L15.7798 11.3701C15.9269 11.549 16.0073 11.7734 16.0073 12.0051C16.0073 12.2367 15.9269 12.4611 15.7798 12.6401L10.7798 18.6401C10.6959 18.7413 10.5928 18.825 10.4764 18.8864C10.3601 18.9477 10.2328 18.9855 10.1018 18.9976C9.97083 19.0097 9.83876 18.9958 9.71316 18.9568C9.58755 18.9177 9.47088 18.8543 9.36984 18.7701C9.25512 18.677 9.16245 18.5597 9.09847 18.4266C9.0345 18.2934 9.00081 18.1478 8.99984 18.0001Z" fill="#FCFCFD"/>
</svg>
