<svg width="24" height="24" viewBox="0 0 24 24" fill="none" xmlns="http://www.w3.org/2000/svg">
<path d="M15.0002 5.99994C15.0006 6.23359 14.9192 6.46002 14.7702 6.63993L10.2902 11.9999L14.6102 17.3699C14.6932 17.4722 14.7553 17.5899 14.7927 17.7163C14.8301 17.8426 14.8422 17.9751 14.8283 18.1061C14.8143 18.2371 14.7746 18.3641 14.7115 18.4798C14.6483 18.5954 14.5629 18.6974 14.4602 18.7799C14.3579 18.863 14.2402 18.925 14.1138 18.9625C13.9875 18.9999 13.855 19.012 13.724 18.9981C13.593 18.9841 13.466 18.9444 13.3503 18.8812C13.2347 18.8181 13.1327 18.7327 13.0502 18.6299L8.22016 12.6299C8.07308 12.451 7.99268 12.2266 7.99268 11.9949C7.99268 11.7633 8.07308 11.5389 8.22016 11.3599L13.2202 5.35994C13.3041 5.25868 13.4072 5.17497 13.5236 5.11362C13.6399 5.05227 13.7672 5.01447 13.8982 5.0024C14.0292 4.99032 14.1612 5.0042 14.2868 5.04325C14.4124 5.08229 14.5291 5.14573 14.6302 5.22993C14.7449 5.32299 14.8376 5.4403 14.9015 5.57344C14.9655 5.70657 14.9992 5.85223 15.0002 5.99994Z" fill="#FCFCFD"/>
</svg>
