<svg width="32" height="32" viewBox="0 0 32 32" fill="none" xmlns="http://www.w3.org/2000/svg">
<path fill-rule="evenodd" clip-rule="evenodd" d="M26.6668 6.66667H5.3335C4.59712 6.66667 4.00016 7.26362 4.00016 8V24C4.00016 24.7364 4.59712 25.3333 5.3335 25.3333H26.6668C27.4032 25.3333 28.0002 24.7364 28.0002 24V8C28.0002 7.26362 27.4032 6.66667 26.6668 6.66667ZM5.3335 4C3.12436 4 1.3335 5.79086 1.3335 8V24C1.3335 26.2091 3.12436 28 5.3335 28H26.6668C28.876 28 30.6668 26.2091 30.6668 24V8C30.6668 5.79086 28.876 4 26.6668 4H5.3335Z" fill="#FCFCFD"/>
<path d="M10.6665 20.6667C10.6665 21.7713 9.77107 22.6667 8.6665 22.6667C7.56193 22.6667 6.6665 21.7713 6.6665 20.6667C6.6665 19.5622 7.56193 18.6667 8.6665 18.6667C9.77107 18.6667 10.6665 19.5622 10.6665 20.6667Z" fill="#FCFCFD"/>
<path d="M17.3335 20.6667C17.3335 21.7713 16.4381 22.6667 15.3335 22.6667C14.2289 22.6667 13.3335 21.7713 13.3335 20.6667C13.3335 19.5622 14.2289 18.6667 15.3335 18.6667C16.4381 18.6667 17.3335 19.5622 17.3335 20.6667Z" fill="#FCFCFD"/>
<path d="M1.3335 10.6667H30.6668V13.3334H1.3335V10.6667Z" fill="#FCFCFD"/>
</svg>
