<svg width="24" height="20" viewBox="0 0 24 20" fill="none" xmlns="http://www.w3.org/2000/svg">
<g clip-path="url(#clip0_2121_76240)">
<path d="M20.317 2.36016C18.7873 1.65828 17.147 1.14117 15.4319 0.844992C15.4007 0.839276 15.3695 0.853561 15.3534 0.882131C15.1424 1.25735 14.9087 1.74684 14.7451 2.13159C12.9004 1.85542 11.0652 1.85542 9.25832 2.13159C9.09465 1.73829 8.85248 1.25735 8.64057 0.882131C8.62449 0.854514 8.59328 0.84023 8.56205 0.844992C6.84791 1.14022 5.20756 1.65733 3.67693 2.36016C3.66368 2.36588 3.65233 2.37541 3.64479 2.38778C0.533392 7.03614 -0.31895 11.5702 0.0991801 16.0481C0.101072 16.07 0.11337 16.091 0.130398 16.1043C2.18321 17.6119 4.17171 18.5271 6.12328 19.1337C6.15451 19.1432 6.18761 19.1318 6.20748 19.1061C6.66913 18.4757 7.08064 17.8109 7.43348 17.1119C7.4543 17.0709 7.43442 17.0224 7.39186 17.0062C6.73913 16.7586 6.1176 16.4567 5.51973 16.1139C5.47244 16.0862 5.46865 16.0186 5.51216 15.9862C5.63797 15.8919 5.76382 15.7938 5.88396 15.6948C5.90569 15.6767 5.93598 15.6729 5.96153 15.6843C9.88928 17.4776 14.1415 17.4776 18.023 15.6843C18.0485 15.6719 18.0788 15.6758 18.1015 15.6939C18.2216 15.7929 18.3475 15.8919 18.4742 15.9862C18.5177 16.0186 18.5149 16.0862 18.4676 16.1139C17.8697 16.4633 17.2482 16.7586 16.5945 17.0052C16.552 17.0214 16.533 17.0709 16.5538 17.1119C16.9143 17.8099 17.3258 18.4747 17.7789 19.1051C17.7978 19.1318 17.8319 19.1432 17.8631 19.1337C19.8241 18.5271 21.8126 17.6119 23.8654 16.1043C23.8834 16.091 23.8948 16.071 23.8967 16.0491C24.3971 10.8722 23.0585 6.37523 20.3482 2.38873C20.3416 2.37541 20.3303 2.36588 20.317 2.36016ZM8.02002 13.3216C6.8375 13.3216 5.86313 12.2359 5.86313 10.9026C5.86313 9.56936 6.8186 8.48371 8.02002 8.48371C9.23087 8.48371 10.1958 9.57889 10.1769 10.9026C10.1769 12.2359 9.22141 13.3216 8.02002 13.3216ZM15.9947 13.3216C14.8123 13.3216 13.8379 12.2359 13.8379 10.9026C13.8379 9.56936 14.7933 8.48371 15.9947 8.48371C17.2056 8.48371 18.1705 9.57889 18.1516 10.9026C18.1516 12.2359 17.2056 13.3216 15.9947 13.3216Z" fill="#E5E7EA"/>
</g>
<defs>
<clipPath id="clip0_2121_76240">
<rect width="24" height="18.5915" fill="white" transform="translate(0 0.704102)"/>
</clipPath>
</defs>
</svg>
