<svg width="22" height="18" viewBox="0 0 22 18" fill="none" xmlns="http://www.w3.org/2000/svg">
<path d="M7.04603 15.4471L7.04577 15.4472C6.94303 15.499 6.80495 15.5229 6.63643 15.5206C6.46842 15.5182 6.27373 15.4898 6.06045 15.44C5.63389 15.3405 5.1383 15.157 4.64266 14.9341C3.65975 14.4921 2.68662 13.8997 2.26017 13.5117C2.23579 13.3652 2.23887 13.1282 2.2674 12.8183C2.29685 12.4983 2.35294 12.1053 2.43073 11.6632C2.58631 10.779 2.82828 9.70072 3.11605 8.62169C3.40384 7.5426 3.73716 6.46376 4.07525 5.57823C4.24431 5.13544 4.41428 4.74171 4.58003 4.42075C4.74624 4.09892 4.90649 3.85368 5.05513 3.70504C5.66091 3.09926 6.6024 2.79322 7.39962 2.63953C7.79713 2.5629 8.15645 2.52456 8.41639 2.50539C8.54632 2.49581 8.65133 2.49103 8.72375 2.48864C8.75995 2.48744 8.788 2.48685 8.80694 2.48655L8.8284 2.48629L8.83378 2.48626L8.83509 2.48626L8.83539 2.48626L8.83546 2.48626C9.04002 2.48626 9.23621 2.405 9.38086 2.26035C9.5255 2.1157 9.60677 1.91952 9.60677 1.71495C9.60677 1.51039 9.5255 1.31421 9.38086 1.16956C9.23621 1.02491 9.04002 0.943652 8.83546 0.943652C8.76902 0.943652 7.9645 0.943702 6.97059 1.15118C5.97792 1.3584 4.78894 1.77402 3.96004 2.61021C3.78685 2.78433 3.5937 3.08174 3.39093 3.46684C3.18758 3.85304 2.97265 4.33121 2.75681 4.86998C2.32512 5.94758 1.88881 7.27013 1.53358 8.58949C1.17841 9.90862 0.903825 11.2263 0.796269 12.2938C0.742507 12.8274 0.730275 13.3004 0.771271 13.6807C0.812009 14.0585 0.906272 14.3549 1.07485 14.5245L1.07516 14.5248C1.38325 14.8292 2.27187 15.4595 3.33864 16.0132C4.40481 16.5666 5.65948 17.0492 6.69974 17.0494C7.05882 17.0591 7.41506 16.9832 7.73904 16.8281L7.73905 16.8281L7.74012 16.8275C7.92179 16.7351 8.05946 16.5744 8.12305 16.3808C8.18663 16.1871 8.17099 15.9762 8.07954 15.7941C7.98843 15.6111 7.82841 15.4718 7.63464 15.4067C7.44084 15.3416 7.22913 15.3561 7.04603 15.4471Z" fill="#CCD0D5" stroke="#CCD0D5" stroke-width="0.1"/>
<path d="M18.0026 2.64544C16.3653 1.01529 13.2925 0.993652 13.1627 0.993652C12.9714 0.993652 12.7879 1.06965 12.6527 1.20492C12.5174 1.34019 12.4414 1.52365 12.4414 1.71495C12.4414 1.90626 12.5174 2.08972 12.6527 2.22499C12.7879 2.36026 12.9714 2.43626 13.1627 2.43626C13.884 2.43626 15.9686 2.65986 16.9784 3.66968C18.2118 4.90311 20.0151 12.3253 19.7843 13.5371C18.9331 14.3233 15.8315 15.9463 14.9299 15.4918C14.7587 15.4068 14.5607 15.3932 14.3794 15.4541C14.1982 15.5149 14.0486 15.6453 13.9634 15.8164C13.8778 15.9868 13.8632 16.1841 13.9226 16.3652C13.9821 16.5463 14.1108 16.6965 14.2807 16.783C14.5978 16.9348 14.9464 17.009 15.2978 16.9994C17.3535 16.9994 20.2819 15.0879 20.8878 14.4892C22.1357 13.2342 19.3443 3.99427 18.0026 2.64544V2.64544Z" fill="#CCD0D5"/>
<path d="M8.11448 11.6831C8.9442 11.6831 9.60708 10.9284 9.60708 10.0101C9.60708 9.0919 8.9442 8.33721 8.11448 8.33721C7.28476 8.33721 6.62187 9.0919 6.62187 10.0101C6.62187 10.9284 7.28476 11.6831 8.11448 11.6831Z" fill="#CCD0D5" stroke="#CCD0D5" stroke-width="0.1"/>
<path d="M13.884 11.6831C14.7137 11.6831 15.3766 10.9284 15.3766 10.0101C15.3766 9.0919 14.7137 8.33721 13.884 8.33721C13.0543 8.33721 12.3914 9.0919 12.3914 10.0101C12.3914 10.9284 13.0543 11.6831 13.884 11.6831Z" fill="#CCD0D5" stroke="#CCD0D5" stroke-width="0.1"/>
<path d="M5.63743 5.97663L5.63713 5.97682C5.46328 6.08522 5.25347 6.12012 5.05388 6.07384C4.85429 6.02756 4.68126 5.90388 4.57285 5.73003C4.46445 5.55617 4.42955 5.34637 4.47583 5.14678C4.49875 5.04795 4.5409 4.9546 4.5999 4.87207C4.65887 4.78956 4.73351 4.71947 4.81957 4.6658C4.9492 4.58432 6.51107 3.63102 8.80349 3.17416C11.0971 2.71706 14.1241 2.7567 17.1779 4.6657L5.63743 5.97663ZM5.63743 5.97663C5.74248 5.91009 7.10352 5.08381 9.09889 4.68779C11.0934 4.29194 13.7196 4.32626 16.3604 5.97679L16.3606 5.97689M5.63743 5.97663L16.3606 5.97689M16.3606 5.97689C16.4833 6.05294 16.6249 6.09303 16.7693 6.09258C16.9003 6.09282 17.0292 6.05967 17.1439 5.99627M16.3606 5.97689L17.1439 5.99627M17.1439 5.99627C17.2586 5.93284 17.3553 5.84123 17.4247 5.73007M17.1439 5.99627L17.4247 5.73007M17.4247 5.73007C17.4786 5.64403 17.5149 5.54821 17.5316 5.4481C17.5484 5.34799 17.5452 5.24555 17.5223 5.14666C17.4993 5.04778 17.4571 4.95439 17.398 4.87185C17.339 4.78936 17.2642 4.71933 17.178 4.66578L17.4247 5.73007ZM17.4247 5.73007C17.4247 5.73008 17.4247 5.73009 17.4247 5.7301L17.3823 5.70357C17.3174 5.80752 17.227 5.8932 17.1197 5.95251L17.4247 5.73007Z" fill="#CCD0D5" stroke="#CCD0D5" stroke-width="0.1"/>
<path d="M16.2221 14.5235L16.2221 14.5235C16.1719 14.4704 16.1286 14.4113 16.0931 14.3477C14.5984 15.1335 12.9345 15.5435 11.2453 15.5417M16.2221 14.5235L10.7549 15.5417M16.2221 14.5235L16.2229 14.5243C16.2946 14.5966 16.3799 14.654 16.4739 14.6932C16.5679 14.7323 16.6687 14.7525 16.7706 14.7525C16.8724 14.7525 16.9732 14.7323 17.0672 14.6932C17.1609 14.6541 17.246 14.597 17.3175 14.525C17.8718 14.0054 18.2095 13.2958 18.263 12.5379L18.2632 12.5379L18.2632 12.5345C18.2634 12.3899 18.2231 12.2482 18.1467 12.1255C18.0704 12.0027 17.961 11.9039 17.8312 11.8403L17.8311 11.8402C17.7016 11.7774 17.5571 11.7521 17.414 11.7671C17.2709 11.7821 17.1348 11.8368 17.0212 11.9251L17.0212 11.9251L17.0203 11.9258C15.3222 13.307 13.1896 14.0416 11.0011 13.9991L10.9994 13.9991C8.81588 14.03 6.69072 13.2937 4.99432 11.9185L4.99433 11.9185L4.99351 11.9179C4.87755 11.8278 4.7383 11.7727 4.5921 11.759C4.44606 11.7454 4.29916 11.7736 4.16863 11.8405C4.03899 11.9041 3.92982 12.0029 3.85353 12.1255C3.77716 12.2482 3.73682 12.3899 3.73711 12.5345L3.73699 12.5345L3.73724 12.5379C3.79076 13.2958 4.12845 14.0054 4.68275 14.525C4.75431 14.597 4.83939 14.6541 4.93309 14.6932C5.02708 14.7323 5.12789 14.7525 5.22972 14.7525C5.33154 14.7525 5.43235 14.7323 5.52634 14.6932C5.62033 14.654 5.70564 14.5966 5.77734 14.5243L5.77735 14.5243L5.77817 14.5235C5.82836 14.4704 5.87169 14.4113 5.90722 14.3477L16.2221 14.5235ZM11.2453 15.5417L11.2454 15.4917V15.5417H11.2453ZM11.2453 15.5417H10.7549M10.7549 15.5417L10.7549 15.492V15.5417H10.7549ZM16.0699 14.3033C16.0847 14.2956 16.0994 14.2878 16.1142 14.2799C16.1214 14.295 16.1291 14.3098 16.1373 14.3243L16.0699 14.3033ZM11.0001 14.0491L11.0001 14.0491L11.0001 14.0491Z" fill="#CCD0D5" stroke="#CCD0D5" stroke-width="0.1"/>
</svg>
