<svg width="16" height="16" viewBox="0 0 16 16" fill="none" xmlns="http://www.w3.org/2000/svg">
<path d="M9.25 8.0009C9.24982 8.24781 9.17652 8.48915 9.03934 8.69446C8.90199 8.90003 8.70676 9.06024 8.47836 9.15485C8.24995 9.24946 7.99861 9.27421 7.75614 9.22598C7.51366 9.17775 7.29093 9.0587 7.11612 8.88388C6.9413 8.70907 6.82225 8.48634 6.77402 8.24386C6.72579 8.00139 6.75054 7.75005 6.84515 7.52165C6.93976 7.29324 7.09998 7.09802 7.30554 6.96066C7.51086 6.82347 7.75222 6.75017 7.99915 6.75C8.33045 6.75142 8.64778 6.88366 8.88207 7.11794C9.11636 7.35223 9.24859 7.66959 9.25 8.0009ZM8.69446 4.03934C8.48915 4.17652 8.24781 4.24982 8.0009 4.25C7.66959 4.24859 7.35223 4.11636 7.11794 3.88206C6.88365 3.64777 6.75141 3.33042 6.75 2.99911C6.75018 2.7522 6.82348 2.51085 6.96066 2.30554C7.09802 2.09998 7.29324 1.93976 7.52165 1.84515C7.75005 1.75054 8.00139 1.72579 8.24386 1.77402C8.48634 1.82225 8.70907 1.9413 8.88389 2.11612C9.0587 2.29093 9.17775 2.51366 9.22598 2.75614C9.27421 2.99861 9.24946 3.24995 9.15485 3.47835C9.06024 3.70676 8.90003 3.90199 8.69446 4.03934ZM7.30554 11.9607C7.51084 11.8235 7.75216 11.7502 7.99905 11.75C8.33038 11.7514 8.64776 11.8836 8.88207 12.1179C9.11636 12.3522 9.24859 12.6696 9.25 13.0009C9.24982 13.2478 9.17652 13.4892 9.03934 13.6945C8.90199 13.9 8.70676 14.0602 8.47836 14.1549C8.24995 14.2495 7.99861 14.2742 7.75614 14.226C7.51366 14.1778 7.29093 14.0587 7.11612 13.8839C6.9413 13.7091 6.82225 13.4863 6.77402 13.2439C6.72579 13.0014 6.75054 12.7501 6.84515 12.5216C6.93976 12.2932 7.09998 12.098 7.30554 11.9607Z" stroke="white"/>
</svg>
