<svg width="20" height="20" viewBox="0 0 20 20" fill="none" xmlns="http://www.w3.org/2000/svg">
<path d="M9.99988 4.4375H9.99992C11.4746 4.43954 12.8883 5.02626 13.931 6.069C14.9737 7.11175 15.5605 8.52542 15.5625 10.0001V10.0001C15.5649 11.2387 15.1498 12.4413 14.3853 13.4141L6.58588 5.61467C7.5587 4.85018 8.76127 4.43507 9.99988 4.4375ZM10.0001 15.5625H10.0001C8.52543 15.5605 7.11175 14.9737 6.06901 13.931C5.02626 12.8883 4.43955 11.4746 4.4375 9.99991L4.375 10L4.4375 9.99988C4.43507 8.76126 4.85018 7.55869 5.61468 6.58588L13.4141 14.3853C12.4413 15.1498 11.2387 15.5649 10.0001 15.5625ZM5.3471 3.03644C6.72436 2.11619 8.34357 1.62501 9.99997 1.625C12.2205 1.62706 14.3496 2.51009 15.9197 4.08027C17.4899 5.65045 18.3729 7.77948 18.375 10.0001C18.375 11.6565 17.8838 13.2757 16.9636 14.6529C16.0433 16.0302 14.7353 17.1036 13.205 17.7375C11.6746 18.3714 9.99071 18.5372 8.36612 18.2141C6.74153 17.8909 5.24925 17.0933 4.07798 15.922C2.90672 14.7508 2.10908 13.2585 1.78593 11.6339C1.46278 10.0093 1.62863 8.32536 2.26251 6.79503C2.8964 5.26469 3.96984 3.9567 5.3471 3.03644ZM10 16.9375H10.0001C11.8394 16.9354 13.6027 16.2038 14.9033 14.9033C16.2038 13.6027 16.9354 11.8394 16.9375 10.0001L16.875 10H16.9375C16.9375 8.62789 16.5306 7.2866 15.7683 6.14573C15.006 5.00487 13.9225 4.11567 12.6549 3.59059C11.3872 3.0655 9.99231 2.92812 8.64656 3.1958C7.30082 3.46349 6.06468 4.12422 5.09445 5.09445C4.12422 6.06467 3.46349 7.30082 3.19581 8.64656C2.92812 9.9923 3.06551 11.3872 3.59059 12.6549C4.11567 13.9225 5.00487 15.006 6.14574 15.7683C7.2866 16.5306 8.6279 16.9375 10 16.9375Z" fill="white" stroke="white" stroke-width="0.125"/>
</svg>
