<svg width="24" height="24" viewBox="0 0 24 24" fill="none" xmlns="http://www.w3.org/2000/svg">
<path d="M4.5 12V3.75C4.5 3.55109 4.57902 3.36032 4.71967 3.21967C4.86032 3.07902 5.05109 3 5.25 3H14.25L19.5 8.25V12" stroke="#E5E7EA" stroke-width="2" stroke-linecap="round" stroke-linejoin="round"/>
<path d="M14.25 3V8.25H19.5" stroke="#E5E7EA" stroke-width="2" stroke-linecap="round" stroke-linejoin="round"/>
<path d="M4.5 18.75H6C6.39782 18.75 6.77936 18.592 7.06066 18.3107C7.34196 18.0294 7.5 17.6478 7.5 17.25C7.5 16.8522 7.34196 16.4706 7.06066 16.1893C6.77936 15.908 6.39782 15.75 6 15.75H4.5V20.25" stroke="#E5E7EA" stroke-width="2" stroke-linecap="round" stroke-linejoin="round"/>
<path d="M20.25 15.75H17.625V20.25" stroke="#E5E7EA" stroke-width="2" stroke-linecap="round" stroke-linejoin="round"/>
<path d="M19.875 18.375H17.625" stroke="#E5E7EA" stroke-width="2" stroke-linecap="round" stroke-linejoin="round"/>
<path d="M12 20.25C12.5967 20.25 13.169 20.0129 13.591 19.591C14.0129 19.169 14.25 18.5967 14.25 18C14.25 17.4033 14.0129 16.831 13.591 16.409C13.169 15.9871 12.5967 15.75 12 15.75H10.6875V20.25H12Z" stroke="#E5E7EA" stroke-width="2" stroke-linecap="round" stroke-linejoin="round"/>
</svg>
