<svg width="16" height="17" viewBox="0 0 16 17" fill="none" xmlns="http://www.w3.org/2000/svg">
<path d="M4 7.58008H12C12.116 7.58008 12.2273 7.62617 12.3094 7.70822C12.3914 7.79027 12.4375 7.90155 12.4375 8.01758C12.4375 8.13361 12.3914 8.24489 12.3094 8.32694C12.2273 8.40898 12.116 8.45508 12 8.45508H4C3.88397 8.45508 3.77269 8.40898 3.69064 8.32694C3.60859 8.24489 3.5625 8.13361 3.5625 8.01758C3.5625 7.90155 3.60859 7.79027 3.69064 7.70822C3.77269 7.62617 3.88397 7.58008 4 7.58008Z" fill="white" stroke="white" stroke-width="0.125"/>
<path d="M1.5 4.58008H14.5C14.616 4.58008 14.7273 4.62617 14.8094 4.70822C14.8914 4.79027 14.9375 4.90155 14.9375 5.01758C14.9375 5.13361 14.8914 5.24489 14.8094 5.32694C14.7273 5.40898 14.616 5.45508 14.5 5.45508H1.5C1.38397 5.45508 1.27269 5.40898 1.19064 5.32694C1.10859 5.24489 1.0625 5.13361 1.0625 5.01758C1.0625 4.90155 1.10859 4.79027 1.19064 4.70822C1.27269 4.62617 1.38397 4.58008 1.5 4.58008Z" fill="white" stroke="white" stroke-width="0.125"/>
<path d="M6.5 10.5801H9.5C9.61603 10.5801 9.72731 10.6262 9.80936 10.7082C9.89141 10.7903 9.9375 10.9015 9.9375 11.0176C9.9375 11.1336 9.89141 11.2449 9.80936 11.3269C9.72731 11.409 9.61603 11.4551 9.5 11.4551H6.5C6.38397 11.4551 6.27269 11.409 6.19064 11.3269C6.10859 11.2449 6.0625 11.1336 6.0625 11.0176C6.0625 10.9015 6.10859 10.7903 6.19064 10.7082C6.27269 10.6262 6.38397 10.5801 6.5 10.5801Z" fill="white" stroke="white" stroke-width="0.125"/>
</svg>
