<svg width="21" height="20" viewBox="0 0 21 20" fill="none" xmlns="http://www.w3.org/2000/svg">
<path d="M9.24988 15.7959C9.24986 15.6959 9.22619 15.5972 9.18054 15.5066C9.13489 15.4161 9.06837 15.3361 8.98571 15.2721C8.90305 15.2081 8.80626 15.1618 8.70221 15.1365C8.59815 15.1112 8.48938 15.1075 8.38359 15.1256C7.42348 15.2893 6.21126 15.3139 5.88894 14.4725C5.6079 13.8209 5.14237 13.2521 4.54171 12.8264C4.49885 12.8047 4.458 12.7798 4.41959 12.7518C4.36702 12.623 4.27365 12.5119 4.15179 12.4334C4.02993 12.3548 3.88531 12.3124 3.73701 12.3118H3.73344C3.53952 12.3118 3.35347 12.3831 3.21601 12.5102C3.07856 12.6374 3.00089 12.8099 3.00001 12.9901C2.99714 13.546 3.59482 13.9021 3.83729 14.0226C4.12321 14.2896 4.353 14.6038 4.51485 14.9492C4.78201 15.6468 5.5584 16.7052 7.79019 16.5687C7.79093 16.5927 7.79163 16.6153 7.79198 16.636L7.7952 16.8184C7.7952 16.9991 7.87248 17.1725 8.01002 17.3004C8.14756 17.4282 8.33411 17.5 8.52863 17.5C8.72315 17.5 8.9097 17.4282 9.04724 17.3004C9.18478 17.1725 9.26206 16.9991 9.26206 16.8184L9.25848 16.6014C9.2549 16.4722 9.24988 16.2851 9.24988 15.7959ZM17.0733 5.48547C17.0966 5.40026 17.1195 5.30574 17.1396 5.19924C17.2582 4.43962 17.1548 3.66433 16.8402 2.95461C16.8005 2.86209 16.7395 2.77876 16.6615 2.71046C16.5835 2.64215 16.4904 2.59053 16.3886 2.55922C16.1275 2.47734 15.1635 2.31625 13.3199 3.41126C11.7874 3.0761 10.1922 3.0761 8.65972 3.41126C6.82364 2.33229 5.86459 2.4787 5.60603 2.55592C5.50179 2.58597 5.4061 2.63731 5.32597 2.70619C5.24585 2.77507 5.18333 2.85974 5.14298 2.95399C4.82196 3.67733 4.71968 4.46843 4.84718 5.24186C4.86509 5.32906 4.88442 5.40961 4.90448 5.48349C4.29689 6.23564 3.97326 7.15306 3.98376 8.09354C3.98178 8.30337 3.99218 8.51314 4.01492 8.72192C4.25988 11.8592 6.46016 12.8011 7.99324 13.1246C7.96138 13.2098 7.93237 13.301 7.90658 13.3975C7.86063 13.5729 7.89138 13.7581 7.9921 13.9124C8.09282 14.0667 8.25528 14.1777 8.44387 14.2208C8.63245 14.264 8.83177 14.2359 8.9981 14.1427C9.16443 14.0495 9.28421 13.8988 9.33117 13.7237C9.37784 13.4966 9.49746 13.2879 9.67425 13.1253C9.78116 13.0383 9.85856 12.9243 9.89704 12.7972C9.93552 12.6701 9.93342 12.5353 9.891 12.4093C9.84858 12.2832 9.76767 12.1714 9.65811 12.0873C9.54855 12.0032 9.41506 11.9506 9.27388 11.9357C6.74055 11.6668 5.64077 10.7076 5.47532 8.59678C5.45699 8.4296 5.44875 8.26159 5.45061 8.09355C5.43884 7.42326 5.67711 6.76986 6.12495 6.24435C6.16994 6.18956 6.21787 6.1369 6.26855 6.08658C6.35834 5.9932 6.41872 5.87863 6.44304 5.75545C6.46737 5.63227 6.4547 5.50524 6.40643 5.38831C6.35695 5.26529 6.31886 5.13858 6.29255 5.00954C6.2328 4.64263 6.2524 4.26833 6.3502 3.90854C6.98765 4.07586 7.58758 4.34822 8.12142 4.71265C8.20971 4.7673 8.3096 4.80367 8.41433 4.81929C8.51907 4.83491 8.62619 4.82942 8.72844 4.80319C10.2108 4.42931 11.7736 4.42955 13.2558 4.80387C13.3586 4.83007 13.4663 4.83525 13.5714 4.81905C13.6766 4.80284 13.7767 4.76565 13.8649 4.71001C14.3963 4.34407 14.9937 4.06928 15.629 3.89858C15.7264 4.24972 15.7482 4.61529 15.6931 4.97428C15.6665 5.11574 15.625 5.25443 15.5692 5.38832C15.5209 5.50525 15.5083 5.63228 15.5326 5.75546C15.5569 5.87864 15.6173 5.99321 15.7071 6.0866C15.7637 6.14584 15.8202 6.20974 15.8711 6.26965C16.3158 6.78627 16.55 7.43216 16.5326 8.09354C16.5339 8.2705 16.5247 8.44739 16.505 8.6234C16.3435 10.7062 15.2394 11.6661 12.6943 11.9357C12.553 11.9507 12.4195 12.0034 12.31 12.0876C12.2004 12.1717 12.1196 12.2837 12.0772 12.4097C12.0348 12.5358 12.0328 12.6706 12.0713 12.7978C12.1098 12.9249 12.1873 13.0389 12.2942 13.1259C12.4766 13.2929 12.5965 13.5099 12.6362 13.745C12.6858 13.9275 12.7086 14.1153 12.7039 14.3035V15.8944C12.6968 16.3357 12.6968 16.6666 12.6968 16.8183C12.6968 16.9991 12.774 17.1725 12.9116 17.3003C13.0491 17.4281 13.2357 17.5 13.4302 17.5C13.6247 17.5 13.8112 17.4281 13.9488 17.3003C14.0863 17.1725 14.1636 16.9991 14.1636 16.8183C14.1636 16.6705 14.1636 16.3464 14.1708 15.905V14.3035C14.1767 14.0021 14.1385 13.7013 14.0572 13.4095C14.034 13.3137 14.0056 13.219 13.972 13.1259C15.0877 12.9537 16.1015 12.419 16.8328 11.6172C17.5642 10.8154 17.9656 9.79837 17.9657 8.74722C17.9899 8.53007 18.0012 8.31184 17.9994 8.09354C18.0157 7.15205 17.6894 6.23304 17.0733 5.48548L17.0733 5.48547Z" fill="#FFFFFF"/>
</svg>
