<svg width="32" height="32" viewBox="0 0 32 32" fill="none" xmlns="http://www.w3.org/2000/svg">
<path fill-rule="evenodd" clip-rule="evenodd" d="M23.3333 20C22.7304 20 21.8786 20.0834 20.9918 20.2048C20.5775 20.2616 20.2615 20.5775 20.2048 20.9918C20.0833 21.8786 20 22.7305 20 23.3334C20 23.9363 20.0833 24.7881 20.2048 25.675C20.2615 26.0893 20.5775 26.4052 20.9918 26.4619C21.8786 26.5834 22.7304 26.6667 23.3333 26.6667C23.9363 26.6667 24.7881 26.5834 25.6749 26.4619C26.0892 26.4052 26.4051 26.0893 26.4619 25.675C26.5833 24.7881 26.6667 23.9363 26.6667 23.3334C26.6667 22.7305 26.5833 21.8786 26.4619 20.9918C26.4051 20.5775 26.0892 20.2616 25.6749 20.2048C24.7881 20.0834 23.9363 20 23.3333 20ZM20.6299 17.5628C19.0301 17.7819 17.7819 19.0301 17.5628 20.63C17.4371 21.5476 17.3333 22.5443 17.3333 23.3334C17.3333 24.1225 17.4371 25.1192 17.5628 26.0368C17.7819 27.6367 19.0301 28.8848 20.6299 29.1039C21.5475 29.2296 22.5442 29.3334 23.3333 29.3334C24.1225 29.3334 25.1191 29.2296 26.0368 29.1039C27.6366 28.8848 28.8848 27.6367 29.1039 26.0368C29.2296 25.1192 29.3333 24.1225 29.3333 23.3334C29.3333 22.5443 29.2296 21.5476 29.1039 20.63C28.8848 19.0301 27.6366 17.7819 26.0368 17.5628C25.1191 17.4372 24.1225 17.3334 23.3333 17.3334C22.5442 17.3334 21.5475 17.4372 20.6299 17.5628Z" fill="#FCFCFD"/>
<path fill-rule="evenodd" clip-rule="evenodd" d="M8.66666 20C8.06375 20 7.21189 20.0834 6.32507 20.2048C5.91077 20.2616 5.59486 20.5775 5.53812 20.9918C5.41666 21.8786 5.33332 22.7305 5.33332 23.3334C5.33332 23.9363 5.41666 24.7881 5.53812 25.675C5.59486 26.0893 5.91077 26.4052 6.32507 26.4619C7.21189 26.5834 8.06375 26.6667 8.66666 26.6667C9.26956 26.6667 10.1214 26.5834 11.0082 26.4619C11.4225 26.4052 11.7385 26.0893 11.7952 25.675C11.9167 24.7881 12 23.9363 12 23.3334C12 22.7305 11.9167 21.8786 11.7952 20.9918C11.7385 20.5775 11.4225 20.2616 11.0082 20.2048C10.1214 20.0834 9.26956 20 8.66666 20ZM5.96324 17.5628C4.36337 17.7819 3.11522 19.0301 2.89611 20.63C2.77044 21.5476 2.66666 22.5443 2.66666 23.3334C2.66666 24.1225 2.77044 25.1192 2.89611 26.0368C3.11522 27.6367 4.36337 28.8848 5.96324 29.1039C6.88085 29.2296 7.87754 29.3334 8.66666 29.3334C9.45578 29.3334 10.4525 29.2296 11.3701 29.1039C12.9699 28.8848 14.2181 27.6367 14.4372 26.0368C14.5629 25.1192 14.6667 24.1225 14.6667 23.3334C14.6667 22.5443 14.5629 21.5476 14.4372 20.63C14.2181 19.0301 12.9699 17.7819 11.3701 17.5628C10.4525 17.4372 9.45578 17.3334 8.66666 17.3334C7.87754 17.3334 6.88085 17.4372 5.96324 17.5628Z" fill="#FCFCFD"/>
<path fill-rule="evenodd" clip-rule="evenodd" d="M23.3333 5.33329C22.7304 5.33329 21.8786 5.41663 20.9918 5.53809C20.5775 5.59483 20.2615 5.91074 20.2048 6.32504C20.0833 7.21186 20 8.06372 20 8.66663C20 9.26953 20.0833 10.1214 20.2048 11.0082C20.2615 11.4225 20.5775 11.7384 20.9918 11.7952C21.8786 11.9166 22.7304 12 23.3333 12C23.9363 12 24.7881 11.9166 25.6749 11.7952C26.0892 11.7384 26.4051 11.4225 26.4619 11.0082C26.5833 10.1214 26.6667 9.26953 26.6667 8.66663C26.6667 8.06372 26.5833 7.21186 26.4619 6.32504C26.4051 5.91074 26.0892 5.59483 25.6749 5.53809C24.7881 5.41663 23.9363 5.33329 23.3333 5.33329ZM20.6299 2.89608C19.0301 3.11519 17.7819 4.36334 17.5628 5.96321C17.4371 6.88082 17.3333 7.87751 17.3333 8.66663C17.3333 9.45574 17.4371 10.4524 17.5628 11.37C17.7819 12.9699 19.0301 14.2181 20.6299 14.4372C21.5475 14.5628 22.5442 14.6666 23.3333 14.6666C24.1225 14.6666 25.1191 14.5628 26.0368 14.4372C27.6366 14.2181 28.8848 12.9699 29.1039 11.37C29.2296 10.4524 29.3333 9.45574 29.3333 8.66663C29.3333 7.87751 29.2296 6.88082 29.1039 5.96321C28.8848 4.36334 27.6366 3.11519 26.0368 2.89608C25.1191 2.77041 24.1225 2.66663 23.3333 2.66663C22.5442 2.66663 21.5475 2.77041 20.6299 2.89608Z" fill="#FCFCFD"/>
<path fill-rule="evenodd" clip-rule="evenodd" d="M8.66666 5.33329C8.06375 5.33329 7.21189 5.41663 6.32507 5.53809C5.91077 5.59483 5.59486 5.91074 5.53812 6.32504C5.41666 7.21186 5.33332 8.06372 5.33332 8.66663C5.33332 9.26953 5.41666 10.1214 5.53812 11.0082C5.59486 11.4225 5.91077 11.7384 6.32507 11.7952C7.21189 11.9166 8.06375 12 8.66666 12C9.26956 12 10.1214 11.9166 11.0082 11.7952C11.4225 11.7384 11.7385 11.4225 11.7952 11.0082C11.9167 10.1214 12 9.26953 12 8.66663C12 8.06372 11.9167 7.21186 11.7952 6.32504C11.7385 5.91074 11.4225 5.59483 11.0082 5.53809C10.1214 5.41663 9.26956 5.33329 8.66666 5.33329ZM5.96324 2.89608C4.36337 3.11519 3.11522 4.36334 2.89611 5.96321C2.77044 6.88082 2.66666 7.87751 2.66666 8.66663C2.66666 9.45574 2.77044 10.4524 2.89611 11.37C3.11522 12.9699 4.36337 14.2181 5.96324 14.4372C6.88085 14.5628 7.87754 14.6666 8.66666 14.6666C9.45578 14.6666 10.4525 14.5628 11.3701 14.4372C12.9699 14.2181 14.2181 12.9699 14.4372 11.37C14.5629 10.4524 14.6667 9.45574 14.6667 8.66663C14.6667 7.87751 14.5629 6.88082 14.4372 5.96321C14.2181 4.36334 12.9699 3.11519 11.3701 2.89608C10.4525 2.77041 9.45578 2.66663 8.66666 2.66663C7.87754 2.66663 6.88085 2.77041 5.96324 2.89608Z" fill="#FCFCFD"/>
</svg>
