<svg width="24" height="24" viewBox="0 0 24 24" fill="none" xmlns="http://www.w3.org/2000/svg">
<g clip-path="url(#clip0_1158_5188)">
<path fill-rule="evenodd" clip-rule="evenodd" d="M21 4.5H3C2.60218 4.5 2.22064 4.65804 1.93934 4.93934C1.65804 5.22064 1.5 5.60218 1.5 6V7.5C1.5 7.89782 1.65804 8.27936 1.93934 8.56066C2.22064 8.84196 2.60218 9 3 9H21C21.3978 9 21.7794 8.84196 22.0607 8.56066C22.342 8.27936 22.5 7.89782 22.5 7.5V6C22.5 5.60218 22.342 5.22064 22.0607 4.93934C21.7794 4.65804 21.3978 4.5 21 4.5ZM3 3C2.20435 3 1.44129 3.31607 0.87868 3.87868C0.316071 4.44129 0 5.20435 0 6L0 7.5C0 8.29565 0.316071 9.05871 0.87868 9.62132C1.44129 10.1839 2.20435 10.5 3 10.5H21C21.7956 10.5 22.5587 10.1839 23.1213 9.62132C23.6839 9.05871 24 8.29565 24 7.5V6C24 5.20435 23.6839 4.44129 23.1213 3.87868C22.5587 3.31607 21.7956 3 21 3H3Z" fill="#FCFCFD"/>
<path d="M7.5 6.75C7.5 6.94891 7.42098 7.13968 7.28033 7.28033C7.13968 7.42098 6.94891 7.5 6.75 7.5C6.55109 7.5 6.36032 7.42098 6.21967 7.28033C6.07902 7.13968 6 6.94891 6 6.75C6 6.55109 6.07902 6.36032 6.21967 6.21967C6.36032 6.07902 6.55109 6 6.75 6C6.94891 6 7.13968 6.07902 7.28033 6.21967C7.42098 6.36032 7.5 6.55109 7.5 6.75ZM4.5 6.75C4.5 6.94891 4.42098 7.13968 4.28033 7.28033C4.13968 7.42098 3.94891 7.5 3.75 7.5C3.55109 7.5 3.36032 7.42098 3.21967 7.28033C3.07902 7.13968 3 6.94891 3 6.75C3 6.55109 3.07902 6.36032 3.21967 6.21967C3.36032 6.07902 3.55109 6 3.75 6C3.94891 6 4.13968 6.07902 4.28033 6.21967C4.42098 6.36032 4.5 6.55109 4.5 6.75Z" fill="#FCFCFD"/>
<path fill-rule="evenodd" clip-rule="evenodd" d="M11.25 15V10.5H12.75V15C13.3467 15 13.919 15.2371 14.341 15.659C14.7629 16.081 15 16.6533 15 17.25H23.25C23.4489 17.25 23.6397 17.329 23.7803 17.4697C23.921 17.6103 24 17.8011 24 18C24 18.1989 23.921 18.3897 23.7803 18.5303C23.6397 18.671 23.4489 18.75 23.25 18.75H15C15 19.3467 14.7629 19.919 14.341 20.341C13.919 20.7629 13.3467 21 12.75 21H11.25C10.6533 21 10.081 20.7629 9.65901 20.341C9.23705 19.919 9 19.3467 9 18.75H0.75C0.551088 18.75 0.360322 18.671 0.21967 18.5303C0.0790176 18.3897 0 18.1989 0 18C0 17.8011 0.0790176 17.6103 0.21967 17.4697C0.360322 17.329 0.551088 17.25 0.75 17.25H9C9 16.6533 9.23705 16.081 9.65901 15.659C10.081 15.2371 10.6533 15 11.25 15ZM11.25 16.5C11.0511 16.5 10.8603 16.579 10.7197 16.7197C10.579 16.8603 10.5 17.0511 10.5 17.25V18.75C10.5 18.9489 10.579 19.1397 10.7197 19.2803C10.8603 19.421 11.0511 19.5 11.25 19.5H12.75C12.9489 19.5 13.1397 19.421 13.2803 19.2803C13.421 19.1397 13.5 18.9489 13.5 18.75V17.25C13.5 17.0511 13.421 16.8603 13.2803 16.7197C13.1397 16.579 12.9489 16.5 12.75 16.5H11.25Z" fill="#FCFCFD"/>
</g>
<defs>
<clipPath id="clip0_1158_5188">
<rect width="24" height="24" fill="white"/>
</clipPath>
</defs>
</svg>
