<svg width="24" height="24" viewBox="0 0 24 24" fill="none" xmlns="http://www.w3.org/2000/svg">
<g clip-path="url(#clip0_1147_3463)">
<path fill-rule="evenodd" clip-rule="evenodd" d="M4.55089e-07 12.0023C-0.000513962 10.6811 0.435095 9.39664 1.23922 8.34829C2.04335 7.29994 3.17103 6.54632 4.44726 6.2044C5.72349 5.86248 7.07689 5.95137 8.29743 6.45728C9.51797 6.96318 10.5374 7.85782 11.1975 9.00234H21C21.0986 9.00216 21.1962 9.02141 21.2873 9.05899C21.3784 9.09657 21.4612 9.15173 21.531 9.22134L23.781 11.4713C23.8508 11.541 23.9063 11.6238 23.9441 11.7149C23.9819 11.806 24.0013 11.9037 24.0013 12.0023C24.0013 12.101 23.9819 12.1987 23.9441 12.2898C23.9063 12.3809 23.8508 12.4637 23.781 12.5333L21.531 14.7833C21.4613 14.8532 21.3786 14.9086 21.2874 14.9464C21.1963 14.9842 21.0987 15.0037 21 15.0037C20.9013 15.0037 20.8037 14.9842 20.7126 14.9464C20.6214 14.9086 20.5387 14.8532 20.469 14.7833L19.5 13.8128L18.531 14.7833C18.4613 14.8532 18.3786 14.9086 18.2874 14.9464C18.1963 14.9842 18.0987 15.0037 18 15.0037C17.9013 15.0037 17.8037 14.9842 17.7126 14.9464C17.6214 14.9086 17.5387 14.8532 17.469 14.7833L16.5 13.8128L15.531 14.7833C15.4613 14.8532 15.3786 14.9086 15.2874 14.9464C15.1963 14.9842 15.0987 15.0037 15 15.0037C14.9013 15.0037 14.8037 14.9842 14.7126 14.9464C14.6214 14.9086 14.5387 14.8532 14.469 14.7833L13.5 13.8128L12.531 14.7833C12.4612 14.8529 12.3784 14.9081 12.2873 14.9457C12.1962 14.9833 12.0986 15.0025 12 15.0023H11.1975C10.5374 16.1469 9.51797 17.0415 8.29743 17.5474C7.07689 18.0533 5.72349 18.1422 4.44726 17.8003C3.17103 17.4584 2.04335 16.7047 1.23922 15.6564C0.435095 14.608 -0.000513962 13.3236 4.55089e-07 12.0023ZM6 7.50234C5.19471 7.50264 4.40426 7.71904 3.7111 8.12895C3.01795 8.53886 2.44749 9.12727 2.05924 9.83278C1.67099 10.5383 1.47918 11.3351 1.50381 12.14C1.52845 12.9449 1.76862 13.7285 2.19929 14.4089C2.62995 15.0894 3.23532 15.6418 3.95224 16.0085C4.66917 16.3753 5.47137 16.543 6.27518 16.494C7.07898 16.4451 7.85492 16.1813 8.52205 15.7303C9.18919 15.2793 9.72307 14.6575 10.068 13.9298C10.1289 13.802 10.2247 13.694 10.3445 13.6183C10.4642 13.5427 10.6029 13.5025 10.7445 13.5023H11.6895L12.969 12.2213C13.0387 12.1515 13.1214 12.0961 13.2126 12.0583C13.3037 12.0205 13.4013 12.001 13.5 12.001C13.5987 12.001 13.6963 12.0205 13.7874 12.0583C13.8786 12.0961 13.9613 12.1515 14.031 12.2213L15 13.1918L15.969 12.2213C16.0387 12.1515 16.1214 12.0961 16.2126 12.0583C16.3037 12.0205 16.4013 12.001 16.5 12.001C16.5987 12.001 16.6963 12.0205 16.7874 12.0583C16.8786 12.0961 16.9613 12.1515 17.031 12.2213L18 13.1918L18.969 12.2213C19.0387 12.1515 19.1214 12.0961 19.2126 12.0583C19.3037 12.0205 19.4013 12.001 19.5 12.001C19.5987 12.001 19.6963 12.0205 19.7874 12.0583C19.8786 12.0961 19.9613 12.1515 20.031 12.2213L21 13.1918L22.1895 12.0023L20.6895 10.5023H10.7445C10.6029 10.5022 10.4642 10.462 10.3445 10.3864C10.2247 10.3107 10.1289 10.2027 10.068 10.0748C9.70304 9.3049 9.12698 8.65441 8.40684 8.199C7.68669 7.7436 6.85206 7.50201 6 7.50234Z" fill="#FCFCFD"/>
<path d="M6 12C6 12.3978 5.84196 12.7794 5.56066 13.0607C5.27936 13.342 4.89782 13.5 4.5 13.5C4.10218 13.5 3.72064 13.342 3.43934 13.0607C3.15804 12.7794 3 12.3978 3 12C3 11.6022 3.15804 11.2206 3.43934 10.9393C3.72064 10.658 4.10218 10.5 4.5 10.5C4.89782 10.5 5.27936 10.658 5.56066 10.9393C5.84196 11.2206 6 11.6022 6 12Z" fill="#FCFCFD"/>
</g>
<defs>
<clipPath id="clip0_1147_3463">
<rect width="24" height="24" fill="white"/>
</clipPath>
</defs>
</svg>
