<svg width="24" height="22" viewBox="0 0 24 22" fill="none" xmlns="http://www.w3.org/2000/svg">
<g clip-path="url(#clip0_2121_76210)">
<path d="M22.8219 19.8217C22.8734 19.8222 22.9245 19.8122 22.9719 19.7924C23.0194 19.7725 23.0622 19.7432 23.0977 19.7063C23.1333 19.6694 23.1608 19.6257 23.1785 19.5778C23.1963 19.53 23.2039 19.479 23.2009 19.4281C23.2009 19.149 23.0309 19.0156 22.6819 19.0156H22.1182V20.477H22.3302V19.84H22.5908L22.5967 19.8477L23.0011 20.477H23.2279L22.7928 19.8257L22.8219 19.8217ZM22.5767 19.6753H22.3308V19.1812H22.6425C22.8035 19.1812 22.987 19.2073 22.987 19.416C22.987 19.6561 22.8013 19.6753 22.5754 19.6753" fill="#E5E7EA"/>
<path d="M17.2912 17.9908H14.2843V13.3283C14.2843 12.2165 14.2642 10.7852 12.7204 10.7852C11.1543 10.7852 10.9147 11.9966 10.9147 13.2473V17.9905H7.90779V8.40244H10.7944V9.71275H10.8348C11.1237 9.22369 11.5411 8.82136 12.0427 8.54862C12.5442 8.27588 13.1111 8.14293 13.6829 8.16395C16.7305 8.16395 17.2924 10.1488 17.2924 12.731L17.2912 17.9908ZM4.51503 7.09182C4.16991 7.09188 3.83252 6.99061 3.54553 6.80082C3.25854 6.61102 3.03486 6.34122 2.90273 6.02554C2.7706 5.70986 2.73598 5.36247 2.80325 5.02731C2.87051 4.69215 3.03665 4.38426 3.28064 4.14259C3.52463 3.90091 3.83552 3.73631 4.17399 3.66958C4.51247 3.60285 4.86331 3.63701 5.18218 3.76772C5.50105 3.89843 5.77361 4.11983 5.9654 4.40393C6.15719 4.68802 6.25959 5.02204 6.25965 5.36376C6.25969 5.59065 6.21459 5.81533 6.12694 6.02497C6.03929 6.2346 5.9108 6.42509 5.7488 6.58556C5.5868 6.74602 5.39445 6.87332 5.18276 6.96018C4.97107 7.04705 4.74418 7.09178 4.51503 7.09182ZM6.01847 17.9908H3.00845V8.40244H6.01847V17.9908ZM18.7902 0.871486H1.4975C1.105 0.8671 0.726782 1.01719 0.445987 1.28876C0.165192 1.56033 0.0047902 1.93118 0 2.31981V19.5133C0.00462626 19.9021 0.164934 20.2732 0.44572 20.545C0.726505 20.8169 1.1048 20.9673 1.4975 20.9631H18.7902C19.1837 20.968 19.5631 20.8181 19.845 20.5462C20.1269 20.2744 20.2882 19.9029 20.2937 19.5133V2.31857C20.2881 1.92917 20.1266 1.5579 19.8447 1.28633C19.5628 1.01477 19.1835 0.865109 18.7902 0.870245" fill="#E5E7EA"/>
<path d="M22.6029 18.3652C22.2371 18.3687 21.8875 18.5155 21.6307 18.7735C21.3739 19.0315 21.2307 19.3797 21.2324 19.7419C21.2342 20.1042 21.3808 20.451 21.6401 20.7065C21.8994 20.962 22.2504 21.1055 22.6162 21.1055C22.9821 21.1055 23.333 20.962 23.5924 20.7065C23.8517 20.451 23.9983 20.1042 24 19.7419C24.0018 19.3797 23.8586 19.0315 23.6018 18.7735C23.3449 18.5155 22.9954 18.3687 22.6295 18.3652H22.6029ZM22.6029 20.9486C22.363 20.9526 22.1272 20.886 21.9255 20.7573C21.7237 20.6286 21.5651 20.4435 21.4696 20.2255C21.3741 20.0075 21.346 19.7664 21.3889 19.5326C21.4318 19.2988 21.5437 19.0829 21.7106 18.9121C21.8774 18.7413 22.0917 18.6233 22.3262 18.573C22.5608 18.5228 22.8051 18.5426 23.0284 18.6299C23.2516 18.7171 23.4436 18.868 23.5803 19.0633C23.7169 19.2587 23.792 19.4897 23.796 19.7273C23.796 19.7342 23.796 19.7407 23.796 19.7475C23.8027 20.0592 23.6841 20.3607 23.4663 20.5859C23.2485 20.811 22.9493 20.9413 22.6345 20.948H22.6032" fill="#E5E7EA"/>
</g>
<defs>
<clipPath id="clip0_2121_76210">
<rect width="24" height="20.2597" fill="white" transform="translate(0 0.870117)"/>
</clipPath>
</defs>
</svg>
