<svg width="24" height="24" viewBox="0 0 24 24" fill="none" xmlns="http://www.w3.org/2000/svg">
<path d="M13.539 12.4527C13.539 16.0163 10.5081 18.9052 6.7696 18.9052C3.03107 18.9052 0 16.0163 0 12.4527C0 8.88909 3.03084 6 6.7696 6C10.5084 6 13.539 8.88909 13.539 12.4527Z" fill="#E5E7EA"/>
<path d="M20.3087 12.4527C20.3087 15.807 18.7932 18.5274 16.9239 18.5274C15.0545 18.5274 13.5391 15.807 13.5391 12.4527C13.5391 9.09828 15.0543 6.37793 16.9236 6.37793C18.793 6.37793 20.3084 9.09741 20.3084 12.4527" fill="#E5E7EA"/>
<path d="M22.6892 12.4527C22.6892 15.4574 22.1564 17.8947 21.4988 17.8947C20.8413 17.8947 20.3086 15.4581 20.3086 12.4527C20.3086 9.44738 20.8415 7.01074 21.4988 7.01074C22.1561 7.01074 22.6892 9.44717 22.6892 12.4527Z" fill="#E5E7EA"/>
</svg>
