<svg width="25" height="24" viewBox="0 0 25 24" fill="none" xmlns="http://www.w3.org/2000/svg">
<g clip-path="url(#clip0_1177_5238)">
<path fill-rule="evenodd" clip-rule="evenodd" d="M23 21C23 21 24.5 21 24.5 19.5C24.5 18 23 13.5 17 13.5C11 13.5 9.5 18 9.5 19.5C9.5 21 11 21 11 21H23ZM11.033 19.5H22.967C22.974 19.4992 22.981 19.4982 22.988 19.497L23 19.494C22.997 19.098 22.7495 17.949 21.86 16.914C21.032 15.9435 19.577 15 17 15C14.4245 15 12.9695 15.945 12.14 16.914C11.2505 17.949 11.0015 19.0995 11 19.494C11.011 19.4961 11.022 19.4981 11.033 19.5V19.5ZM17 10.5C17.7956 10.5 18.5587 10.1839 19.1213 9.62132C19.6839 9.05871 20 8.29565 20 7.5C20 6.70435 19.6839 5.94129 19.1213 5.37868C18.5587 4.81607 17.7956 4.5 17 4.5C16.2044 4.5 15.4413 4.81607 14.8787 5.37868C14.3161 5.94129 14 6.70435 14 7.5C14 8.29565 14.3161 9.05871 14.8787 9.62132C15.4413 10.1839 16.2044 10.5 17 10.5ZM21.5 7.5C21.5 8.09095 21.3836 8.67611 21.1575 9.22208C20.9313 9.76804 20.5998 10.2641 20.182 10.682C19.7641 11.0998 19.268 11.4313 18.7221 11.6575C18.1761 11.8836 17.5909 12 17 12C16.4091 12 15.8239 11.8836 15.2779 11.6575C14.732 11.4313 14.2359 11.0998 13.818 10.682C13.4002 10.2641 13.0687 9.76804 12.8425 9.22208C12.6164 8.67611 12.5 8.09095 12.5 7.5C12.5 6.30653 12.9741 5.16193 13.818 4.31802C14.6619 3.47411 15.8065 3 17 3C18.1935 3 19.3381 3.47411 20.182 4.31802C21.0259 5.16193 21.5 6.30653 21.5 7.5V7.5ZM10.904 13.92C10.304 13.7311 9.68545 13.6069 9.059 13.5495C8.707 13.516 8.35359 13.4995 8 13.5C2 13.5 0.5 18 0.5 19.5C0.5 20.5005 0.9995 21 2 21H8.324C8.10163 20.5317 7.99074 20.0183 8 19.5C8 17.985 8.5655 16.437 9.635 15.144C9.9995 14.703 10.424 14.2905 10.904 13.92ZM7.88 15C5.378 15.03 3.9575 15.96 3.14 16.914C2.2445 17.955 2 19.1085 2 19.5H6.5C6.5 17.9325 6.9845 16.371 7.88 15ZM2.75 8.25C2.75 7.05653 3.22411 5.91193 4.06802 5.06802C4.91193 4.22411 6.05653 3.75 7.25 3.75C8.44347 3.75 9.58807 4.22411 10.432 5.06802C11.2759 5.91193 11.75 7.05653 11.75 8.25C11.75 9.44347 11.2759 10.5881 10.432 11.432C9.58807 12.2759 8.44347 12.75 7.25 12.75C6.05653 12.75 4.91193 12.2759 4.06802 11.432C3.22411 10.5881 2.75 9.44347 2.75 8.25V8.25ZM7.25 5.25C6.45435 5.25 5.69129 5.56607 5.12868 6.12868C4.56607 6.69129 4.25 7.45435 4.25 8.25C4.25 9.04565 4.56607 9.80871 5.12868 10.3713C5.69129 10.9339 6.45435 11.25 7.25 11.25C8.04565 11.25 8.80871 10.9339 9.37132 10.3713C9.93393 9.80871 10.25 9.04565 10.25 8.25C10.25 7.45435 9.93393 6.69129 9.37132 6.12868C8.80871 5.56607 8.04565 5.25 7.25 5.25Z" fill="#FCFCFD"/>
</g>
<defs>
<clipPath id="clip0_1177_5238">
<rect width="24" height="24" fill="white" transform="translate(0.5)"/>
</clipPath>
</defs>
</svg>
