<svg width="24" height="24" viewBox="0 0 24 24" fill="none" xmlns="http://www.w3.org/2000/svg">
<g clip-path="url(#clip0_2102_78787)">
<path fill-rule="evenodd" clip-rule="evenodd" d="M24 12C24 18.6274 18.6274 24 12 24C5.37258 24 0 18.6274 0 12C0 5.37258 5.37258 0 12 0C18.6274 0 24 5.37258 24 12ZM18.2457 10.2456C19.2141 10.2456 20.0001 11.0315 20.0001 12C20.0001 12.7158 19.565 13.3333 18.9895 13.614C19.0176 13.7824 19.0316 13.9508 19.0316 14.1333C19.0316 16.828 15.9018 19.0035 12.0281 19.0035C8.15444 19.0035 5.02462 16.828 5.02462 14.1333C5.02462 13.9508 5.03865 13.7684 5.06672 13.6C4.44918 13.3193 4.02812 12.7158 4.02812 12C4.02812 11.0315 4.81409 10.2456 5.78251 10.2456C6.24567 10.2456 6.68076 10.4421 6.98953 10.7368C8.19655 9.8526 9.86672 9.30523 11.7334 9.24909L12.6176 5.06664C12.6457 4.98242 12.6878 4.91225 12.7579 4.87014C12.8281 4.82804 12.9123 4.814 12.9965 4.82804L15.9018 5.44558C16.0983 5.02453 16.5194 4.74383 17.0106 4.74383C17.6983 4.74383 18.2597 5.30523 18.2597 5.99295C18.2597 6.68067 17.6983 7.24207 17.0106 7.24207C16.3369 7.24207 15.7895 6.70874 15.7615 6.04909L13.165 5.50172L12.365 9.24909C14.1895 9.31927 15.8457 9.88067 17.0387 10.7368C17.3474 10.428 17.7685 10.2456 18.2457 10.2456ZM9.24918 12C8.56146 12 8.00005 12.5614 8.00005 13.2491C8.00005 13.9368 8.56146 14.4982 9.24918 14.4982C9.9369 14.4982 10.4983 13.9368 10.4983 13.2491C10.4983 12.5614 9.9369 12 9.24918 12ZM12.0141 17.4596C12.4913 17.4596 14.1194 17.4035 14.9755 16.5473C15.1018 16.421 15.1018 16.2245 15.0036 16.0842C14.8772 15.9579 14.6667 15.9579 14.5404 16.0842C13.993 16.6175 12.8562 16.814 12.0281 16.814C11.2001 16.814 10.0492 16.6175 9.51584 16.0842C9.38953 15.9579 9.179 15.9579 9.05269 16.0842C8.92637 16.2105 8.92637 16.421 9.05269 16.5473C9.89479 17.3894 11.5369 17.4596 12.0141 17.4596ZM13.5018 13.2491C13.5018 13.9368 14.0632 14.4982 14.7509 14.4982C15.4387 14.4982 16.0001 13.9368 16.0001 13.2491C16.0001 12.5614 15.4387 12 14.7509 12C14.0632 12 13.5018 12.5614 13.5018 13.2491Z" fill="#E5E7EA"/>
</g>
<defs>
<clipPath id="clip0_2102_78787">
<rect width="24" height="24" fill="white"/>
</clipPath>
</defs>
</svg>
