<?xml version="1.0" encoding="UTF-8"?>
<svg xmlns="http://www.w3.org/2000/svg" xmlns:xlink="http://www.w3.org/1999/xlink" viewBox="0 0 30 30" width="30px" height="30px">
<g id="surface59660165">
<path style=" stroke:none;fill-rule:nonzero;fill:rgb(100%,100%,100%);fill-opacity:1;" d="M 3.207031 26.5 L 5.316406 24.394531 L 4.996094 24.039062 C 2.742188 21.550781 1.5 18.34375 1.5 15 C 1.5 7.554688 7.554688 1.5 15 1.5 C 15.460938 1.5 15.945312 1.53125 16.5 1.601562 L 16.5 4.613281 C 15.992188 4.539062 15.488281 4.5 15 4.5 C 9.210938 4.5 4.5 9.210938 4.5 15 C 4.5 17.515625 5.417969 19.953125 7.085938 21.867188 L 7.4375 22.273438 L 9.5 20.207031 L 9.5 26.5 Z M 3.207031 26.5 "/>
<path style=" stroke:none;fill-rule:nonzero;fill:rgb(100%,100%,100%);fill-opacity:1;" d="M 15 2 C 15.316406 2 15.644531 2.015625 16 2.050781 L 16 4.046875 C 15.664062 4.015625 15.328125 4 15 4 C 8.933594 4 4 8.933594 4 15 C 4 17.636719 4.960938 20.191406 6.707031 22.195312 L 7.410156 23.003906 L 9 21.414062 L 9 26 L 4.414062 26 L 6.003906 24.410156 L 5.367188 23.703125 C 3.195312 21.308594 2 18.21875 2 15 C 2 7.832031 7.832031 2 15 2 M 15 1 C 7.269531 1 1 7.269531 1 15 C 1 18.613281 2.378906 21.894531 4.625 24.375 L 2 27 L 10 27 L 10 19 L 7.460938 21.539062 C 5.933594 19.785156 5 17.507812 5 15 C 5 9.476562 9.476562 5 15 5 C 15.6875 5 16.351562 5.074219 17 5.207031 L 17 1.164062 C 16.34375 1.066406 15.683594 1 15 1 Z M 15 1 "/>
<path style=" stroke:none;fill-rule:nonzero;fill:rgb(100%,100%,100%);fill-opacity:1;" d="M 15 28.5 C 14.539062 28.5 14.054688 28.46875 13.5 28.398438 L 13.5 25.386719 C 14.007812 25.460938 14.511719 25.5 15 25.5 C 20.789062 25.5 25.5 20.789062 25.5 15 C 25.5 12.484375 24.582031 10.046875 22.914062 8.132812 L 22.5625 7.726562 L 20.5 9.792969 L 20.5 3.5 L 26.792969 3.5 L 24.683594 5.605469 L 25.003906 5.960938 C 27.257812 8.449219 28.5 11.65625 28.5 15 C 28.5 22.445312 22.445312 28.5 15 28.5 Z M 15 28.5 "/>
<path style=" stroke:none;fill-rule:nonzero;fill:rgb(100%,100%,100%);fill-opacity:1;" d="M 25.585938 4 L 23.996094 5.589844 L 24.632812 6.296875 C 26.804688 8.691406 28 11.78125 28 15 C 28 22.167969 22.167969 28 15 28 C 14.683594 28 14.355469 27.984375 14 27.949219 L 14 25.953125 C 14.335938 25.984375 14.671875 26 15 26 C 21.066406 26 26 21.066406 26 15 C 26 12.363281 25.039062 9.808594 23.292969 7.804688 L 22.589844 6.996094 L 21 8.585938 L 21 4 L 25.585938 4 M 28 3 L 20 3 L 20 11 L 22.539062 8.460938 C 24.066406 10.214844 25 12.492188 25 15 C 25 20.523438 20.523438 25 15 25 C 14.3125 25 13.648438 24.925781 13 24.792969 L 13 28.835938 C 13.65625 28.933594 14.316406 29 15 29 C 22.730469 29 29 22.730469 29 15 C 29 11.386719 27.621094 8.105469 25.375 5.625 Z M 28 3 "/>
</g>
</svg>
