<svg width="24" height="24" viewBox="0 0 24 24" fill="none" xmlns="http://www.w3.org/2000/svg">
<g clip-path="url(#clip0_2102_79010)">
<path d="M5.04341 15.1682C5.04341 16.5561 3.90962 17.6899 2.52171 17.6899C1.13379 17.6899 0 16.5561 0 15.1682C0 13.7803 1.13379 12.6465 2.52171 12.6465H5.04341V15.1682Z" fill="#E5E7EA"/>
<path d="M6.31445 15.1682C6.31445 13.7803 7.44824 12.6465 8.83616 12.6465C10.2241 12.6465 11.3579 13.7803 11.3579 15.1682V21.4822C11.3579 22.8701 10.2241 24.0039 8.83616 24.0039C7.44824 24.0039 6.31445 22.8701 6.31445 21.4822V15.1682Z" fill="#E5E7EA"/>
<path d="M8.83616 5.04341C7.44824 5.04341 6.31445 3.90962 6.31445 2.52171C6.31445 1.13379 7.44824 0 8.83616 0C10.2241 0 11.3579 1.13379 11.3579 2.52171V5.04341H8.83616Z" fill="#E5E7EA"/>
<path d="M8.83575 6.31348C10.2237 6.31348 11.3575 7.44727 11.3575 8.83518C11.3575 10.2231 10.2237 11.3569 8.83575 11.3569H2.52171C1.13379 11.3569 0 10.2231 0 8.83518C0 7.44727 1.13379 6.31348 2.52171 6.31348H8.83575Z" fill="#E5E7EA"/>
<path d="M18.957 8.83518C18.957 7.44727 20.0908 6.31348 21.4787 6.31348C22.8667 6.31348 24.0004 7.44727 24.0004 8.83518C24.0004 10.2231 22.8667 11.3569 21.4787 11.3569H18.957V8.83518Z" fill="#E5E7EA"/>
<path d="M17.686 8.83575C17.686 10.2237 16.5522 11.3575 15.1643 11.3575C13.7764 11.3575 12.6426 10.2237 12.6426 8.83575V2.52171C12.6426 1.13379 13.7764 0 15.1643 0C16.5522 0 17.686 1.13379 17.686 2.52171V8.83575Z" fill="#E5E7EA"/>
<path d="M15.1643 18.96C16.5522 18.96 17.686 20.0938 17.686 21.4817C17.686 22.8696 16.5522 24.0034 15.1643 24.0034C13.7764 24.0034 12.6426 22.8696 12.6426 21.4817V18.96H15.1643Z" fill="#E5E7EA"/>
<path d="M15.1643 17.6899C13.7764 17.6899 12.6426 16.5561 12.6426 15.1682C12.6426 13.7803 13.7764 12.6465 15.1643 12.6465H21.4783C22.8662 12.6465 24 13.7803 24 15.1682C24 16.5561 22.8662 17.6899 21.4783 17.6899H15.1643Z" fill="#E5E7EA"/>
</g>
<defs>
<clipPath id="clip0_2102_79010">
<rect width="24" height="24" fill="white"/>
</clipPath>
</defs>
</svg>
