<svg width="22" height="18" viewBox="0 0 22 18" fill="none" xmlns="http://www.w3.org/2000/svg">
<path fill-rule="evenodd" clip-rule="evenodd" d="M2.18099 10.9998C0.527274 11.0045 -0.540242 12.8884 0.478555 14.3157C1.93757 16.3596 4.58333 18 9.00035 18C15.8454 18 21.34 12.4217 20.5708 5.8311L21.6977 3.5773C22.4792 2.01428 21.1212 0.23622 19.4076 0.57894L17.9188 0.87669C17.5241 0.66843 17.1156 0.51127 16.7665 0.39741C16.0861 0.17552 15.2626 0 14.5003 0C13.131 0 11.9492 0.35131 11.01 1.05593C10.0815 1.75264 9.55855 2.66825 9.27155 3.50905C9.13925 3.89661 9.05115 4.28534 8.99462 4.65843C8.46335 4.49123 7.92163 4.26626 7.39129 3.99155C6.18809 3.36832 5.21514 2.57822 4.66629 1.88551C3.74546 0.7233 1.79402 0.80947 1.10924 2.32021C0.144105 4.44947 0.408855 6.97346 1.27639 9.0129C1.56717 9.6964 1.94542 10.3721 2.40753 10.9983C2.32842 10.9992 2.25274 10.9996 2.18099 10.9998ZM9.00025 16C5.13691 16 3.13923 14.6007 2.10628 13.1537C2.05987 13.0887 2.10667 13 2.18654 12.9998C3.23738 12.9968 5.39438 12.9471 6.81698 12.1145C6.89055 12.0714 6.87436 11.9629 6.79356 11.9358C3.47739 10.8208 1.59236 6.09859 2.93074 3.1459C2.96143 3.0782 3.05243 3.06927 3.0986 3.12754C4.62747 5.05718 7.97027 6.9472 10.8786 6.99891C10.9417 7 10.9894 6.9427 10.9798 6.88033C10.8626 6.12053 10.4151 2 14.5002 2C15.4757 2 16.9271 2.47583 17.4617 2.9633C17.4864 2.98583 17.5199 2.99606 17.5527 2.9895L19.7997 2.5401C19.8813 2.52378 19.946 2.60845 19.9088 2.68288L18.5151 5.47019C18.5054 5.48954 18.5024 5.51175 18.5061 5.53306C19.4822 11.02 14.9882 16 9.00025 16Z" fill="#CCD0D5"/>
</svg>
