<svg width="24" height="20" viewBox="0 0 24 20" fill="none" xmlns="http://www.w3.org/2000/svg">
<g clip-path="url(#clip0_2121_76218)">
<path d="M21.4789 5.08385C21.4935 5.29425 21.4935 5.50466 21.4935 5.71701C21.4935 12.1873 16.5773 19.6495 7.58797 19.6495V19.6456C4.93249 19.6495 2.33216 18.8873 0.0966797 17.4504C0.482809 17.4969 0.870873 17.5202 1.25991 17.5211C3.46055 17.5231 5.59829 16.7833 7.32958 15.4209C5.23829 15.3812 3.40442 14.015 2.76378 12.0205C3.49636 12.1621 4.2512 12.133 4.97023 11.9361C2.69023 11.4746 1.04991 9.46749 1.04991 7.13653C1.04991 7.1152 1.04991 7.09483 1.04991 7.07447C1.72926 7.45359 2.48991 7.664 3.26797 7.68727C1.12055 6.24933 0.458615 3.38701 1.75539 1.14913C4.23668 4.20828 7.89765 6.06801 11.8276 6.26484C11.4338 4.56413 11.9718 2.78197 13.2415 1.58643C15.2099 -0.26748 18.3057 -0.172458 20.156 1.79878C21.2505 1.58255 22.2996 1.18016 23.2596 0.610025C22.8947 1.74351 22.1312 2.70634 21.1112 3.31817C22.0799 3.20375 23.0264 2.9439 23.9176 2.54732C23.2615 3.53246 22.4351 4.39057 21.4789 5.08385Z" fill="#E5E7EA"/>
</g>
<defs>
<clipPath id="clip0_2121_76218">
<rect width="24" height="19.7802" fill="white" transform="translate(0 0.110352)"/>
</clipPath>
</defs>
</svg>
