<svg width="32" height="32" viewBox="0 0 32 32" fill="none" xmlns="http://www.w3.org/2000/svg">
<path fill-rule="evenodd" clip-rule="evenodd" d="M16 17.3334C10.8453 17.3334 6.66667 21.5121 6.66667 26.6667V29.3334C6.66667 30.0698 6.06971 30.6667 5.33333 30.6667C4.59695 30.6667 4 30.0698 4 29.3334V26.6667C4 20.0393 9.37258 14.6667 16 14.6667C22.6274 14.6667 28 20.0393 28 26.6667V29.3334C28 30.0698 27.403 30.6667 26.6667 30.6667C25.9303 30.6667 25.3333 30.0698 25.3333 29.3334V26.6667C25.3333 21.5121 21.1547 17.3334 16 17.3334Z" fill="#FCFCFD"/>
<path fill-rule="evenodd" clip-rule="evenodd" d="M16 14.6666C18.9455 14.6666 21.3333 12.2788 21.3333 9.33325C21.3333 6.38773 18.9455 3.99992 16 3.99992C13.0545 3.99992 10.6667 6.38773 10.6667 9.33325C10.6667 12.2788 13.0545 14.6666 16 14.6666ZM16 17.3333C20.4183 17.3333 24 13.7515 24 9.33325C24 4.91497 20.4183 1.33325 16 1.33325C11.5817 1.33325 8 4.91497 8 9.33325C8 13.7515 11.5817 17.3333 16 17.3333Z" fill="#FCFCFD"/>
</svg>
