<svg width="24" height="24" viewBox="0 0 24 24" fill="none" xmlns="http://www.w3.org/2000/svg">
<g clip-path="url(#clip0_2121_76178)">
<path d="M19.1835 14.0241C18.6575 14.0241 18.2136 13.5967 18.2136 13.0543C18.2136 12.5282 18.641 12.0844 19.1835 12.0844C19.7095 12.0844 20.1534 12.5118 20.1534 13.0543C20.1369 13.5967 19.7095 14.0241 19.1835 14.0241ZM14.3671 14.0241C13.841 14.0241 13.3972 13.5967 13.3972 13.0543C13.3972 12.5282 13.8246 12.0844 14.3671 12.0844C14.8931 12.0844 15.3369 12.5118 15.3369 13.0543C15.3205 13.5967 14.8931 14.0241 14.3671 14.0241ZM21.5013 19.5474C23.0301 18.446 23.9999 16.8022 23.9999 14.994C23.9999 11.6734 20.7616 8.97754 16.7671 8.97754C12.7725 8.97754 9.53418 11.6734 9.53418 14.994C9.53418 18.3145 12.7725 21.0104 16.7671 21.0104C17.589 21.0104 18.3945 20.8953 19.1342 20.6816C19.1999 20.6652 19.2657 20.6488 19.3479 20.6488C19.4794 20.6488 19.6109 20.6981 19.726 20.7638L21.304 21.6844C21.3534 21.7173 21.3862 21.7337 21.4355 21.7337C21.5671 21.7337 21.6821 21.6186 21.6821 21.4871C21.6821 21.4214 21.6657 21.3721 21.6492 21.3063C21.6328 21.2734 21.452 20.5501 21.3205 20.0899C21.304 20.0406 21.2876 19.9912 21.2876 19.9419C21.304 19.7775 21.3698 19.6296 21.5013 19.5474Z" fill="#E5E7EA"/>
<path d="M11.5726 8.38607C10.9315 8.38607 10.4219 7.87648 10.4219 7.23538C10.4219 6.59429 10.9315 6.0847 11.5726 6.0847C12.2137 6.0847 12.7233 6.59429 12.7233 7.23538C12.7233 7.87648 12.1973 8.38607 11.5726 8.38607ZM5.7863 8.38607C5.14521 8.38607 4.63562 7.87648 4.63562 7.23538C4.63562 6.59429 5.14521 6.0847 5.7863 6.0847C6.4274 6.0847 6.93699 6.59429 6.93699 7.23538C6.93699 7.87648 6.4274 8.38607 5.7863 8.38607ZM8.67945 2.32031C3.89589 2.32031 0 5.55867 0 9.55319C0 11.7231 1.16712 13.6957 2.99178 15.0107C3.13973 15.1094 3.23836 15.2902 3.23836 15.4874C3.23836 15.5532 3.22192 15.6025 3.20548 15.6683C3.05753 16.2107 2.8274 17.082 2.81096 17.1313C2.79452 17.197 2.76164 17.2628 2.76164 17.345C2.76164 17.5094 2.89315 17.6409 3.05753 17.6409C3.12329 17.6409 3.1726 17.6244 3.22192 17.5915L5.11233 16.4902C5.26027 16.408 5.40822 16.3587 5.5726 16.3587C5.65479 16.3587 5.75342 16.3751 5.83562 16.3915C6.72329 16.6381 7.67671 16.7861 8.66301 16.7861C8.8274 16.7861 8.97534 16.7861 9.13973 16.7696C8.9589 16.2107 8.84384 15.6189 8.84384 14.9943C8.84384 11.3614 12.3781 8.4025 16.7507 8.4025C16.9151 8.4025 17.063 8.40251 17.2274 8.41894C16.5863 4.96689 13.0027 2.32031 8.67945 2.32031Z" fill="#E5E7EA"/>
</g>
<defs>
<clipPath id="clip0_2121_76178">
<rect width="24" height="24" fill="white"/>
</clipPath>
</defs>
</svg>
