<svg xmlns="http://www.w3.org/2000/svg" width="32" height="32"
     viewBox="0 0 32 32">
    <defs>
        <linearGradient id="a" x1="0.5" x2="0.5" y2="1" gradientUnits="objectBoundingBox">
            <stop offset="0" stop-color="#9c6cff"/>
            <stop offset="1" stop-color="#4e3680"/>
        </linearGradient>
    </defs>
    <g transform="translate(-37 -96.909)">
        <g transform="translate(37 96.909)" stroke="#fff" stroke-width="0.5" fill="url(#a)">
            <circle cx="16" cy="16" r="16" stroke="none"/>
            <circle cx="16" cy="16" r="15.75" fill="none"/>
        </g>
        <g transform="translate(41.831 100.243)">
            <path d="M989.506,124.8c-2.6,0-2.631-12.2-2.631-12.715s.03-12.715,2.631-12.715,2.631,12.2,2.631,12.715S992.107,124.8,989.506,124.8Zm-.007-24.553c-.6.165-1.747,4.377-1.747,11.838s1.146,11.674,1.761,11.838c.6-.165,1.747-4.377,1.747-11.838S990.113,100.416,989.5,100.251Z"
                  transform="translate(-978.372 -99.375)" fill="#fff"/>
            <path d="M988.416,126.449c-3.141,0-10.737-4.36-11.116-4.579a52.446,52.446,0,0,1-7.26-4.941c-2.755-2.322-2.709-3.221-2.436-3.695,1.3-2.252,11.878,3.82,12.327,4.079a52.449,52.449,0,0,1,7.26,4.941c2.755,2.322,2.709,3.221,2.436,3.695A1.293,1.293,0,0,1,988.416,126.449Zm-19.661-12.865a.589.589,0,0,0-.4.094c-.157.6,2.917,3.7,9.38,7.432s10.682,4.844,11.133,4.395c.157-.6-2.917-3.7-9.38-7.432C973.918,114.855,970.012,113.584,968.755,113.584Z"
                  transform="translate(-967.481 -106.877)" fill="#fff"/>
            <path d="M968.814,126.449a1.293,1.293,0,0,1-1.211-.5c-.274-.474-.319-1.373,2.436-3.695a52.448,52.448,0,0,1,7.26-4.941c.449-.26,11.025-6.332,12.327-4.079.273.474.319,1.373-2.436,3.695a52.449,52.449,0,0,1-7.26,4.941C979.551,122.089,971.956,126.449,968.814,126.449Zm19.669-12.872c-1.24,0-5.154,1.268-10.745,4.5-6.462,3.731-9.536,6.829-9.373,7.444.444.436,4.665-.676,11.126-4.407s9.537-6.829,9.373-7.444A.574.574,0,0,0,988.483,113.577Z"
                  transform="translate(-967.481 -106.877)" fill="#fff"/>
            <circle cx="1.315" cy="1.315" r="1.315" transform="translate(9.818 11.4)" fill="#fff"/>
            <circle cx="1.315" cy="1.315" r="1.315" transform="translate(15.573 5.974)" fill="#fff"/>
            <circle cx="1.315" cy="1.315" r="1.315" transform="translate(1.543 8.604)" fill="#fff"/>
            <circle cx="1.315" cy="1.315" r="1.315" transform="translate(8.119 19.566)" fill="#fff"/>
        </g>
    </g>
</svg>