<svg width="22" height="22" viewBox="0 0 22 22" fill="none" xmlns="http://www.w3.org/2000/svg">
<path d="M1.56109 0.495748C1.36295 0.499237 1.17424 0.581003 1.03618 0.723174C0.898124 0.865345 0.821941 1.05634 0.824271 1.2545V20.7531C0.82351 20.952 0.901787 21.143 1.04189 21.2842C1.18199 21.4254 1.37243 21.5052 1.57134 21.506H21.0772C21.1771 21.5082 21.2764 21.4905 21.3694 21.4538C21.4623 21.4171 21.5469 21.3622 21.6184 21.2923C21.6898 21.2225 21.7466 21.139 21.7853 21.0469C21.8241 20.9548 21.844 20.8559 21.844 20.756C21.844 20.6561 21.8241 20.5572 21.7853 20.4651C21.7466 20.373 21.6898 20.2895 21.6184 20.2197C21.5469 20.1498 21.4623 20.0949 21.3694 20.0582C21.2764 20.0215 21.1771 20.0038 21.0772 20.006H2.32574V1.2545C2.32692 1.15403 2.30791 1.05439 2.26983 0.961413C2.23174 0.868433 2.17537 0.783999 2.10405 0.713226C2.03273 0.642452 1.94791 0.586746 1.85464 0.549382C1.76137 0.512018 1.66154 0.493789 1.56109 0.495748ZM21.0596 5.37221C20.8653 5.37839 20.6809 5.45982 20.5455 5.59929L12.8492 13.2956L9.62798 9.75212C9.49415 9.60559 9.30771 9.51804 9.10948 9.50869C8.91125 9.49934 8.71739 9.56892 8.57036 9.7022L4.0689 13.8272C3.99617 13.8937 3.93726 13.974 3.89554 14.0633C3.85381 14.1527 3.8301 14.2493 3.82573 14.3478C3.82137 14.4463 3.83646 14.5447 3.87012 14.6373C3.90379 14.73 3.95537 14.8151 4.02194 14.8878C4.0885 14.9606 4.16874 15.0195 4.25807 15.0612C4.3474 15.1029 4.44407 15.1266 4.54256 15.1309C4.64105 15.1353 4.73943 15.1201 4.83209 15.0865C4.92474 15.0528 5.00986 15.0012 5.08257 14.9346L9.03032 11.3194L12.2691 14.8848C12.3372 14.9599 12.4198 15.0204 12.5119 15.0627C12.604 15.1049 12.7037 15.128 12.805 15.1307C12.9063 15.1333 13.0071 15.1154 13.1013 15.0781C13.1955 15.0407 13.2812 14.9846 13.3531 14.9132L21.6031 6.65882C21.7103 6.55338 21.7833 6.41814 21.8127 6.27066C21.8421 6.12319 21.8265 5.97031 21.7679 5.83182C21.7094 5.69332 21.6105 5.57561 21.4842 5.49401C21.3579 5.4124 21.21 5.3706 21.0596 5.37411V5.37221Z" fill="#5EE6D0"/>
</svg>
