<svg width="20" height="20" viewBox="0 0 20 20" fill="none" xmlns="http://www.w3.org/2000/svg">
<path fill-rule="evenodd" clip-rule="evenodd" d="M5.83366 1.66699C4.72859 1.66699 3.66878 2.10598 2.88738 2.88738C2.10598 3.66878 1.66699 4.72859 1.66699 5.83366V14.167C1.66699 15.2721 2.10598 16.3319 2.88738 17.1133C3.66878 17.8947 4.72859 18.3337 5.83366 18.3337H14.167C15.2721 18.3337 16.3319 17.8947 17.1133 17.1133C17.8947 16.3319 18.3337 15.2721 18.3337 14.167V5.83366C18.3337 4.72859 17.8947 3.66878 17.1133 2.88738C16.3319 2.10598 15.2721 1.66699 14.167 1.66699H5.83366ZM13.1087 8.90366C13.1835 8.82377 13.2419 8.72992 13.2805 8.62747C13.3191 8.52502 13.3371 8.41597 13.3335 8.30655C13.33 8.19713 13.3049 8.08949 13.2597 7.98976C13.2146 7.89003 13.1502 7.80018 13.0703 7.72533C12.9904 7.65047 12.8966 7.59209 12.7941 7.5535C12.6917 7.51492 12.5826 7.49689 12.4732 7.50045C12.3638 7.50401 12.2562 7.52909 12.1564 7.57425C12.0567 7.61941 11.9668 7.68377 11.892 7.76366L9.32283 10.5053L8.05366 9.37783C7.88737 9.23959 7.67387 9.17141 7.45824 9.18767C7.24262 9.20394 7.04176 9.30339 6.89809 9.46501C6.75443 9.62663 6.67922 9.83776 6.68835 10.0538C6.69747 10.2699 6.79022 10.4739 6.94699 10.6228L8.82199 12.2895C8.98423 12.4336 9.19629 12.5088 9.41307 12.4989C9.62985 12.4891 9.83426 12.3952 9.98283 12.237L13.1078 8.90366H13.1087Z" fill="#5EE6D0"/>
</svg>
