<svg width="48" height="48" viewBox="0 0 48 48" fill="none" xmlns="http://www.w3.org/2000/svg">
<g opacity="0.7">
<path d="M22.1498 15.0731L22.5833 14.6328C23.1149 14.0997 22.6262 13.2019 21.8899 13.3589L17.7456 14.2425C17.5829 14.2772 17.4355 14.3628 17.3247 14.4868L11.9393 20.5159C11.4884 21.0207 11.8467 21.8211 12.5235 21.8211H12.7062C12.9374 21.8211 13.1559 21.7203 13.3038 21.5425C14.8725 19.6576 17.6167 16.1887 17.8271 15.8683C18.0914 15.4657 18.417 15.3067 18.6013 15.3067H21.5916C21.8015 15.3067 22.0025 15.2226 22.1498 15.0731Z" fill="#363843"/>
<path fill-rule="evenodd" clip-rule="evenodd" d="M17.6937 12.6311C16.8563 12.6311 16.1737 13.1338 15.7501 13.7721L9.35757 20.9664L9.32004 20.9669L9.30534 21.8201L9.10951 33.1839L9.10938 33.1915V33.1991C9.10938 34.0482 9.37435 34.8511 9.84179 35.4601C10.3097 36.0697 11.0187 36.5228 11.8697 36.5228H37.413C38.2639 36.5228 38.9729 36.07 39.4409 35.4604C39.9084 34.8514 40.1734 34.0484 40.1734 33.1991V33.1907L40.1732 33.1822L39.953 21.7149L39.9393 21.0048L39.9508 20.9946L39.9389 20.9811L39.9364 20.8506H39.8228L33.5328 13.7728C33.1091 13.1339 32.4266 12.6311 31.589 12.6311H17.6937ZM37.4649 20.8506L32.1705 14.8931L32.1214 14.8379L32.0822 14.7752C31.8815 14.4545 31.6764 14.3936 31.589 14.3936H17.6937C17.6061 14.3936 17.401 14.4546 17.2003 14.775L17.1612 14.8374L17.1123 14.8925L11.7471 20.9306L17.0862 20.8507L17.0994 20.8505V20.8506C17.826 20.8506 18.4201 21.2396 18.8037 21.7422C19.1868 22.244 19.3993 22.8985 19.3993 23.5831V23.597C19.3993 23.9242 19.5033 24.1885 19.6316 24.3534C19.7593 24.5174 19.8767 24.5499 19.9429 24.5499H29.3398C29.403 24.5499 29.5204 24.5184 29.6496 24.3515C29.7792 24.184 29.8835 23.9169 29.8835 23.5894V23.585C29.8835 22.9004 30.0959 22.2459 30.4787 21.7438C30.862 21.241 31.4558 20.8511 32.1826 20.8506L32.1833 20.8506H37.4649ZM11.0529 22.7037L17.1033 22.6131C17.1632 22.6144 17.2762 22.6459 17.4028 22.8116C17.5326 22.9817 17.6367 23.2528 17.6367 23.5831V23.597C17.6367 24.88 18.4786 26.3124 19.9429 26.3124H29.3398C30.8081 26.3124 31.646 24.8673 31.646 23.5894V23.585C31.646 23.2547 31.7502 22.983 31.8803 22.8124C32.0098 22.6426 32.1252 22.6132 32.1838 22.6131H38.2074L38.4109 33.2068C38.4093 33.6965 38.2543 34.1117 38.0429 34.387C37.831 34.663 37.6004 34.7603 37.413 34.7603H11.8697C11.6825 34.7603 11.4519 34.663 11.2399 34.3868C11.0283 34.1113 10.8733 33.6957 10.8719 33.2061L11.0529 22.7037Z" fill="#717582"/>
</g>
</svg>
