<svg width="32" height="32" viewBox="0 0 32 32" fill="none" xmlns="http://www.w3.org/2000/svg">
<path d="M27.5308 3.56543L17.5371 10.9879L19.3852 6.60874L27.5308 3.56543Z" fill="#E2761B" stroke="#E2761B" stroke-width="0.0878845" stroke-linecap="round" stroke-linejoin="round"/>
<path d="M4.45996 3.56543L14.3734 11.0582L12.6157 6.60874L4.45996 3.56543Z" fill="#E4761B" stroke="#E4761B" stroke-width="0.0878845" stroke-linecap="round" stroke-linejoin="round"/>
<path d="M23.9352 20.7705L21.2734 24.8483L26.9684 26.4152L28.6056 20.8609L23.9352 20.7705Z" fill="#E4761B" stroke="#E4761B" stroke-width="0.0878845" stroke-linecap="round" stroke-linejoin="round"/>
<path d="M3.40527 20.8609L5.03238 26.4152L10.7273 24.8483L8.06566 20.7705L3.40527 20.8609Z" fill="#E4761B" stroke="#E4761B" stroke-width="0.0878845" stroke-linecap="round" stroke-linejoin="round"/>
<path d="M10.4055 13.881L8.8186 16.2816L14.4734 16.5327L14.2725 10.4561L10.4055 13.881Z" fill="#E4761B" stroke="#E4761B" stroke-width="0.0878845" stroke-linecap="round" stroke-linejoin="round"/>
<path d="M21.5849 13.881L17.6677 10.3857L17.5371 16.5327L23.1818 16.2816L21.5849 13.881Z" fill="#E4761B" stroke="#E4761B" stroke-width="0.0878845" stroke-linecap="round" stroke-linejoin="round"/>
<path d="M10.7266 24.8486L14.1215 23.1913L11.1886 20.9014L10.7266 24.8486Z" fill="#E4761B" stroke="#E4761B" stroke-width="0.0878845" stroke-linecap="round" stroke-linejoin="round"/>
<path d="M17.8682 23.1913L21.273 24.8486L20.801 20.9014L17.8682 23.1913Z" fill="#E4761B" stroke="#E4761B" stroke-width="0.0878845" stroke-linecap="round" stroke-linejoin="round"/>
<path d="M21.273 24.8487L17.8682 23.1914L18.1393 25.4112L18.1093 26.3452L21.273 24.8487Z" fill="#D7C1B3" stroke="#D7C1B3" stroke-width="0.0878845" stroke-linecap="round" stroke-linejoin="round"/>
<path d="M10.7266 24.8487L13.8904 26.3452L13.8703 25.4112L14.1215 23.1914L10.7266 24.8487Z" fill="#D7C1B3" stroke="#D7C1B3" stroke-width="0.0878845" stroke-linecap="round" stroke-linejoin="round"/>
<path d="M13.941 19.435L11.1086 18.6014L13.1073 17.6875L13.941 19.435Z" fill="#233447" stroke="#233447" stroke-width="0.0878845" stroke-linecap="round" stroke-linejoin="round"/>
<path d="M18.0489 19.435L18.8826 17.6875L20.8914 18.6014L18.0489 19.435Z" fill="#233447" stroke="#233447" stroke-width="0.0878845" stroke-linecap="round" stroke-linejoin="round"/>
<path d="M10.727 24.8483L11.2091 20.7705L8.06531 20.8609L10.727 24.8483Z" fill="#CD6116" stroke="#CD6116" stroke-width="0.0878845" stroke-linecap="round" stroke-linejoin="round"/>
<path d="M20.791 20.7705L21.273 24.8483L23.9347 20.8609L20.791 20.7705Z" fill="#CD6116" stroke="#CD6116" stroke-width="0.0878845" stroke-linecap="round" stroke-linejoin="round"/>
<path d="M23.1818 16.2812L17.5371 16.5323L18.0594 19.4351L18.8931 17.6874L20.9019 18.6014L23.1818 16.2812Z" fill="#CD6116" stroke="#CD6116" stroke-width="0.0878845" stroke-linecap="round" stroke-linejoin="round"/>
<path d="M11.1086 18.6014L13.1174 17.6874L13.941 19.4351L14.4734 16.5323L8.8186 16.2812L11.1086 18.6014Z" fill="#CD6116" stroke="#CD6116" stroke-width="0.0878845" stroke-linecap="round" stroke-linejoin="round"/>
<path d="M8.8186 16.2812L11.189 20.9015L11.1086 18.6014L8.8186 16.2812Z" fill="#E4751F" stroke="#E4751F" stroke-width="0.0878845" stroke-linecap="round" stroke-linejoin="round"/>
<path d="M20.9012 18.6014L20.8008 20.9015L23.1811 16.2812L20.9012 18.6014Z" fill="#E4751F" stroke="#E4751F" stroke-width="0.0878845" stroke-linecap="round" stroke-linejoin="round"/>
<path d="M14.4737 16.5322L13.9414 19.435L14.6043 22.8599L14.7549 18.3502L14.4737 16.5322Z" fill="#E4751F" stroke="#E4751F" stroke-width="0.0878845" stroke-linecap="round" stroke-linejoin="round"/>
<path d="M17.5367 16.5322L17.2655 18.3401L17.3861 22.8599L18.059 19.435L17.5367 16.5322Z" fill="#E4751F" stroke="#E4751F" stroke-width="0.0878845" stroke-linecap="round" stroke-linejoin="round"/>
<path d="M18.0587 19.4352L17.3857 22.8602L17.8679 23.1916L20.8007 20.9017L20.9012 18.6016L18.0587 19.4352Z" fill="#F6851B" stroke="#F6851B" stroke-width="0.0878845" stroke-linecap="round" stroke-linejoin="round"/>
<path d="M11.1086 18.6016L11.1889 20.9017L14.1218 23.1916L14.6039 22.8602L13.941 19.4352L11.1086 18.6016Z" fill="#F6851B" stroke="#F6851B" stroke-width="0.0878845" stroke-linecap="round" stroke-linejoin="round"/>
<path d="M18.1089 26.3452L18.139 25.4111L17.8879 25.1901H14.1014L13.8703 25.4111L13.8904 26.3452L10.7266 24.8486L11.8314 25.7526L14.0712 27.3094H17.918L20.1679 25.7526L21.2727 24.8486L18.1089 26.3452Z" fill="#C0AD9E" stroke="#C0AD9E" stroke-width="0.0878845" stroke-linecap="round" stroke-linejoin="round"/>
<path d="M17.8687 23.1918L17.3865 22.8604H14.6044L14.1223 23.1918L13.8711 25.4116L14.1022 25.1905H17.8887L18.1398 25.4116L17.8687 23.1918Z" fill="#161616" stroke="#161616" stroke-width="0.0878845" stroke-linecap="round" stroke-linejoin="round"/>
<path d="M27.9523 11.47L28.8061 7.37208L27.5304 3.56543L17.8682 10.7368L21.5845 13.8805L26.8374 15.4173L28.0025 14.0613L27.5003 13.6997L28.3038 12.9666L27.6811 12.4844L28.4846 11.8717L27.9523 11.47Z" fill="#763D16" stroke="#763D16" stroke-width="0.0878845" stroke-linecap="round" stroke-linejoin="round"/>
<path d="M3.19434 7.37208L4.04807 11.47L3.50571 11.8717L4.30922 12.4844L3.69654 12.9666L4.50005 13.6997L3.99786 14.0613L5.15291 15.4173L10.4059 13.8805L14.1222 10.7368L4.45988 3.56543L3.19434 7.37208Z" fill="#763D16" stroke="#763D16" stroke-width="0.0878845" stroke-linecap="round" stroke-linejoin="round"/>
<path d="M26.8371 15.4177L21.5842 13.8809L23.1811 16.2814L20.8008 20.9017L23.9345 20.8614H28.6049L26.8371 15.4177Z" fill="#F6851B" stroke="#F6851B" stroke-width="0.0878845" stroke-linecap="round" stroke-linejoin="round"/>
<path d="M10.4059 13.8809L5.15292 15.4177L3.40527 20.8614H8.06566L11.1893 20.9017L8.81895 16.2814L10.4059 13.8809Z" fill="#F6851B" stroke="#F6851B" stroke-width="0.0878845" stroke-linecap="round" stroke-linejoin="round"/>
<path d="M17.5367 16.5328L17.8682 10.7374L19.3948 6.60938H12.6152L14.1218 10.7374L14.4733 16.5328L14.5938 18.3608L14.6039 22.8605H17.386L17.4061 18.3608L17.5367 16.5328Z" fill="#F6851B" stroke="#F6851B" stroke-width="0.0878845" stroke-linecap="round" stroke-linejoin="round"/>
</svg>
