<svg xmlns="http://www.w3.org/2000/svg" width="22" height="22" fill="none" viewBox="0 0 22 22">
    <path stroke="#89909B" stroke-width="1.2" d="M19.4 11c0 4.64-3.76 8.4-8.4 8.4-4.64 0-8.4-3.76-8.4-8.4 0-4.64 3.76-8.4 8.4-8.4 4.64 0 8.4 3.76 8.4 8.4z"/>
    <path stroke="#89909B" stroke-width="1.2" d="M11 19.59c4.744 0 8.59-3.846 8.59-8.59 0-4.746-3.846-8.592-8.59-8.592-4.746 0-8.592 3.846-8.592 8.591 0 4.745 3.846 8.591 8.591 8.591z"/>
    <path fill="#89909B" stroke="#89909B" stroke-width=".5" d="M8.794 6.975l-.157.168.157-.168zM12.047 7.577c.244.3.373.677.365 1.063-.003.3-.09.591-.25.843-.1.164-.22.313-.362.443l-.5.491c-.391.35-.708.777-.93 1.253-.157.463-.228.95-.212 1.44h1.112c-.02-.405.041-.81.179-1.19.198-.372.461-.704.777-.982.403-.368.77-.774 1.095-1.212.194-.324.289-.697.272-1.074.011-.334-.049-.667-.176-.977-.127-.31-.318-.588-.56-.818-.578-.474-1.307-.723-2.054-.701-.746.021-1.46.313-2.009.82-.526.596-.799 1.374-.761 2.17h1.112c-.004-.429.083-.852.256-1.244.142-.208.327-.384.543-.516.216-.132.457-.216.708-.247.25-.03.505-.008.746.067.242.075.464.201.653.369l-.004.002zM11.376 14.145h-1.243v1.298h1.243v-1.298z"/>
</svg>
