<svg width="18" height="18" viewBox="0 0 18 18" fill="none" xmlns="http://www.w3.org/2000/svg">
<path fill-rule="evenodd" clip-rule="evenodd" d="M2.25 3.75C2.25 2.09315 3.59315 0.75 5.25 0.75H11.5074C12.303 0.75 13.0661 1.06607 13.6287 1.62868L14.8713 2.87132C15.4339 3.43393 15.75 4.19699 15.75 4.99264V14.25C15.75 15.9069 14.4069 17.25 12.75 17.25H5.25C3.59315 17.25 2.25 15.9069 2.25 14.25V3.75ZM14.25 6V14.25C14.25 15.0784 13.5784 15.75 12.75 15.75H5.25C4.42157 15.75 3.75 15.0784 3.75 14.25V3.75C3.75 2.92157 4.42157 2.25 5.25 2.25H10.5V3.75C10.5 4.99264 11.5074 6 12.75 6H14.25ZM14.1668 4.5C14.0931 4.2882 13.9722 4.09356 13.8107 3.93198L12.568 2.68934C12.4064 2.52776 12.2118 2.40686 12 2.33321V3.75C12 4.16421 12.3358 4.5 12.75 4.5H14.1668Z" fill="white"/>
<path d="M6.75 9C6.33579 9 6 9.33579 6 9.75C6 10.1642 6.33579 10.5 6.75 10.5H11.25C11.6642 10.5 12 10.1642 12 9.75C12 9.33579 11.6642 9 11.25 9H6.75Z" fill="white"/>
<path d="M6.75 12C6.33579 12 6 12.3358 6 12.75C6 13.1642 6.33579 13.5 6.75 13.5H9C9.41421 13.5 9.75 13.1642 9.75 12.75C9.75 12.3358 9.41421 12 9 12H6.75Z" fill="white"/>
</svg>
