<svg width="16" height="16" viewBox="0 0 16 16" fill="none" xmlns="http://www.w3.org/2000/svg">
<path fill-rule="evenodd" clip-rule="evenodd" d="M1.33268 2C1.70087 2 1.99935 2.29848 1.99935 2.66667V12C1.99935 12.3682 2.29783 12.6667 2.66602 12.6667H14.666C15.0342 12.6667 15.3327 12.9651 15.3327 13.3333C15.3327 13.7015 15.0342 14 14.666 14H2.66602C1.56145 14 0.666016 13.1046 0.666016 12V2.66667C0.666016 2.29848 0.964492 2 1.33268 2Z" fill="white"/>
<path d="M12.0007 3.33337C11.6325 3.33337 11.334 3.63185 11.334 4.00004V10.6667C11.334 11.0349 11.6325 11.3334 12.0007 11.3334C12.3688 11.3334 12.6673 11.0349 12.6673 10.6667V4.00004C12.6673 3.63185 12.3688 3.33337 12.0007 3.33337Z" fill="white"/>
<path d="M6.66732 4.66671C6.29913 4.66671 6.00065 4.96518 6.00065 5.33337V10.6667C6.00065 11.0349 6.29913 11.3334 6.66732 11.3334C7.03551 11.3334 7.33398 11.0349 7.33398 10.6667V5.33337C7.33398 4.96518 7.03551 4.66671 6.66732 4.66671Z" fill="white"/>
<path d="M4.00065 8.66671C3.63246 8.66671 3.33398 8.96518 3.33398 9.33337V10.6667C3.33398 11.0349 3.63246 11.3334 4.00065 11.3334C4.36884 11.3334 4.66732 11.0349 4.66732 10.6667V9.33337C4.66732 8.96518 4.36884 8.66671 4.00065 8.66671Z" fill="white"/>
<path d="M8.66732 6.66671C8.66732 6.29852 8.96579 6.00004 9.33398 6.00004C9.70217 6.00004 10.0007 6.29852 10.0007 6.66671V10.6667C10.0007 11.0349 9.70217 11.3334 9.33398 11.3334C8.96579 11.3334 8.66732 11.0349 8.66732 10.6667V6.66671Z" fill="white"/>
</svg>
