<svg xmlns="http://www.w3.org/2000/svg" id="prefix__bondedtokens_ic" width="32" height="32" viewBox="0 0 32 32">
    <defs>
        <style>
            .prefix__cls-1,.prefix__cls-2{fill:#4b525d;stroke:#4b525d;stroke-width:.2px}.prefix__cls-2{stroke-linejoin:round}
        </style>
    </defs>
    <g id="prefix__그룹_1558" data-name="그룹 1558" transform="translate(-1689.748 -1063.679)">
        <path id="prefix__패스_1414"
              d="M1701.267 1075.385c-3.16 0-6.519-.912-6.519-2.6s3.359-2.6 6.519-2.6 6.519.912 6.519 2.6-3.359 2.6-6.519 2.6zm0-4.386c-3.531 0-5.7 1.038-5.7 1.782s2.168 1.783 5.7 1.783 5.7-1.038 5.7-1.783-2.167-1.781-5.7-1.781z"
              class="prefix__cls-1" data-name="패스 1414"/>
        <path id="prefix__패스_1415"
              d="M1701.267 1107.923c-3.16 0-6.519-.912-6.519-2.6h.821c0 .744 2.168 1.783 5.7 1.783s5.7-1.038 5.7-1.783h.82c-.003 1.688-3.362 2.6-6.522 2.6z"
              class="prefix__cls-1" data-name="패스 1415" transform="translate(0 -29.375)"/>
        <path id="prefix__패스_1416"
              d="M1701.267 1127.2c-3.16 0-6.519-.912-6.519-2.6h.821c0 .744 2.168 1.783 5.7 1.783a15.062 15.062 0 0 0 2.85-.26l.158.805a15.894 15.894 0 0 1-3.01.272z"
              class="prefix__cls-1" data-name="패스 1416" transform="translate(0 -45.49)"/>
        <path id="prefix__패스_1417"
              d="M1701.267 1144.872c-3.16 0-6.519-.912-6.519-2.6h.821c0 .744 2.168 1.783 5.7 1.783a15.153 15.153 0 0 0 2.777-.246l.153.806a15.992 15.992 0 0 1-2.932.257z"
              class="prefix__cls-1" data-name="패스 1417" transform="translate(0 -60.261)"/>
        <path id="prefix__패스_1418"
              d="M1701.267 1101.366c-3.16 0-6.519-.912-6.519-2.6v-12.009h.821v12.009c0 .744 2.168 1.783 5.7 1.783a15.062 15.062 0 0 0 2.849-.26l.158.805a15.893 15.893 0 0 1-3.009.272z"
              class="prefix__cls-1" data-name="패스 1418" transform="translate(0 -13.855)"/>
        <path id="prefix__사각형_1029" d="M0 0H0.82V5.852H0z" class="prefix__cls-1" data-name="사각형 1029"
              transform="translate(1706.965 1072.899)"/>
        <path id="prefix__패스_1420"
              d="M1755.887 1141.89c-3.16 0-6.519-.912-6.519-2.6v-5.946h.82v5.946c0 .744 2.168 1.782 5.7 1.782s5.7-1.038 5.7-1.782v-5.946h.82v5.946c-.002 1.688-3.361 2.6-6.521 2.6z"
              class="prefix__cls-1" data-name="패스 1420" transform="translate(-45.658 -52.798)"/>
        <path id="prefix__패스_1421"
              d="M1755.887 1123.578c-3.16 0-6.519-.912-6.519-2.6s3.359-2.6 6.519-2.6 6.519.912 6.519 2.6-3.359 2.6-6.519 2.6zm0-4.386c-3.531 0-5.7 1.038-5.7 1.783s2.168 1.783 5.7 1.783 5.7-1.038 5.7-1.783-2.17-1.783-5.7-1.783z"
              class="prefix__cls-1" data-name="패스 1421" transform="translate(-45.658 -40.285)"/>
        <path id="prefix__패스_1422"
              d="M1755.887 1154.51c-3.16 0-6.519-.912-6.519-2.6h.82c0 .744 2.168 1.783 5.7 1.783s5.7-1.038 5.7-1.783h.82c-.002 1.69-3.361 2.6-6.521 2.6z"
              class="prefix__cls-1" data-name="패스 1422" transform="translate(-45.658 -68.317)"/>
    </g>
    <path id="prefix__사각형_1031" fill="none" d="M0 0H32V32H0z" data-name="사각형 1031"/>
</svg>
