<svg width="32" height="32" viewBox="0 0 32 32" fill="none" xmlns="http://www.w3.org/2000/svg">
<path d="M15.8976 15.1642C15.0896 15.1642 14.2998 14.9246 13.628 14.4757C12.9563 14.0268 12.4327 13.3889 12.1235 12.6424C11.8143 11.896 11.7334 11.0746 11.891 10.2822C12.0486 9.4898 12.4377 8.76195 13.009 8.19065C13.5803 7.61936 14.3082 7.23023 15.1006 7.07261C15.893 6.91499 16.7144 6.99597 17.4608 7.30516C18.2072 7.61434 18.8452 8.1379 19.294 8.80967C19.7429 9.48145 19.9825 10.2713 19.9825 11.0792C19.9815 12.1623 19.5507 13.2007 18.7849 13.9665C18.019 14.7324 16.9806 15.1631 15.8976 15.1642V15.1642ZM15.8976 7.93211C15.2751 7.93191 14.6666 8.11634 14.1489 8.46202C13.6313 8.80769 13.2277 9.29911 12.9894 9.87413C12.751 10.4491 12.6886 11.082 12.8099 11.6925C12.9312 12.303 13.2308 12.8638 13.6709 13.3041C14.111 13.7443 14.6717 14.0441 15.2822 14.1656C15.8927 14.2871 16.5255 14.2248 17.1006 13.9867C17.6757 13.7485 18.1672 13.3452 18.513 12.8276C18.8589 12.3101 19.0436 11.7017 19.0436 11.0792C19.0414 10.2459 18.7091 9.44728 18.1195 8.85838C17.5298 8.26948 16.7309 7.93817 15.8976 7.93711V7.93211Z" fill="#4B525D" stroke="#4B525D" stroke-width="0.3"/>
<path d="M23.7327 24.6108H8.0647C7.94031 24.6108 7.82099 24.5613 7.73303 24.4733C7.64508 24.3854 7.5957 24.2662 7.5957 24.1418C7.63176 22.1264 8.38742 20.1902 9.7262 18.6833C11.065 17.1763 12.8985 16.1979 14.8956 15.9247C14.9711 15.9138 15.0481 15.9215 15.12 15.9471C15.1919 15.9727 15.2564 16.0153 15.308 16.0715C15.3596 16.1276 15.3968 16.1956 15.4163 16.2693C15.4357 16.3431 15.4369 16.4204 15.4197 16.4947L14.6566 19.7747L15.9487 21.0667L17.2427 19.7728L16.5287 16.5128C16.5123 16.4379 16.5144 16.3601 16.535 16.2863C16.5556 16.2125 16.5941 16.1448 16.6469 16.0893C16.6996 16.0337 16.7652 15.992 16.8379 15.9677C16.9106 15.9434 16.9881 15.9372 17.0637 15.9498C19.0244 16.2634 20.8129 17.2551 22.1173 18.7521C23.4217 20.2492 24.1594 22.1566 24.2017 24.1418C24.2017 24.2034 24.1896 24.2643 24.166 24.3212C24.1424 24.3781 24.1079 24.4298 24.0643 24.4733C24.0208 24.5169 23.969 24.5514 23.9121 24.575C23.8552 24.5986 23.7943 24.6108 23.7327 24.6108V24.6108ZM8.54968 23.6717H23.2496C23.1134 22.115 22.497 20.6392 21.4856 19.4481C20.4742 18.2569 19.1176 17.4095 17.6036 17.0228L18.2177 19.8227C18.2344 19.8996 18.2315 19.9795 18.2094 20.055C18.1872 20.1305 18.1464 20.1991 18.0907 20.2547L16.2827 22.0627C16.1948 22.1506 16.0755 22.2 15.9512 22.2C15.8269 22.2 15.7076 22.1506 15.6196 22.0627L13.8116 20.2547C13.7552 20.1984 13.7141 20.1286 13.6923 20.0519C13.6704 19.9753 13.6685 19.8943 13.6866 19.8167L14.3457 16.9847C12.7957 17.3414 11.3991 18.1814 10.3574 19.3832C9.3157 20.5851 8.68269 22.0868 8.54968 23.6717V23.6717Z" fill="#4B525D" stroke="#4B525D" stroke-width="0.3"/>
<path d="M24.2822 14.5156C23.6968 14.5156 23.1246 14.3421 22.6378 14.0169C22.151 13.6916 21.7716 13.2292 21.5476 12.6884C21.3236 12.1475 21.2649 11.5524 21.3791 10.9782C21.4934 10.404 21.7752 9.87663 22.1892 9.46267C22.6032 9.0487 23.1306 8.76682 23.7048 8.65261C24.279 8.5384 24.8742 8.59691 25.415 8.82094C25.9559 9.04498 26.4181 9.42438 26.7434 9.91115C27.0686 10.3979 27.2423 10.9703 27.2423 11.5557C27.2415 12.3405 26.9293 13.0929 26.3744 13.6478C25.8194 14.2028 25.067 14.5149 24.2822 14.5156V14.5156ZM24.2822 9.53469C23.8825 9.53469 23.4918 9.65319 23.1594 9.87526C22.8271 10.0973 22.5681 10.413 22.4151 10.7822C22.2622 11.1515 22.2221 11.5579 22.3 11.95C22.378 12.342 22.5706 12.7021 22.8533 12.9848C23.1359 13.2674 23.4959 13.4599 23.8879 13.5379C24.28 13.6158 24.6864 13.5758 25.0557 13.4229C25.4249 13.2699 25.7406 13.0108 25.9626 12.6785C26.1847 12.3461 26.3032 11.9554 26.3032 11.5557C26.3024 11.0199 26.0893 10.5063 25.7104 10.1275C25.3316 9.74862 24.818 9.53548 24.2822 9.53469Z" fill="#4B525D" stroke="#4B525D" stroke-width="0.3"/>
<path d="M29.6826 21.4961H25.1437C25.0193 21.4961 24.9 21.4467 24.812 21.3588C24.7241 21.2708 24.6747 21.1515 24.6747 21.0271C24.6747 20.9027 24.7241 20.7834 24.812 20.6954C24.9 20.6075 25.0193 20.5581 25.1437 20.5581H29.1916C29.1142 19.7514 28.8391 18.9762 28.3906 18.3013C27.9422 17.6263 27.3342 17.0723 26.6206 16.6884C25.907 16.3044 25.1097 16.1023 24.2993 16.1C23.4889 16.0977 22.6906 16.2952 21.9747 16.675C21.9204 16.704 21.8607 16.722 21.7994 16.7279C21.7381 16.7339 21.6762 16.7277 21.6173 16.7097C21.5584 16.6917 21.5036 16.6623 21.4561 16.6232C21.4085 16.584 21.3692 16.5359 21.3402 16.4816C21.3113 16.4272 21.2933 16.3677 21.2874 16.3064C21.2814 16.2451 21.2876 16.1832 21.3055 16.1243C21.3235 16.0653 21.3528 16.0106 21.392 15.963C21.4311 15.9155 21.4793 15.876 21.5337 15.847C22.4276 15.3725 23.429 15.1373 24.4407 15.1642C25.4523 15.1911 26.4397 15.4792 27.3071 16.0006C28.1745 16.522 28.8923 17.2588 29.3907 18.1395C29.8892 19.0203 30.1513 20.0151 30.1516 21.0271C30.1516 21.1515 30.1022 21.2708 30.0143 21.3588C29.9263 21.4467 29.807 21.4961 29.6826 21.4961Z" fill="#4B525D" stroke="#4B525D" stroke-width="0.3"/>
<path d="M7.8662 14.5156C7.28077 14.5156 6.70856 14.3421 6.22179 14.0169C5.73502 13.6916 5.35562 13.2292 5.13158 12.6884C4.90754 12.1475 4.84891 11.5524 4.96312 10.9782C5.07734 10.404 5.35922 9.87663 5.77318 9.46267C6.18714 9.0487 6.71462 8.76682 7.28881 8.65261C7.86299 8.5384 8.45814 8.59691 8.99901 8.82094C9.53988 9.04498 10.0021 9.42438 10.3274 9.91115C10.6526 10.3979 10.8263 10.9703 10.8263 11.5557C10.8255 12.3405 10.5133 13.0929 9.95836 13.6478C9.40343 14.2028 8.651 14.5149 7.8662 14.5156V14.5156ZM7.8662 9.53469C7.46653 9.53489 7.07586 9.65356 6.74364 9.87575C6.41142 10.0979 6.15256 10.4137 5.99974 10.783C5.84693 11.1523 5.80715 11.5586 5.88524 11.9506C5.96334 12.3426 6.15578 12.7026 6.43846 12.9851C6.72115 13.2677 7.08137 13.46 7.47338 13.5379C7.86539 13.6158 8.27163 13.5757 8.64086 13.4227C9.01009 13.2698 9.32569 13.0107 9.54772 12.6784C9.76974 12.346 9.88829 11.9554 9.88829 11.5557C9.8875 11.0198 9.67409 10.506 9.29503 10.1271C8.91598 9.74823 8.40213 9.53522 7.8662 9.53469V9.53469Z" fill="#4B525D" stroke="#4B525D" stroke-width="0.3"/>
<path d="M7.00903 21.4961H2.46899C2.34461 21.4961 2.22528 21.4467 2.13733 21.3588C2.04937 21.2708 2 21.1515 2 21.0271C2.00035 20.0151 2.26244 19.0203 2.76086 18.1395C3.25929 17.2588 3.97709 16.522 4.84448 16.0006C5.71187 15.4792 6.6994 15.1911 7.71106 15.1642C8.72272 15.1373 9.72417 15.3725 10.618 15.847C10.7278 15.9055 10.8099 16.0053 10.8462 16.1243C10.8825 16.2433 10.87 16.3718 10.8115 16.4816C10.753 16.5914 10.6533 16.6734 10.5343 16.7097C10.4153 16.746 10.2868 16.7335 10.177 16.675C9.46118 16.2952 8.66279 16.0977 7.85242 16.1C7.04205 16.1023 6.24464 16.3044 5.53101 16.6884C4.81737 17.0723 4.20944 17.6263 3.76099 18.3013C3.31253 18.9762 3.03738 19.7514 2.95996 20.5581H7.00806C7.13244 20.5581 7.25165 20.6075 7.3396 20.6954C7.42755 20.7834 7.47705 20.9027 7.47705 21.0271C7.47705 21.1515 7.42755 21.2708 7.3396 21.3588C7.25165 21.4467 7.13244 21.4961 7.00806 21.4961H7.00903Z" fill="#4B525D" stroke="#4B525D" stroke-width="0.3"/>
</svg>
