<svg width="32" height="32" viewBox="0 0 32 32" fill="none" xmlns="http://www.w3.org/2000/svg">
<path fill-rule="evenodd" clip-rule="evenodd" d="M16 17.3333C10.8453 17.3333 6.66667 21.512 6.66667 26.6666V29.3333C6.66667 30.0697 6.06971 30.6666 5.33333 30.6666C4.59695 30.6666 4 30.0697 4 29.3333V26.6666C4 20.0392 9.37258 14.6666 16 14.6666C22.6274 14.6666 28 20.0392 28 26.6666V29.3333C28 30.0697 27.403 30.6666 26.6667 30.6666C25.9303 30.6666 25.3333 30.0697 25.3333 29.3333V26.6666C25.3333 21.512 21.1547 17.3333 16 17.3333Z" fill="#777E91"/>
<path fill-rule="evenodd" clip-rule="evenodd" d="M16 14.6667C18.9455 14.6667 21.3333 12.2789 21.3333 9.33337C21.3333 6.38786 18.9455 4.00004 16 4.00004C13.0545 4.00004 10.6667 6.38786 10.6667 9.33337C10.6667 12.2789 13.0545 14.6667 16 14.6667ZM16 17.3334C20.4183 17.3334 24 13.7517 24 9.33337C24 4.9151 20.4183 1.33337 16 1.33337C11.5817 1.33337 8 4.9151 8 9.33337C8 13.7517 11.5817 17.3334 16 17.3334Z" fill="#777E91"/>
</svg>
