<svg width="32" height="32" viewBox="0 0 32 32" fill="none" xmlns="http://www.w3.org/2000/svg">
<path fill-rule="evenodd" clip-rule="evenodd" d="M25.3333 13.3333H6.66667V24C6.66667 25.4727 7.86057 26.6666 9.33333 26.6666H22.6667C24.1394 26.6666 25.3333 25.4727 25.3333 24V13.3333ZM4 10.6666V24C4 26.9455 6.38781 29.3333 9.33333 29.3333H22.6667C25.6122 29.3333 28 26.9455 28 24V10.6666H4Z" fill="#777E91"/>
<path d="M12 17.3333C12 16.597 12.597 16 13.3333 16H18.6667C19.403 16 20 16.597 20 17.3333C20 18.0697 19.403 18.6667 18.6667 18.6667H13.3333C12.597 18.6667 12 18.0697 12 17.3333Z" fill="#777E91"/>
<path fill-rule="evenodd" clip-rule="evenodd" d="M25.3333 5.33329H6.66666C5.93028 5.33329 5.33332 5.93025 5.33332 6.66663V9.33329C5.33332 10.0697 5.93028 10.6666 6.66666 10.6666H25.3333C26.0697 10.6666 26.6667 10.0697 26.6667 9.33329V6.66663C26.6667 5.93025 26.0697 5.33329 25.3333 5.33329ZM6.66666 2.66663C4.45752 2.66663 2.66666 4.45749 2.66666 6.66663V9.33329C2.66666 11.5424 4.45752 13.3333 6.66666 13.3333H25.3333C27.5425 13.3333 29.3333 11.5424 29.3333 9.33329V6.66663C29.3333 4.45749 27.5425 2.66663 25.3333 2.66663H6.66666Z" fill="#777E91"/>
</svg>
