<svg width="24" height="24" viewBox="0 0 24 24" fill="none" xmlns="http://www.w3.org/2000/svg">
<path d="M17 4C16.4477 4 16 4.44772 16 5C16 5.55228 16.4477 6 17 6H21C21.5523 6 22 5.55228 22 5C22 4.44772 21.5523 4 21 4H17Z" fill="#777E91"/>
<path fill-rule="evenodd" clip-rule="evenodd" d="M14 13C14 10.2386 16.2386 8 19 8C21.7614 8 24 10.2386 24 13V14C24 14.5523 23.5523 15 23 15H16C16 16.6569 17.3431 18 19 18C19.6975 18 20.3393 17.762 20.8488 17.3628C21.1149 17.1542 21.4293 17 21.7675 17C22.6244 17 23.1727 17.8851 22.5732 18.4975C21.6656 19.4246 20.4 20 19 20C16.2386 20 14 17.7614 14 15V13ZM19 10C17.3431 10 16 11.3431 16 13H22C22 11.3431 20.6569 10 19 10Z" fill="#777E91"/>
<path fill-rule="evenodd" clip-rule="evenodd" d="M2 6V10H7C8.10457 10 9 9.10457 9 8C9 6.89543 8.10457 6 7 6H2ZM9.79978 10.8568C10.5405 10.1308 11 9.11907 11 8C11 5.79086 9.20914 4 7 4H1.6C0.716344 4 0 4.71635 0 5.6V18.2857C0 19.2325 0.767513 20 1.71429 20H7C9.76142 20 12 17.7614 12 15C12 13.2759 11.1274 11.7557 9.79978 10.8568ZM2 12V18H7C8.65685 18 10 16.6569 10 15C10 13.3431 8.65685 12 7 12H2Z" fill="#777E91"/>
</svg>
