<svg width="32" height="32" viewBox="0 0 32 32" fill="none" xmlns="http://www.w3.org/2000/svg">
<path fill-rule="evenodd" clip-rule="evenodd" d="M6.35408 17.3333C5.68165 17.3333 5.11445 17.834 5.03105 18.5012L4.36438 23.8346C4.26491 24.6304 4.88542 25.3333 5.68742 25.3333H12.9792C13.7812 25.3333 14.4018 24.6304 14.3023 23.8346L13.6356 18.5012C13.5522 17.834 12.985 17.3333 12.3126 17.3333H6.35408ZM2.38497 18.1705C2.63519 16.1688 4.33679 14.6666 6.35408 14.6666H12.3126C14.3299 14.6666 16.0315 16.1688 16.2817 18.1705L16.9484 23.5038C17.2468 25.8912 15.3852 28 12.9792 28H5.68742C3.28143 28 1.41988 25.8912 1.71831 23.5038L2.38497 18.1705Z" fill="#777E91"/>
<path fill-rule="evenodd" clip-rule="evenodd" d="M19.6874 17.3333C19.015 17.3333 18.4478 17.834 18.3644 18.5012L17.6977 23.8346C17.5982 24.6304 18.2187 25.3333 19.0207 25.3333H26.3126C27.1146 25.3333 27.7351 24.6304 27.6356 23.8346L26.9689 18.5012C26.8855 17.834 26.3183 17.3333 25.6459 17.3333H19.6874ZM15.7183 18.1705C15.9685 16.1688 17.6701 14.6666 19.6874 14.6666H25.6459C27.6632 14.6666 29.3648 16.1688 29.615 18.1705L30.2817 23.5038C30.5801 25.8912 28.7186 28 26.3126 28H19.0207C16.6148 28 14.7532 25.8912 15.0516 23.5038L15.7183 18.1705Z" fill="#777E91"/>
<path fill-rule="evenodd" clip-rule="evenodd" d="M13.0208 6.66667C12.3483 6.66667 11.7811 7.16738 11.6977 7.83462L11.0311 13.168C10.9316 13.9638 11.5521 14.6667 12.3541 14.6667H19.6459C20.4479 14.6667 21.0684 13.9638 20.969 13.168L20.3023 7.83462C20.2189 7.16738 19.6517 6.66667 18.9793 6.66667H13.0208ZM9.05164 7.50386C9.30186 5.50215 11.0035 4 13.0208 4H18.9793C20.9965 4 22.6981 5.50215 22.9484 7.50386L23.615 12.8372C23.9135 15.2246 22.0519 17.3333 19.6459 17.3333H12.3541C9.9481 17.3333 8.08655 15.2246 8.38498 12.8372L9.05164 7.50386Z" fill="#777E91"/>
</svg>
