<svg width="49" height="48" viewBox="0 0 49 48" fill="none" xmlns="http://www.w3.org/2000/svg">
<path d="M11.5 16L20.6765 16" stroke="#B4B8C0" stroke-linecap="round"/>
<path d="M9.5 20.0781H16.1275H22.7549" stroke="#B4B8C0" stroke-linecap="round"/>
<path d="M9.5 24H14.5H19.5" stroke="#B4B8C0" stroke-linecap="round"/>
<path d="M38.4997 27.5V11.7059C38.4997 11.316 38.1836 11 37.7938 11H4.53889C4.14904 11 3.83301 11.316 3.83301 11.7059V32.7255C3.83301 33.1153 4.14904 33.4314 4.53889 33.4314H21" stroke="#B4B8C0" stroke-width="2"/>
<path d="M28 30C33.2467 30 37.5 28.2091 37.5 26C37.5 23.7909 33.2467 22 28 22C22.7533 22 18.5 23.7909 18.5 26C18.5 28.2091 22.7533 30 28 30Z" stroke="#B4B8C0" stroke-width="2" stroke-linecap="round" stroke-linejoin="round"/>
<path d="M18.5 26V30.7368C18.5 33.0934 22.7512 35 28 35C33.2487 35 37.5 33.0934 37.5 30.7368V26" stroke="#B4B8C0" stroke-width="2" stroke-linecap="round" stroke-linejoin="round"/>
<path d="M23.5 30V34" stroke="#B4B8C0" stroke-width="2" stroke-linecap="round" stroke-linejoin="round"/>
<path d="M37.7129 28C42.154 28.3815 45.5 30.0084 45.5 31.9607C45.5 34.1935 41.1441 36 35.7662 36C33.3814 36 31.1913 35.641 29.5 35.0575" stroke="#B4B8C0" stroke-width="2" stroke-linecap="round" stroke-linejoin="round"/>
<path d="M25.5 35.2329V36.7368C25.5 39.0934 29.975 41 35.5 41C41.025 41 45.5 39.0934 45.5 36.7368V32" stroke="#B4B8C0" stroke-width="2" stroke-linecap="round" stroke-linejoin="round"/>
<path d="M39.5 36V40" stroke="#B4B8C0" stroke-width="2" stroke-linecap="round" stroke-linejoin="round"/>
<path d="M31.5 30V40" stroke="#B4B8C0" stroke-width="2" stroke-linecap="round" stroke-linejoin="round"/>
</svg>
