<svg width="24" height="24" viewBox="0 0 24 24" fill="none" xmlns="http://www.w3.org/2000/svg">
<path fill-rule="evenodd" clip-rule="evenodd" d="M12 18C15.3137 18 18 15.3137 18 12C18 8.68629 15.3137 6 12 6C8.68629 6 6 8.68629 6 12C6 15.3137 8.68629 18 12 18ZM12 19.5C16.1421 19.5 19.5 16.1421 19.5 12C19.5 7.85786 16.1421 4.5 12 4.5C7.85786 4.5 4.5 7.85786 4.5 12C4.5 16.1421 7.85786 19.5 12 19.5Z" fill="#777E91"/>
<path fill-rule="evenodd" clip-rule="evenodd" d="M9.21967 9.21967C9.51256 8.92678 9.98744 8.92678 10.2803 9.21967L12 10.9393L13.7197 9.21967C14.0126 8.92678 14.4874 8.92678 14.7803 9.21967C15.0732 9.51256 15.0732 9.98744 14.7803 10.2803L13.0607 12L14.7803 13.7197C15.0732 14.0126 15.0732 14.4874 14.7803 14.7803C14.4874 15.0732 14.0126 15.0732 13.7197 14.7803L12 13.0607L10.2803 14.7803C9.98744 15.0732 9.51256 15.0732 9.21967 14.7803C8.92678 14.4874 8.92678 14.0126 9.21967 13.7197L10.9393 12L9.21967 10.2803C8.92678 9.98744 8.92678 9.51256 9.21967 9.21967Z" fill="#777E91"/>
</svg>
