<svg width="32" height="32" viewBox="0 0 32 32" fill="none" xmlns="http://www.w3.org/2000/svg">
<path fill-rule="evenodd" clip-rule="evenodd" d="M26.6667 6.66667H5.33334C4.59696 6.66667 4 7.26362 4 8V24C4 24.7364 4.59696 25.3333 5.33334 25.3333H26.6667C27.403 25.3333 28 24.7364 28 24V8C28 7.26362 27.403 6.66667 26.6667 6.66667ZM5.33334 4C3.1242 4 1.33334 5.79086 1.33334 8V24C1.33334 26.2091 3.1242 28 5.33334 28H26.6667C28.8758 28 30.6667 26.2091 30.6667 24V8C30.6667 5.79086 28.8758 4 26.6667 4H5.33334Z" fill="#777E91"/>
<path d="M10.6667 20.6666C10.6667 21.7712 9.77123 22.6666 8.66666 22.6666C7.56209 22.6666 6.66666 21.7712 6.66666 20.6666C6.66666 19.5621 7.56209 18.6666 8.66666 18.6666C9.77123 18.6666 10.6667 19.5621 10.6667 20.6666Z" fill="#777E91"/>
<path d="M17.3333 20.6666C17.3333 21.7712 16.4379 22.6666 15.3333 22.6666C14.2288 22.6666 13.3333 21.7712 13.3333 20.6666C13.3333 19.5621 14.2288 18.6666 15.3333 18.6666C16.4379 18.6666 17.3333 19.5621 17.3333 20.6666Z" fill="#777E91"/>
<path d="M1.33334 10.6666H30.6667V13.3333H1.33334V10.6666Z" fill="#777E91"/>
</svg>
