<svg width="24" height="24" viewBox="0 0 24 24" fill="none" xmlns="http://www.w3.org/2000/svg">
<path d="M8.04666 18.4468L8.0464 18.4469C7.94366 18.4987 7.80559 18.5227 7.63706 18.5203C7.46905 18.518 7.27437 18.4895 7.06109 18.4397C6.63453 18.3402 6.13894 18.1567 5.64329 17.9339C4.66038 17.4919 3.68725 16.8995 3.2608 16.5114C3.23642 16.365 3.2395 16.128 3.26803 15.8181C3.29749 15.4981 3.35357 15.1051 3.43137 14.6629C3.58694 13.7787 3.82892 12.7005 4.11669 11.6214C4.40448 10.5424 4.7378 9.46352 5.07589 8.57799C5.24494 8.1352 5.41491 7.74146 5.58067 7.4205C5.74687 7.09868 5.90712 6.85343 6.05576 6.7048C6.66154 6.09901 7.60304 5.79298 8.40025 5.63929C8.79776 5.56265 9.15708 5.52432 9.41702 5.50515C9.54695 5.49557 9.65196 5.49078 9.72438 5.4884C9.76058 5.4872 9.78864 5.48661 9.80758 5.48631L9.82903 5.48605L9.83441 5.48602L9.83572 5.48601L9.83602 5.48601L9.8361 5.48601C10.0407 5.48601 10.2368 5.40475 10.3815 5.2601C10.5261 5.11546 10.6074 4.91927 10.6074 4.71471C10.6074 4.51015 10.5261 4.31396 10.3815 4.16932C10.2368 4.02467 10.0407 3.94341 9.8361 3.94341C9.76965 3.94341 8.96513 3.94346 7.97123 4.15094C6.97855 4.35816 5.78957 4.77378 4.96067 5.60996C4.78749 5.78409 4.59433 6.0815 4.39156 6.4666C4.18822 6.8528 3.97328 7.33097 3.75745 7.86974C3.32575 8.94733 2.88944 10.2699 2.53421 11.5893C2.17905 12.9084 1.90446 14.226 1.7969 15.2936C1.74314 15.8272 1.73091 16.3002 1.7719 16.6804C1.81264 17.0582 1.9069 17.3547 2.07548 17.5242L2.0758 17.5245C2.38388 17.829 3.2725 18.4592 4.33927 19.0129C5.40542 19.5663 6.66006 20.0489 7.7003 20.0491C8.0594 20.0588 8.41567 19.983 8.73967 19.8278L8.73968 19.8278L8.74076 19.8273C8.92242 19.7348 9.06009 19.5742 9.12368 19.3805C9.18727 19.1869 9.17162 18.9759 9.08013 18.7937C8.98901 18.6108 8.82902 18.4715 8.63527 18.4064C8.44147 18.3414 8.22976 18.3559 8.04666 18.4468Z" fill="#777E91" stroke="#777E91" stroke-width="0.1"/>
<path d="M14.9646 18.8162L14.9199 18.7937C14.8284 18.9759 14.8127 19.1869 14.8763 19.3805C14.9399 19.5742 15.0776 19.7348 15.2592 19.8273L15.2603 19.8278C15.5843 19.983 15.9406 20.0588 16.2997 20.0491C17.3399 20.0489 18.5946 19.5663 19.6607 19.0129C20.7275 18.4592 21.6161 17.829 21.9242 17.5245L21.9245 17.5242C22.0931 17.3547 22.1873 17.0582 22.2281 16.6804C22.2691 16.3002 22.2568 15.8272 22.2031 15.2936C22.0955 14.226 21.8209 12.9084 21.4658 11.5893C21.1105 10.2699 20.6742 8.94733 20.2425 7.86974C20.0267 7.33097 19.8118 6.8528 19.6084 6.4666C19.4056 6.08147 19.2125 5.78405 19.0393 5.60993L19.0391 5.60976C18.2103 4.78458 17.0215 4.36899 16.0289 4.15908C15.0351 3.94891 14.2307 3.94341 14.1639 3.94341C13.9593 3.94341 13.7632 4.02467 13.6185 4.16932C13.4739 4.31396 13.3926 4.51015 13.3926 4.71471C13.3926 4.91927 13.4739 5.11546 13.6185 5.2601C13.7632 5.40475 13.9593 5.48601 14.1639 5.48601C14.5208 5.48601 15.2182 5.54149 15.9516 5.72258C16.6861 5.90397 17.449 6.20955 17.9442 6.7048C18.0929 6.85343 18.2531 7.09878 18.4193 7.42079C18.5851 7.74193 18.755 8.13592 18.9241 8.57899C19.2622 9.46509 19.5955 10.5446 19.8833 11.6241C20.1711 12.7036 20.413 13.7821 20.5686 14.666C20.6464 15.1079 20.7025 15.5006 20.732 15.8201C20.7605 16.1295 20.7636 16.3658 20.7392 16.5114C20.3128 16.8995 19.3396 17.4919 18.3567 17.9339C17.8611 18.1567 17.3655 18.3402 16.9389 18.4397C16.7256 18.4895 16.5309 18.518 16.3629 18.5203C16.1944 18.5227 16.0563 18.4987 15.9536 18.4469L15.9533 18.4468C15.7702 18.3559 15.5585 18.3414 15.3647 18.4064C15.1709 18.4715 15.0109 18.6109 14.9198 18.7939L14.9646 18.8162ZM14.9646 18.8162C15.0497 18.645 15.1994 18.5147 15.3806 18.4538C15.5619 18.393 15.7599 18.4066 15.9311 18.4916L21.889 17.489C21.2831 18.0877 18.3547 19.9991 16.299 19.9991C15.9476 20.0087 15.599 19.9346 15.2819 19.7827C15.112 19.6962 14.9833 19.546 14.9238 19.3649C14.8644 19.1838 14.879 18.9865 14.9646 18.8162Z" fill="#777E91" stroke="#777E91" stroke-width="0.1"/>
<path d="M9.11479 14.6826C9.94451 14.6826 10.6074 13.9279 10.6074 13.0096C10.6074 12.0914 9.94451 11.3367 9.11479 11.3367C8.28508 11.3367 7.62219 12.0914 7.62219 13.0096C7.62219 13.9279 8.28508 14.6826 9.11479 14.6826Z" fill="#777E91" stroke="#777E91" stroke-width="0.1"/>
<path d="M14.8852 14.6826C15.7149 14.6826 16.3778 13.9279 16.3778 13.0096C16.3778 12.0914 15.7149 11.3367 14.8852 11.3367C14.0555 11.3367 13.3926 12.0914 13.3926 13.0096C13.3926 13.9279 14.0555 14.6826 14.8852 14.6826Z" fill="#777E91" stroke="#777E91" stroke-width="0.1"/>
<path d="M18.4259 8.7301C18.4797 8.64405 18.5161 8.54822 18.5328 8.4481C18.5496 8.34799 18.5464 8.24555 18.5235 8.14666C18.5005 8.04778 18.4583 7.95439 18.3992 7.87186C18.3401 7.78936 18.2654 7.71933 18.1792 7.66578C15.1254 5.7567 12.0984 5.71706 9.80467 6.17416C7.51225 6.63102 5.95038 7.58432 5.82075 7.6658C5.7347 7.71947 5.66005 7.78956 5.60108 7.87207C5.54209 7.9546 5.49993 8.04795 5.47701 8.14678C5.43073 8.34637 5.46563 8.55617 5.57404 8.73003C5.68244 8.90388 5.85547 9.02756 6.05506 9.07384C6.25466 9.12012 6.46446 9.08522 6.63832 8.97682L6.63861 8.97663C6.74367 8.91009 8.10471 8.08381 10.1001 7.68779C12.0946 7.29194 14.7208 7.32626 17.3616 8.97679L17.3618 8.97689C17.4845 9.05293 17.6261 9.09302 17.7704 9.09258C17.9015 9.09283 18.0304 9.05968 18.1451 8.99627C18.2598 8.93285 18.3564 8.84124 18.4259 8.7301ZM18.4259 8.7301L18.3835 8.70357L18.4259 8.73007C18.4259 8.73008 18.4259 8.73009 18.4259 8.7301ZM5.84728 7.70818C5.76677 7.75838 5.69693 7.82395 5.64176 7.90114C5.58658 7.97834 5.54715 8.06564 5.52572 8.15807C5.48243 8.34474 5.51508 8.54097 5.61646 8.70357C5.71785 8.86618 5.87969 8.98185 6.06636 9.02513C6.25303 9.06842 6.44926 9.03578 6.61186 8.93439C6.82825 8.79734 12.0793 5.6164 17.3881 8.93439L5.84728 7.70818Z" fill="#777E91" stroke="#777E91" stroke-width="0.1"/>
<path d="M11.7548 18.5416C10.0656 18.5434 8.40174 18.1334 6.90708 17.3476C6.87156 17.4112 6.82822 17.4703 6.77803 17.5234L6.77721 17.5242L6.7772 17.5242C6.7055 17.5965 6.62019 17.6539 6.5262 17.693C6.43221 17.7322 6.3314 17.7524 6.22958 17.7524C6.12776 17.7524 6.02694 17.7322 5.93295 17.693C5.83925 17.654 5.75418 17.5969 5.68261 17.5249C5.12832 17.0053 4.79062 16.2956 4.7371 15.5378L4.73686 15.5344L4.73697 15.5344C4.73668 15.3898 4.77702 15.2481 4.8534 15.1253C4.92968 15.0027 5.03886 14.904 5.16849 14.8404C5.29902 14.7735 5.44592 14.7452 5.59197 14.7589C5.73816 14.7726 5.87742 14.8277 5.99337 14.9177L5.99419 14.9184L5.99418 14.9184C7.69059 16.2935 9.81574 17.0299 11.9993 16.999L12.001 16.999C14.1894 17.0414 16.3221 16.3068 18.0202 14.9256L18.021 14.9249L18.021 14.925C18.1347 14.8367 18.2708 14.7819 18.4139 14.7669C18.557 14.752 18.7015 14.7773 18.8309 14.8401L18.8311 14.8402C18.9609 14.9038 19.0702 15.0026 19.1466 15.1253C19.223 15.2481 19.2633 15.3898 19.263 15.5344L19.263 15.5378L19.2629 15.5378C19.2094 16.2956 18.8717 17.0053 18.3174 17.5249C18.2458 17.5969 18.1607 17.654 18.067 17.693C17.9731 17.7322 17.8722 17.7524 17.7704 17.7524C17.6686 17.7524 17.5678 17.7322 17.4738 17.693C17.3798 17.6539 17.2945 17.5965 17.2228 17.5242L17.222 17.5234L17.222 17.5234C17.1718 17.4703 17.1284 17.4112 17.0929 17.3476C15.5983 18.1334 13.9344 18.5434 12.2452 18.5416M11.7548 18.5416H11.7548V18.4916L11.7548 18.5416ZM11.7548 18.5416H12.2452M12.2452 18.5416H12.2452V18.4916L12.2452 18.5416Z" fill="#777E91" stroke="#777E91" stroke-width="0.1"/>
</svg>
