<svg width="32" height="32" viewBox="0 0 32 32" fill="none" xmlns="http://www.w3.org/2000/svg">
    <path d="M10.0375 14.4625C9.90159 14.3207 9.80931 14.1427 9.77163 13.9499C9.73396 13.7571 9.75248 13.5576 9.825 13.375C9.89957 13.1907 10.0274 13.0327 10.1922 12.9214C10.3569 12.8101 10.5511 12.7504 10.75 12.75H15V5C15 4.73478 15.1054 4.48043 15.2929 4.29289C15.4804 4.10536 15.7348 4 16 4C16.2652 4 16.5196 4.10536 16.7071 4.29289C16.8946 4.48043 17 4.73478 17 5V12.75H21.25C21.4489 12.7504 21.6431 12.8101 21.8078 12.9214C21.9726 13.0327 22.1004 13.1907 22.175 13.375C22.2475 13.5576 22.266 13.7571 22.2284 13.9499C22.1907 14.1427 22.0984 14.3207 21.9625 14.4625L16.7125 19.7125C16.5214 19.8973 16.2659 20.0006 16 20.0006C15.7341 20.0006 15.4786 19.8973 15.2875 19.7125L10.0375 14.4625ZM27 18C26.7348 18 26.4804 18.1054 26.2929 18.2929C26.1054 18.4804 26 18.7348 26 19V26H6V19C6 18.7348 5.89464 18.4804 5.70711 18.2929C5.51957 18.1054 5.26522 18 5 18C4.73478 18 4.48043 18.1054 4.29289 18.2929C4.10536 18.4804 4 18.7348 4 19V26C4 26.5304 4.21071 27.0391 4.58579 27.4142C4.96086 27.7893 5.46957 28 6 28H26C26.5304 28 27.0391 27.7893 27.4142 27.4142C27.7893 27.0391 28 26.5304 28 26V19C28 18.7348 27.8946 18.4804 27.7071 18.2929C27.5196 18.1054 27.2652 18 27 18Z" fill="#777E91" />
</svg>
