<svg width="24" height="24" viewBox="0 0 24 24" fill="none" xmlns="http://www.w3.org/2000/svg">
<path fill-rule="evenodd" clip-rule="evenodd" d="M12 20C16.4183 20 20 16.4183 20 12C20 7.58172 16.4183 4 12 4C7.58172 4 4 7.58172 4 12C4 16.4183 7.58172 20 12 20ZM12 22C17.5228 22 22 17.5228 22 12C22 6.47715 17.5228 2 12 2C6.47715 2 2 6.47715 2 12C2 17.5228 6.47715 22 12 22Z" fill="#777E91"/>
<path d="M15.4742 21.3801C15.1191 18.8499 14.5275 16.5536 13.6948 14.383C11.6565 15.3712 9.3767 17.0979 6.24194 20.177C5.69348 19.79 5.18569 19.3493 4.72624 18.8625C8.0186 15.6157 10.5332 13.6745 12.9161 12.5384C12.6104 11.8757 12.2808 11.2224 11.927 10.5751C9.12152 11.4593 5.92268 11.9252 2 11.9918C2.00055 11.3054 2.07028 10.6351 2.20258 9.98757C5.66451 9.9134 8.46502 9.51271 10.8889 8.80056C9.76382 6.99526 8.44516 5.2133 6.9297 3.37896C7.52061 3.03068 8.15046 2.74142 8.81114 2.51929C10.3404 4.39885 11.6803 6.24617 12.8277 8.13535C14.9834 7.2833 16.8941 6.13333 18.8014 4.66923C19.2917 5.12427 19.7362 5.62789 20.1273 6.17242C18.1435 7.70692 16.1205 8.95062 13.8292 9.88818C14.1664 10.5179 14.4827 11.1546 14.7782 11.8008C17.0448 11.0827 19.2759 11.0085 21.9507 11.0009C21.9833 11.3295 22 11.6629 22 12.0001C22 12.338 21.9832 12.672 21.9505 13.0013C19.3662 13.0105 17.4496 13.0833 15.5569 13.6531C16.3696 15.7686 16.9708 18.0051 17.3568 20.4458C16.7682 20.8199 16.1378 21.1342 15.4742 21.3801Z" fill="#777E91"/>
</svg>
