<svg width="20" height="20" viewBox="0 0 20 20" fill="none" xmlns="http://www.w3.org/2000/svg">
<path fill-rule="evenodd" clip-rule="evenodd" d="M9.99999 16.6667C13.6819 16.6667 16.6667 13.682 16.6667 10.0001C16.6667 6.31818 13.6819 3.33341 9.99999 3.33341C6.31809 3.33341 3.33332 6.31818 3.33332 10.0001C3.33332 13.682 6.31809 16.6667 9.99999 16.6667ZM9.99999 18.3334C14.6023 18.3334 18.3333 14.6024 18.3333 10.0001C18.3333 5.39771 14.6023 1.66675 9.99999 1.66675C5.39761 1.66675 1.66666 5.39771 1.66666 10.0001C1.66666 14.6024 5.39761 18.3334 9.99999 18.3334Z" fill="#777E91"/>
<path d="M9.99999 8.33325C9.99999 7.87302 10.3731 7.49992 10.8333 7.49992H11.6667C12.1269 7.49992 12.5 7.12683 12.5 6.66659C12.5 6.20635 12.1269 5.83325 11.6667 5.83325H10.8333C9.45257 5.83325 8.33332 6.95254 8.33332 8.33325V9.99992H7.49999C7.03976 9.99992 6.66666 10.373 6.66666 10.8333C6.66666 11.2935 7.03975 11.6666 7.49999 11.6666H8.33332V16.6666C8.33332 17.1268 8.70641 17.4999 9.16666 17.4999C9.62691 17.4999 9.99999 17.1268 9.99999 16.6666V11.6666H11.6667C12.1269 11.6666 12.5 11.2935 12.5 10.8333C12.5 10.373 12.1269 9.99992 11.6667 9.99992H9.99999V8.33325Z" fill="#777E91"/>
</svg>
