<svg width="24" height="24" viewBox="0 0 24 24" fill="none" xmlns="http://www.w3.org/2000/svg">
<g id="Icons/Regular/FileZip">
<path id="Vector (Stroke)" fill-rule="evenodd" clip-rule="evenodd" d="M4.18934 2.68934C4.47064 2.40804 4.85217 2.25 5.25 2.25H14.25C14.4489 2.25 14.6397 2.32902 14.7803 2.46967L20.0303 7.71967C20.171 7.86032 20.25 8.05109 20.25 8.25V12C20.25 12.4142 19.9142 12.75 19.5 12.75C19.0858 12.75 18.75 12.4142 18.75 12V8.56066L13.9393 3.75L5.25 3.75L5.25 12C5.25 12.4142 4.91421 12.75 4.5 12.75C4.08579 12.75 3.75 12.4142 3.75 12V3.75C3.75 3.35217 3.90804 2.97064 4.18934 2.68934Z" fill="#CCD0D5"/>
<path id="Vector (Stroke)_2" fill-rule="evenodd" clip-rule="evenodd" d="M14.25 2.25C14.6642 2.25 15 2.58579 15 3V7.5H19.5C19.9142 7.5 20.25 7.83579 20.25 8.25C20.25 8.66421 19.9142 9 19.5 9H14.25C13.8358 9 13.5 8.66421 13.5 8.25V3C13.5 2.58579 13.8358 2.25 14.25 2.25Z" fill="#CCD0D5"/>
<path id="Vector (Stroke)_3" fill-rule="evenodd" clip-rule="evenodd" d="M15 15.75C15 15.3358 15.3358 15 15.75 15H17.25C17.8467 15 18.419 15.2371 18.841 15.659C19.2629 16.081 19.5 16.6533 19.5 17.25C19.5 17.8467 19.2629 18.419 18.841 18.841C18.419 19.2629 17.8467 19.5 17.25 19.5H16.5V20.25C16.5 20.6642 16.1642 21 15.75 21C15.3358 21 15 20.6642 15 20.25V15.75ZM16.5 18H17.25C17.4489 18 17.6397 17.921 17.7803 17.7803C17.921 17.6397 18 17.4489 18 17.25C18 17.0511 17.921 16.8603 17.7803 16.7197C17.6397 16.579 17.4489 16.5 17.25 16.5H16.5V18Z" fill="#CCD0D5"/>
<path id="Vector (Stroke)_4" fill-rule="evenodd" clip-rule="evenodd" d="M12 15C12.4142 15 12.75 15.3358 12.75 15.75V20.25C12.75 20.6642 12.4142 21 12 21C11.5858 21 11.25 20.6642 11.25 20.25V15.75C11.25 15.3358 11.5858 15 12 15Z" fill="#CCD0D5"/>
<path id="Vector (Stroke)_5" fill-rule="evenodd" clip-rule="evenodd" d="M4.5 15.75C4.5 15.3358 4.83579 15 5.25 15H8.25C8.5266 15 8.78074 15.1522 8.91126 15.3961C9.04177 15.64 9.02747 15.9359 8.87404 16.166L6.65139 19.5H8.25C8.66422 19.5 9 19.8358 9 20.25C9 20.6642 8.66422 21 8.25 21H5.25C4.9734 21 4.71926 20.8478 4.58875 20.6039C4.45823 20.36 4.47254 20.0641 4.62596 19.834L6.84861 16.5H5.25C4.83579 16.5 4.5 16.1642 4.5 15.75Z" fill="#CCD0D5"/>
</g>
</svg>
