<svg width="24" height="24" viewBox="0 0 24 24" fill="none" xmlns="http://www.w3.org/2000/svg">
<path d="M20.8823 19.2225C20.8823 19.3775 20.8873 19.56 20.8973 19.77C20.9073 19.91 20.9123 20.0025 20.9123 20.0475C20.9123 20.1825 20.8473 20.25 20.7173 20.25H19.7423V19.995C19.7423 19.745 19.6448 19.4675 19.4498 19.1625L17.7923 16.6125V20.25H16.6523V15H17.6873C17.7523 15 17.8048 15.01 17.8448 15.03C17.8898 15.045 17.9323 15.085 17.9723 15.15L19.7423 17.8425V15H20.8823V19.2225Z" fill="#CCD0D5"/>
<path d="M13.6127 20.3258C12.8977 20.3258 12.3402 20.0883 11.9402 19.6133C11.5452 19.1333 11.3477 18.4608 11.3477 17.5958C11.3477 16.7508 11.5452 16.0958 11.9402 15.6308C12.3402 15.1608 12.8977 14.9258 13.6127 14.9258C14.3277 14.9258 14.8827 15.1608 15.2777 15.6308C15.6777 16.0958 15.8777 16.7508 15.8777 17.5958C15.8777 18.4608 15.6777 19.1333 15.2777 19.6133C14.8827 20.0883 14.3277 20.3258 13.6127 20.3258ZM13.6127 19.5008C13.9877 19.5008 14.2602 19.3508 14.4302 19.0508C14.6052 18.7458 14.6927 18.2608 14.6927 17.5958C14.6927 16.9458 14.6077 16.4758 14.4377 16.1858C14.2677 15.8958 13.9927 15.7508 13.6127 15.7508C13.2327 15.7508 12.9577 15.8958 12.7877 16.1858C12.6177 16.4758 12.5327 16.9458 12.5327 17.5958C12.5327 18.2608 12.6177 18.7458 12.7877 19.0508C12.9627 19.3508 13.2377 19.5008 13.6127 19.5008Z" fill="#CCD0D5"/>
<path d="M8.73812 20.3258C8.12312 20.3258 7.64063 20.2208 7.29063 20.0108C6.94063 19.8008 6.76562 19.5133 6.76562 19.1483C6.76562 18.9733 6.83812 18.8358 6.98312 18.7358C7.13312 18.6358 7.34312 18.5833 7.61313 18.5783C7.64312 18.8733 7.75562 19.1008 7.95062 19.2608C8.15062 19.4208 8.41812 19.5008 8.75312 19.5008C9.36812 19.5008 9.67562 19.2733 9.67562 18.8183C9.67562 18.6383 9.59063 18.4908 9.42063 18.3758C9.25563 18.2608 8.96562 18.1433 8.55062 18.0233C7.96062 17.8583 7.52813 17.6483 7.25313 17.3933C6.97813 17.1333 6.84062 16.8008 6.84062 16.3958C6.84062 15.9408 7.01563 15.5833 7.36563 15.3233C7.72063 15.0583 8.20312 14.9258 8.81312 14.9258C9.30312 14.9258 9.72312 15.0433 10.0731 15.2783C10.4231 15.5083 10.6631 15.8308 10.7931 16.2458C10.7081 16.3308 10.5906 16.4058 10.4406 16.4708C10.2906 16.5358 10.1581 16.5683 10.0431 16.5683C9.95312 16.5683 9.88312 16.5508 9.83312 16.5158C9.78312 16.4758 9.73062 16.4033 9.67562 16.2983C9.57562 16.1033 9.46063 15.9633 9.33063 15.8783C9.20063 15.7933 9.02812 15.7508 8.81312 15.7508C8.27812 15.7508 8.01063 15.9283 8.01063 16.2833C8.01063 16.4233 8.03812 16.5383 8.09312 16.6283C8.14812 16.7133 8.24312 16.7933 8.37812 16.8683C8.51312 16.9383 8.71812 17.0183 8.99312 17.1083C9.49312 17.2733 9.87562 17.4258 10.1406 17.5658C10.4056 17.7008 10.5906 17.8483 10.6956 18.0083C10.8056 18.1683 10.8606 18.3658 10.8606 18.6008C10.8606 18.9408 10.7706 19.2408 10.5906 19.5008C10.4156 19.7608 10.1681 19.9633 9.84812 20.1083C9.52812 20.2533 9.15812 20.3258 8.73812 20.3258Z" fill="#CCD0D5"/>
<path d="M4.1475 20.325C3.9375 20.325 3.715 20.3025 3.48 20.2575C3.245 20.2175 3.085 20.1725 3 20.1225C3 19.8425 3.025 19.6525 3.075 19.5525C3.125 19.4475 3.1925 19.395 3.2775 19.395C3.3175 19.395 3.3625 19.4 3.4125 19.41C3.4675 19.42 3.5075 19.4275 3.5325 19.4325C3.7125 19.4775 3.8725 19.5 4.0125 19.5C4.2175 19.5 4.3725 19.44 4.4775 19.32C4.5875 19.2 4.6425 19.0275 4.6425 18.8025V15H5.7975V18.8025C5.7975 19.0975 5.7275 19.36 5.5875 19.59C5.4475 19.82 5.2525 20 5.0025 20.13C4.7525 20.26 4.4675 20.325 4.1475 20.325Z" fill="#CCD0D5"/>
<path fill-rule="evenodd" clip-rule="evenodd" d="M4.18934 2.68934C4.47064 2.40804 4.85217 2.25 5.25 2.25H14.25C14.4489 2.25 14.6397 2.32902 14.7803 2.46967L20.0303 7.71967C20.171 7.86032 20.25 8.05109 20.25 8.25V12C20.25 12.4142 19.9142 12.75 19.5 12.75C19.0858 12.75 18.75 12.4142 18.75 12V8.56066L13.9393 3.75L5.25 3.75L5.25 12C5.25 12.4142 4.91421 12.75 4.5 12.75C4.08579 12.75 3.75 12.4142 3.75 12V3.75C3.75 3.35217 3.90804 2.97064 4.18934 2.68934Z" fill="#CCD0D5"/>
<path fill-rule="evenodd" clip-rule="evenodd" d="M14.25 2.25C14.6642 2.25 15 2.58579 15 3V7.5H19.5C19.9142 7.5 20.25 7.83579 20.25 8.25C20.25 8.66421 19.9142 9 19.5 9H14.25C13.8358 9 13.5 8.66421 13.5 8.25V3C13.5 2.58579 13.8358 2.25 14.25 2.25Z" fill="#CCD0D5"/>
</svg>
