<svg width="20" height="21" viewBox="0 0 20 21" fill="none" xmlns="http://www.w3.org/2000/svg">
<mask id="path-1-inside-1_512_19599" fill="white">
<path d="M10.625 12.9492H3.125C2.95924 12.9492 2.80027 13.0151 2.68306 13.1323C2.56585 13.2495 2.5 13.4085 2.5 13.5742C2.5 13.74 2.56585 13.899 2.68306 14.0162C2.80027 14.1334 2.95924 14.1992 3.125 14.1992H10.625C10.7908 14.1992 10.9497 14.1334 11.0669 14.0162C11.1842 13.899 11.25 13.74 11.25 13.5742C11.25 13.4085 11.1842 13.2495 11.0669 13.1323C10.9497 13.0151 10.7908 12.9492 10.625 12.9492Z"/>
</mask>
<path d="M10.625 12.9492H3.125C2.95924 12.9492 2.80027 13.0151 2.68306 13.1323C2.56585 13.2495 2.5 13.4085 2.5 13.5742C2.5 13.74 2.56585 13.899 2.68306 14.0162C2.80027 14.1334 2.95924 14.1992 3.125 14.1992H10.625C10.7908 14.1992 10.9497 14.1334 11.0669 14.0162C11.1842 13.899 11.25 13.74 11.25 13.5742C11.25 13.4085 11.1842 13.2495 11.0669 13.1323C10.9497 13.0151 10.7908 12.9492 10.625 12.9492Z" fill="white"/>
<path d="M2.5 13.5742H1H2.5ZM10.625 11.4492H3.125V14.4492H10.625V11.4492ZM3.125 11.4492C2.56142 11.4492 2.02091 11.6731 1.6224 12.0716L3.74372 14.1929C3.57962 14.357 3.35706 14.4492 3.125 14.4492V11.4492ZM1.6224 12.0716C1.22388 12.4701 1 13.0106 1 13.5742H4C4 13.8063 3.90781 14.0288 3.74372 14.1929L1.6224 12.0716ZM1 13.5742C1 14.1378 1.22388 14.6783 1.6224 15.0768L3.74372 12.9555C3.90781 13.1196 4 13.3422 4 13.5742H1ZM1.6224 15.0768C2.02091 15.4753 2.56142 15.6992 3.125 15.6992V12.6992C3.35706 12.6992 3.57962 12.7914 3.74372 12.9555L1.6224 15.0768ZM3.125 15.6992H10.625V12.6992H3.125V15.6992ZM10.625 15.6992C11.1886 15.6992 11.7291 15.4753 12.1276 15.0768L10.0063 12.9555C10.1704 12.7914 10.3929 12.6992 10.625 12.6992V15.6992ZM12.1276 15.0768C12.5261 14.6783 12.75 14.1378 12.75 13.5742H9.75C9.75 13.3422 9.84219 13.1196 10.0063 12.9555L12.1276 15.0768ZM12.75 13.5742C12.75 13.0106 12.5261 12.4701 12.1276 12.0716L10.0063 14.1929C9.84219 14.0288 9.75 13.8063 9.75 13.5742H12.75ZM12.1276 12.0716C11.7291 11.6731 11.1886 11.4492 10.625 11.4492V14.4492C10.3929 14.4492 10.1704 14.357 10.0063 14.1929L12.1276 12.0716Z" fill="white" mask="url(#path-1-inside-1_512_19599)"/>
<path d="M16.875 12.9492H13.75V11.6992C13.75 11.5335 13.6842 11.3745 13.5669 11.2573C13.4497 11.1401 13.2908 11.0742 13.125 11.0742C12.9592 11.0742 12.8003 11.1401 12.6831 11.2573C12.5658 11.3745 12.5 11.5335 12.5 11.6992V15.4492C12.5 15.615 12.5658 15.774 12.6831 15.8912C12.8003 16.0084 12.9592 16.0742 13.125 16.0742C13.2908 16.0742 13.4497 16.0084 13.5669 15.8912C13.6842 15.774 13.75 15.615 13.75 15.4492V14.1992H16.875C17.0408 14.1992 17.1997 14.1334 17.3169 14.0162C17.4342 13.899 17.5 13.74 17.5 13.5742C17.5 13.4085 17.4342 13.2495 17.3169 13.1323C17.1997 13.0151 17.0408 12.9492 16.875 12.9492Z" fill="white"/>
<path d="M3.125 7.32422H5.625C5.79076 7.32422 5.94973 7.25837 6.06694 7.14116C6.18415 7.02395 6.25 6.86498 6.25 6.69922C6.25 6.53346 6.18415 6.37449 6.06694 6.25728C5.94973 6.14007 5.79076 6.07422 5.625 6.07422H3.125C2.95924 6.07422 2.80027 6.14007 2.68306 6.25728C2.56585 6.37449 2.5 6.53346 2.5 6.69922C2.5 6.86498 2.56585 7.02395 2.68306 7.14116C2.80027 7.25837 2.95924 7.32422 3.125 7.32422Z" fill="white"/>
<path d="M8.125 9.19922C8.29076 9.19922 8.44973 9.13337 8.56694 9.01616C8.68415 8.89895 8.75 8.73998 8.75 8.57422V7.32422H16.875C17.0408 7.32422 17.1997 7.25837 17.3169 7.14116C17.4342 7.02395 17.5 6.86498 17.5 6.69922C17.5 6.53346 17.4342 6.37449 17.3169 6.25728C17.1997 6.14007 17.0408 6.07422 16.875 6.07422H8.75V4.82422C8.75 4.65846 8.68415 4.49949 8.56694 4.38228C8.44973 4.26507 8.29076 4.19922 8.125 4.19922C7.95924 4.19922 7.80027 4.26507 7.68306 4.38228C7.56585 4.49949 7.5 4.65846 7.5 4.82422V8.57422C7.5 8.73998 7.56585 8.89895 7.68306 9.01616C7.80027 9.13337 7.95924 9.19922 8.125 9.19922Z" fill="white"/>
</svg>
