<svg xmlns="http://www.w3.org/2000/svg" width="16" height="16" viewBox="0 0 16 16" fill="none">
    <path fill-rule="evenodd" clip-rule="evenodd" d="M7.99992 13.3333C10.9454 13.3333 13.3333 10.9454 13.3333 7.99992C13.3333 5.0544 10.9454 2.66659 7.99992 2.66659C5.0544 2.66659 2.66659 5.0544 2.66659 7.99992C2.66659 10.9454 5.0544 13.3333 7.99992 13.3333ZM7.99992 14.6666C11.6818 14.6666 14.6666 11.6818 14.6666 7.99992C14.6666 4.31802 11.6818 1.33325 7.99992 1.33325C4.31802 1.33325 1.33325 4.31802 1.33325 7.99992C1.33325 11.6818 4.31802 14.6666 7.99992 14.6666Z" fill="#777E91"/>
    <path fill-rule="evenodd" clip-rule="evenodd" d="M9.16453 12.1177C9.657 11.1327 10.0001 9.67876 10.0001 7.99992C10.0001 6.32108 9.657 4.8671 9.16453 3.88216C8.63219 2.81747 8.14345 2.66659 8.00008 2.66659C7.85671 2.66659 7.36797 2.81747 6.83563 3.88216C6.34316 4.8671 6.00008 6.32108 6.00008 7.99992C6.00008 9.67876 6.34316 11.1327 6.83563 12.1177C7.36797 13.1824 7.85671 13.3333 8.00008 13.3333C8.14345 13.3333 8.63219 13.1824 9.16453 12.1177ZM8.00008 14.6666C9.84103 14.6666 11.3334 11.6818 11.3334 7.99992C11.3334 4.31802 9.84103 1.33325 8.00008 1.33325C6.15913 1.33325 4.66675 4.31802 4.66675 7.99992C4.66675 11.6818 6.15913 14.6666 8.00008 14.6666Z" fill="#777E91"/>
    <path fill-rule="evenodd" clip-rule="evenodd" d="M14.6337 8.66659C14.6554 8.44731 14.6666 8.22492 14.6666 7.99992C14.6666 7.77492 14.6554 7.55252 14.6337 7.33325H1.36617C1.3444 7.55252 1.33325 7.77492 1.33325 7.99992C1.33325 8.22492 1.3444 8.44731 1.36617 8.66659H14.6337Z" fill="#777E91"/>
</svg>