<svg width="24" height="24" viewBox="0 0 24 24" fill="none" xmlns="http://www.w3.org/2000/svg">
<path fill-rule="evenodd" clip-rule="evenodd" d="M17.5 15C17.0478 15 16.4089 15.0625 15.7438 15.1536C15.4331 15.1962 15.1962 15.4331 15.1536 15.7438C15.0625 16.4089 15 17.0478 15 17.5C15 17.9522 15.0625 18.5911 15.1536 19.2562C15.1962 19.5669 15.4331 19.8038 15.7438 19.8464C16.4089 19.9375 17.0478 20 17.5 20C17.9522 20 18.5911 19.9375 19.2562 19.8464C19.5669 19.8038 19.8038 19.5669 19.8464 19.2562C19.9375 18.5911 20 17.9522 20 17.5C20 17.0478 19.9375 16.4089 19.8464 15.7438C19.8038 15.4331 19.5669 15.1962 19.2562 15.1536C18.5911 15.0625 17.9522 15 17.5 15ZM15.4724 13.1721C14.2725 13.3364 13.3364 14.2725 13.1721 15.4724C13.0778 16.1606 13 16.9082 13 17.5C13 18.0918 13.0778 18.8394 13.1721 19.5276C13.3364 20.7275 14.2725 21.6636 15.4724 21.8279C16.1606 21.9222 16.9082 22 17.5 22C18.0918 22 18.8394 21.9222 19.5276 21.8279C20.7275 21.6636 21.6636 20.7275 21.8279 19.5276C21.9222 18.8394 22 18.0918 22 17.5C22 16.9082 21.9222 16.1606 21.8279 15.4724C21.6636 14.2725 20.7275 13.3364 19.5276 13.1721C18.8394 13.0778 18.0918 13 17.5 13C16.9082 13 16.1606 13.0778 15.4724 13.1721Z" fill="#777E91"/>
<path fill-rule="evenodd" clip-rule="evenodd" d="M6.5 15C6.04782 15 5.40893 15.0625 4.74381 15.1536C4.43308 15.1962 4.19615 15.4331 4.15359 15.7438C4.0625 16.4089 4 17.0478 4 17.5C4 17.9522 4.0625 18.5911 4.15359 19.2562C4.19615 19.5669 4.43308 19.8038 4.74381 19.8464C5.40893 19.9375 6.04782 20 6.5 20C6.95218 20 7.59107 19.9375 8.25619 19.8464C8.56692 19.8038 8.80385 19.5669 8.84641 19.2562C8.9375 18.5911 9 17.9522 9 17.5C9 17.0478 8.9375 16.4089 8.84641 15.7438C8.80385 15.4331 8.56692 15.1962 8.25619 15.1536C7.59107 15.0625 6.95218 15 6.5 15ZM4.47244 13.1721C3.27253 13.3364 2.33642 14.2725 2.17209 15.4724C2.07784 16.1606 2 16.9082 2 17.5C2 18.0918 2.07784 18.8394 2.17209 19.5276C2.33642 20.7275 3.27253 21.6636 4.47244 21.8279C5.16065 21.9222 5.90816 22 6.5 22C7.09184 22 7.83935 21.9222 8.52756 21.8279C9.72747 21.6636 10.6636 20.7275 10.8279 19.5276C10.9222 18.8394 11 18.0918 11 17.5C11 16.9082 10.9222 16.1606 10.8279 15.4724C10.6636 14.2725 9.72747 13.3364 8.52756 13.1721C7.83935 13.0778 7.09184 13 6.5 13C5.90816 13 5.16065 13.0778 4.47244 13.1721Z" fill="#777E91"/>
<path fill-rule="evenodd" clip-rule="evenodd" d="M17.5 4C17.0478 4 16.4089 4.0625 15.7438 4.15359C15.4331 4.19615 15.1962 4.43308 15.1536 4.74381C15.0625 5.40893 15 6.04782 15 6.5C15 6.95218 15.0625 7.59107 15.1536 8.25619C15.1962 8.56692 15.4331 8.80385 15.7438 8.84641C16.4089 8.9375 17.0478 9 17.5 9C17.9522 9 18.5911 8.9375 19.2562 8.84641C19.5669 8.80385 19.8038 8.56692 19.8464 8.25619C19.9375 7.59107 20 6.95218 20 6.5C20 6.04782 19.9375 5.40893 19.8464 4.74381C19.8038 4.43308 19.5669 4.19615 19.2562 4.15359C18.5911 4.0625 17.9522 4 17.5 4ZM15.4724 2.17209C14.2725 2.33642 13.3364 3.27253 13.1721 4.47244C13.0778 5.16065 13 5.90816 13 6.5C13 7.09184 13.0778 7.83935 13.1721 8.52756C13.3364 9.72747 14.2725 10.6636 15.4724 10.8279C16.1606 10.9222 16.9082 11 17.5 11C18.0918 11 18.8394 10.9222 19.5276 10.8279C20.7275 10.6636 21.6636 9.72747 21.8279 8.52756C21.9222 7.83935 22 7.09184 22 6.5C22 5.90816 21.9222 5.16065 21.8279 4.47244C21.6636 3.27253 20.7275 2.33642 19.5276 2.17209C18.8394 2.07784 18.0918 2 17.5 2C16.9082 2 16.1606 2.07784 15.4724 2.17209Z" fill="#777E91"/>
<path fill-rule="evenodd" clip-rule="evenodd" d="M6.5 4C6.04782 4 5.40893 4.0625 4.74381 4.15359C4.43308 4.19615 4.19615 4.43308 4.15359 4.74381C4.0625 5.40893 4 6.04782 4 6.5C4 6.95218 4.0625 7.59107 4.15359 8.25619C4.19615 8.56692 4.43308 8.80385 4.74381 8.84641C5.40893 8.9375 6.04782 9 6.5 9C6.95218 9 7.59107 8.9375 8.25619 8.84641C8.56692 8.80385 8.80385 8.56692 8.84641 8.25619C8.9375 7.59107 9 6.95218 9 6.5C9 6.04782 8.9375 5.40893 8.84641 4.74381C8.80385 4.43308 8.56692 4.19615 8.25619 4.15359C7.59107 4.0625 6.95218 4 6.5 4ZM4.47244 2.17209C3.27253 2.33642 2.33642 3.27253 2.17209 4.47244C2.07784 5.16065 2 5.90816 2 6.5C2 7.09184 2.07784 7.83935 2.17209 8.52756C2.33642 9.72747 3.27253 10.6636 4.47244 10.8279C5.16065 10.9222 5.90816 11 6.5 11C7.09184 11 7.83935 10.9222 8.52756 10.8279C9.72747 10.6636 10.6636 9.72747 10.8279 8.52756C10.9222 7.83935 11 7.09184 11 6.5C11 5.90816 10.9222 5.16065 10.8279 4.47244C10.6636 3.27253 9.72747 2.33642 8.52756 2.17209C7.83935 2.07784 7.09184 2 6.5 2C5.90816 2 5.16065 2.07784 4.47244 2.17209Z" fill="#777E91"/>
</svg>
