<svg width="20" height="20" viewBox="0 0 20 20" fill="none" xmlns="http://www.w3.org/2000/svg">
<path fill-rule="evenodd" clip-rule="evenodd" d="M13.3334 3.33341H6.66669C4.82574 3.33341 3.33335 4.8258 3.33335 6.66675V13.3334C3.33335 15.1743 4.82574 16.6667 6.66669 16.6667H13.3334C15.1743 16.6667 16.6667 15.1743 16.6667 13.3334V6.66675C16.6667 4.8258 15.1743 3.33341 13.3334 3.33341ZM6.66669 1.66675C3.90526 1.66675 1.66669 3.90532 1.66669 6.66675V13.3334C1.66669 16.0948 3.90526 18.3334 6.66669 18.3334H13.3334C16.0948 18.3334 18.3334 16.0948 18.3334 13.3334V6.66675C18.3334 3.90532 16.0948 1.66675 13.3334 1.66675H6.66669Z" fill="#777E91"/>
<path d="M14.1666 6.66667C14.6269 6.66667 15 6.29357 15 5.83333C15 5.3731 14.6269 5 14.1666 5C13.7064 5 13.3333 5.3731 13.3333 5.83333C13.3333 6.29357 13.7064 6.66667 14.1666 6.66667Z" fill="#777E91"/>
<path fill-rule="evenodd" clip-rule="evenodd" d="M14.1666 9.99992C14.1666 12.3011 12.3011 14.1666 9.99998 14.1666C7.6988 14.1666 5.83331 12.3011 5.83331 9.99992C5.83331 7.69874 7.6988 5.83325 9.99998 5.83325C12.3011 5.83325 14.1666 7.69874 14.1666 9.99992ZM12.5 9.99992C12.5 11.3807 11.3807 12.4999 9.99998 12.4999C8.61923 12.4999 7.49998 11.3807 7.49998 9.99992C7.49998 8.61917 8.61923 7.49992 9.99998 7.49992C11.3807 7.49992 12.5 8.61917 12.5 9.99992Z" fill="#777E91"/>
</svg>
