<svg xmlns="http://www.w3.org/2000/svg" width="16" height="16" viewBox="0 0 16 16" fill="none">
    <path fill-rule="evenodd" clip-rule="evenodd" d="M8.54698 7.99993C8.54698 9.36231 7.44276 10.464 6.08294 10.464C4.72311 10.464 3.6189 9.35975 3.6189 7.99993C3.6189 6.64011 4.72311 5.53589 6.08294 5.53589C7.44276 5.53589 8.54698 6.64011 8.54698 7.99993ZM10.0245 10.2698C10.7134 10.2698 11.2718 9.25357 11.2718 8C11.2718 6.74644 10.7134 5.73022 10.0245 5.73022C9.33556 5.73022 8.7771 6.74644 8.7771 8C8.7771 9.25357 9.33556 10.2698 10.0245 10.2698ZM11.9489 10.0746C12.1892 10.0746 12.3835 9.14677 12.3835 7.9991C12.3835 6.85399 12.1892 5.92358 11.9489 5.92358C11.7087 5.92358 11.5144 6.85143 11.5144 7.9991C11.5144 9.14677 11.7087 10.0746 11.9489 10.0746Z" fill="#777E91"/>
    <path fill-rule="evenodd" clip-rule="evenodd" d="M8 13.8C11.2033 13.8 13.8 11.2033 13.8 8C13.8 4.79675 11.2033 2.2 8 2.2C4.79675 2.2 2.2 4.79675 2.2 8C2.2 11.2033 4.79675 13.8 8 13.8ZM15 8C15 11.866 11.866 15 8 15C4.13401 15 1 11.866 1 8C1 4.13401 4.13401 1 8 1C11.866 1 15 4.13401 15 8Z" fill="#777E91"/>
</svg>