<svg width="16" height="16" viewBox="0 0 16 16" fill="none" xmlns="http://www.w3.org/2000/svg">
<path d="M5.33464 14H2.66797C2.49116 14 2.32159 13.9297 2.19656 13.8047C2.07154 13.6797 2.0013 13.5101 2.0013 13.3333V10.6666C2.0013 10.4898 1.93106 10.3202 1.80604 10.1952C1.68102 10.0702 1.51145 9.99996 1.33464 9.99996C1.15782 9.99996 0.988255 10.0702 0.863231 10.1952C0.738207 10.3202 0.667969 10.4898 0.667969 10.6666V13.3333C0.667969 13.8637 0.878682 14.3724 1.25376 14.7475C1.62883 15.1226 2.13754 15.3333 2.66797 15.3333H5.33464C5.51145 15.3333 5.68102 15.2631 5.80604 15.138C5.93106 15.013 6.0013 14.8434 6.0013 14.6666C6.0013 14.4898 5.93106 14.3202 5.80604 14.1952C5.68102 14.0702 5.51145 14 5.33464 14V14ZM14.668 9.99996C14.4912 9.99996 14.3216 10.0702 14.1966 10.1952C14.0715 10.3202 14.0013 10.4898 14.0013 10.6666V13.3333C14.0013 13.5101 13.9311 13.6797 13.806 13.8047C13.681 13.9297 13.5114 14 13.3346 14H10.668C10.4912 14 10.3216 14.0702 10.1966 14.1952C10.0715 14.3202 10.0013 14.4898 10.0013 14.6666C10.0013 14.8434 10.0715 15.013 10.1966 15.138C10.3216 15.2631 10.4912 15.3333 10.668 15.3333H13.3346C13.8651 15.3333 14.3738 15.1226 14.7488 14.7475C15.1239 14.3724 15.3346 13.8637 15.3346 13.3333V10.6666C15.3346 10.4898 15.2644 10.3202 15.1394 10.1952C15.0143 10.0702 14.8448 9.99996 14.668 9.99996ZM13.3346 0.666626H10.668C10.4912 0.666626 10.3216 0.736864 10.1966 0.861888C10.0715 0.986912 10.0013 1.15648 10.0013 1.33329C10.0013 1.5101 10.0715 1.67967 10.1966 1.8047C10.3216 1.92972 10.4912 1.99996 10.668 1.99996H13.3346C13.5114 1.99996 13.681 2.0702 13.806 2.19522C13.9311 2.32025 14.0013 2.48981 14.0013 2.66663V5.33329C14.0013 5.5101 14.0715 5.67967 14.1966 5.8047C14.3216 5.92972 14.4912 5.99996 14.668 5.99996C14.8448 5.99996 15.0143 5.92972 15.1394 5.8047C15.2644 5.67967 15.3346 5.5101 15.3346 5.33329V2.66663C15.3346 2.13619 15.1239 1.62749 14.7488 1.25241C14.3738 0.87734 13.8651 0.666626 13.3346 0.666626V0.666626ZM1.33464 5.99996C1.51145 5.99996 1.68102 5.92972 1.80604 5.8047C1.93106 5.67967 2.0013 5.5101 2.0013 5.33329V2.66663C2.0013 2.48981 2.07154 2.32025 2.19656 2.19522C2.32159 2.0702 2.49116 1.99996 2.66797 1.99996H5.33464C5.51145 1.99996 5.68102 1.92972 5.80604 1.8047C5.93106 1.67967 6.0013 1.5101 6.0013 1.33329C6.0013 1.15648 5.93106 0.986912 5.80604 0.861888C5.68102 0.736864 5.51145 0.666626 5.33464 0.666626H2.66797C2.13754 0.666626 1.62883 0.87734 1.25376 1.25241C0.878682 1.62749 0.667969 2.13619 0.667969 2.66663V5.33329C0.667969 5.5101 0.738207 5.67967 0.863231 5.8047C0.988255 5.92972 1.15782 5.99996 1.33464 5.99996ZM6.66797 3.33329H4.0013C3.82449 3.33329 3.65492 3.40353 3.5299 3.52855C3.40487 3.65358 3.33464 3.82315 3.33464 3.99996V6.66663C3.33464 6.84344 3.40487 7.01301 3.5299 7.13803C3.65492 7.26305 3.82449 7.33329 4.0013 7.33329H6.66797C6.84478 7.33329 7.01435 7.26305 7.13937 7.13803C7.2644 7.01301 7.33464 6.84344 7.33464 6.66663V3.99996C7.33464 3.82315 7.2644 3.65358 7.13937 3.52855C7.01435 3.40353 6.84478 3.33329 6.66797 3.33329ZM6.0013 5.99996H4.66797V4.66663H6.0013V5.99996ZM9.33463 7.33329H12.0013C12.1781 7.33329 12.3477 7.26305 12.4727 7.13803C12.5977 7.01301 12.668 6.84344 12.668 6.66663V3.99996C12.668 3.82315 12.5977 3.65358 12.4727 3.52855C12.3477 3.40353 12.1781 3.33329 12.0013 3.33329H9.33463C9.15782 3.33329 8.98825 3.40353 8.86323 3.52855C8.73821 3.65358 8.66797 3.82315 8.66797 3.99996V6.66663C8.66797 6.84344 8.73821 7.01301 8.86323 7.13803C8.98825 7.26305 9.15782 7.33329 9.33463 7.33329ZM10.0013 4.66663H11.3346V5.99996H10.0013V4.66663ZM6.66797 8.66663H4.0013C3.82449 8.66663 3.65492 8.73686 3.5299 8.86189C3.40487 8.98691 3.33464 9.15648 3.33464 9.33329V12C3.33464 12.1768 3.40487 12.3463 3.5299 12.4714C3.65492 12.5964 3.82449 12.6666 4.0013 12.6666H6.66797C6.84478 12.6666 7.01435 12.5964 7.13937 12.4714C7.2644 12.3463 7.33464 12.1768 7.33464 12V9.33329C7.33464 9.15648 7.2644 8.98691 7.13937 8.86189C7.01435 8.73686 6.84478 8.66663 6.66797 8.66663ZM6.0013 11.3333H4.66797V9.99996H6.0013V11.3333ZM9.33463 10.6666C9.51145 10.6666 9.68102 10.5964 9.80604 10.4714C9.93106 10.3463 10.0013 10.1768 10.0013 9.99996C10.1781 9.99996 10.3477 9.92972 10.4727 9.8047C10.5977 9.67967 10.668 9.5101 10.668 9.33329C10.668 9.15648 10.5977 8.98691 10.4727 8.86189C10.3477 8.73686 10.1781 8.66663 10.0013 8.66663H9.33463C9.15782 8.66663 8.98825 8.73686 8.86323 8.86189C8.73821 8.98691 8.66797 9.15648 8.66797 9.33329V9.99996C8.66797 10.1768 8.73821 10.3463 8.86323 10.4714C8.98825 10.5964 9.15782 10.6666 9.33463 10.6666ZM12.0013 8.66663C11.8245 8.66663 11.6549 8.73686 11.5299 8.86189C11.4049 8.98691 11.3346 9.15648 11.3346 9.33329V11.3333C11.1578 11.3333 10.9883 11.4035 10.8632 11.5286C10.7382 11.6536 10.668 11.8231 10.668 12C10.668 12.1768 10.7382 12.3463 10.8632 12.4714C10.9883 12.5964 11.1578 12.6666 11.3346 12.6666H12.0013C12.1781 12.6666 12.3477 12.5964 12.4727 12.4714C12.5977 12.3463 12.668 12.1768 12.668 12V9.33329C12.668 9.15648 12.5977 8.98691 12.4727 8.86189C12.3477 8.73686 12.1781 8.66663 12.0013 8.66663ZM9.33463 11.3333C9.20278 11.3333 9.07389 11.3724 8.96425 11.4456C8.85462 11.5189 8.76917 11.623 8.71872 11.7448C8.66826 11.8667 8.65505 12.0007 8.68078 12.13C8.7065 12.2593 8.77 12.3781 8.86323 12.4714C8.95647 12.5646 9.07525 12.6281 9.20457 12.6538C9.3339 12.6795 9.46794 12.6663 9.58976 12.6159C9.71157 12.5654 9.81569 12.48 9.88895 12.3703C9.9622 12.2607 10.0013 12.1318 10.0013 12C10.0013 11.8231 9.93106 11.6536 9.80604 11.5286C9.68102 11.4035 9.51145 11.3333 9.33463 11.3333Z" fill="#E6E7E8"/>
</svg>
