<svg width="49" height="48" viewBox="0 0 49 48" fill="none" xmlns="http://www.w3.org/2000/svg">
<path d="M17.1579 31.7757C23.0441 31.7757 27.8158 29.6284 27.8158 26.9796C27.8158 24.3309 23.0441 22.1836 17.1579 22.1836C11.2717 22.1836 6.5 24.3309 6.5 26.9796C6.5 29.6284 11.2717 31.7757 17.1579 31.7757Z" stroke="#B4B8C0" stroke-width="2" stroke-linecap="round" stroke-linejoin="round"/>
<path d="M6.5 26.9805V32.3094C6.5 34.9606 11.2694 37.1055 17.1579 37.1055C23.0464 37.1055 27.8158 34.9606 27.8158 32.3094V26.9805" stroke="#B4B8C0" stroke-width="2" stroke-linecap="round" stroke-linejoin="round"/>
<path d="M12.8945 31.375V36.7039" stroke="#B4B8C0" stroke-width="2" stroke-linecap="round" stroke-linejoin="round"/>
<path d="M27.8158 28.668C32.6785 29.1209 36.3422 31.0527 36.3422 33.3708C36.3422 36.0219 31.5727 38.1668 25.6843 38.1668C23.0731 38.1668 20.6751 37.7405 18.8232 37.0477" stroke="#B4B8C0" stroke-width="2" stroke-linecap="round" stroke-linejoin="round"/>
<path d="M15.0264 37.012V38.7039C15.0264 41.3551 19.7958 43.5 25.6843 43.5C31.5727 43.5 36.3422 41.3551 36.3422 38.7039V33.375" stroke="#B4B8C0" stroke-width="2" stroke-linecap="round" stroke-linejoin="round"/>
<path d="M29.9473 37.7695V43.0985" stroke="#B4B8C0" stroke-width="2" stroke-linecap="round" stroke-linejoin="round"/>
<path d="M21.4209 31.375V43.0987" stroke="#B4B8C0" stroke-width="2" stroke-linecap="round" stroke-linejoin="round"/>
<path d="M36.6418 10.1602L26.4502 20.3518" stroke="#B4B8C0" stroke-width="1.5" stroke-linecap="round" stroke-linejoin="round"/>
<path d="M27.8655 13.5572C28.96 13.5572 29.8472 12.6699 29.8472 11.5755C29.8472 10.481 28.96 9.59375 27.8655 9.59375C26.771 9.59375 25.8838 10.481 25.8838 11.5755C25.8838 12.6699 26.771 13.5572 27.8655 13.5572Z" stroke="#B4B8C0" stroke-width="1.5" stroke-linecap="round" stroke-linejoin="round"/>
<path d="M35.2268 20.9165C36.3213 20.9165 37.2085 20.0293 37.2085 18.9348C37.2085 17.8404 36.3213 16.9531 35.2268 16.9531C34.1324 16.9531 33.2451 17.8404 33.2451 18.9348C33.2451 20.0293 34.1324 20.9165 35.2268 20.9165Z" stroke="#B4B8C0" stroke-width="1.5" stroke-linecap="round" stroke-linejoin="round"/>
<path d="M21.6357 21.8353C20.2892 19.8958 19.5 17.54 19.5 15C19.5 8.37258 24.8726 3 31.5 3C38.1274 3 43.5 8.37258 43.5 15C43.5 21.6274 38.1274 27 31.5 27C30.2265 27 28.9994 26.8016 27.8478 26.4341" stroke="#B4B8C0" stroke-width="2" stroke-linecap="round"/>
</svg>
