<svg width="20" height="20" viewBox="0 0 20 20" fill="none" xmlns="http://www.w3.org/2000/svg">
<path fill-rule="evenodd" clip-rule="evenodd" d="M2.65064 11.6665C1.27254 11.6704 0.382938 13.2403 1.23194 14.4298C2.44779 16.133 4.65258 17.5 8.33343 17.5C14.0377 17.5 18.6165 12.8514 17.9755 7.35925L18.9146 5.48108C19.5658 4.17857 18.4342 2.69685 17.0062 2.98245L15.7655 3.23057C15.4366 3.05702 15.0962 2.92606 14.8053 2.83117C14.2383 2.64627 13.552 2.5 12.9168 2.5C11.7757 2.5 10.7908 2.79276 10.0082 3.37994C9.23443 3.96053 8.79859 4.72354 8.55943 5.42421C8.44918 5.74717 8.37576 6.07112 8.32865 6.38203C7.88593 6.24269 7.4345 6.05522 6.99255 5.82629C5.98989 5.30693 5.17909 4.64852 4.72172 4.07126C3.95436 3.10275 2.32816 3.17456 1.75751 4.43351C0.953227 6.20789 1.17385 8.31122 1.8968 10.0108C2.13912 10.5803 2.45433 11.1434 2.83942 11.6652C2.77349 11.666 2.71043 11.6663 2.65064 11.6665ZM8.33334 15.8333C5.11389 15.8333 3.44917 14.6672 2.58838 13.4614C2.5497 13.4072 2.5887 13.3333 2.65526 13.3332C3.53096 13.3307 5.32846 13.2892 6.51396 12.5954C6.57527 12.5595 6.56178 12.4691 6.49444 12.4465C3.73097 11.5173 2.16011 7.58216 3.27543 5.12158C3.301 5.06517 3.37684 5.05772 3.41531 5.10628C4.68937 6.71432 7.47504 8.28933 9.89868 8.33242C9.95126 8.33333 9.99101 8.28558 9.98301 8.23361C9.88534 7.60044 9.51243 4.16667 12.9167 4.16667C13.7296 4.16667 14.9391 4.56319 15.3846 4.96942C15.4052 4.98819 15.4331 4.99672 15.4604 4.99125L17.3329 4.61675C17.4009 4.60315 17.4548 4.67371 17.4238 4.73573L16.2624 7.05849C16.2543 7.07462 16.2518 7.09312 16.2549 7.11088C17.0683 11.6833 13.3233 15.8333 8.33334 15.8333Z" fill="#777E91"/>
</svg>
