<svg xmlns="http://www.w3.org/2000/svg" width="16" height="16" viewBox="0 0 16 16" fill="none">
    <path fill-rule="evenodd" clip-rule="evenodd" d="M8 4.00008C5.72221 4.00008 3.84905 4.08059 2.54125 4.16157C1.96538 4.19723 1.5115 4.64138 1.46579 5.22773C1.39443 6.14319 1.33333 7.17395 1.33333 8.00008C1.33333 8.82621 1.39443 9.85695 1.46579 10.7724C1.5115 11.3588 1.96538 11.8029 2.54125 11.8386C3.84905 11.9195 5.72221 12.0001 8 12.0001C10.2778 12.0001 12.1509 11.9195 13.4587 11.8386C14.0346 11.8029 14.4885 11.3588 14.5342 10.7724C14.6056 9.85695 14.6667 8.82621 14.6667 8.00008C14.6667 7.17395 14.6056 6.14319 14.5342 5.22773C14.4885 4.64138 14.0346 4.19723 13.4587 4.16157C12.1509 4.08059 10.2778 4.00008 8 4.00008ZM2.45884 2.83079C1.214 2.90787 0.233422 3.88066 0.136491 5.12411C0.0643435 6.04964 0 7.12135 0 8.00008C0 8.87881 0.0643435 9.95055 0.136491 10.8761C0.233422 12.1195 1.214 13.0923 2.45884 13.1693C3.79028 13.2518 5.69115 13.3334 8 13.3334C10.3089 13.3334 12.2097 13.2518 13.5411 13.1693C14.786 13.0923 15.7666 12.1195 15.8635 10.8761C15.9357 9.95055 16 8.87881 16 8.00008C16 7.12135 15.9357 6.04964 15.8635 5.12411C15.7666 3.88066 14.786 2.90787 13.5411 2.83079C12.2097 2.74834 10.3089 2.66675 8 2.66675C5.69115 2.66675 3.79028 2.74834 2.45884 2.83079Z" fill="#777E91"/>
    <path d="M7.70321 6.02446L9.83475 7.44548C10.2305 7.70935 10.2305 8.29095 9.83475 8.55488L7.70321 9.97582C7.26021 10.2712 6.66675 9.95362 6.66675 9.42115V6.57916C6.66675 6.0467 7.26021 5.72911 7.70321 6.02446Z" fill="#777E91"/>
</svg>